ply
format ascii 1.0
element vertex 256
property float x
property float y
property float z
end_header
0.143764 -0.165320 -0.197576
0.119787 -0.162529 -0.199856
0.021340 -0.189804 -0.196717
0.087187 -0.180401 -0.199555
-0.089180 -0.221432 -0.183419
-0.084654 -0.217712 -0.190675
0.052204 -0.190046 -0.191659
0.088797 -0.176670 -0.202038
0.146361 -0.164932 -0.198398
0.082265 -0.180913 -0.199574
-0.024850 -0.206374 -0.186318
-0.082140 -0.222737 -0.182985
0.080601 -0.177757 -0.190720
0.058474 -0.183211 -0.188561
0.153009 -0.163676 -0.200295
-0.068844 -0.214488 -0.192031
0.078661 -0.183334 -0.194984
0.114347 -0.173936 -0.200750
-0.046421 -0.207254 -0.192881
0.113116 -0.164297 -0.200241
-0.083926 -0.221079 -0.192710
0.041502 -0.184234 -0.196379
0.028292 -0.186616 -0.193929
-0.039630 -0.208468 -0.186014
0.134402 -0.168336 -0.202724
0.123877 -0.171378 -0.202050
0.121031 -0.167141 -0.195251
-0.030355 -0.203210 -0.193838
-0.075225 -0.220680 -0.192636
-0.056055 -0.210876 -0.193110
0.086895 -0.175059 -0.192042
0.017874 -0.198182 -0.197121
-0.049454 -0.209322 -0.193987
-0.048443 -0.214656 -0.185634
-0.060580 -0.211321 -0.191829
-0.077637 -0.217645 -0.183323
-0.042891 -0.211904 -0.185794
-0.043343 -0.215201 -0.187774
0.027427 -0.196632 -0.191192
-0.088109 -0.217752 -0.188504
0.047781 -0.183144 -0.197014
0.054196 -0.182098 -0.188915
0.095434 -0.178776 -0.195735
0.080004 -0.181920 -0.192433
0.150730 -0.164388 -0.200336
0.073889 -0.184529 -0.194730
0.044351 -0.192185 -0.191534
0.061833 -0.181823 -0.188856
-0.045719 -0.215058 -0.186667
-0.080245 -0.225767 -0.187104
0.144522 -0.161296 -0.205865
-0.068616 -0.220433 -0.183935
0.062826 -0.177371 -0.192488
-0.024801 -0.203329 -0.195605
-0.029732 -0.212296 -0.192342
0.109818 -0.175271 -0.198150
-0.036315 -0.204872 -0.188047
-0.017523 -0.199048 -0.193004
0.151006 -0.155891 -0.198178
0.098617 -0.170058 -0.201552
0.051877 -0.181141 -0.190193
-0.064561 -0.213390 -0.184338
-0.002615 -0.196973 -0.196492
0.057509 -0.178632 -0.192944
0.050273 -0.183576 -0.188634
0.114118 -0.164065 -0.200542
-0.019155 -0.200723 -0.188247
0.009039 -0.191916 -0.194002
-0.095660 -0.221986 -0.185124
0.014546 -0.194454 -0.198268
0.077722 -0.181992 -0.191465
0.036026 -0.191575 -0.197464
-0.073715 -0.216502 -0.192312
0.104324 -0.166417 -0.197954
0.099947 -0.167890 -0.199335
0.091900 -0.179890 -0.196103
0.142385 -0.157101 -0.197965
0.102856 -0.170567 -0.192875
0.044757 -0.184810 -0.188649
-0.095447 -0.222683 -0.184633
-0.061634 -0.220791 -0.188918
0.063603 -0.187225 -0.194215
-0.070162 -0.212880 -0.188909
0.043621 -0.186519 -0.188171
0.151778 -0.162761 -0.205461
0.062452 -0.180489 -0.198435
0.040915 -0.183095 -0.193541
0.050913 -0.188520 -0.189154
0.090771 -0.170159 -0.198528
0.015851 -0.195992 -0.198340
-0.020778 -0.207241 -0.187036
-0.032703 -0.206791 -0.186137
-0.068259 -0.212415 -0.189328
-0.000468 -0.201813 -0.197038
0.151297 -0.159905 -0.196924
0.076220 -0.177553 -0.190149
0.036290 -0.194240 -0.194735
0.128089 -0.169280 -0.197253
0.008255 -0.201568 -0.190379
0.073830 -0.175400 -0.191629
0.000340 -0.194630 -0.194787
0.077256 -0.173424 -0.195335
0.005771 -0.200075 -0.197387
-0.032546 -0.212964 -0.189390
-0.052804 -0.210147 -0.193568
0.013260 -0.195409 -0.188374
-0.051425 -0.212900 -0.184797
-0.051108 -0.216924 -0.192928
-0.028406 -0.211766 -0.189324
0.018972 -0.190416 -0.196744
-0.094426 -0.227424 -0.184815
0.136472 -0.163905 -0.205337
-0.090248 -0.218379 -0.188757
0.005875 -0.201602 -0.196277
0.014872 -0.191364 -0.190413
-0.044333 -0.206235 -0.189492
0.132072 -0.167314 -0.204701
-0.023470 -0.204228 -0.186572
-0.020372 -0.205671 -0.196419
0.035273 -0.185416 -0.195630
0.009435 -0.191763 -0.193672
-0.029777 -0.202972 -0.193751
0.136266 -0.158254 -0.201912
-0.037134 -0.214315 -0.189527
0.053186 -0.180076 -0.191477
0.060820 -0.180979 -0.189094
-0.072161 -0.223613 -0.188217
-0.012882 -0.205662 -0.187762
0.066144 -0.176611 -0.192434
0.147515 -0.157459 -0.205683
0.070969 -0.175037 -0.194111
-0.009900 -0.205224 -0.188188
0.005304 -0.197146 -0.188021
0.098157 -0.168465 -0.199490
-0.085458 -0.222995 -0.192749
-0.018887 -0.206048 -0.196312
-0.005622 -0.196280 -0.190205
0.132282 -0.161734 -0.196220
-0.028304 -0.208922 -0.195642
-0.052737 -0.209529 -0.186493
0.086127 -0.171246 -0.197166
0.016585 -0.190049 -0.195040
-0.089299 -0.224563 -0.193178
0.138253 -0.157432 -0.200168
-0.091006 -0.228886 -0.189286
0.035111 -0.191324 -0.188148
0.027268 -0.195334 -0.189458
0.087586 -0.172826 -0.201032
0.123807 -0.171071 -0.197834
0.024338 -0.194989 -0.188841
-0.007985 -0.200194 -0.197077
0.068563 -0.183366 -0.198512
0.140634 -0.162996 -0.205133
0.017237 -0.189669 -0.193987
0.142112 -0.165489 -0.197059
-0.025775 -0.205870 -0.186279
-0.082940 -0.221294 -0.182763
0.022696 -0.195923 -0.197700
-0.060947 -0.219091 -0.192196
-0.044618 -0.211053 -0.195590
0.025137 -0.197721 -0.193751
-0.011932 -0.203217 -0.187068
-0.040276 -0.206635 -0.194410
-0.022438 -0.201371 -0.188352
0.008679 -0.198995 -0.197661
0.127532 -0.170691 -0.201072
0.076171 -0.181679 -0.190689
0.004476 -0.203318 -0.193182
0.132701 -0.160309 -0.203843
0.129230 -0.168450 -0.196842
0.056575 -0.178900 -0.192724
0.143295 -0.156482 -0.199030
0.087083 -0.179596 -0.193085
-0.038153 -0.211218 -0.186080
0.020507 -0.193093 -0.188558
-0.082753 -0.220183 -0.182878
0.097732 -0.176465 -0.193540
-0.056933 -0.211912 -0.193588
0.034534 -0.185063 -0.194502
0.013603 -0.193518 -0.197837
0.078050 -0.175739 -0.191091
0.079442 -0.179560 -0.190702
0.088773 -0.171595 -0.194230
0.015755 -0.199793 -0.195595
0.118528 -0.171609 -0.203524
-0.075081 -0.216771 -0.183485
0.144315 -0.165321 -0.203330
-0.043448 -0.215846 -0.192301
0.101968 -0.176769 -0.195377
-0.086720 -0.226999 -0.190507
0.042343 -0.183931 -0.189788
0.076241 -0.179274 -0.200007
0.133858 -0.168436 -0.198297
0.086956 -0.174790 -0.201876
0.144529 -0.164879 -0.203894
-0.086859 -0.223168 -0.192849
0.096406 -0.177519 -0.194112
0.067459 -0.183289 -0.198592
0.022493 -0.193621 -0.198359
0.130165 -0.165738 -0.195802
0.029455 -0.193537 -0.188631
0.087941 -0.170864 -0.197999
0.063786 -0.178946 -0.197885
0.134243 -0.159004 -0.198511
0.045552 -0.181845 -0.193700
0.041216 -0.185675 -0.197404
0.080632 -0.182117 -0.198248
0.044309 -0.191138 -0.189746
-0.058312 -0.219828 -0.187570
-0.097091 -0.220692 -0.190958
0.002346 -0.195395 -0.189046
0.092049 -0.175354 -0.192336
0.153975 -0.162852 -0.199135
0.018811 -0.192611 -0.198191
-0.064561 -0.211849 -0.186160
0.152680 -0.155684 -0.197916
0.079605 -0.183088 -0.195051
0.073797 -0.182020 -0.198838
-0.001573 -0.202758 -0.188455
0.038277 -0.184336 -0.195245
-0.046900 -0.211585 -0.185353
0.055913 -0.184641 -0.188408
-0.014058 -0.203573 -0.196828
0.055898 -0.186075 -0.197934
-0.012358 -0.204118 -0.196754
0.037699 -0.192758 -0.189411
-0.045474 -0.216536 -0.191638
-0.026337 -0.203913 -0.195611
-0.055074 -0.219166 -0.189265
0.130930 -0.169254 -0.198406
0.093673 -0.177960 -0.193699
0.122317 -0.172097 -0.199827
0.082836 -0.173446 -0.192889
0.004861 -0.201376 -0.196665
0.095290 -0.172055 -0.192791
-0.058567 -0.219666 -0.186996
-0.004695 -0.205362 -0.194282
-0.067916 -0.212365 -0.186753
0.110336 -0.174135 -0.195682
-0.079407 -0.225568 -0.188002
0.014771 -0.192026 -0.197154
-0.019287 -0.203843 -0.196523
-0.092245 -0.227430 -0.184988
-0.019207 -0.208589 -0.194541
-0.063907 -0.220790 -0.185798
0.058679 -0.185648 -0.197991
-0.036905 -0.208711 -0.195780
-0.035195 -0.203976 -0.189175
-0.064049 -0.216532 -0.183307
0.156173 -0.160327 -0.203509
-0.015366 -0.208621 -0.191989
0.069471 -0.185668 -0.194642
0.023233 -0.189815 -0.189515
-0.080631 -0.225607 -0.189409
0.088996 -0.172069 -0.200803
0.095908 -0.173522 -0.192439
