ply
format ascii 1.0
element vertex 256
property float x
property float y
property float z
end_header
-0.161193 0.191322 -0.223608
0.056840 0.182955 -0.236415
-0.008635 0.182566 -0.230851
-0.040899 0.181567 -0.221039
-0.026815 0.184484 -0.229882
-0.040396 0.183088 -0.228688
-0.059721 0.191119 -0.223699
-0.091315 0.192489 -0.221748
-0.101429 0.189464 -0.216569
-0.130339 0.187274 -0.223091
0.117634 0.180889 -0.235743
0.010199 0.179284 -0.230818
-0.069045 0.191502 -0.222147
0.015462 0.182651 -0.223557
0.014283 0.178059 -0.228298
-0.046465 0.188202 -0.219681
-0.113709 0.189066 -0.214718
-0.092901 0.187263 -0.226968
-0.085001 0.191984 -0.224028
-0.024341 0.187638 -0.221054
-0.064389 0.181557 -0.224338
0.138931 0.182319 -0.231532
0.042630 0.186403 -0.228486
-0.076174 0.191676 -0.221148
-0.090081 0.187521 -0.217168
0.018184 0.179769 -0.225126
0.044397 0.186606 -0.231757
0.033099 0.178414 -0.227407
0.026109 0.183012 -0.225274
-0.028751 0.185291 -0.219869
0.057270 0.177588 -0.235202
0.047189 0.181547 -0.225640
-0.115694 0.184835 -0.216134
0.150875 0.176463 -0.227740
0.148053 0.173912 -0.235894
0.091222 0.177496 -0.237816
0.091069 0.181093 -0.228573
-0.160828 0.185733 -0.220184
-0.050280 0.180875 -0.222960
-0.029104 0.182626 -0.220363
-0.101753 0.190087 -0.225837
0.017335 0.185273 -0.224408
-0.095861 0.187120 -0.226756
-0.046144 0.187815 -0.219511
0.073944 0.184902 -0.230664
0.151775 0.172622 -0.235021
-0.016240 0.183061 -0.230301
-0.013655 0.189009 -0.224251
-0.107150 0.192791 -0.222427
-0.007541 0.187808 -0.229270
0.134810 0.174921 -0.226224
-0.100681 0.191144 -0.225262
-0.057898 0.190793 -0.221734
-0.115007 0.186989 -0.224298
-0.104407 0.192491 -0.218605
0.059389 0.182513 -0.227176
-0.081803 0.184992 -0.227047
-0.159279 0.194444 -0.221613
-0.127273 0.193607 -0.220458
-0.096372 0.184331 -0.225442
-0.120611 0.189937 -0.223929
0.097941 0.184431 -0.232707
0.097821 0.184352 -0.234430
-0.138152 0.192885 -0.222214
0.029854 0.178591 -0.227384
-0.093851 0.189988 -0.226339
-0.138453 0.187331 -0.223023
-0.137073 0.192416 -0.214575
-0.101567 0.185159 -0.217221
-0.120788 0.191317 -0.214758
0.077762 0.176560 -0.236528
0.143720 0.174636 -0.226852
-0.123183 0.190879 -0.214330
0.128346 0.181770 -0.227558
-0.032656 0.186391 -0.219821
-0.143648 0.191919 -0.214132
-0.056195 0.189657 -0.220047
0.011471 0.187217 -0.230804
-0.115701 0.187957 -0.214516
-0.069188 0.182228 -0.220234
-0.107916 0.189479 -0.215591
0.145714 0.179727 -0.226976
-0.056600 0.181083 -0.223114
0.036329 0.177187 -0.230027
-0.009134 0.181143 -0.221974
-0.146223 0.193092 -0.222381
-0.013070 0.188552 -0.228121
-0.054700 0.189242 -0.219806
-0.096645 0.185060 -0.225974
-0.047604 0.180947 -0.222314
-0.062804 0.191147 -0.221834
0.118556 0.173800 -0.232659
-0.155447 0.194297 -0.221561
0.152675 0.177867 -0.237865
-0.070065 0.185616 -0.227522
0.092229 0.184523 -0.231958
-0.015757 0.185995 -0.220801
0.139944 0.182175 -0.228089
0.102822 0.178745 -0.237725
-0.099109 0.188279 -0.216675
0.121773 0.182605 -0.233683
-0.074851 0.182715 -0.219714
-0.027346 0.180047 -0.226403
-0.037096 0.189116 -0.227463
-0.065974 0.190955 -0.220813
-0.140263 0.185130 -0.216382
-0.130640 0.193150 -0.221473
-0.072789 0.185771 -0.217628
-0.059535 0.187858 -0.227944
0.097990 0.183829 -0.230728
-0.011946 0.181841 -0.230229
0.100689 0.180738 -0.237796
-0.127545 0.185636 -0.214902
0.092391 0.181125 -0.228600
0.034009 0.183461 -0.235363
0.047913 0.183840 -0.226249
-0.108792 0.184493 -0.223651
0.011934 0.178530 -0.229885
-0.005691 0.183173 -0.231221
-0.005748 0.178902 -0.226104
-0.141363 0.186706 -0.214581
-0.030491 0.182117 -0.220641
0.107124 0.183246 -0.229673
-0.116660 0.185741 -0.215304
0.116901 0.176704 -0.235953
0.115204 0.177028 -0.236240
-0.154618 0.185347 -0.219657
-0.063193 0.190275 -0.226045
-0.151584 0.190141 -0.213657
-0.012210 0.187910 -0.222499
-0.020260 0.183121 -0.220432
-0.124680 0.193852 -0.218217
0.135510 0.182395 -0.228352
0.109426 0.173971 -0.232165
0.142234 0.175856 -0.225867
-0.066100 0.187791 -0.227694
-0.081018 0.188367 -0.227391
-0.060139 0.182286 -0.226312
-0.001134 0.181003 -0.230876
0.149876 0.179917 -0.236816
0.100671 0.180375 -0.237864
-0.028025 0.183709 -0.219997
-0.049646 0.183297 -0.219444
-0.069449 0.188288 -0.227344
0.022129 0.187130 -0.231986
-0.059843 0.186450 -0.218282
0.066600 0.182802 -0.237234
-0.012731 0.183200 -0.220845
0.142245 0.181276 -0.233974
-0.158068 0.195207 -0.219986
-0.150742 0.185160 -0.217784
-0.092829 0.184654 -0.226016
-0.078235 0.191915 -0.222966
0.056210 0.177396 -0.234777
-0.133159 0.188701 -0.223449
-0.128551 0.187746 -0.213680
-0.149057 0.187423 -0.222922
0.104514 0.176164 -0.236550
-0.027031 0.182838 -0.229474
-0.011618 0.189117 -0.225907
-0.067974 0.189694 -0.218935
0.041179 0.182106 -0.235449
-0.074215 0.185792 -0.217643
0.081844 0.176674 -0.237011
0.079918 0.175322 -0.233783
0.095412 0.178799 -0.238265
0.099764 0.181209 -0.228421
0.152690 0.176258 -0.233095
0.092740 0.182899 -0.237208
-0.102878 0.191991 -0.218151
-0.068212 0.182073 -0.220568
-0.164247 0.193247 -0.220079
-0.092078 0.189451 -0.217455
-0.040259 0.181342 -0.221329
-0.125886 0.185931 -0.214748
-0.156582 0.185994 -0.221210
0.110448 0.182082 -0.228227
-0.128216 0.188807 -0.213526
-0.022800 0.184864 -0.230080
0.056063 0.182455 -0.226762
0.118390 0.174071 -0.233317
-0.091210 0.189155 -0.217400
0.140919 0.179819 -0.225763
0.077885 0.181204 -0.228448
-0.005953 0.187745 -0.223131
-0.125757 0.186180 -0.222816
-0.017134 0.184716 -0.230345
0.063714 0.176539 -0.230245
0.060687 0.177342 -0.228906
0.003817 0.188165 -0.228699
0.057447 0.179918 -0.236655
-0.013256 0.180857 -0.221998
-0.067489 0.182081 -0.225100
0.146269 0.177206 -0.236785
-0.003179 0.183485 -0.221521
0.126053 0.179498 -0.226137
0.117839 0.173657 -0.231801
0.083548 0.175153 -0.233226
-0.157407 0.185873 -0.220860
0.058034 0.178157 -0.235810
-0.100997 0.186490 -0.216619
0.052115 0.186343 -0.230301
-0.078367 0.187991 -0.217675
-0.102585 0.185862 -0.225738
0.064276 0.176044 -0.231802
0.037299 0.183470 -0.225708
0.074014 0.181499 -0.237997
0.016967 0.187874 -0.228245
-0.026242 0.189655 -0.225662
-0.099429 0.187422 -0.216652
0.055249 0.186112 -0.232946
0.046982 0.186569 -0.231386
-0.026758 0.188388 -0.228343
-0.090633 0.182840 -0.223869
-0.088858 0.191143 -0.225542
0.065654 0.181391 -0.227671
0.065411 0.184601 -0.229259
-0.152923 0.189224 -0.213780
0.152661 0.175568 -0.233258
-0.118097 0.191248 -0.223521
-0.118744 0.190202 -0.214469
-0.073937 0.185439 -0.227321
0.100258 0.180357 -0.228121
0.137101 0.181065 -0.233732
-0.075572 0.187838 -0.217651
0.130119 0.181546 -0.234507
0.036030 0.177191 -0.230917
-0.018556 0.185896 -0.220554
0.029727 0.186957 -0.232561
-0.078751 0.190577 -0.226016
-0.140397 0.190981 -0.213781
0.146072 0.181502 -0.234405
-0.050756 0.190286 -0.221615
0.135531 0.176330 -0.225391
0.091879 0.176300 -0.236989
0.041912 0.185198 -0.234178
-0.156952 0.186636 -0.222028
-0.164428 0.189813 -0.215495
0.040409 0.181291 -0.235392
-0.004871 0.184470 -0.221426
-0.114291 0.186258 -0.215133
0.043143 0.182842 -0.235327
-0.156571 0.189385 -0.223562
-0.108320 0.183574 -0.222170
-0.085353 0.192016 -0.223966
-0.112988 0.193061 -0.217965
-0.027950 0.189823 -0.224835
-0.154202 0.185709 -0.220782
-0.071060 0.183869 -0.226710
-0.118359 0.184219 -0.216993
-0.015049 0.186577 -0.229961
0.020098 0.184603 -0.224622
0.127231 0.181067 -0.234992
-0.147458 0.191771 -0.223217
-0.000528 0.183898 -0.221726
0.127511 0.183162 -0.230985
