ply
format ascii 1.0
element vertex 256
property float x
property float y
property float z
end_header
0.184455 0.008619 -0.312652
0.134747 -0.115682 -0.312692
0.154674 -0.091267 -0.317110
0.206047 0.121706 -0.306281
0.195191 0.034846 -0.305261
0.149505 -0.068952 -0.315335
0.172509 -0.044032 -0.311606
0.138257 -0.105852 -0.317457
0.122325 -0.205488 -0.322242
0.116119 -0.190020 -0.321611
0.187348 0.010166 -0.305155
0.195437 0.147869 -0.302169
0.202490 0.131065 -0.306715
0.195863 0.056923 -0.310191
0.195003 0.135116 -0.300455
0.209790 0.143030 -0.300840
0.181086 0.044821 -0.306015
0.204178 0.170169 -0.304196
0.123669 -0.153474 -0.316240
0.193437 0.109625 -0.304970
0.193089 0.088656 -0.300088
0.206378 0.126448 -0.297941
0.183583 0.006953 -0.312840
0.195132 0.188513 -0.295109
0.156805 -0.047393 -0.308168
0.181949 -0.007222 -0.312486
0.189743 0.211678 -0.296565
0.198287 0.112024 -0.298075
0.143875 -0.128358 -0.313497
0.170923 -0.026395 -0.315125
0.187487 0.041870 -0.311449
0.184224 0.050219 -0.309265
0.192191 0.029407 -0.310453
0.195254 0.143126 -0.301969
0.204087 0.198025 -0.298799
0.151208 -0.107806 -0.315198
0.204665 0.167491 -0.304256
0.162067 -0.067176 -0.316146
0.196751 0.048710 -0.302836
0.201303 0.206094 -0.294774
0.167599 -0.059158 -0.312030
0.153877 -0.098731 -0.312433
0.146819 -0.100553 -0.319138
0.137483 -0.150625 -0.318091
0.121221 -0.199640 -0.324015
0.140431 -0.095844 -0.315940
0.154496 -0.086628 -0.317744
0.150277 -0.094749 -0.309140
0.173496 0.014145 -0.309502
0.190246 0.210129 -0.299109
0.128532 -0.144975 -0.312619
0.202632 0.177665 -0.304051
0.172302 -0.004044 -0.313380
0.127734 -0.185342 -0.317580
0.197523 0.222416 -0.294618
0.156484 -0.084013 -0.317053
0.116484 -0.210776 -0.315162
0.207803 0.102770 -0.303567
0.113602 -0.200074 -0.320712
0.122680 -0.204679 -0.317732
0.201907 0.191791 -0.294006
0.180085 -0.020273 -0.309271
0.153910 -0.077028 -0.317915
0.196575 0.219544 -0.301022
0.195439 0.230688 -0.296104
0.199851 0.190643 -0.303477
0.174909 0.017991 -0.305923
0.130912 -0.148031 -0.311831
0.175653 -0.000146 -0.313662
0.134163 -0.147589 -0.321378
0.174474 0.013300 -0.305271
0.197629 0.208523 -0.302369
0.189709 0.045345 -0.311354
0.136281 -0.130994 -0.310868
0.202570 0.185025 -0.303382
0.147122 -0.093592 -0.308922
0.162132 -0.068845 -0.315896
0.192444 0.090666 -0.307436
0.197988 0.092074 -0.308808
0.194321 0.100211 -0.299670
0.167824 -0.008796 -0.311895
0.205434 0.191038 -0.297976
0.205504 0.190235 -0.297604
0.164110 -0.063691 -0.308969
0.198848 0.213361 -0.300911
0.166869 -0.040477 -0.306074
0.178115 -0.008109 -0.304510
0.189602 0.215548 -0.299775
0.197471 0.167362 -0.303670
0.146936 -0.117893 -0.312513
0.161492 -0.052602 -0.306616
0.198514 0.050931 -0.308184
0.202465 0.066960 -0.305973
0.154000 -0.050239 -0.311061
0.164130 -0.057405 -0.316166
0.147704 -0.085742 -0.308850
0.116651 -0.183727 -0.318186
0.165033 -0.015063 -0.311005
0.188197 0.224389 -0.300104
0.197004 0.154734 -0.303762
0.193054 0.059686 -0.300592
0.191779 0.035508 -0.302610
0.170982 -0.026513 -0.305301
0.205225 0.123612 -0.297683
0.146751 -0.121095 -0.314082
0.199395 0.128542 -0.306548
0.195010 0.166841 -0.300356
0.175461 0.021088 -0.306153
0.168289 -0.056494 -0.312790
0.139991 -0.128230 -0.311029
0.160519 -0.078149 -0.314954
0.204296 0.165277 -0.304538
0.139337 -0.097903 -0.315174
0.204490 0.171207 -0.295108
0.209515 0.147762 -0.299582
0.183753 0.004096 -0.312641
0.122744 -0.203942 -0.317458
0.195803 0.150372 -0.302606
0.186756 0.233408 -0.292050
0.194332 0.052325 -0.310575
0.209447 0.152282 -0.301379
0.183410 0.048831 -0.303439
0.168061 -0.042675 -0.315604
0.126527 -0.190227 -0.319870
0.155971 -0.066739 -0.307457
0.122167 -0.163773 -0.314822
0.144166 -0.129578 -0.315287
0.196361 0.167044 -0.302844
0.128005 -0.165893 -0.322598
0.197896 0.081898 -0.309310
0.188903 0.041332 -0.311559
0.179989 -0.013551 -0.306111
0.160117 -0.037112 -0.314104
0.207944 0.173433 -0.298959
0.122395 -0.158263 -0.316974
0.199646 0.110553 -0.297930
0.202298 0.099965 -0.298740
0.140151 -0.101406 -0.317680
0.197174 0.041126 -0.306375
0.161308 -0.027027 -0.311320
0.168725 -0.025753 -0.315094
0.118711 -0.199836 -0.324530
0.147951 -0.115882 -0.317054
0.194259 0.029234 -0.306928
0.114913 -0.210920 -0.315555
0.120524 -0.196401 -0.314454
0.201616 0.088728 -0.308454
0.180292 -0.019943 -0.309716
0.195756 0.042429 -0.303503
0.181923 0.018515 -0.312732
0.149842 -0.066986 -0.315006
0.196477 0.179275 -0.295393
0.163835 -0.050900 -0.316385
0.129958 -0.177562 -0.318220
0.174831 0.001113 -0.313346
0.128395 -0.136342 -0.314626
0.207307 0.144910 -0.297242
0.187359 0.031183 -0.312028
0.191483 0.060562 -0.310431
0.139840 -0.105309 -0.310587
0.147432 -0.073771 -0.315011
0.194079 0.183858 -0.297380
0.169854 -0.007657 -0.312973
0.127224 -0.158541 -0.322181
0.162749 -0.031491 -0.306722
0.129292 -0.142418 -0.312446
0.145379 -0.119397 -0.311654
0.119611 -0.192678 -0.314253
0.151988 -0.068873 -0.316782
0.168394 -0.054243 -0.313808
0.167933 -0.005703 -0.310683
0.152977 -0.058181 -0.314822
0.139457 -0.142777 -0.318443
0.143852 -0.128689 -0.317703
0.117238 -0.181531 -0.319921
0.205868 0.184284 -0.296563
0.184395 0.046425 -0.302545
0.206609 0.144798 -0.305067
0.192382 0.025018 -0.305323
0.113165 -0.201857 -0.319471
0.202224 0.198774 -0.301632
0.197748 0.069455 -0.300413
0.189887 0.210521 -0.297841
0.184499 0.060370 -0.305600
0.123638 -0.153709 -0.318116
0.193561 0.115501 -0.301402
0.187155 0.227378 -0.293562
0.120560 -0.172274 -0.314858
0.200316 0.141882 -0.296395
0.173169 0.005833 -0.305075
0.201745 0.191452 -0.293954
0.121170 -0.169754 -0.321218
0.204165 0.195758 -0.296390
0.119150 -0.193074 -0.314322
0.196020 0.168358 -0.302514
0.128011 -0.136840 -0.316933
0.179596 -0.004399 -0.313625
0.142919 -0.088771 -0.316047
0.195005 0.187011 -0.295485
0.188956 0.011178 -0.309818
0.169800 -0.045465 -0.307750
0.188291 0.060580 -0.301434
0.181256 0.041718 -0.308890
0.136230 -0.133324 -0.310983
0.160570 -0.029002 -0.310826
0.155535 -0.053526 -0.315349
0.192022 0.086356 -0.307806
0.186177 0.226901 -0.296835
0.174479 -0.012309 -0.304475
0.207845 0.161701 -0.302844
0.153130 -0.059434 -0.315319
0.141695 -0.090765 -0.315221
0.205099 0.128473 -0.297324
0.205732 0.086724 -0.303315
0.126033 -0.165921 -0.322647
0.127581 -0.169363 -0.313056
0.115592 -0.189258 -0.319918
0.149838 -0.108781 -0.311965
0.151866 -0.100337 -0.317439
0.195060 0.101620 -0.299325
0.165560 -0.063888 -0.310594
0.204270 0.088791 -0.307140
0.124400 -0.199439 -0.319496
0.191211 0.205673 -0.299629
0.189871 0.213238 -0.295251
0.156213 -0.087620 -0.310307
0.202756 0.069045 -0.306280
0.199926 0.152114 -0.305278
0.114229 -0.195933 -0.319100
0.203712 0.191798 -0.295076
0.150574 -0.097860 -0.309649
0.201794 0.107799 -0.307877
0.124440 -0.156447 -0.320516
0.204538 0.171797 -0.303950
0.165976 -0.016549 -0.306772
0.204359 0.194232 -0.296293
0.193527 0.111588 -0.304671
0.195034 0.129489 -0.300074
0.185135 0.049931 -0.302387
0.201868 0.186597 -0.303457
0.199171 0.114806 -0.307471
0.194160 0.197827 -0.301947
0.201217 0.113217 -0.297714
0.142412 -0.128868 -0.312196
0.152313 -0.072695 -0.317407
0.201852 0.192298 -0.293988
0.158989 -0.084616 -0.312841
0.178952 0.022098 -0.303564
0.186170 0.233742 -0.295577
0.199409 0.215965 -0.295089
0.173235 -0.002179 -0.304486
0.180042 0.034070 -0.309899
0.175333 -0.035543 -0.310845
0.197110 0.190813 -0.303209
0.195297 0.079929 -0.299595
0.129096 -0.160190 -0.322339
