ply
format ascii 1.0
element vertex 256
property float x
property float y
property float z
end_header
-0.211969 0.059811 -0.104689
-0.242116 -0.092172 -0.226292
-0.251180 -0.173049 -0.292340
-0.208960 0.073506 -0.090382
-0.220440 0.056485 -0.100620
-0.241084 -0.127561 -0.244084
-0.237026 -0.057664 -0.190946
-0.208795 0.129807 -0.041202
-0.255978 -0.215058 -0.325656
-0.226417 0.010304 -0.136128
-0.205164 0.154178 -0.031885
-0.232292 -0.077599 -0.214049
-0.225755 -0.021945 -0.171632
-0.254590 -0.196465 -0.310913
-0.195250 0.168729 -0.016376
-0.206247 0.099984 -0.073103
-0.233279 -0.091793 -0.219387
-0.242022 -0.094027 -0.228297
-0.240788 -0.144226 -0.262704
-0.227692 -0.049225 -0.183941
-0.231360 -0.014622 -0.163708
-0.248504 -0.168229 -0.288341
-0.242275 -0.096230 -0.230103
-0.234000 -0.028980 -0.172512
-0.238168 -0.121244 -0.247769
-0.225203 -0.024960 -0.163344
-0.223925 0.019325 -0.127929
-0.230035 -0.038637 -0.173096
-0.236043 -0.045884 -0.188189
-0.250650 -0.211172 -0.316426
-0.189799 0.207084 0.013532
-0.245714 -0.109020 -0.236001
-0.206179 0.148120 -0.026747
-0.224019 0.033028 -0.119481
-0.232387 -0.066967 -0.195953
-0.228397 0.002845 -0.150643
-0.235219 -0.105854 -0.231634
-0.208351 0.145723 -0.034700
-0.224144 -0.009647 -0.161998
-0.223176 0.035843 -0.125069
-0.245610 -0.117163 -0.246363
-0.241305 -0.140241 -0.255684
-0.225525 -0.008408 -0.161694
-0.237498 -0.116645 -0.237509
-0.227160 -0.041654 -0.185765
-0.228332 -0.051367 -0.185142
-0.231959 -0.082553 -0.211963
-0.250032 -0.207334 -0.312834
-0.256797 -0.201693 -0.303575
-0.214141 0.094287 -0.069534
-0.232013 -0.065852 -0.195155
-0.258731 -0.206766 -0.317421
-0.252987 -0.185740 -0.290054
-0.256442 -0.205416 -0.305944
-0.252992 -0.159516 -0.277115
-0.208360 0.104972 -0.059226
-0.230802 -0.012503 -0.155803
-0.248152 -0.194440 -0.302678
-0.205223 0.102941 -0.069641
-0.198295 0.170323 -0.019566
-0.225212 -0.037429 -0.178527
-0.216110 0.068070 -0.088836
-0.229338 -0.022117 -0.172590
-0.215190 0.089131 -0.083046
-0.250418 -0.178278 -0.296435
-0.196391 0.164187 -0.021375
-0.233188 -0.032973 -0.179741
-0.236810 -0.055970 -0.189659
-0.235249 -0.076415 -0.203076
-0.195937 0.162167 -0.019570
-0.229803 -0.063291 -0.195018
-0.207426 0.139572 -0.043364
-0.217962 0.080327 -0.086194
-0.193014 0.205050 0.018222
-0.231293 -0.032424 -0.168843
-0.247360 -0.180709 -0.295790
-0.244514 -0.142451 -0.255473
-0.190223 0.201796 0.010992
-0.219130 0.069735 -0.096461
-0.261873 -0.220326 -0.322675
-0.220472 0.010751 -0.134598
-0.200405 0.137179 -0.042905
-0.244942 -0.137427 -0.251463
-0.209090 0.135893 -0.038114
-0.260597 -0.216371 -0.324338
-0.247430 -0.168715 -0.288166
-0.219595 0.000944 -0.146863
-0.211293 0.104685 -0.071808
-0.212092 0.115026 -0.061492
-0.234733 -0.091415 -0.225603
-0.221398 0.003903 -0.150666
-0.259909 -0.206628 -0.312204
-0.250532 -0.147944 -0.270141
-0.197243 0.193491 0.010800
-0.224986 0.022976 -0.135385
-0.247870 -0.168109 -0.275897
-0.235351 -0.068363 -0.196829
-0.247311 -0.179836 -0.295236
-0.239503 -0.074545 -0.212361
-0.195138 0.176788 -0.012417
-0.230394 -0.017320 -0.167799
-0.257464 -0.195367 -0.307768
-0.253855 -0.188833 -0.304773
-0.232325 -0.037503 -0.173055
-0.247203 -0.174740 -0.282076
-0.208215 0.125093 -0.055658
-0.244752 -0.111785 -0.233531
-0.254704 -0.199087 -0.313007
-0.197195 0.157283 -0.026304
-0.228080 -0.039618 -0.185484
-0.213275 0.046571 -0.113728
-0.200186 0.147254 -0.026593
-0.255285 -0.176467 -0.291381
-0.233466 -0.048901 -0.193749
-0.244330 -0.107539 -0.230512
-0.211848 0.104187 -0.060839
-0.245263 -0.162525 -0.282136
-0.238306 -0.062472 -0.195860
-0.254337 -0.169755 -0.285956
-0.234676 -0.087341 -0.222954
-0.234193 -0.030784 -0.172929
-0.227531 0.014207 -0.139661
-0.206730 0.133079 -0.049453
-0.214954 0.069724 -0.099821
-0.234416 -0.096409 -0.227808
-0.256105 -0.180343 -0.293022
-0.250057 -0.195671 -0.308364
-0.254123 -0.192169 -0.295208
-0.254074 -0.172540 -0.289738
-0.238089 -0.083614 -0.209066
-0.240252 -0.094531 -0.218021
-0.241017 -0.095707 -0.230588
-0.203503 0.171027 -0.009468
-0.232080 -0.033084 -0.169805
-0.196611 0.162211 -0.022822
-0.236997 -0.116935 -0.239216
-0.194376 0.208395 0.010152
-0.208577 0.140666 -0.040701
-0.202090 0.137141 -0.045195
-0.237034 -0.077635 -0.204274
-0.201885 0.122184 -0.052255
-0.207663 0.116405 -0.062812
-0.196840 0.170974 -0.018039
-0.209466 0.137139 -0.042412
-0.241195 -0.143178 -0.264696
-0.235120 -0.037240 -0.177869
-0.203137 0.142619 -0.029352
-0.223683 0.037305 -0.122747
-0.209854 0.072374 -0.087558
-0.219491 0.018112 -0.139582
-0.234518 -0.033143 -0.176677
-0.247077 -0.184043 -0.296797
-0.196112 0.209524 0.013153
-0.204605 0.164265 -0.022868
-0.207320 0.147017 -0.036256
-0.206384 0.148265 -0.026876
-0.217756 0.062484 -0.105163
-0.197093 0.177975 -0.001452
-0.211187 0.126325 -0.048202
-0.195477 0.208527 0.014293
-0.230741 -0.039720 -0.173994
-0.202561 0.180330 -0.009657
-0.234046 -0.081998 -0.208163
-0.237948 -0.092940 -0.228755
-0.247357 -0.182575 -0.296787
-0.223215 0.022976 -0.124922
-0.253997 -0.172265 -0.282189
-0.230922 -0.050337 -0.194743
-0.209187 0.113249 -0.052900
-0.197255 0.207731 0.010530
-0.253460 -0.221403 -0.323613
-0.216309 0.089558 -0.076076
-0.243716 -0.163887 -0.278785
-0.206203 0.094017 -0.071663
-0.235697 -0.106774 -0.230611
-0.194943 0.209901 0.012461
-0.200429 0.189120 0.005502
-0.246656 -0.124323 -0.252046
-0.228780 -0.056755 -0.196707
-0.212691 0.116337 -0.057637
-0.225399 -0.034582 -0.178869
-0.224107 0.001966 -0.153494
-0.251000 -0.153413 -0.266820
-0.243605 -0.095348 -0.226177
-0.231988 -0.061856 -0.191758
-0.214378 0.045145 -0.116782
-0.206847 0.091824 -0.072459
-0.259023 -0.212871 -0.322892
-0.237723 -0.085523 -0.222952
-0.219237 0.071090 -0.094247
-0.216751 0.020711 -0.132877
-0.203192 0.115809 -0.053857
-0.235276 -0.091358 -0.226153
-0.242237 -0.087653 -0.221081
-0.199387 0.160108 -0.027412
-0.234940 -0.102026 -0.227024
-0.212224 0.074493 -0.083534
-0.217692 0.081044 -0.086856
-0.243001 -0.106294 -0.238721
-0.214869 0.033676 -0.120290
-0.245363 -0.161406 -0.271405
-0.254655 -0.170120 -0.284476
-0.227177 -0.009374 -0.150170
-0.201747 0.186353 -0.004777
-0.210889 0.061735 -0.097383
-0.236671 -0.105632 -0.227619
-0.200829 0.182867 0.001098
-0.231420 -0.039194 -0.173788
-0.239487 -0.080039 -0.207620
-0.254206 -0.182203 -0.288399
-0.257725 -0.197440 -0.309477
-0.219515 0.067199 -0.093600
-0.260236 -0.209178 -0.313779
-0.196352 0.176238 -0.014169
-0.194144 0.177126 -0.010104
-0.248841 -0.131416 -0.255187
-0.222063 -0.015903 -0.160199
-0.242204 -0.153565 -0.269455
-0.198731 0.146111 -0.029900
-0.237296 -0.069305 -0.209589
-0.203603 0.176405 -0.011607
-0.227466 -0.040519 -0.175697
-0.195135 0.174895 -0.013427
-0.210994 0.107096 -0.058259
-0.194464 0.180073 -0.009473
-0.202373 0.159826 -0.015958
-0.220100 0.065028 -0.099280
-0.227690 -0.009147 -0.162201
-0.200955 0.184836 -0.007332
-0.194186 0.177979 -0.009954
-0.255984 -0.180180 -0.293803
-0.236646 -0.089522 -0.213499
-0.195015 0.169471 -0.012394
-0.219434 0.061807 -0.104386
-0.213701 0.101023 -0.073272
-0.229680 -0.022983 -0.173189
-0.199774 0.202587 0.009169
-0.221366 0.006063 -0.149234
-0.232370 -0.026837 -0.166242
-0.244417 -0.101767 -0.228160
-0.238898 -0.130384 -0.253039
-0.201578 0.145837 -0.027031
-0.237372 -0.057852 -0.198646
-0.214295 0.049569 -0.113993
-0.219378 0.002658 -0.147052
-0.244857 -0.116584 -0.236628
-0.208784 0.083803 -0.077572
-0.200343 0.136075 -0.043266
-0.245949 -0.158695 -0.268652
-0.250145 -0.139334 -0.260102
-0.199377 0.141687 -0.033414
-0.224940 -0.034277 -0.173536
-0.201411 0.125528 -0.047584
-0.211581 0.055271 -0.104390
-0.241151 -0.146764 -0.264605
-0.196441 0.158821 -0.022094
