ply
format ascii 1.0
element vertex 256
property float x
property float y
property float z
end_header
-0.207830 -0.056541 -0.085804
-0.203824 -0.123699 -0.050602
-0.220261 0.209699 -0.265563
-0.209067 -0.051945 -0.097241
-0.209448 0.071999 -0.172939
-0.198981 -0.103814 -0.054402
-0.219399 0.181768 -0.249216
-0.198154 -0.099449 -0.066658
-0.214036 0.019785 -0.144251
-0.208259 0.051769 -0.158231
-0.217750 0.138505 -0.222304
-0.209297 0.017802 -0.132723
-0.193836 -0.167745 -0.013245
-0.217311 0.174090 -0.241607
-0.205748 -0.043740 -0.092730
-0.209789 0.058345 -0.160537
-0.215894 0.069724 -0.166713
-0.219454 0.187452 -0.252547
-0.208655 0.060768 -0.167055
-0.225892 0.173652 -0.236126
-0.212669 0.051503 -0.154469
-0.215658 0.064504 -0.174409
-0.202422 -0.137684 -0.033861
-0.207690 -0.020430 -0.119720
-0.201870 -0.154015 -0.024335
-0.213514 0.089705 -0.190352
-0.219514 0.199561 -0.253261
-0.211192 0.041513 -0.159685
-0.201840 -0.128275 -0.038764
-0.223570 0.196188 -0.248215
-0.209835 -0.053358 -0.090870
-0.218860 0.065773 -0.170751
-0.205714 0.018732 -0.140801
-0.206617 -0.006523 -0.117273
-0.220493 0.130387 -0.217132
-0.209702 0.074698 -0.174207
-0.201841 -0.163969 -0.020723
-0.204651 -0.109536 -0.052318
-0.198271 -0.142492 -0.028750
-0.193751 -0.143126 -0.031974
-0.207543 -0.049743 -0.100204
-0.220768 0.176848 -0.235875
-0.220352 0.114839 -0.196651
-0.223060 0.126437 -0.206962
-0.225825 0.209155 -0.268384
-0.212499 0.105875 -0.192685
-0.194885 -0.124878 -0.047074
-0.205409 0.011063 -0.136602
-0.206749 -0.098330 -0.063501
-0.194444 -0.129525 -0.042498
-0.212074 0.101567 -0.190188
-0.212501 -0.019532 -0.113597
-0.215913 0.099312 -0.185484
-0.222055 0.109057 -0.199016
-0.217422 0.109334 -0.191972
-0.202535 -0.153724 -0.028532
-0.197275 -0.091435 -0.067201
-0.198409 -0.135718 -0.044914
-0.197159 -0.159096 -0.029864
-0.208407 -0.013492 -0.112400
-0.220904 0.193418 -0.247109
-0.201189 -0.171383 -0.017384
-0.215875 0.049840 -0.154872
-0.214068 0.103738 -0.189138
-0.211076 -0.040020 -0.101449
-0.195836 -0.127238 -0.040501
-0.225646 0.179648 -0.248088
-0.225245 0.152340 -0.227316
-0.217261 0.175314 -0.241988
-0.213668 0.066136 -0.163961
-0.201720 -0.131514 -0.036730
-0.205835 -0.092164 -0.063405
-0.226697 0.214960 -0.266440
-0.218305 0.164806 -0.228974
-0.223004 0.138972 -0.213160
-0.223869 0.210675 -0.257687
-0.196042 -0.107955 -0.057120
-0.214584 0.048626 -0.164073
-0.215537 0.057873 -0.159316
-0.224903 0.178546 -0.237757
-0.207458 -0.061446 -0.082618
-0.201934 -0.129971 -0.037800
-0.224021 0.142976 -0.216900
-0.212981 0.055421 -0.168852
-0.200777 -0.045950 -0.095602
-0.199320 -0.194714 0.000745
-0.215343 0.056905 -0.169374
-0.216746 0.163104 -0.229796
-0.220728 0.126147 -0.203622
-0.228582 0.206028 -0.263920
-0.199788 -0.141392 -0.041214
-0.215691 0.051837 -0.155847
-0.199828 -0.106513 -0.063684
-0.216867 0.159195 -0.226523
-0.212873 0.105634 -0.191831
-0.215109 0.083524 -0.187072
-0.200602 -0.179171 -0.012403
-0.191763 -0.196208 -0.004725
-0.194859 -0.126555 -0.046500
-0.211603 0.056654 -0.169229
-0.199468 -0.107979 -0.062599
-0.215840 0.044920 -0.152000
-0.207075 0.029781 -0.142912
-0.208060 0.051454 -0.158523
-0.206913 -0.049514 -0.100640
-0.228737 0.197525 -0.255419
-0.205717 0.009389 -0.129458
-0.203046 -0.021390 -0.110181
-0.206309 0.026955 -0.146081
-0.218330 0.066510 -0.173322
-0.209573 -0.046933 -0.093313
-0.209671 0.006937 -0.125587
-0.227108 0.182998 -0.243154
-0.208644 -0.033601 -0.099988
-0.210565 0.020820 -0.146461
-0.215079 0.018096 -0.136973
-0.206114 -0.043092 -0.105022
-0.209201 0.048995 -0.162863
-0.211800 0.068928 -0.176797
-0.219123 0.155915 -0.222349
-0.226164 0.183948 -0.242082
-0.216933 0.113687 -0.194805
-0.213019 -0.001369 -0.129729
-0.223437 0.127371 -0.208904
-0.194595 -0.128348 -0.044529
-0.197214 -0.149245 -0.036109
-0.220955 0.152389 -0.219941
-0.200502 -0.132555 -0.046930
-0.207981 -0.073622 -0.082322
-0.205837 -0.006368 -0.127708
-0.228229 0.199498 -0.253537
-0.209359 0.071407 -0.172955
-0.220042 0.150203 -0.230277
-0.193357 -0.151318 -0.031442
-0.207673 -0.076668 -0.074540
-0.206640 -0.092971 -0.064473
-0.220487 0.115577 -0.206909
-0.211237 0.010934 -0.139888
-0.228576 0.208704 -0.265962
-0.229520 0.207884 -0.262015
-0.209757 -0.056300 -0.091869
-0.218237 0.190526 -0.250539
-0.202938 -0.098556 -0.068976
-0.199913 -0.176568 -0.009273
-0.200560 -0.162196 -0.026257
-0.199069 -0.194776 -0.003536
-0.201305 -0.082742 -0.078932
-0.212372 0.010158 -0.138831
-0.216275 0.037487 -0.148821
-0.213679 0.008758 -0.129347
-0.216833 0.155051 -0.231218
-0.210010 0.065228 -0.165433
-0.214133 0.061802 -0.161219
-0.212168 0.012260 -0.140377
-0.205199 -0.000150 -0.130494
-0.218622 0.105029 -0.200693
-0.207786 -0.036427 -0.109165
-0.197328 -0.161292 -0.016602
-0.218720 0.195087 -0.254770
-0.201102 -0.045299 -0.095155
-0.198997 -0.174631 -0.009227
-0.206773 0.017419 -0.142305
-0.199163 -0.070472 -0.083232
-0.196805 -0.097833 -0.063769
-0.202461 -0.053960 -0.086841
-0.217070 0.042510 -0.156212
-0.206478 -0.100262 -0.063466
-0.192884 -0.162057 -0.018480
-0.209089 -0.065783 -0.083874
-0.215327 0.149147 -0.225066
-0.206219 0.022438 -0.143869
-0.217987 0.117564 -0.209141
-0.210376 0.075037 -0.178557
-0.208342 -0.009118 -0.127061
-0.197791 -0.194838 0.003583
-0.215055 0.143806 -0.221969
-0.206900 -0.029203 -0.102149
-0.193754 -0.204077 0.004979
-0.206880 -0.084435 -0.075843
-0.193845 -0.142746 -0.032036
-0.218403 0.109487 -0.192269
-0.218447 0.060794 -0.165401
-0.199671 -0.086424 -0.075625
-0.226891 0.176566 -0.243594
-0.206720 0.023560 -0.138718
-0.221121 0.131306 -0.206970
-0.224161 0.146825 -0.219162
-0.215495 0.060902 -0.161135
-0.205188 -0.083694 -0.067671
-0.199636 -0.149392 -0.035848
-0.209508 0.034828 -0.154830
-0.204498 0.004370 -0.130846
-0.204372 -0.105805 -0.054076
-0.215079 0.076232 -0.170544
-0.217134 0.165678 -0.237325
-0.208507 0.040579 -0.148965
-0.222744 0.126745 -0.206271
-0.216778 0.170334 -0.237840
-0.213733 0.091830 -0.181097
-0.220516 0.129704 -0.205669
-0.191759 -0.167670 -0.019730
-0.218584 0.139688 -0.211685
-0.205412 0.017323 -0.138789
-0.209724 0.004410 -0.135797
-0.217123 0.168912 -0.233715
-0.220486 0.126894 -0.214757
-0.195666 -0.117497 -0.052757
-0.202507 -0.154910 -0.026527
-0.229489 0.207602 -0.261926
-0.194451 -0.203395 -0.001112
-0.218675 0.100838 -0.197815
-0.210820 -0.035311 -0.101524
-0.210355 0.068414 -0.167336
-0.212836 0.066860 -0.176062
-0.219390 0.076042 -0.174528
-0.202721 -0.145537 -0.035471
-0.203382 -0.077032 -0.071162
-0.198994 -0.190829 -0.000258
-0.226436 0.175304 -0.237876
-0.204936 -0.002293 -0.128939
-0.198283 -0.172023 -0.021036
-0.207634 0.039635 -0.149588
-0.201523 -0.042174 -0.102314
-0.198932 -0.143045 -0.040221
-0.217735 0.169571 -0.240343
-0.226407 0.175899 -0.244298
-0.205700 -0.108088 -0.059193
-0.210236 -0.025573 -0.105971
-0.192124 -0.161725 -0.023005
-0.193512 -0.156488 -0.029083
-0.215353 0.043954 -0.160328
-0.207872 -0.049095 -0.100499
-0.220158 0.100568 -0.188287
-0.222625 0.115997 -0.203024
-0.225685 0.172346 -0.242682
-0.212345 0.032908 -0.154210
-0.200128 -0.090989 -0.062628
-0.217023 0.139068 -0.211808
-0.207052 -0.000428 -0.132072
-0.203272 -0.101335 -0.055913
-0.225783 0.168556 -0.233255
-0.198996 -0.098188 -0.068193
-0.194328 -0.158033 -0.019737
-0.229507 0.209087 -0.263716
-0.213143 0.055138 -0.156802
-0.191280 -0.172456 -0.014427
-0.205723 -0.085725 -0.066952
-0.209889 0.076514 -0.177838
-0.212918 -0.011022 -0.122093
-0.207677 -0.064950 -0.089390
-0.196244 -0.168651 -0.023630
-0.205386 0.001457 -0.131643
-0.198033 -0.085041 -0.069720
-0.219745 0.102592 -0.189006
-0.203979 -0.016888 -0.119686
-0.202018 -0.161394 -0.022264
