ply
format ascii 1.0
element vertex 256
property float x
property float y
property float z
end_header
-0.147738 -0.090011 -0.328159
-0.117903 0.040853 -0.332872
-0.097292 0.105667 -0.326733
-0.130839 -0.007524 -0.330794
-0.129264 -0.027782 -0.324649
-0.079746 0.197771 -0.321757
-0.108770 0.069766 -0.332650
-0.115826 0.054994 -0.332156
-0.163600 -0.188727 -0.337327
-0.136109 -0.057181 -0.325083
-0.172551 -0.206097 -0.333915
-0.117715 0.022673 -0.333175
-0.115977 0.035636 -0.323526
-0.084940 0.213044 -0.324993
-0.160287 -0.146919 -0.331950
-0.134653 -0.024611 -0.328948
-0.088523 0.168769 -0.330958
-0.167037 -0.198271 -0.327685
-0.122748 0.000475 -0.324305
-0.169214 -0.200096 -0.336685
-0.159449 -0.146592 -0.328983
-0.121667 0.037210 -0.327520
-0.127620 0.009063 -0.328472
-0.161397 -0.200448 -0.333176
-0.105744 0.102037 -0.322963
-0.092061 0.133419 -0.324271
-0.079073 0.230461 -0.320846
-0.145668 -0.092097 -0.326083
-0.083646 0.171426 -0.324681
-0.149112 -0.116319 -0.336055
-0.141410 -0.098486 -0.327300
-0.147413 -0.095832 -0.326659
-0.158397 -0.154207 -0.327073
-0.115748 0.065817 -0.328238
-0.104553 0.073487 -0.329963
-0.075529 0.211602 -0.323276
-0.091663 0.172995 -0.329663
-0.131312 -0.014567 -0.326003
-0.146938 -0.102145 -0.325984
-0.115329 0.022655 -0.331152
-0.082791 0.196420 -0.330475
-0.150851 -0.108786 -0.327439
-0.136573 -0.081869 -0.331058
-0.108607 0.058387 -0.324475
-0.090443 0.167122 -0.321194
-0.136779 -0.069576 -0.334709
-0.074828 0.220218 -0.321523
-0.097092 0.106508 -0.327352
-0.123683 -0.011226 -0.325321
-0.076352 0.206169 -0.324225
-0.116789 0.030605 -0.333320
-0.100146 0.097178 -0.330365
-0.112572 0.071587 -0.331698
-0.154620 -0.131215 -0.335595
-0.106383 0.110151 -0.326115
-0.090986 0.152960 -0.331088
-0.079561 0.227909 -0.320857
-0.101877 0.132065 -0.326326
-0.108152 0.054156 -0.327068
-0.135705 -0.070262 -0.333908
-0.116498 0.046621 -0.332849
-0.167992 -0.191236 -0.328809
-0.087824 0.151161 -0.327150
-0.096795 0.137820 -0.331440
-0.163704 -0.178358 -0.336792
-0.123459 -0.012723 -0.325778
-0.109487 0.061757 -0.323393
-0.096499 0.152201 -0.323169
-0.095988 0.153911 -0.329687
-0.149861 -0.101497 -0.327994
-0.092561 0.156351 -0.331156
-0.073883 0.221080 -0.327750
-0.094396 0.119524 -0.326455
-0.138233 -0.070106 -0.335153
-0.092023 0.178242 -0.324439
-0.107674 0.072459 -0.332448
-0.073713 0.219440 -0.323552
-0.095447 0.131069 -0.321976
-0.087951 0.187659 -0.329883
-0.169524 -0.191163 -0.332912
-0.162272 -0.204393 -0.331664
-0.109100 0.088671 -0.323622
-0.110662 0.042835 -0.326727
-0.168772 -0.201081 -0.328134
-0.115898 0.019769 -0.331154
-0.119830 0.009554 -0.324581
-0.151775 -0.134768 -0.326530
-0.165390 -0.183717 -0.336660
-0.120645 0.002067 -0.332686
-0.109783 0.076948 -0.332459
-0.102541 0.099326 -0.322410
-0.116205 0.055516 -0.324333
-0.151121 -0.122553 -0.326334
-0.128964 0.001863 -0.327614
-0.159744 -0.146525 -0.333709
-0.155992 -0.148152 -0.336592
-0.169946 -0.207373 -0.337239
-0.130565 -0.053011 -0.330783
-0.141590 -0.096452 -0.326781
-0.140755 -0.069965 -0.325576
-0.089140 0.159559 -0.321609
-0.126236 0.014731 -0.327304
-0.142881 -0.063836 -0.329773
-0.086500 0.203925 -0.323638
-0.122247 -0.004272 -0.325182
-0.104266 0.083913 -0.323262
-0.094201 0.122096 -0.325015
-0.090030 0.180356 -0.329601
-0.135371 -0.064686 -0.334438
-0.167724 -0.187818 -0.335485
-0.138251 -0.089890 -0.331190
-0.129078 0.001995 -0.328436
-0.155105 -0.166108 -0.334834
-0.158307 -0.141996 -0.328672
-0.079565 0.229000 -0.321013
-0.101353 0.088217 -0.325472
-0.150954 -0.144029 -0.335045
-0.158690 -0.140244 -0.330083
-0.106032 0.105350 -0.330702
-0.124521 -0.024126 -0.328586
-0.140639 -0.090662 -0.334770
-0.124587 -0.016854 -0.325625
-0.159952 -0.188345 -0.329234
-0.095675 0.158247 -0.328853
-0.117389 0.025310 -0.333220
-0.145253 -0.120065 -0.333744
-0.159987 -0.178115 -0.327528
-0.117946 0.047350 -0.324502
-0.099573 0.101912 -0.323634
-0.162958 -0.207487 -0.331431
-0.102413 0.081285 -0.327037
-0.087147 0.179273 -0.330827
-0.082248 0.197136 -0.330411
-0.153816 -0.117912 -0.333056
-0.162850 -0.160882 -0.330071
-0.116265 0.060371 -0.330443
-0.161914 -0.159299 -0.334776
-0.163426 -0.164415 -0.334174
-0.149654 -0.142887 -0.329745
-0.150416 -0.147824 -0.330768
-0.162123 -0.156635 -0.330379
-0.160698 -0.197396 -0.332349
-0.168579 -0.199287 -0.336964
-0.133473 -0.034896 -0.324979
-0.108933 0.097981 -0.326342
-0.079901 0.233737 -0.327479
-0.160046 -0.153346 -0.328126
-0.103184 0.125326 -0.325673
-0.169369 -0.190454 -0.332948
-0.127707 -0.019910 -0.324498
-0.158586 -0.182988 -0.329449
-0.155409 -0.165414 -0.328501
-0.072449 0.225675 -0.323343
-0.116251 0.047368 -0.323520
-0.114015 0.039668 -0.323823
-0.111784 0.037032 -0.327048
-0.087664 0.199608 -0.324575
-0.160823 -0.188367 -0.328415
-0.161668 -0.199585 -0.330407
-0.082014 0.178714 -0.325345
-0.153526 -0.135340 -0.336338
-0.155202 -0.137978 -0.336096
-0.102043 0.117127 -0.322445
-0.148453 -0.104000 -0.326414
-0.133658 -0.021840 -0.327401
-0.090207 0.181068 -0.322339
-0.096065 0.147331 -0.330804
-0.079300 0.191563 -0.325935
-0.092448 0.139609 -0.330697
-0.141297 -0.082625 -0.335434
-0.128628 -0.028365 -0.324879
-0.113628 0.028762 -0.330076
-0.124265 -0.022120 -0.327864
-0.114840 0.034192 -0.324049
-0.171336 -0.207188 -0.329095
-0.134096 -0.022604 -0.328073
-0.159441 -0.171772 -0.336945
-0.125691 0.011631 -0.325363
-0.158779 -0.183826 -0.335103
-0.133717 -0.031313 -0.333817
-0.089017 0.147349 -0.324326
-0.157188 -0.180106 -0.333179
-0.144707 -0.081960 -0.326562
-0.095788 0.149320 -0.330704
-0.156694 -0.150388 -0.336602
-0.144295 -0.070612 -0.329862
-0.122637 -0.000245 -0.324423
-0.161326 -0.159026 -0.328295
-0.111682 0.069106 -0.323127
-0.074377 0.219281 -0.322325
-0.109214 0.065380 -0.323133
-0.158655 -0.183129 -0.329402
-0.140277 -0.059761 -0.326332
-0.095331 0.160673 -0.323877
-0.110723 0.084286 -0.324384
-0.088143 0.149713 -0.325422
-0.149730 -0.099126 -0.328518
-0.144819 -0.112439 -0.334870
-0.096113 0.145238 -0.330998
-0.137974 -0.044800 -0.326966
-0.156017 -0.128646 -0.329298
-0.135919 -0.037567 -0.326156
-0.159234 -0.180631 -0.328255
-0.148637 -0.128827 -0.335453
-0.142758 -0.071502 -0.334060
-0.153954 -0.129970 -0.335782
-0.094706 0.138368 -0.321676
-0.119126 0.019574 -0.323838
-0.146295 -0.128516 -0.331014
-0.070213 0.234771 -0.324848
-0.152922 -0.157602 -0.329564
-0.120545 -0.001091 -0.326181
-0.163999 -0.187693 -0.327388
-0.137348 -0.039518 -0.327690
-0.121373 0.032446 -0.331891
-0.153633 -0.116124 -0.332573
-0.104901 0.081885 -0.331954
-0.091922 0.158199 -0.331155
-0.142090 -0.083411 -0.335488
-0.165794 -0.207215 -0.337232
-0.155922 -0.126432 -0.330422
-0.130617 -0.015019 -0.333296
-0.130301 -0.040569 -0.333994
-0.136171 -0.041978 -0.325728
-0.136441 -0.041988 -0.333640
-0.168411 -0.208880 -0.330454
-0.140696 -0.058176 -0.333048
-0.089868 0.176519 -0.330322
-0.140227 -0.094954 -0.327803
-0.101536 0.122404 -0.322644
-0.110700 0.042314 -0.329621
-0.138852 -0.084842 -0.334238
-0.146008 -0.124489 -0.328937
-0.143610 -0.100042 -0.326158
-0.078054 0.198042 -0.326645
-0.080900 0.186821 -0.328122
-0.113189 0.030418 -0.329828
-0.148000 -0.096411 -0.334480
-0.155629 -0.172585 -0.330987
-0.114897 0.070044 -0.327906
-0.116640 0.047867 -0.332665
-0.105506 0.093648 -0.322455
-0.090209 0.168682 -0.321179
-0.149622 -0.140474 -0.328779
-0.087666 0.199978 -0.325851
-0.101856 0.131434 -0.325352
-0.110506 0.064215 -0.332824
-0.170781 -0.198650 -0.330799
-0.100157 0.138589 -0.328431
-0.093044 0.130723 -0.329667
-0.085743 0.198104 -0.329714
-0.162992 -0.174695 -0.327561
-0.143614 -0.072783 -0.333485
-0.105709 0.068238 -0.325415
-0.106638 0.086066 -0.322529
-0.071905 0.233332 -0.328283
