ply
format ascii 1.0
element vertex 256
property float x
property float y
property float z
end_header
-0.134320 0.097749 -0.230040
-0.131083 -0.077752 -0.236278
-0.124214 -0.024725 -0.246380
-0.138038 -0.123615 -0.231020
-0.135443 0.121178 -0.227973
-0.124821 0.042178 -0.241512
-0.133385 0.009047 -0.242317
-0.124911 0.076301 -0.235928
-0.130224 -0.020609 -0.250616
-0.132601 -0.048390 -0.240166
-0.131466 0.031674 -0.236992
-0.134432 0.071713 -0.233481
-0.131080 -0.079148 -0.236179
-0.126354 -0.070411 -0.244925
-0.126988 -0.035044 -0.250893
-0.129812 0.092978 -0.228020
-0.135076 0.110503 -0.231223
-0.135652 -0.112328 -0.231158
-0.133723 -0.121022 -0.239806
-0.125174 -0.023603 -0.248833
-0.134792 -0.112901 -0.230824
-0.132397 0.034798 -0.237047
-0.128790 -0.102377 -0.235062
-0.128884 -0.018409 -0.240652
-0.125616 0.021780 -0.247085
-0.136468 -0.084779 -0.238779
-0.136727 -0.084183 -0.241819
-0.133850 0.075967 -0.237833
-0.128624 0.053387 -0.231275
-0.128942 0.128223 -0.232760
-0.138422 -0.105553 -0.236758
-0.129926 0.062087 -0.240743
-0.130119 0.068843 -0.230435
-0.125736 0.079032 -0.237494
-0.126671 0.013380 -0.248494
-0.124970 0.097032 -0.232853
-0.123891 0.019782 -0.242578
-0.127451 0.081781 -0.238728
-0.123911 0.005752 -0.244022
-0.127392 0.009967 -0.239406
-0.126752 -0.065715 -0.246544
-0.133992 -0.021019 -0.246767
-0.125686 0.083853 -0.236833
-0.133447 -0.073081 -0.237757
-0.127809 -0.090563 -0.237710
-0.124206 0.018272 -0.245716
-0.132498 0.078518 -0.230480
-0.130597 0.081916 -0.239229
-0.139159 -0.120180 -0.234596
-0.130814 -0.052090 -0.239056
-0.130776 -0.044734 -0.250653
-0.132912 0.117823 -0.224141
-0.134390 -0.138282 -0.238771
-0.124958 0.057349 -0.235811
-0.125498 0.095116 -0.230506
-0.136986 -0.122806 -0.230366
-0.127740 -0.037084 -0.241829
-0.136588 -0.109391 -0.232082
-0.135416 0.127744 -0.228149
-0.124268 0.018224 -0.241602
-0.133106 0.078200 -0.238454
-0.134620 0.048931 -0.238243
-0.127502 0.042241 -0.234617
-0.132977 0.005486 -0.247264
-0.125521 0.126437 -0.228681
-0.127721 -0.085517 -0.243311
-0.123876 0.016070 -0.244634
-0.124944 0.018870 -0.246902
-0.129328 -0.052827 -0.248830
-0.126351 0.054687 -0.239551
-0.126322 0.111874 -0.226326
-0.133032 0.116769 -0.232913
-0.129287 -0.120677 -0.235471
-0.135998 -0.116050 -0.230816
-0.127132 0.024015 -0.247665
-0.132718 0.134197 -0.232107
-0.129391 0.092839 -0.238020
-0.133932 -0.139754 -0.235217
-0.133844 -0.008647 -0.243993
-0.126265 0.047613 -0.241802
-0.125447 0.106585 -0.231602
-0.132013 -0.044355 -0.250254
-0.127959 0.012142 -0.239185
-0.132532 0.038804 -0.243983
-0.132893 0.106318 -0.226001
-0.125161 0.034236 -0.244083
-0.129387 -0.122539 -0.234093
-0.133548 0.009880 -0.245818
-0.129686 0.028727 -0.236978
-0.133588 0.028071 -0.244013
-0.129911 -0.133799 -0.234110
-0.129946 0.084495 -0.239024
-0.136187 -0.111370 -0.231504
-0.127980 0.054267 -0.240819
-0.129674 0.057958 -0.240920
-0.126492 -0.063413 -0.240739
-0.137884 -0.100872 -0.238049
-0.132153 0.091370 -0.228763
-0.135349 -0.056371 -0.244735
-0.125601 0.135770 -0.229102
-0.128949 0.129520 -0.223175
-0.134646 -0.090166 -0.244595
-0.135099 0.121266 -0.226516
-0.131245 0.023742 -0.238445
-0.138546 -0.109513 -0.235233
-0.128541 0.037652 -0.245411
-0.135172 -0.105795 -0.241183
-0.134724 0.070283 -0.234635
-0.130513 0.041053 -0.234686
-0.133122 -0.030979 -0.243262
-0.134638 0.076516 -0.236027
-0.124465 0.011511 -0.241615
-0.130052 0.011570 -0.248974
-0.127026 0.036301 -0.245220
-0.125406 0.091250 -0.235380
-0.124437 0.016464 -0.246327
-0.134176 -0.046257 -0.247733
-0.132229 -0.124836 -0.238850
-0.136008 -0.070715 -0.242826
-0.133117 -0.116268 -0.230453
-0.128989 0.017934 -0.238825
-0.134654 -0.134378 -0.238618
-0.132096 0.129481 -0.223267
-0.129087 -0.084660 -0.244812
-0.133872 -0.025019 -0.244450
-0.133646 -0.122096 -0.229782
-0.135985 -0.071768 -0.241672
-0.128503 0.025575 -0.247677
-0.136266 -0.123239 -0.239188
-0.132132 0.021601 -0.247124
-0.133672 -0.021557 -0.247813
-0.137907 -0.130346 -0.229562
-0.136954 -0.099285 -0.236080
-0.125118 -0.031596 -0.243455
-0.130724 -0.094659 -0.244496
-0.125618 0.107882 -0.228496
-0.129709 -0.016878 -0.250485
-0.132484 -0.013884 -0.241821
-0.128092 -0.057082 -0.247848
-0.133867 -0.128696 -0.228516
-0.129119 -0.117617 -0.234759
-0.136172 -0.074254 -0.240917
-0.135460 -0.130281 -0.238356
-0.128288 0.005472 -0.239489
-0.130786 -0.112489 -0.239753
-0.130412 -0.050223 -0.249300
-0.134260 -0.081951 -0.236562
-0.126332 0.084461 -0.237590
-0.126714 0.060874 -0.231995
-0.134111 -0.034017 -0.245507
-0.129061 0.077107 -0.229912
-0.130072 -0.002637 -0.249704
-0.134564 -0.069429 -0.246598
-0.129125 -0.043808 -0.251009
-0.125766 0.099135 -0.234953
-0.126196 0.059328 -0.232476
-0.132475 0.086162 -0.238078
-0.133546 0.130828 -0.231718
-0.127414 -0.095126 -0.240061
-0.127380 0.018386 -0.238956
-0.134290 0.135790 -0.224609
-0.130820 0.033458 -0.236365
-0.126804 -0.065893 -0.240491
-0.129303 0.092034 -0.228194
-0.127754 0.043180 -0.244094
-0.134185 -0.034207 -0.246900
-0.125662 -0.034633 -0.249903
-0.133092 -0.026914 -0.249143
-0.136356 -0.135115 -0.228924
-0.131955 0.055054 -0.240638
-0.129866 -0.130417 -0.233850
-0.127142 -0.088901 -0.239751
-0.127312 -0.090678 -0.241507
-0.135347 0.134936 -0.227543
-0.134602 -0.046483 -0.243510
-0.129434 0.064798 -0.240554
-0.132550 0.118387 -0.223965
-0.133794 0.006909 -0.243930
-0.135434 0.115090 -0.229554
-0.130163 -0.070664 -0.247938
-0.138989 -0.129485 -0.236090
-0.123993 0.007839 -0.243150
-0.126636 -0.023576 -0.241538
-0.124129 0.003288 -0.245945
-0.127570 0.126870 -0.232122
-0.133804 0.051221 -0.233757
-0.129971 -0.101697 -0.242594
-0.130908 0.126791 -0.233021
-0.134579 -0.061990 -0.246464
-0.127042 0.105530 -0.226742
-0.133934 -0.137179 -0.228894
-0.125585 0.063017 -0.233148
-0.133281 -0.099706 -0.244163
-0.134497 0.065910 -0.237306
-0.137148 -0.090955 -0.239994
-0.138082 -0.128192 -0.229785
-0.134815 0.099065 -0.233485
-0.124176 0.003365 -0.242903
-0.127929 -0.071177 -0.238845
-0.135389 -0.056574 -0.242584
-0.136214 -0.086995 -0.237881
-0.133003 0.121842 -0.232648
-0.130992 -0.135140 -0.236783
-0.126621 -0.077802 -0.241689
-0.132365 0.049359 -0.241810
-0.124190 0.009364 -0.242433
-0.134824 0.121978 -0.225832
-0.133533 0.070618 -0.232017
-0.130026 0.046109 -0.233159
-0.129030 0.135324 -0.222830
-0.133363 -0.007187 -0.247507
-0.131034 -0.120408 -0.231085
-0.124111 -0.014439 -0.245801
-0.129831 0.132589 -0.222854
-0.134142 0.038983 -0.240985
-0.126423 0.077320 -0.238514
-0.136164 -0.105300 -0.240802
-0.125714 -0.065657 -0.243441
-0.138575 -0.109502 -0.235462
-0.135349 0.124580 -0.227331
-0.139236 -0.121740 -0.234404
-0.129129 0.122819 -0.223461
-0.126703 0.113490 -0.225624
-0.133073 -0.139694 -0.236594
-0.129723 0.110892 -0.234338
-0.132671 -0.069208 -0.247966
-0.125036 0.093753 -0.233924
-0.134577 0.059742 -0.237561
-0.133705 -0.073733 -0.237689
-0.135474 -0.067156 -0.242171
-0.130192 -0.122086 -0.231922
-0.125034 0.096230 -0.231862
-0.127389 0.114578 -0.224859
-0.129738 0.000320 -0.249592
-0.124660 0.034049 -0.243173
-0.133501 -0.101895 -0.243332
-0.130995 0.137057 -0.225015
-0.133315 0.022659 -0.245281
-0.125502 -0.040395 -0.249918
-0.134882 0.126854 -0.230308
-0.130054 -0.113352 -0.238930
-0.134157 -0.052103 -0.247136
-0.131295 -0.054109 -0.248706
-0.130986 -0.003544 -0.249432
-0.137349 -0.109958 -0.232653
-0.126786 -0.046679 -0.249196
-0.124881 0.085303 -0.233664
-0.133015 0.119971 -0.224089
-0.139444 -0.135658 -0.231807
-0.133869 -0.068417 -0.247398
-0.129632 -0.056108 -0.248493
-0.135175 -0.098294 -0.234790
-0.133351 -0.004078 -0.247309
-0.133161 0.018012 -0.241525
-0.126407 0.118721 -0.225685
-0.134516 -0.062769 -0.246595
