ply
format ascii 1.0
element vertex 256
property float x
property float y
property float z
end_header
-0.217526 -0.092634 0.135315
-0.213673 -0.077778 0.135264
-0.209331 -0.063677 0.139644
-0.213587 0.064538 0.208737
-0.214049 0.019442 0.231478
-0.213498 -0.007252 0.216063
-0.209729 -0.109026 0.132286
-0.209564 -0.148887 0.131435
-0.216484 0.038230 0.160345
-0.217871 0.090423 0.128391
-0.217028 0.187390 0.139924
-0.212686 0.182892 0.142202
-0.205058 -0.003130 0.214039
-0.214512 -0.095337 0.132179
-0.208392 -0.004019 0.146932
-0.210132 0.047072 0.164025
-0.211527 0.160633 0.126746
-0.213810 -0.064624 0.138130
-0.213518 0.194355 0.145693
-0.206146 -0.015181 0.187481
-0.210176 0.015161 0.149913
-0.209363 0.105486 0.132134
-0.212785 0.084466 0.132739
-0.217328 0.130242 0.127950
-0.205971 -0.001671 0.220019
-0.209922 -0.004914 0.154266
-0.211908 0.026829 0.235368
-0.207697 0.026045 0.138767
-0.216047 0.077828 0.131657
-0.218234 -0.198591 0.132951
-0.211311 0.033819 0.226980
-0.213184 0.130267 0.124994
-0.205483 0.031268 0.228339
-0.213312 -0.106631 0.130991
-0.208012 -0.000298 0.211293
-0.216763 -0.069411 0.138896
-0.208093 0.105274 0.127227
-0.208042 0.089017 0.127093
-0.207801 0.143982 0.130764
-0.210407 0.055923 0.172722
-0.204484 0.059558 0.226666
-0.208499 -0.005121 0.162117
-0.217593 0.167503 0.132609
-0.209077 -0.008211 0.170137
-0.210397 -0.163713 0.138887
-0.217025 0.165183 0.130166
-0.211883 0.071652 0.132732
-0.207505 0.014251 0.145661
-0.216519 0.045331 0.168505
-0.213514 -0.012543 0.208939
-0.217064 -0.017090 0.149708
-0.211084 -0.080345 0.135078
-0.212136 -0.018833 0.191713
-0.217388 -0.047343 0.142933
-0.206467 0.026976 0.227036
-0.205430 -0.009099 0.205574
-0.214736 0.120469 0.124851
-0.209291 -0.017533 0.173347
-0.210038 0.028951 0.236345
-0.214359 0.133881 0.134662
-0.210692 -0.117723 0.140317
-0.208281 -0.156518 0.135288
-0.208997 0.001777 0.225953
-0.210371 0.061391 0.216081
-0.213149 0.066237 0.123383
-0.211001 0.039230 0.138380
-0.212153 0.051010 0.226486
-0.209581 -0.012718 0.158046
-0.209253 -0.156656 0.131872
-0.215203 -0.156807 0.139382
-0.213491 0.112974 0.133781
-0.209967 0.017446 0.234091
-0.206315 -0.015649 0.187330
-0.208119 0.159317 0.129382
-0.212638 0.042229 0.227879
-0.209772 0.039596 0.169800
-0.210424 0.119302 0.133735
-0.213338 0.059387 0.221524
-0.217362 0.141296 0.128119
-0.214005 0.093705 0.132636
-0.214638 0.172213 0.138234
-0.208194 0.155761 0.128909
-0.208245 0.101699 0.126557
-0.211390 0.024480 0.134106
-0.207052 -0.007049 0.159622
-0.211385 0.049298 0.126465
-0.217151 0.073072 0.130464
-0.217446 -0.032735 0.145080
-0.209171 -0.176005 0.132008
-0.213215 -0.081130 0.134600
-0.216940 0.018269 0.153032
-0.208254 -0.140451 0.134408
-0.214174 0.003449 0.217300
-0.216720 0.057084 0.133186
-0.209174 0.187560 0.134339
-0.208036 0.073904 0.127436
-0.210546 0.017544 0.137779
-0.206837 -0.011169 0.170261
-0.214514 0.067308 0.194089
-0.215496 0.020940 0.136325
-0.209818 0.075562 0.131585
-0.214188 0.145729 0.125700
-0.210503 -0.086209 0.134238
-0.214275 0.026069 0.230720
-0.208579 0.147309 0.127916
-0.210537 0.005152 0.145710
-0.205676 -0.012424 0.197935
-0.216680 -0.180601 0.130542
-0.215496 0.180717 0.140228
-0.213547 0.012747 0.229792
-0.217803 0.047307 0.130651
-0.208492 0.084542 0.129917
-0.214632 -0.130266 0.139959
-0.208281 -0.124713 0.134617
-0.216929 -0.113246 0.132803
-0.210111 -0.168766 0.130986
-0.208496 -0.171490 0.133391
-0.212075 0.052405 0.234612
-0.215019 0.054625 0.183758
-0.215090 -0.076210 0.136006
-0.205007 0.005263 0.225038
-0.208036 -0.000914 0.148076
-0.212272 -0.007510 0.170084
-0.210024 0.123116 0.133940
-0.216700 -0.123093 0.132479
-0.207615 0.017847 0.233959
-0.213806 -0.069410 0.146959
-0.206860 0.045113 0.166695
-0.208150 -0.054919 0.146436
-0.206643 -0.008033 0.202005
-0.217123 0.017248 0.153899
-0.205789 0.003002 0.224613
-0.214208 0.065026 0.212952
-0.214691 -0.169393 0.139604
-0.209975 -0.070241 0.145964
-0.213739 -0.006466 0.152677
-0.207153 0.009750 0.229975
-0.211708 0.091524 0.132617
-0.206846 0.035104 0.235835
-0.207478 0.009884 0.147177
-0.207912 0.022019 0.138660
-0.208159 0.057314 0.233310
-0.208706 -0.038221 0.148414
-0.213991 0.031247 0.233218
-0.208337 0.060208 0.131026
-0.218115 -0.171632 0.136012
-0.211909 0.082537 0.122917
-0.212284 -0.030863 0.141108
-0.217662 0.133392 0.129077
-0.215318 0.058516 0.188048
-0.209013 -0.013566 0.209158
-0.208833 -0.007925 0.167328
-0.214237 0.059831 0.227320
-0.205870 0.019379 0.225811
-0.208027 0.117974 0.130472
-0.213632 0.006368 0.227128
-0.208519 0.184165 0.140590
-0.217878 -0.180590 0.136163
-0.215664 -0.012372 0.187741
-0.216395 0.102892 0.124765
-0.206179 -0.006307 0.216463
-0.208720 0.122321 0.126877
-0.217260 0.075695 0.130311
-0.213291 0.066187 0.223374
-0.208925 0.067313 0.224577
-0.212789 -0.008895 0.214893
-0.208139 0.048887 0.226199
-0.209154 0.087413 0.124580
-0.216798 -0.151089 0.138323
-0.209701 -0.100675 0.132764
-0.213298 0.068197 0.220871
-0.210258 -0.177482 0.130675
-0.214283 -0.047956 0.139771
-0.216592 0.023443 0.142931
-0.213297 0.068749 0.194465
-0.217416 0.053958 0.132745
-0.211186 0.008040 0.229665
-0.216936 -0.038955 0.147712
-0.210913 0.002321 0.146253
-0.210465 0.032116 0.164774
-0.210546 -0.143811 0.139053
-0.209279 0.059216 0.132825
-0.211409 -0.126132 0.130981
-0.215207 -0.008694 0.206763
-0.214289 0.022589 0.145457
-0.208217 -0.108481 0.134847
-0.208937 -0.003611 0.151590
-0.212594 0.179013 0.130178
-0.212844 0.068746 0.133124
-0.209295 -0.151910 0.131807
-0.213409 0.058117 0.124592
-0.211177 0.162167 0.127204
-0.210538 0.088574 0.132151
-0.206210 0.055431 0.178906
-0.215997 0.118362 0.125333
-0.214100 0.002258 0.215893
-0.210915 0.109163 0.133415
-0.207569 0.009176 0.150128
-0.215892 0.072678 0.131789
-0.211094 0.016662 0.159080
-0.209377 0.027826 0.153144
-0.213291 0.188516 0.143693
-0.213882 0.058307 0.190491
-0.215408 0.013246 0.141216
-0.217512 0.026537 0.139850
-0.208331 0.021641 0.158812
-0.214891 0.104165 0.123905
-0.210338 0.104705 0.132811
-0.217113 -0.123836 0.138865
-0.210319 -0.171904 0.138806
-0.212238 0.067806 0.191062
-0.209583 0.043698 0.135652
-0.208853 -0.001784 0.222325
-0.217117 -0.179535 0.131192
-0.212933 0.048922 0.179263
-0.207865 0.147971 0.131794
-0.213013 -0.201585 0.127831
-0.215329 0.037250 0.138845
-0.207283 0.050261 0.170107
-0.209231 0.042852 0.135606
-0.213684 0.193130 0.135019
-0.208052 -0.093782 0.137557
-0.217033 0.091340 0.124949
-0.216760 0.172937 0.136498
-0.208833 -0.016075 0.201751
-0.209250 0.024749 0.160912
-0.206291 -0.012697 0.185074
-0.208759 -0.073000 0.144030
-0.217764 0.133028 0.129733
-0.208777 -0.005145 0.162447
-0.217370 -0.199980 0.134635
-0.216253 -0.001939 0.153542
-0.210564 0.107200 0.124334
-0.208038 0.174014 0.131903
-0.207692 0.165227 0.131929
-0.207608 0.174073 0.134634
-0.214789 -0.017041 0.191994
-0.207828 0.188949 0.140847
-0.209833 0.010612 0.220293
-0.210817 0.136501 0.125390
-0.213508 0.057684 0.223911
-0.208089 0.077751 0.128575
-0.214876 -0.010126 0.195047
-0.208920 -0.039791 0.148512
-0.217189 -0.064333 0.145471
-0.213160 0.138389 0.134903
-0.209599 -0.032927 0.141880
-0.208190 -0.129129 0.135066
-0.214715 0.030450 0.163352
-0.213226 0.168754 0.137891
-0.209223 0.000925 0.211816
-0.213681 0.128333 0.125045
-0.216714 0.028151 0.159517
-0.208976 -0.198711 0.133787
-0.214190 0.054833 0.230230
-0.210127 0.103825 0.132572
