ply
format ascii 1.0
element vertex 256
property float x
property float y
property float z
end_header
0.007603 0.215414 -0.274464
-0.092168 0.217287 -0.273566
0.101654 0.204595 -0.276142
-0.065010 0.217230 -0.275297
-0.109404 0.209657 -0.279139
0.008092 0.213135 -0.272298
-0.131487 0.210227 -0.271613
0.141260 0.207631 -0.283042
0.070393 0.205461 -0.275097
-0.097150 0.212884 -0.270685
-0.070407 0.208313 -0.278751
0.106571 0.209274 -0.272813
0.058692 0.205496 -0.275405
-0.076807 0.207957 -0.277789
0.006396 0.206176 -0.275614
-0.100128 0.217509 -0.277630
-0.008935 0.214492 -0.280403
0.166830 0.206523 -0.283141
0.045790 0.213505 -0.273373
-0.181333 0.209751 -0.276443
0.112593 0.207358 -0.273220
0.056565 0.212095 -0.272737
0.051140 0.214560 -0.279685
0.107748 0.213505 -0.275304
-0.010484 0.214034 -0.280760
0.034371 0.211653 -0.281902
-0.182810 0.210157 -0.272263
-0.073747 0.207498 -0.276051
-0.123558 0.216890 -0.278969
0.090212 0.213216 -0.274330
-0.008157 0.216166 -0.275663
-0.184141 0.219077 -0.276657
0.099023 0.208239 -0.272870
-0.042281 0.216483 -0.274336
0.114721 0.209496 -0.282831
0.167073 0.210816 -0.276787
-0.114926 0.208372 -0.276574
-0.007011 0.211663 -0.281569
-0.108512 0.209066 -0.278432
0.167098 0.212179 -0.276730
-0.042928 0.216901 -0.276413
0.166941 0.204046 -0.277588
0.041519 0.208661 -0.281778
-0.177380 0.211085 -0.278578
-0.124306 0.213896 -0.270464
0.084805 0.204613 -0.277683
-0.008109 0.206367 -0.276010
0.033313 0.215196 -0.275335
0.072723 0.211569 -0.272810
0.093983 0.205632 -0.274482
0.059011 0.206659 -0.273677
-0.078018 0.212534 -0.280878
-0.171685 0.218223 -0.271921
0.101436 0.205583 -0.281055
0.128958 0.209414 -0.273118
-0.069886 0.216576 -0.273247
0.040145 0.208446 -0.281664
0.066517 0.214926 -0.277437
-0.165207 0.209661 -0.277102
-0.170428 0.215860 -0.279614
0.073439 0.205943 -0.280569
0.090629 0.214267 -0.279069
0.101709 0.207190 -0.282249
0.101809 0.204866 -0.280028
0.135165 0.203756 -0.277551
-0.145026 0.213095 -0.270273
0.089135 0.208582 -0.272746
0.013453 0.215717 -0.275514
-0.122553 0.216647 -0.279152
0.002694 0.216056 -0.277006
-0.079582 0.213879 -0.280695
-0.007262 0.206545 -0.278159
0.058788 0.205153 -0.276693
0.125745 0.208787 -0.282995
0.097385 0.204668 -0.279310
-0.017766 0.211203 -0.271543
-0.124852 0.210461 -0.271410
-0.011987 0.207028 -0.274072
-0.104997 0.213385 -0.280557
0.084521 0.205804 -0.274384
-0.023863 0.208919 -0.272235
0.068418 0.205572 -0.274900
0.016711 0.211150 -0.281827
0.086064 0.214445 -0.276582
-0.165301 0.209147 -0.274975
0.087338 0.214550 -0.277633
-0.078524 0.212239 -0.280833
0.143235 0.204148 -0.275828
-0.137423 0.210671 -0.279234
-0.171388 0.216081 -0.279520
-0.048494 0.212030 -0.271189
0.000959 0.209938 -0.281548
-0.080165 0.217475 -0.274905
0.144921 0.213489 -0.278061
-0.041125 0.214830 -0.280257
0.084847 0.210332 -0.272674
-0.028292 0.214866 -0.280185
0.053821 0.205325 -0.278492
0.028829 0.208801 -0.272381
-0.134539 0.215424 -0.270687
-0.130499 0.211674 -0.279939
-0.068829 0.211460 -0.280855
-0.036502 0.208247 -0.279820
0.125489 0.204827 -0.280890
0.166003 0.206230 -0.283005
-0.007236 0.206434 -0.275391
0.096204 0.210295 -0.272814
-0.044487 0.206976 -0.276433
-0.049106 0.209237 -0.272080
0.147667 0.205088 -0.281897
0.073483 0.204830 -0.277651
-0.042655 0.210669 -0.271414
-0.121403 0.211203 -0.279907
0.021638 0.213464 -0.272754
0.028877 0.209469 -0.281844
-0.018924 0.212511 -0.281362
0.076837 0.212230 -0.273157
-0.020155 0.207097 -0.278791
0.142251 0.211757 -0.274383
0.070917 0.208576 -0.282265
0.145031 0.204058 -0.280425
-0.053708 0.213808 -0.271468
0.135877 0.212601 -0.281130
0.081411 0.211841 -0.282004
-0.034829 0.212958 -0.281175
0.059891 0.205902 -0.274584
0.140917 0.212234 -0.281542
-0.142712 0.217239 -0.271645
0.164261 0.211571 -0.282032
0.048254 0.206872 -0.273551
-0.113697 0.218168 -0.275187
-0.041790 0.206914 -0.276159
-0.022507 0.209074 -0.272120
-0.025209 0.207102 -0.274337
0.099339 0.213134 -0.274534
-0.130884 0.214080 -0.270404
0.153801 0.206149 -0.282752
-0.167597 0.217920 -0.278230
-0.076481 0.210956 -0.271185
-0.174003 0.214914 -0.279802
-0.066892 0.213661 -0.280823
-0.094262 0.208268 -0.277593
-0.011841 0.213237 -0.271983
-0.077012 0.211214 -0.271076
-0.067949 0.217092 -0.277560
0.047603 0.213153 -0.273148
-0.048457 0.210455 -0.271473
-0.083104 0.217176 -0.273791
-0.175401 0.210469 -0.271758
-0.151626 0.214093 -0.280089
-0.080782 0.217493 -0.274951
-0.130512 0.210812 -0.271161
-0.169834 0.209869 -0.277353
-0.109909 0.217283 -0.272803
-0.025287 0.215457 -0.273311
0.017007 0.205947 -0.276000
-0.184061 0.210654 -0.277924
-0.179742 0.211434 -0.270857
-0.086252 0.208599 -0.278583
-0.171985 0.212166 -0.270408
0.045540 0.207527 -0.273058
-0.035501 0.210064 -0.271672
-0.160124 0.214664 -0.270106
-0.014991 0.206676 -0.278056
-0.113213 0.217320 -0.278290
-0.064151 0.207379 -0.276568
0.147439 0.213323 -0.279278
-0.184531 0.213141 -0.275366
-0.022841 0.209228 -0.280858
0.103542 0.207607 -0.282454
0.032935 0.213072 -0.281345
-0.059465 0.208112 -0.273289
0.116084 0.204090 -0.278356
0.004579 0.207350 -0.273431
-0.053777 0.209584 -0.280438
-0.125989 0.209102 -0.277882
0.025492 0.213052 -0.272576
-0.037444 0.208581 -0.280066
-0.002125 0.207171 -0.273754
-0.136298 0.217902 -0.272710
-0.088301 0.213712 -0.270901
-0.145294 0.218640 -0.276278
-0.183580 0.212897 -0.270072
-0.135334 0.218040 -0.277527
0.029528 0.215537 -0.277525
0.002773 0.215997 -0.277448
-0.115211 0.217363 -0.278261
-0.163512 0.218610 -0.277095
-0.082882 0.216433 -0.279043
0.003761 0.215987 -0.276069
0.015112 0.207729 -0.280693
0.049728 0.214917 -0.275553
-0.144742 0.210468 -0.278900
-0.010031 0.215648 -0.274080
-0.047484 0.216901 -0.276997
-0.025413 0.210612 -0.271560
-0.128808 0.214812 -0.280168
-0.001566 0.215449 -0.279244
-0.087091 0.213450 -0.270882
0.061246 0.206577 -0.280934
-0.061820 0.214303 -0.280572
0.134326 0.210812 -0.273601
0.146154 0.209904 -0.273438
-0.007749 0.209468 -0.271999
-0.099327 0.217185 -0.278280
-0.170025 0.213412 -0.279815
-0.083856 0.208952 -0.272519
0.041627 0.208905 -0.281881
-0.092667 0.208993 -0.278878
-0.152949 0.210404 -0.271553
-0.114211 0.214750 -0.280236
-0.176489 0.212493 -0.270260
-0.025041 0.208360 -0.272669
-0.006553 0.206887 -0.279023
-0.018840 0.215159 -0.273142
-0.087871 0.207897 -0.274576
-0.002587 0.206451 -0.275150
-0.161154 0.218919 -0.276182
-0.182230 0.211853 -0.279049
-0.024671 0.216249 -0.274726
-0.050804 0.209718 -0.271772
0.038904 0.208573 -0.272504
-0.123059 0.218265 -0.276291
0.022532 0.206028 -0.275329
-0.118576 0.211950 -0.270652
0.060824 0.210318 -0.282290
-0.101792 0.217268 -0.278206
0.115527 0.204189 -0.279028
-0.158454 0.210804 -0.271265
-0.048806 0.211357 -0.281097
-0.127444 0.215461 -0.279903
0.158607 0.204648 -0.281787
0.086264 0.204977 -0.275733
0.047024 0.214201 -0.274140
-0.050751 0.209686 -0.271785
0.149999 0.211022 -0.274008
-0.106155 0.217904 -0.274303
-0.011186 0.216286 -0.276123
0.147917 0.213390 -0.278709
0.082526 0.213124 -0.273976
0.088233 0.205431 -0.280406
-0.149396 0.213232 -0.280056
-0.092551 0.217199 -0.278126
0.074825 0.214576 -0.276092
-0.088883 0.208420 -0.273286
0.115450 0.213083 -0.275017
0.160288 0.213178 -0.277986
-0.040647 0.216267 -0.278636
0.119990 0.205082 -0.281035
0.115875 0.213639 -0.279740
-0.032195 0.214510 -0.280471
-0.058813 0.217173 -0.276380
0.117024 0.212754 -0.281181
0.113823 0.213984 -0.277206
-0.077528 0.216846 -0.273338
-0.108485 0.208198 -0.274926
