ply
format ascii 1.0
element vertex 256
property float x
property float y
property float z
end_header
-0.125226 -0.003378 0.221896
-0.135069 -0.043768 0.137933
-0.130117 0.102223 0.126933
-0.129873 0.002127 0.213700
-0.129438 -0.031133 0.135141
-0.134168 -0.024364 0.209583
-0.128080 0.058350 0.132421
-0.130913 0.004401 0.135909
-0.128879 0.091884 0.128043
-0.128681 -0.012572 0.140264
-0.124985 0.022448 0.138617
-0.125054 0.028665 0.162137
-0.137408 -0.162596 0.140194
-0.127184 0.090022 0.128818
-0.126070 -0.044798 0.174917
-0.134649 -0.003685 0.144942
-0.128712 0.030430 0.151097
-0.125171 -0.041883 0.172274
-0.125361 -0.042515 0.167397
-0.123941 0.008189 0.219946
-0.132980 0.036642 0.193880
-0.130888 0.134120 0.125596
-0.124728 0.050482 0.139378
-0.132977 0.127616 0.128145
-0.124333 0.073542 0.136556
-0.130619 -0.045877 0.181924
-0.134034 0.068551 0.134770
-0.133593 0.082468 0.137160
-0.129601 0.073374 0.140810
-0.131944 0.003961 0.147313
-0.134221 0.031078 0.158806
-0.137177 -0.141063 0.139716
-0.133413 0.013202 0.149038
-0.123716 0.122154 0.131394
-0.133309 0.060379 0.134005
-0.129903 0.106272 0.126681
-0.127670 -0.015847 0.141692
-0.132128 -0.005185 0.137272
-0.127586 -0.036888 0.179201
-0.131424 -0.011940 0.220463
-0.133822 -0.013757 0.215931
-0.126126 0.010864 0.213490
-0.123894 0.007605 0.219855
-0.130781 0.036082 0.210930
-0.124935 0.047355 0.139974
-0.125805 0.031946 0.155976
-0.131173 -0.097911 0.137282
-0.127557 0.039292 0.186966
-0.127769 -0.138184 0.142261
-0.126285 0.011426 0.143211
-0.124259 -0.001106 0.216182
-0.128405 -0.197958 0.145375
-0.130312 0.134850 0.134554
-0.124165 0.084539 0.134153
-0.128470 0.093703 0.127718
-0.125157 0.034902 0.140501
-0.125198 0.010757 0.221588
-0.130261 -0.015395 0.136121
-0.133083 -0.029311 0.198338
-0.123876 0.117728 0.129713
-0.131712 -0.050255 0.145368
-0.134579 -0.067644 0.144294
-0.127147 -0.119743 0.139524
-0.124579 0.164255 0.126269
-0.124899 0.031121 0.137836
-0.129261 0.037828 0.163120
-0.132098 -0.113244 0.146723
-0.127151 0.038459 0.204878
-0.127542 0.036756 0.143001
-0.132493 -0.005027 0.215011
-0.132990 0.025406 0.147723
-0.129792 0.064938 0.141595
-0.124490 0.036998 0.185631
-0.128426 0.064759 0.141548
-0.128415 -0.156784 0.137678
-0.126118 -0.040647 0.194759
-0.129131 -0.025690 0.214708
-0.125219 0.054527 0.134995
-0.133441 0.001324 0.145998
-0.129331 -0.038979 0.155100
-0.127091 -0.035668 0.187144
-0.137281 -0.152673 0.139822
-0.133421 0.013190 0.143500
-0.132871 0.121170 0.128225
-0.128359 0.052129 0.132968
-0.129343 -0.103836 0.137636
-0.135170 -0.020657 0.150202
-0.131603 0.088043 0.129535
-0.123764 0.152309 0.127328
-0.126050 -0.056042 0.140746
-0.135429 -0.201026 0.148372
-0.131453 0.021480 0.219767
-0.128854 -0.132542 0.143868
-0.133592 -0.012224 0.137854
-0.133548 0.124893 0.131134
-0.134533 -0.039087 0.193232
-0.130037 0.025364 0.144096
-0.126153 -0.024257 0.137834
-0.132307 0.033139 0.142940
-0.131939 0.011728 0.149526
-0.129467 -0.122154 0.145147
-0.132469 -0.007831 0.221140
-0.133163 -0.097152 0.146952
-0.125317 -0.012911 0.219226
-0.132676 -0.052345 0.145054
-0.128103 -0.036496 0.180396
-0.133126 -0.111307 0.146620
-0.124689 0.050502 0.139273
-0.126195 0.096888 0.136288
-0.133433 0.017388 0.216975
-0.132006 0.132106 0.133697
-0.133815 -0.190784 0.147255
-0.135267 -0.026106 0.152490
-0.127778 -0.166113 0.139550
-0.128996 -0.091838 0.146418
-0.125381 -0.013465 0.141332
-0.126271 0.013252 0.136580
-0.134105 0.011671 0.147535
-0.129509 0.023772 0.143550
-0.128783 -0.011091 0.146406
-0.125348 0.188963 0.140426
-0.132651 0.186564 0.134125
-0.129654 0.025756 0.144077
-0.135034 -0.152212 0.144615
-0.125142 0.030867 0.190308
-0.132354 0.066530 0.132545
-0.125439 -0.010866 0.212399
-0.125561 0.030864 0.183833
-0.126903 0.101338 0.127291
-0.127580 -0.073251 0.144238
-0.130664 0.151372 0.125078
-0.124871 -0.029967 0.200472
-0.130868 -0.128243 0.135376
-0.125505 -0.015195 0.142079
-0.133533 0.062402 0.134140
-0.131484 -0.041142 0.135466
-0.130207 0.192312 0.134587
-0.132181 0.144028 0.132767
-0.128106 -0.010225 0.221879
-0.127588 -0.052904 0.136717
-0.128367 0.051031 0.133072
-0.124553 0.033651 0.162606
-0.127293 -0.102439 0.144610
-0.134698 0.008434 0.138328
-0.123805 0.110193 0.131362
-0.124235 0.004094 0.220929
-0.123396 0.174104 0.128441
-0.128586 0.191984 0.140944
-0.135035 -0.031639 0.137597
-0.124745 0.156151 0.125984
-0.125853 -0.038871 0.166748
-0.126571 0.029817 0.169335
-0.126979 -0.045316 0.166515
-0.133804 0.101457 0.132692
-0.132161 0.038910 0.174378
-0.127107 0.020552 0.220859
-0.126395 0.195275 0.130900
-0.134010 0.004728 0.143958
-0.133976 -0.032619 0.195751
-0.125026 0.066251 0.133952
-0.130012 0.091843 0.128166
-0.133787 0.057640 0.134871
-0.123783 0.123291 0.131970
-0.126202 -0.033122 0.142087
-0.133266 -0.058680 0.144736
-0.129256 -0.123815 0.136358
-0.130464 -0.195078 0.147245
-0.135417 -0.019549 0.140102
-0.133084 0.036870 0.188664
-0.130671 -0.092551 0.137204
-0.125974 0.029069 0.151605
-0.125285 0.137760 0.133665
-0.123965 0.135808 0.131994
-0.131511 0.040891 0.142996
-0.128433 -0.029592 0.212117
-0.126426 0.012811 0.222222
-0.132279 0.131876 0.126885
-0.132826 -0.016338 0.141747
-0.131068 0.129282 0.126009
-0.133807 0.034727 0.163556
-0.125977 0.012663 0.213276
-0.133377 -0.007632 0.137912
-0.127857 -0.045780 0.179391
-0.128495 -0.122473 0.137091
-0.128830 -0.079397 0.136315
-0.133346 -0.044936 0.179913
-0.131932 0.018952 0.154175
-0.131923 0.112047 0.127426
-0.126355 -0.028557 0.156540
-0.125419 -0.038450 0.184212
-0.132661 0.017065 0.214006
-0.124246 0.098046 0.133588
-0.135304 -0.113850 0.145293
-0.135154 -0.167488 0.136804
-0.133483 -0.181492 0.136931
-0.132047 0.047015 0.133863
-0.134419 -0.012862 0.148111
-0.128899 0.038677 0.203055
-0.123831 0.033532 0.190432
-0.128971 0.044193 0.133373
-0.127490 -0.138083 0.138256
-0.135329 -0.024645 0.151039
-0.124843 0.022587 0.148074
-0.125346 -0.012730 0.144662
-0.126866 0.029499 0.194356
-0.129275 0.180601 0.128105
-0.136456 -0.095884 0.141814
-0.131959 -0.013083 0.219595
-0.126518 0.154527 0.124878
-0.131945 -0.032501 0.149897
-0.134952 -0.042355 0.177594
-0.125803 -0.006797 0.222228
-0.130438 0.000604 0.137111
-0.126346 -0.020635 0.152254
-0.127914 -0.035055 0.135912
-0.127201 0.028359 0.218576
-0.128991 0.039314 0.133536
-0.130920 -0.072050 0.135892
-0.127485 -0.152845 0.141363
-0.130400 0.054640 0.142503
-0.128707 -0.203713 0.142637
-0.127763 -0.149084 0.142250
-0.132199 0.106792 0.127840
-0.125346 -0.041895 0.188491
-0.136318 -0.125815 0.142824
-0.136407 -0.090001 0.141561
-0.134712 -0.002971 0.140302
-0.132520 -0.038283 0.198810
-0.131285 0.020287 0.211801
-0.130641 -0.175890 0.136988
-0.132140 0.167100 0.132706
-0.130939 -0.100950 0.137226
-0.125925 0.034542 0.212693
-0.133390 0.116699 0.132736
-0.135882 -0.095997 0.144718
-0.131744 -0.046271 0.135710
-0.131909 -0.044727 0.187192
-0.123819 0.035346 0.193020
-0.133806 0.062015 0.134636
-0.128210 -0.078227 0.136809
-0.129292 -0.112032 0.137455
-0.126002 0.066365 0.132777
-0.128826 -0.009315 0.211554
-0.133850 -0.015556 0.144774
-0.130062 -0.084819 0.146090
-0.126406 0.029835 0.191268
-0.134714 0.036172 0.138549
-0.129956 0.019851 0.211218
-0.131879 0.162392 0.126578
-0.127943 -0.016097 0.141597
-0.126581 -0.013379 0.220018
-0.133284 -0.200982 0.138885
-0.135857 -0.108148 0.144646
-0.134021 -0.026471 0.209968
-0.124984 0.184497 0.129402
-0.133746 -0.149246 0.135514
