ply
format ascii 1.0
element vertex 256
property float x
property float y
property float z
end_header
0.055074 -0.211997 -0.279332
0.118453 -0.208839 -0.290699
0.164005 -0.205857 -0.292247
0.179639 -0.211736 -0.285151
0.033770 -0.210801 -0.277499
-0.026373 -0.210993 -0.283716
0.099417 -0.203363 -0.284944
0.174451 -0.212595 -0.286210
0.037229 -0.211322 -0.277960
-0.036342 -0.203920 -0.278245
0.013338 -0.206133 -0.285344
-0.096530 -0.206533 -0.271782
0.053819 -0.203883 -0.284612
-0.082158 -0.210739 -0.281394
-0.047634 -0.204956 -0.281316
-0.168219 -0.213394 -0.275705
0.050823 -0.204607 -0.279695
-0.007173 -0.206631 -0.275618
0.156082 -0.208728 -0.282530
0.135074 -0.209775 -0.281784
0.038528 -0.208252 -0.287132
-0.179586 -0.207792 -0.267635
0.095645 -0.203959 -0.287042
0.031944 -0.213468 -0.280858
-0.173901 -0.212162 -0.276699
-0.023707 -0.212879 -0.276536
0.175446 -0.204536 -0.291854
0.043639 -0.203667 -0.283217
-0.068431 -0.207726 -0.272515
-0.074181 -0.212686 -0.280419
0.161712 -0.204450 -0.291059
0.113118 -0.210701 -0.289906
-0.135796 -0.207901 -0.269495
-0.056634 -0.206286 -0.282120
-0.007405 -0.213614 -0.281086
0.105007 -0.205153 -0.288970
0.023653 -0.213084 -0.283707
-0.137869 -0.211359 -0.278713
-0.131304 -0.204205 -0.274406
-0.051233 -0.210018 -0.273273
0.048683 -0.213078 -0.280623
0.025052 -0.213551 -0.280988
-0.129072 -0.212899 -0.271326
0.163498 -0.204843 -0.291526
0.013505 -0.209499 -0.285939
0.153173 -0.210915 -0.283186
-0.028920 -0.208880 -0.274138
0.087713 -0.208613 -0.279406
-0.028192 -0.206166 -0.274950
0.052554 -0.210677 -0.287280
0.083576 -0.213277 -0.283146
-0.145449 -0.211849 -0.269640
-0.093430 -0.207992 -0.271367
0.152735 -0.205036 -0.283460
-0.022806 -0.210200 -0.274620
0.079625 -0.204104 -0.286528
0.147244 -0.204098 -0.289881
0.086088 -0.206352 -0.288830
0.180194 -0.208879 -0.283647
0.099996 -0.209388 -0.289805
-0.151123 -0.204751 -0.271567
0.010206 -0.206121 -0.285186
-0.036712 -0.204985 -0.275674
0.166770 -0.203723 -0.290292
-0.184682 -0.213350 -0.269995
0.075830 -0.207654 -0.278948
0.085695 -0.213356 -0.283899
-0.160576 -0.208653 -0.268290
-0.100552 -0.207047 -0.280441
-0.142534 -0.205030 -0.276696
0.065906 -0.213371 -0.282578
0.023914 -0.209827 -0.286360
-0.170700 -0.206773 -0.277045
0.141016 -0.205016 -0.290585
0.007129 -0.212178 -0.277180
-0.184764 -0.214137 -0.271867
-0.164981 -0.210179 -0.268121
0.152738 -0.210588 -0.282942
-0.044870 -0.208477 -0.283369
0.168371 -0.203122 -0.288099
0.012935 -0.213476 -0.282370
-0.095544 -0.206724 -0.271735
-0.126280 -0.204306 -0.275784
0.097625 -0.206156 -0.280375
-0.090912 -0.204789 -0.273745
-0.123645 -0.207052 -0.270376
0.035672 -0.208270 -0.287005
0.178927 -0.203238 -0.287228
0.181313 -0.204255 -0.288352
-0.175280 -0.211194 -0.267943
0.046172 -0.205400 -0.278680
-0.111711 -0.213519 -0.277742
0.081678 -0.204953 -0.280522
0.154978 -0.205362 -0.283304
-0.179751 -0.205442 -0.275385
-0.093468 -0.213769 -0.277799
-0.082499 -0.209162 -0.271738
0.020371 -0.204300 -0.278883
0.078598 -0.206851 -0.279258
-0.120946 -0.211841 -0.270804
0.137234 -0.212597 -0.289007
-0.057899 -0.210841 -0.282407
-0.057493 -0.205606 -0.274143
-0.032697 -0.203965 -0.279961
-0.067591 -0.213827 -0.278401
-0.151481 -0.211856 -0.269357
0.077079 -0.213396 -0.283579
-0.040736 -0.207087 -0.273969
-0.132139 -0.204214 -0.274322
-0.169331 -0.208788 -0.277751
0.024748 -0.205288 -0.285241
-0.034857 -0.207864 -0.283744
0.107052 -0.211803 -0.288841
-0.150223 -0.211765 -0.278004
-0.147259 -0.209188 -0.268812
-0.090286 -0.208207 -0.281269
0.106759 -0.205625 -0.281065
0.117238 -0.207200 -0.290573
-0.128814 -0.204638 -0.276632
-0.023657 -0.208969 -0.274389
-0.132525 -0.205107 -0.277294
-0.016121 -0.203890 -0.280591
-0.009846 -0.213663 -0.280670
-0.117756 -0.209687 -0.270204
-0.152089 -0.213151 -0.270511
0.060000 -0.205217 -0.286870
0.151978 -0.208948 -0.292178
-0.128169 -0.210023 -0.269775
-0.045955 -0.211378 -0.282704
-0.097482 -0.206940 -0.271561
0.103332 -0.208329 -0.290089
0.148007 -0.203645 -0.285098
-0.116526 -0.205121 -0.278107
0.160812 -0.212983 -0.286493
0.031868 -0.207771 -0.286766
-0.162814 -0.214179 -0.272171
0.086162 -0.210707 -0.279896
0.047625 -0.203856 -0.284215
0.087432 -0.209424 -0.289241
0.142076 -0.211235 -0.282902
0.134644 -0.207894 -0.281535
-0.058318 -0.210054 -0.272955
0.122450 -0.213263 -0.285846
-0.177773 -0.205408 -0.269436
0.012891 -0.213265 -0.282878
0.173463 -0.204266 -0.285083
0.164624 -0.211868 -0.291111
0.088996 -0.203765 -0.286218
0.041732 -0.211578 -0.278373
-0.165825 -0.204458 -0.271870
-0.060948 -0.208958 -0.272691
-0.042408 -0.212803 -0.281547
-0.123194 -0.204541 -0.273089
0.168037 -0.210080 -0.283443
-0.009369 -0.206643 -0.284512
0.091112 -0.204048 -0.282058
0.154132 -0.212237 -0.284536
0.160637 -0.212894 -0.289138
-0.115099 -0.213989 -0.274178
-0.004016 -0.206660 -0.275743
-0.148893 -0.213647 -0.276082
0.047900 -0.208599 -0.287590
0.011014 -0.209129 -0.275986
0.086896 -0.208536 -0.279359
-0.004269 -0.204057 -0.278575
0.068328 -0.211746 -0.279772
-0.180095 -0.207826 -0.267599
0.126072 -0.211953 -0.282772
-0.044128 -0.211090 -0.282903
0.061652 -0.207908 -0.278283
-0.004842 -0.204004 -0.281757
0.037877 -0.210749 -0.277669
-0.083953 -0.213411 -0.274306
-0.121639 -0.212036 -0.270921
-0.133830 -0.214189 -0.274481
0.079302 -0.203483 -0.284403
0.148892 -0.210487 -0.291551
-0.081096 -0.205846 -0.280613
-0.107749 -0.207257 -0.270983
-0.150509 -0.209260 -0.278668
0.147437 -0.213050 -0.286036
0.180647 -0.206643 -0.293347
-0.000689 -0.203842 -0.281339
0.017803 -0.213164 -0.279172
0.118125 -0.208795 -0.290690
-0.034176 -0.213829 -0.278820
0.040160 -0.213410 -0.281015
-0.159370 -0.208560 -0.278173
-0.162414 -0.207136 -0.277601
-0.069249 -0.211897 -0.273316
0.115022 -0.209108 -0.290511
-0.117463 -0.205490 -0.271760
-0.029293 -0.213452 -0.277340
0.087540 -0.205853 -0.288673
0.100350 -0.203438 -0.284327
0.040356 -0.205943 -0.278017
-0.155957 -0.207358 -0.268843
-0.180124 -0.214122 -0.270860
0.159139 -0.211427 -0.291330
-0.184615 -0.205727 -0.268744
-0.108149 -0.204256 -0.276712
0.142660 -0.212652 -0.289071
0.042331 -0.213501 -0.281858
-0.166873 -0.214034 -0.271359
0.104692 -0.203947 -0.282796
0.126272 -0.208627 -0.281161
0.045190 -0.210659 -0.277971
0.021821 -0.203649 -0.281334
0.024442 -0.206885 -0.276888
0.024756 -0.203681 -0.281958
0.067675 -0.207333 -0.288337
-0.136286 -0.212501 -0.270578
0.141400 -0.211919 -0.290108
0.142260 -0.212187 -0.289794
-0.174941 -0.207485 -0.277164
-0.160612 -0.210772 -0.268450
-0.089087 -0.213727 -0.274794
-0.068164 -0.212765 -0.280558
0.166399 -0.204963 -0.291757
-0.012747 -0.205115 -0.283257
0.145823 -0.213189 -0.286980
0.019634 -0.208588 -0.286317
-0.038115 -0.213839 -0.278831
-0.014943 -0.211181 -0.275392
-0.069439 -0.212462 -0.273741
0.033735 -0.204003 -0.280086
-0.103362 -0.205730 -0.272110
0.112041 -0.213020 -0.287069
0.079512 -0.212523 -0.286825
-0.173585 -0.209039 -0.267660
-0.020816 -0.213786 -0.279458
-0.179211 -0.214245 -0.271485
0.075157 -0.204307 -0.281067
-0.183534 -0.209717 -0.267217
0.159018 -0.208742 -0.282666
-0.116149 -0.204905 -0.272576
0.170920 -0.206568 -0.292863
-0.175092 -0.205220 -0.275326
0.118561 -0.207574 -0.290682
-0.180510 -0.206857 -0.276641
0.115849 -0.203683 -0.287460
0.062976 -0.203867 -0.285066
-0.108254 -0.213017 -0.278613
-0.170261 -0.214118 -0.271379
0.160866 -0.211726 -0.291145
0.104334 -0.209283 -0.280250
-0.145246 -0.213584 -0.271433
0.060931 -0.209656 -0.288030
-0.080374 -0.213864 -0.277893
-0.020229 -0.207657 -0.274670
0.059538 -0.203844 -0.281406
-0.054068 -0.206068 -0.282075
-0.068474 -0.205573 -0.281006
0.090223 -0.210121 -0.279842
0.019791 -0.205756 -0.277292
-0.066677 -0.205144 -0.280615
