ply
format ascii 1.0
element vertex 256
property float x
property float y
property float z
end_header
-0.112681 -0.141275 0.386854
-0.116316 -0.175573 0.413071
-0.122271 -0.151611 0.358414
-0.115119 -0.156277 0.416186
-0.121593 -0.145230 0.376670
-0.121705 -0.150713 0.367245
-0.111348 -0.145948 0.388146
-0.115855 -0.153428 0.357027
-0.115855 -0.182827 0.415739
-0.113293 -0.140573 0.407171
-0.116675 -0.145699 0.411580
-0.119979 -0.162429 0.412497
-0.114256 -0.145105 0.411542
-0.122802 -0.146326 0.348097
-0.114036 -0.187051 0.417727
-0.117468 -0.152420 0.349216
-0.121632 -0.145144 0.379672
-0.110728 -0.158731 0.414354
-0.117534 -0.150323 0.384091
-0.119972 -0.150102 0.408441
-0.120745 -0.149228 0.338644
-0.120629 -0.142261 0.393791
-0.114009 -0.146518 0.354501
-0.119690 -0.156568 0.409391
-0.120198 -0.149940 0.378813
-0.114444 -0.142125 0.375913
-0.118428 -0.153991 0.355388
-0.119223 -0.153503 0.361950
-0.113273 -0.154660 0.415413
-0.120167 -0.148428 0.352007
-0.110921 -0.158987 0.408835
-0.115004 -0.183409 0.426653
-0.118616 -0.155346 0.414288
-0.119040 -0.148858 0.337507
-0.112458 -0.157946 0.415923
-0.118729 -0.167239 0.417981
-0.121339 -0.144745 0.341021
-0.118732 -0.141011 0.379815
-0.118752 -0.147746 0.335839
-0.121498 -0.145141 0.370113
-0.119499 -0.142773 0.405942
-0.111283 -0.141936 0.408081
-0.119818 -0.140319 0.390474
-0.113872 -0.149264 0.413133
-0.123594 -0.150262 0.349331
-0.115784 -0.140336 0.385493
-0.114320 -0.146600 0.349204
-0.118310 -0.150077 0.357230
-0.118165 -0.154014 0.353228
-0.112739 -0.168834 0.420028
-0.120814 -0.143489 0.392220
-0.116321 -0.142838 0.373374
-0.119480 -0.162992 0.415308
-0.121394 -0.153193 0.349794
-0.120906 -0.153210 0.355545
-0.119878 -0.167945 0.413598
-0.114720 -0.152223 0.349186
-0.115342 -0.144964 0.355567
-0.115467 -0.139246 0.388090
-0.121267 -0.149640 0.377101
-0.117017 -0.148632 0.337976
-0.110605 -0.177216 0.420840
-0.114215 -0.149863 0.380170
-0.111205 -0.143939 0.408991
-0.111661 -0.144366 0.382435
-0.118361 -0.152979 0.367294
-0.122099 -0.147500 0.372853
-0.118271 -0.153940 0.360147
-0.110379 -0.181308 0.418265
-0.112847 -0.141489 0.386064
-0.110116 -0.162659 0.413770
-0.116545 -0.180935 0.425585
-0.119740 -0.150409 0.406440
-0.111099 -0.150198 0.411636
-0.119275 -0.143960 0.361678
-0.113542 -0.149169 0.350873
-0.110796 -0.145474 0.409137
-0.114600 -0.145407 0.358677
-0.116335 -0.145266 0.336562
-0.113128 -0.150179 0.360492
-0.116614 -0.143404 0.365076
-0.111016 -0.147347 0.403158
-0.115966 -0.138272 0.394807
-0.115988 -0.145419 0.339257
-0.119117 -0.153987 0.353256
-0.110257 -0.145602 0.407822
-0.121967 -0.147239 0.374990
-0.123052 -0.147422 0.353457
-0.116296 -0.171729 0.421828
-0.114244 -0.152081 0.355747
-0.110074 -0.180854 0.421490
-0.111709 -0.146718 0.381927
-0.118776 -0.147723 0.391435
-0.116557 -0.147249 0.336376
-0.111988 -0.139478 0.400843
-0.116320 -0.145110 0.340146
-0.110878 -0.142767 0.392252
-0.112013 -0.146840 0.400089
-0.116797 -0.153779 0.348278
-0.121301 -0.149926 0.351060
-0.113947 -0.151028 0.350022
-0.116276 -0.153647 0.356189
-0.115862 -0.178539 0.424633
-0.113245 -0.147544 0.394799
-0.119603 -0.183462 0.419591
-0.117507 -0.140649 0.382118
-0.121913 -0.146796 0.374560
-0.122248 -0.146403 0.358902
-0.117427 -0.149858 0.339403
-0.113373 -0.150498 0.357264
-0.114789 -0.152564 0.354558
-0.114589 -0.183576 0.426688
-0.115077 -0.149971 0.387808
-0.110690 -0.169200 0.418009
-0.119342 -0.151168 0.358666
-0.123205 -0.148615 0.355259
-0.119331 -0.146718 0.393240
-0.120601 -0.153167 0.360290
-0.112764 -0.149033 0.363357
-0.116417 -0.154677 0.347184
-0.116965 -0.152188 0.360094
-0.122546 -0.147046 0.360883
-0.116189 -0.150426 0.386562
-0.112632 -0.149055 0.366820
-0.119755 -0.143595 0.374355
-0.114233 -0.187046 0.418070
-0.117582 -0.151133 0.350081
-0.116521 -0.144281 0.358204
-0.116911 -0.144478 0.347082
-0.118276 -0.158124 0.415403
-0.119943 -0.164227 0.414025
-0.123451 -0.146874 0.342096
-0.117796 -0.149713 0.356613
-0.119823 -0.144295 0.349913
-0.113049 -0.164160 0.418187
-0.114926 -0.140287 0.386029
-0.120316 -0.143291 0.400325
-0.120483 -0.143512 0.397612
-0.119521 -0.179188 0.416838
-0.120340 -0.142333 0.382310
-0.117832 -0.138922 0.401930
-0.118235 -0.154037 0.351016
-0.113899 -0.168417 0.420279
-0.110782 -0.143970 0.394193
-0.110471 -0.164088 0.411138
-0.121272 -0.144606 0.336718
-0.119414 -0.153926 0.352588
-0.113241 -0.172328 0.411582
-0.115058 -0.164723 0.418777
-0.113336 -0.150794 0.359252
-0.114083 -0.151631 0.367773
-0.119126 -0.150129 0.405066
-0.115828 -0.152575 0.376787
-0.121049 -0.152411 0.362650
-0.118843 -0.151348 0.359101
-0.117866 -0.151692 0.359606
-0.110284 -0.177316 0.420225
-0.111481 -0.145662 0.383227
-0.112742 -0.148793 0.382828
-0.111878 -0.177587 0.414542
-0.115222 -0.145322 0.351220
-0.121056 -0.144594 0.341500
-0.117851 -0.154001 0.354440
-0.116857 -0.140660 0.408829
-0.112022 -0.174452 0.421890
-0.118072 -0.144139 0.349468
-0.110192 -0.164605 0.414753
-0.116434 -0.153544 0.361393
-0.117215 -0.142845 0.369638
-0.120151 -0.152798 0.349090
-0.117239 -0.154611 0.347744
-0.120330 -0.141102 0.392310
-0.120864 -0.144636 0.363359
-0.121666 -0.145504 0.376826
-0.118357 -0.169564 0.411324
-0.111618 -0.186510 0.425586
-0.110962 -0.145144 0.396605
-0.116742 -0.186660 0.426581
-0.118410 -0.175005 0.414120
-0.112534 -0.142297 0.384626
-0.110012 -0.177862 0.418875
-0.110798 -0.152342 0.412624
-0.115709 -0.150181 0.341609
-0.116684 -0.178422 0.413946
-0.117072 -0.142832 0.370860
-0.113155 -0.141712 0.384119
-0.110045 -0.167428 0.414595
-0.116098 -0.171074 0.410768
-0.114796 -0.151297 0.378282
-0.113430 -0.175340 0.422839
-0.113415 -0.150106 0.403098
-0.110084 -0.146275 0.406271
-0.115703 -0.146033 0.335834
-0.117458 -0.139233 0.388756
-0.119952 -0.146787 0.407734
-0.113609 -0.175109 0.412839
-0.113831 -0.149796 0.386306
-0.117387 -0.153933 0.354403
-0.111434 -0.187108 0.418777
-0.112123 -0.139437 0.399531
-0.115544 -0.165906 0.408745
-0.114431 -0.152206 0.354516
-0.119668 -0.168658 0.416861
-0.114234 -0.149217 0.351216
-0.111659 -0.179492 0.415227
-0.121674 -0.150333 0.369093
-0.117063 -0.186985 0.425351
-0.120916 -0.144490 0.333296
-0.119226 -0.156379 0.408384
-0.113088 -0.159585 0.416726
-0.110069 -0.166866 0.413807
-0.116784 -0.184520 0.416937
-0.123106 -0.146613 0.345602
-0.121141 -0.152977 0.357648
-0.112789 -0.138947 0.399783
-0.112647 -0.187081 0.425770
-0.123604 -0.151330 0.349759
-0.122050 -0.145256 0.343927
-0.110255 -0.163044 0.414553
-0.111001 -0.180279 0.423603
-0.117933 -0.153304 0.362045
-0.114295 -0.151988 0.365362
-0.112932 -0.141885 0.384821
-0.119730 -0.147364 0.405270
-0.119791 -0.180968 0.419092
-0.113875 -0.149789 0.385034
-0.116497 -0.153100 0.365746
-0.117201 -0.152460 0.360665
-0.120857 -0.153274 0.354776
-0.121984 -0.147502 0.374722
-0.116103 -0.161594 0.417616
-0.112243 -0.142090 0.386196
-0.120410 -0.144490 0.352302
-0.112134 -0.170077 0.411129
-0.118394 -0.139325 0.402666
-0.113310 -0.149640 0.402971
-0.116013 -0.153488 0.355813
-0.114709 -0.152737 0.359768
-0.117298 -0.144003 0.359533
-0.121407 -0.145208 0.383342
-0.113518 -0.185788 0.417152
-0.111256 -0.160174 0.408692
-0.111715 -0.149881 0.412232
-0.110120 -0.153228 0.411186
-0.111925 -0.148975 0.403624
-0.121418 -0.146757 0.380669
-0.110016 -0.187081 0.422047
-0.119950 -0.156302 0.410837
-0.113432 -0.187064 0.421145
-0.111822 -0.139969 0.396291
-0.114868 -0.151944 0.345451
-0.111720 -0.145079 0.379340
-0.115503 -0.150403 0.386702
-0.109971 -0.185068 0.422080
-0.120311 -0.144475 0.353994
-0.115114 -0.148196 0.393909
