ply
format ascii 1.0
element vertex 256
property float x
property float y
property float z
end_header
0.036288 -0.155630 0.013869
0.102448 -0.147861 0.107504
0.025796 -0.157961 0.005226
0.108423 -0.144687 0.105747
0.023756 -0.151862 0.081186
0.160045 -0.146930 0.075515
0.021013 -0.147439 0.085214
0.134171 -0.155989 0.070625
0.012990 -0.155619 0.101010
0.056747 -0.147303 0.085323
0.030645 -0.161568 0.004378
0.034116 -0.155035 -0.006412
0.127938 -0.144542 0.106102
0.132038 -0.151980 0.108012
0.128302 -0.153579 0.102022
0.036109 -0.156084 0.012790
0.153180 -0.147903 0.064467
0.031194 -0.150037 0.030186
0.029459 -0.147739 0.098423
0.153366 -0.154012 0.083586
0.153817 -0.145972 0.079646
0.018986 -0.146811 0.089589
0.043441 -0.147698 0.086415
0.142112 -0.153270 0.100699
0.031602 -0.160129 0.027443
0.081097 -0.145936 0.093351
0.035910 -0.152850 0.022802
0.146696 -0.146099 0.098191
0.126486 -0.150472 0.072128
0.025230 -0.158622 -0.003934
0.022207 -0.159056 -0.020603
0.082238 -0.146459 0.100037
0.016603 -0.152057 0.067359
0.136217 -0.145881 0.099796
0.026581 -0.160673 -0.003674
0.030695 -0.161968 -0.002118
0.029638 -0.151283 0.015847
0.026910 -0.157198 0.016816
0.031585 -0.161558 0.002973
0.145563 -0.152966 0.105374
0.154662 -0.154889 0.078210
0.053550 -0.146941 0.085913
0.023570 -0.151573 0.085729
0.031605 -0.154669 0.047093
0.153088 -0.147900 0.064389
0.023741 -0.154943 0.078738
0.065859 -0.146196 0.091203
0.019984 -0.147291 0.095048
0.154829 -0.154354 0.092314
0.022284 -0.155803 0.098940
0.022515 -0.155539 0.042324
0.077458 -0.152476 0.099340
0.030513 -0.161470 0.006020
0.141234 -0.153900 0.063650
0.026728 -0.149924 0.038142
0.117178 -0.152562 0.100343
0.152908 -0.146033 0.083716
0.021775 -0.147738 0.069909
0.037872 -0.147103 0.088358
0.035011 -0.153216 0.087592
0.023628 -0.148900 0.076180
0.123571 -0.146962 0.099572
0.032773 -0.160977 -0.011583
0.126080 -0.150500 0.071389
0.014533 -0.152491 0.097828
0.082035 -0.149825 0.091014
0.027390 -0.157954 0.022815
0.022470 -0.156587 0.045818
0.146250 -0.143933 0.102200
0.017268 -0.151006 0.095091
0.111867 -0.152869 0.100606
0.026617 -0.149382 0.041983
0.013859 -0.155826 0.100572
0.092314 -0.153520 0.096045
0.142763 -0.151800 0.107078
0.132966 -0.148453 0.108972
0.030459 -0.151206 0.049011
0.033951 -0.153230 0.037723
0.101023 -0.152242 0.097655
0.032005 -0.156719 0.042388
0.032751 -0.156157 0.041172
0.107301 -0.154030 0.101873
0.141474 -0.152410 0.062955
0.062802 -0.146267 0.086989
0.059380 -0.146391 0.086772
0.078317 -0.146459 0.091579
0.128002 -0.151473 0.072186
0.033634 -0.159931 0.024056
0.033883 -0.159604 -0.008694
0.026733 -0.152441 0.027924
0.105996 -0.148587 0.108444
0.033771 -0.151831 0.035221
0.100897 -0.151896 0.106490
0.070956 -0.145665 0.091689
0.034330 -0.154479 0.037198
0.076221 -0.149501 0.099345
0.103168 -0.146489 0.106924
0.036034 -0.157077 0.013026
0.030649 -0.161213 -0.023912
0.134060 -0.146880 0.073702
0.044230 -0.146992 0.087125
0.024454 -0.158559 0.048746
0.108668 -0.151794 0.099546
0.098635 -0.147079 0.106107
0.048599 -0.152586 0.094056
0.020663 -0.147342 0.083682
0.036034 -0.153178 0.020922
0.013025 -0.145925 0.103181
0.136898 -0.153860 0.104470
0.014572 -0.148914 0.084060
0.026550 -0.150218 0.063535
0.020029 -0.151472 0.055596
0.019598 -0.147712 0.094531
0.022286 -0.151652 0.103869
0.151578 -0.151410 0.082631
0.036633 -0.155054 0.021930
0.020853 -0.155369 0.052370
0.024374 -0.156900 0.037711
0.024311 -0.154867 -0.014907
0.143970 -0.155931 0.068802
0.084319 -0.146239 0.100804
0.014487 -0.145692 0.104407
0.151823 -0.148664 0.075025
0.033984 -0.159360 -0.007668
0.020503 -0.148526 0.062662
0.152441 -0.153138 0.083086
0.024369 -0.157278 -0.009953
0.144019 -0.151530 0.098513
0.156592 -0.150748 0.065547
0.028132 -0.151823 0.023311
0.017962 -0.156900 0.076987
0.138102 -0.152382 0.063258
0.024759 -0.148831 0.065317
0.069917 -0.154903 0.088098
0.020276 -0.157571 0.070333
0.013570 -0.154830 0.089689
0.025827 -0.150535 0.068895
0.106573 -0.154219 0.104747
0.016075 -0.155738 0.102044
0.027996 -0.152891 -0.015348
0.013341 -0.149029 0.088267
0.013901 -0.150293 0.083362
0.026503 -0.152610 0.028716
0.023575 -0.152152 0.083591
0.009705 -0.148774 0.102158
0.093863 -0.146827 0.104535
0.142022 -0.145346 0.099586
0.021949 -0.148228 0.083325
0.024472 -0.157300 -0.006089
0.019441 -0.154538 0.056522
0.066921 -0.155740 0.088824
0.141249 -0.151431 0.098862
0.059041 -0.151793 0.093549
0.111620 -0.153929 0.102242
0.024978 -0.150220 0.040878
0.157036 -0.145179 0.079464
0.088021 -0.145136 0.099672
0.031629 -0.151167 0.011969
0.054711 -0.155555 0.086574
0.033327 -0.147315 0.096301
0.157045 -0.153162 0.094814
0.025958 -0.158315 0.008230
0.034447 -0.151334 0.024353
0.059082 -0.152002 0.083761
0.055519 -0.146200 0.089722
0.148376 -0.144915 0.098893
0.026499 -0.154313 -0.028586
0.020073 -0.147478 0.074212
0.016997 -0.147209 0.083176
0.029230 -0.151723 0.005872
0.040274 -0.155909 0.089261
0.028429 -0.152208 0.002311
0.032373 -0.152340 -0.002000
0.032397 -0.159117 0.034140
0.035244 -0.158479 0.000342
0.022184 -0.162317 -0.025677
0.136800 -0.147744 0.065195
0.019798 -0.157370 0.074982
0.025088 -0.160108 -0.009956
0.019550 -0.147900 0.095891
0.130954 -0.144414 0.105931
0.018106 -0.156742 0.085562
0.034805 -0.154233 0.001696
0.137427 -0.156038 0.069080
0.020427 -0.151234 0.097544
0.060875 -0.146772 0.086006
0.126383 -0.153116 0.066644
0.029830 -0.149448 0.099292
0.150822 -0.153938 0.097662
0.142638 -0.150652 0.073402
0.135509 -0.144212 0.105367
0.129730 -0.153996 0.103618
0.115100 -0.147249 0.108596
0.009289 -0.150325 0.104485
0.095726 -0.152385 0.105427
0.146540 -0.143947 0.101922
0.023483 -0.148621 0.075047
0.027040 -0.157501 0.023494
0.026410 -0.152948 0.090621
0.109049 -0.147546 0.099307
0.026937 -0.160367 -0.001140
0.030246 -0.160045 -0.027571
0.143340 -0.149243 0.107951
0.049543 -0.146202 0.088101
0.018871 -0.155317 0.059145
0.013990 -0.155596 0.092249
0.129198 -0.149343 0.109028
0.135837 -0.153595 0.064973
0.032502 -0.160775 0.016007
0.155557 -0.154458 0.090432
0.029195 -0.155663 0.056722
0.034401 -0.152419 0.033603
0.157969 -0.154525 0.084158
0.148358 -0.151278 0.097484
0.025089 -0.156005 0.095866
0.027733 -0.160941 0.000853
0.103536 -0.150393 0.097455
0.148834 -0.155073 0.070553
0.029423 -0.159964 0.021332
0.021770 -0.157035 -0.026012
0.073105 -0.147494 0.097089
0.026308 -0.150628 0.065910
0.027168 -0.161736 -0.006832
0.128773 -0.147896 0.071963
0.033986 -0.152006 0.034568
0.150354 -0.147110 0.064580
0.148300 -0.155480 0.069943
0.156796 -0.146347 0.068529
0.060062 -0.150671 0.083665
0.024253 -0.146065 0.096104
0.037086 -0.154315 0.087628
0.085850 -0.151801 0.103149
0.030121 -0.162283 -0.007139
0.023499 -0.148412 0.072850
0.099462 -0.144773 0.100622
0.129931 -0.155826 0.069623
0.062289 -0.155150 0.085969
0.030728 -0.149920 0.038083
0.102164 -0.148684 0.096955
0.127691 -0.148220 0.066966
0.013291 -0.149241 0.088053
0.028568 -0.151990 0.004637
0.027219 -0.159309 0.040295
0.140953 -0.145260 0.106567
0.070861 -0.155596 0.091795
0.026099 -0.155978 0.095113
0.128782 -0.145753 0.107804
0.045684 -0.155978 0.090796
0.098016 -0.154531 0.102672
0.127948 -0.145493 0.107500
0.144089 -0.144616 0.105361
0.096059 -0.145479 0.098312
0.159429 -0.145959 0.082442
0.023405 -0.157544 0.067025
0.133861 -0.153067 0.065384
0.105494 -0.149706 0.108416
