ply
format ascii 1.0
element vertex 256
property float x
property float y
property float z
end_header
0.013548 0.164169 0.082740
0.009864 0.160759 -0.005141
0.048862 0.158768 0.097467
0.002668 0.169922 -0.029625
0.012468 0.155902 0.088633
0.003834 0.161840 0.015073
0.010915 0.168069 0.016521
-0.000487 0.163262 -0.029025
-0.005293 0.155341 0.079591
0.003770 0.162082 0.013652
0.063732 0.155064 0.099287
0.046577 0.162346 0.095659
0.076862 0.160173 0.108499
0.013119 0.165726 0.006427
0.111860 0.158426 0.075493
0.069377 0.155203 0.101597
0.104042 0.155624 0.101103
0.002254 0.161046 0.032637
0.104327 0.165715 0.071627
0.026403 0.162668 0.080653
0.108360 0.166725 0.070745
0.000539 0.165681 0.051096
0.004884 0.166466 0.053028
0.007810 0.162469 0.056535
0.025092 0.161313 0.089743
-0.009745 0.159946 0.080938
0.048033 0.158454 0.096902
0.109404 0.163323 0.074480
0.054342 0.164194 0.097804
0.033945 0.155368 0.083925
0.105567 0.155751 0.105945
0.008869 0.160163 0.047052
0.002495 0.160665 -0.014778
0.049352 0.162524 0.097074
0.022265 0.157402 0.089094
0.046584 0.159082 0.096247
0.011997 0.161014 0.005677
0.066450 0.163448 0.102004
0.116539 0.165421 0.090115
0.062082 0.164752 0.098205
0.119729 0.166173 0.083350
0.123483 0.156953 0.087139
0.069007 0.157440 0.104060
-0.005933 0.155953 0.087010
-0.006072 0.157859 0.074976
0.005274 0.166841 0.047655
0.109354 0.166512 0.071387
-0.005857 0.160463 0.073089
0.106372 0.159379 0.097734
0.007098 0.159781 0.093157
0.046478 0.157266 0.085031
0.116554 0.163929 0.086092
0.006308 0.167431 -0.021931
0.003928 0.162329 0.000157
0.079304 0.154737 0.104340
0.058344 0.159914 0.091398
0.030084 0.159705 0.089892
0.005927 0.170049 -0.008714
-0.000876 0.160217 0.093716
0.125221 0.159072 0.087540
0.003727 0.157649 0.040402
-0.001568 0.161189 0.093982
0.004501 0.170378 -0.015730
0.114413 0.157618 0.078318
0.087037 0.164280 0.105615
0.122936 0.162555 0.079760
0.076071 0.159602 0.108230
0.087801 0.165232 0.061850
0.124131 0.160152 0.090734
0.119351 0.156473 0.093782
0.082020 0.159636 0.108514
0.061333 0.157324 0.092849
0.077628 0.161434 0.108197
0.044139 0.164560 0.085316
0.050429 0.161478 0.098235
0.040424 0.161956 0.091319
0.116666 0.155676 0.093389
0.016501 0.161512 0.080179
0.006832 0.169163 0.004791
0.121097 0.156474 0.083436
0.104265 0.164873 0.104240
0.005222 0.159748 0.069068
0.122441 0.160634 0.077640
-0.000376 0.161070 0.084177
0.102773 0.163437 0.107062
-0.000117 0.164938 0.050064
0.001480 0.161077 -0.024992
0.007933 0.159168 0.050858
0.025724 0.155221 0.085759
0.009481 0.169083 0.008184
-0.005927 0.156675 0.076596
0.017347 0.160244 0.089877
0.006789 0.169335 -0.015605
0.022686 0.155512 0.086875
0.006608 0.164725 0.088431
0.106175 0.162176 0.098478
0.009723 0.158888 0.018448
0.013201 0.163111 0.009069
0.067882 0.155138 0.100638
0.002140 0.156340 0.073008
-0.000525 0.166517 -0.030124
0.004364 0.161670 0.000808
-0.001768 0.154922 0.087382
0.003008 0.160994 0.024629
0.004865 0.164702 0.088606
0.105982 0.164148 0.105889
0.005372 0.165746 0.056967
0.002695 0.164698 0.070860
0.022899 0.165055 0.084233
0.004605 0.165336 -0.031075
0.096312 0.163499 0.100195
-0.000065 0.162210 0.042487
0.092628 0.157411 0.066624
-0.008245 0.158125 0.087368
0.108747 0.156576 0.106110
-0.001344 0.169758 -0.020764
0.105967 0.156871 0.099114
0.059428 0.164788 0.097429
0.004897 0.167391 0.032019
0.006841 0.166233 0.047675
-0.000666 0.159926 0.086538
0.008709 0.163368 0.049178
-0.004949 0.164402 0.076348
0.108349 0.163256 0.074395
-0.001857 0.160761 0.054825
0.005391 0.160300 0.007228
0.053913 0.163824 0.091204
-0.001241 0.163596 0.092083
0.005322 0.170192 -0.011630
0.103427 0.166852 0.067643
0.122213 0.157334 0.082265
0.002231 0.170801 -0.026209
-0.009460 0.162651 0.090096
0.054830 0.161634 0.100419
0.052317 0.162557 0.089022
0.077279 0.156287 0.099255
0.013480 0.160512 0.080412
0.054721 0.158544 0.100536
-0.000767 0.158436 0.090272
0.001927 0.163850 0.085472
0.103830 0.155992 0.100513
-0.000994 0.165515 0.066709
0.003548 0.156514 0.059192
0.011318 0.157916 0.090878
0.070673 0.164697 0.100816
0.018896 0.163061 0.080923
-0.007851 0.161796 0.077732
0.002968 0.156421 0.084473
0.017280 0.155626 0.087184
0.067191 0.155055 0.097261
-0.000114 0.161222 0.083563
0.002585 0.164094 0.024452
0.011126 0.168600 0.004276
-0.001841 0.162879 0.093035
0.124785 0.160447 0.089842
0.103549 0.163019 0.073126
0.094473 0.162550 0.069531
0.085065 0.158748 0.070069
0.005598 0.166259 0.052121
0.083920 0.165527 0.065070
0.071363 0.156748 0.104820
0.003032 0.161627 0.023043
0.117151 0.157217 0.072884
0.003026 0.161202 0.083459
0.001028 0.155786 0.071355
-0.000705 0.155511 0.073910
0.001331 0.165017 0.039045
0.088510 0.155944 0.100384
-0.001163 0.161898 0.087904
0.105083 0.156721 0.099467
0.029969 0.164992 0.083702
-0.000501 0.164268 -0.030130
0.108503 0.164964 0.101128
0.003232 0.166408 0.034431
0.058603 0.161409 0.091710
-0.001960 0.162177 -0.022594
0.003938 0.155912 0.085012
0.009521 0.158560 0.031771
0.096792 0.163421 0.059397
0.110695 0.158266 0.093964
0.114027 0.160123 0.083725
-0.000120 0.165359 0.074278
0.115784 0.165157 0.097445
0.001018 0.155827 0.070579
0.004590 0.167143 0.013694
-0.001733 0.156652 0.084900
0.002103 0.163135 0.031342
-0.001879 0.164368 0.061022
0.004997 0.162074 0.083827
0.056520 0.155101 0.094557
0.047310 0.155078 0.090797
0.076942 0.158296 0.108325
0.099463 0.156420 0.100016
0.011613 0.167788 0.011867
-0.004528 0.164574 0.086373
0.030311 0.163934 0.088183
0.000796 0.165911 0.064016
0.049660 0.160130 0.086395
0.002040 0.163536 0.032208
0.028686 0.160805 0.089870
-0.000643 0.159659 0.086366
0.086732 0.164492 0.102115
0.003726 0.170491 -0.019417
-0.000542 0.168260 -0.029520
0.035187 0.161156 0.089821
0.072027 0.156147 0.096906
0.100026 0.154940 0.104016
0.098579 0.161223 0.098793
0.046295 0.158947 0.096042
0.001850 0.170762 -0.020496
0.022233 0.165043 0.084160
0.093481 0.156355 0.107107
0.010292 0.162327 -0.007871
-0.000458 0.160809 0.045818
0.000019 0.163634 0.080485
0.083530 0.163666 0.100509
0.113422 0.163890 0.065984
0.081818 0.159956 0.098592
0.055211 0.156638 0.091212
-0.005734 0.154830 0.084655
0.009136 0.168461 0.019916
0.003652 0.165980 0.021078
0.114452 0.162035 0.066140
0.069809 0.155341 0.097152
0.074462 0.156482 0.106132
-0.001258 0.163724 0.053740
-0.000734 0.162495 0.093022
0.012330 0.163933 0.025629
0.053481 0.164670 0.096052
-0.003271 0.161508 0.064224
0.000056 0.163097 0.092241
0.006529 0.158929 0.019197
0.094152 0.154984 0.104659
0.009811 0.165359 0.039436
0.048015 0.161959 0.085497
0.000968 0.155846 0.069931
0.102749 0.164079 0.106291
0.015580 0.164504 0.082825
-0.002286 0.164939 0.080006
0.008825 0.164811 0.087367
0.076286 0.160139 0.097248
0.003835 0.163571 0.070148
0.099594 0.160192 0.098602
0.110360 0.159878 0.065072
0.119013 0.164805 0.072672
0.105671 0.158685 0.073016
0.113037 0.159789 0.079394
0.093802 0.160002 0.059800
0.038010 0.164135 0.088310
0.101065 0.156683 0.099762
0.006265 0.168676 0.009714
0.004758 0.157190 0.044805
-0.004177 0.161228 0.084590
0.098210 0.164683 0.104757
0.111244 0.162053 0.076848
0.005394 0.164253 0.086081
