ply
format ascii 1.0
element vertex 256
property float x
property float y
property float z
end_header
-0.110403 0.189496 0.433993
-0.104525 0.171699 0.425057
-0.110394 0.154432 0.376690
-0.104327 0.161873 0.414065
-0.111287 0.163015 0.406350
-0.114684 0.164657 0.368068
-0.106748 0.159413 0.372375
-0.112329 0.155009 0.381575
-0.107355 0.163641 0.383928
-0.102496 0.177005 0.424871
-0.113192 0.161374 0.399772
-0.104161 0.158789 0.393870
-0.112717 0.162378 0.396769
-0.112937 0.159097 0.413486
-0.103182 0.166965 0.421704
-0.107923 0.180840 0.430357
-0.103960 0.179173 0.427722
-0.113789 0.159485 0.399665
-0.110707 0.175549 0.418371
-0.102585 0.162935 0.418328
-0.111186 0.191432 0.430632
-0.101559 0.186043 0.428946
-0.105416 0.156057 0.391747
-0.111654 0.162268 0.412469
-0.112393 0.162935 0.416526
-0.101603 0.188606 0.426828
-0.115133 0.163632 0.369922
-0.104634 0.156603 0.397474
-0.102723 0.165324 0.417306
-0.106723 0.155243 0.385940
-0.109468 0.155313 0.420153
-0.104682 0.157015 0.393653
-0.111051 0.183033 0.421998
-0.103353 0.180904 0.420168
-0.101615 0.184776 0.426374
-0.108083 0.172407 0.426125
-0.109206 0.163001 0.365437
-0.104207 0.186526 0.432628
-0.106839 0.155438 0.380922
-0.104834 0.162122 0.422401
-0.105211 0.160045 0.377446
-0.107503 0.165665 0.372082
-0.104003 0.156180 0.409884
-0.110820 0.154972 0.418233
-0.103808 0.170732 0.424462
-0.104761 0.158065 0.386750
-0.105086 0.181594 0.432804
-0.103936 0.159066 0.397818
-0.103646 0.164196 0.421852
-0.110386 0.193497 0.434777
-0.107883 0.183862 0.419743
-0.111811 0.158495 0.419612
-0.113103 0.163344 0.378419
-0.103990 0.155981 0.411937
-0.114463 0.159451 0.388450
-0.107513 0.155021 0.380615
-0.103301 0.169940 0.417056
-0.111241 0.166609 0.368747
-0.105314 0.161206 0.381092
-0.115188 0.160680 0.375997
-0.113367 0.161712 0.394665
-0.111071 0.191713 0.431955
-0.105951 0.180628 0.430324
-0.113259 0.156582 0.396477
-0.110591 0.154410 0.382650
-0.107258 0.163450 0.366502
-0.103999 0.169315 0.424583
-0.104213 0.161587 0.405486
-0.111829 0.154800 0.384435
-0.108701 0.159456 0.372949
-0.107164 0.183676 0.419589
-0.112474 0.155130 0.384317
-0.101959 0.186280 0.425078
-0.112466 0.156289 0.408169
-0.111614 0.162118 0.414855
-0.111126 0.191562 0.431314
-0.103546 0.187840 0.434264
-0.105617 0.161956 0.369731
-0.103667 0.190955 0.434324
-0.111511 0.154878 0.398675
-0.101397 0.190277 0.428745
-0.102660 0.170315 0.418642
-0.110433 0.154372 0.386552
-0.112263 0.156733 0.417367
-0.111049 0.167474 0.415303
-0.112426 0.161960 0.416325
-0.111127 0.190944 0.431153
-0.110368 0.164205 0.385674
-0.110552 0.164275 0.381103
-0.113303 0.161375 0.398129
-0.109910 0.176868 0.418291
-0.106537 0.164784 0.374422
-0.101674 0.187558 0.426256
-0.110756 0.166203 0.415021
-0.112499 0.155604 0.396439
-0.112604 0.158315 0.417785
-0.102489 0.168537 0.420873
-0.111819 0.176147 0.420775
-0.103760 0.160407 0.404127
-0.101250 0.190907 0.431249
-0.105555 0.162587 0.371583
-0.114423 0.158045 0.386498
-0.104467 0.186787 0.422489
-0.103644 0.157704 0.405414
-0.104231 0.156389 0.404976
-0.105264 0.159013 0.376021
-0.103024 0.157393 0.416141
-0.109377 0.159470 0.374148
-0.104519 0.161944 0.404010
-0.103576 0.178336 0.419231
-0.105578 0.156101 0.389026
-0.106326 0.163272 0.393434
-0.110602 0.180267 0.427408
-0.101478 0.190961 0.434191
-0.108531 0.182081 0.431881
-0.110961 0.160361 0.365312
-0.104971 0.173950 0.416531
-0.106088 0.155411 0.390621
-0.110172 0.163502 0.422973
-0.103701 0.161077 0.420700
-0.105265 0.186248 0.432656
-0.110925 0.154509 0.394758
-0.103673 0.182213 0.431847
-0.103031 0.164745 0.416594
-0.114034 0.156610 0.381824
-0.109605 0.154193 0.416165
-0.105057 0.179771 0.429150
-0.109014 0.154328 0.386481
-0.114316 0.161491 0.382453
-0.112903 0.160755 0.408662
-0.108938 0.154142 0.397457
-0.106472 0.158216 0.372745
-0.111519 0.181783 0.422461
-0.112837 0.155650 0.390066
-0.104419 0.158213 0.391586
-0.108196 0.159445 0.371534
-0.107460 0.154177 0.403130
-0.109783 0.187460 0.423491
-0.110507 0.190850 0.426400
-0.110503 0.184760 0.431105
-0.111756 0.154671 0.376263
-0.106615 0.164674 0.369721
-0.107943 0.181776 0.431762
-0.109957 0.194798 0.434003
-0.103042 0.159706 0.413159
-0.103675 0.160520 0.406278
-0.111322 0.154650 0.390990
-0.110809 0.154449 0.390275
-0.112582 0.161172 0.417144
-0.113828 0.160465 0.395755
-0.103866 0.175284 0.417967
-0.102347 0.170236 0.421551
-0.102550 0.164638 0.419094
-0.113217 0.158453 0.408325
-0.109768 0.154226 0.390358
-0.105489 0.159827 0.373859
-0.111669 0.175838 0.424069
-0.106901 0.154558 0.397143
-0.112137 0.169905 0.421635
-0.111807 0.155803 0.414861
-0.106370 0.154893 0.396719
-0.108268 0.184907 0.420954
-0.104118 0.157163 0.400787
-0.112464 0.162777 0.395287
-0.101843 0.186065 0.425323
-0.101938 0.188529 0.426023
-0.109543 0.159475 0.367826
-0.112000 0.156892 0.373268
-0.105495 0.161281 0.378297
-0.105411 0.159779 0.374360
-0.111872 0.154936 0.391113
-0.111669 0.174514 0.423776
-0.111271 0.190035 0.428848
-0.112174 0.169606 0.421279
-0.111397 0.185958 0.425703
-0.104800 0.158900 0.383353
-0.109832 0.164279 0.382852
-0.112799 0.159311 0.415734
-0.107383 0.159427 0.372569
-0.110752 0.159502 0.366692
-0.111013 0.162872 0.422067
-0.102940 0.169948 0.423362
-0.107506 0.155810 0.420687
-0.110237 0.189106 0.424607
-0.108320 0.163925 0.407469
-0.101897 0.182933 0.423997
-0.109526 0.174629 0.416874
-0.103001 0.169322 0.423205
-0.111987 0.163614 0.386743
-0.102859 0.165788 0.420548
-0.113424 0.156233 0.388943
-0.110099 0.187875 0.431902
-0.109209 0.163985 0.401562
-0.105154 0.164563 0.423141
-0.112802 0.155190 0.377891
-0.114201 0.156443 0.376518
-0.114905 0.163452 0.367930
-0.115321 0.160121 0.371761
-0.106412 0.186212 0.421791
-0.114609 0.160563 0.367385
-0.106086 0.157220 0.374862
-0.106259 0.156231 0.378236
-0.111517 0.163592 0.365395
-0.114404 0.161639 0.380051
-0.112950 0.155701 0.388807
-0.111183 0.157555 0.375187
-0.110144 0.164709 0.377663
-0.109253 0.154547 0.375319
-0.106296 0.154747 0.400331
-0.109383 0.163774 0.409100
-0.112052 0.162052 0.409761
-0.105818 0.163257 0.370727
-0.112428 0.160971 0.413985
-0.111631 0.155629 0.416103
-0.113968 0.159572 0.368147
-0.110916 0.154483 0.381008
-0.106021 0.163323 0.405706
-0.107944 0.170974 0.425757
-0.102913 0.184167 0.431659
-0.104611 0.155179 0.413421
-0.104661 0.155713 0.406170
-0.102358 0.178411 0.425131
-0.114094 0.157008 0.385644
-0.109893 0.163892 0.423134
-0.107873 0.163825 0.414451
-0.110480 0.171693 0.417010
-0.108368 0.180951 0.430226
-0.114051 0.157695 0.391095
-0.111690 0.166794 0.416120
-0.105095 0.158060 0.381558
-0.115355 0.160082 0.371683
-0.115252 0.160500 0.374349
-0.112994 0.165743 0.374574
-0.110032 0.188919 0.433997
-0.110838 0.192833 0.433973
-0.112150 0.155481 0.374222
-0.102279 0.180638 0.426457
-0.104926 0.156723 0.420137
-0.106561 0.172893 0.415933
-0.113473 0.161950 0.391314
-0.101883 0.184333 0.429816
-0.114912 0.158008 0.375911
-0.112599 0.157572 0.416167
-0.111573 0.159518 0.373585
-0.106682 0.154637 0.397766
-0.115376 0.159602 0.370045
-0.102709 0.194026 0.434318
-0.102972 0.164933 0.416725
-0.114063 0.159573 0.369041
-0.105934 0.159840 0.368525
-0.106129 0.156532 0.376297
-0.110774 0.162337 0.365293
-0.110905 0.159504 0.371140
-0.102663 0.169924 0.422703
-0.108980 0.156867 0.372520
-0.106724 0.181504 0.432239
