ply
format ascii 1.0
element vertex 256
property float x
property float y
property float z
end_header
0.161994 0.000036 -0.043814
0.173362 0.080567 -0.175084
0.157751 0.018370 -0.068739
0.150992 -0.064695 0.008591
0.159187 -0.028245 -0.030762
0.157647 -0.035393 -0.011822
0.160606 0.052453 -0.125029
0.154451 -0.071131 0.005047
0.165071 0.024064 -0.088211
0.151868 -0.096887 0.022170
0.158321 0.033533 -0.095011
0.157833 -0.097675 0.031380
0.158872 -0.033645 -0.026072
0.166940 0.083075 -0.165270
0.155896 -0.053304 -0.009392
0.172979 0.084600 -0.174453
0.157756 -0.099420 0.032220
0.148945 -0.102133 0.032596
0.161123 -0.031777 -0.016490
0.152973 -0.117340 0.041451
0.170837 0.060661 -0.139666
0.160941 -0.060296 0.002021
0.165315 0.088094 -0.191503
0.162325 -0.036580 -0.019152
0.172872 0.089802 -0.181708
0.169512 0.054555 -0.119272
0.167112 0.042910 -0.113113
0.165096 0.038005 -0.091380
0.165775 0.008608 -0.064461
0.157000 -0.106074 0.037767
0.153423 -0.027882 -0.026620
0.153423 -0.024138 -0.026593
0.165552 0.095607 -0.205002
0.162306 0.037232 -0.089990
0.166481 0.015420 -0.070782
0.167733 0.089376 -0.177903
0.165727 0.040396 -0.094440
0.172515 0.074808 -0.160107
0.159097 0.043455 -0.105391
0.158638 0.038821 -0.098324
0.172179 0.077186 -0.158576
0.157531 -0.092040 0.021048
0.160288 -0.039149 -0.010262
0.163915 -0.014941 -0.036819
0.163838 0.067480 -0.139054
0.157331 -0.065703 0.012782
0.162248 0.071166 -0.153554
0.171229 0.062674 -0.140741
0.167771 0.093340 -0.185813
0.157197 -0.068404 0.003102
0.158562 0.024426 -0.086557
0.156936 -0.007775 -0.036321
0.156230 -0.068563 0.002947
0.169823 0.086056 -0.193425
0.156765 -0.002080 -0.042216
0.166613 0.059324 -0.124531
0.166584 0.072884 -0.146193
0.163272 0.079799 -0.168945
0.172526 0.074632 -0.158367
0.151088 -0.116527 0.043670
0.159134 0.038521 -0.094876
0.168951 0.066298 -0.153519
0.162590 0.025195 -0.074868
0.158609 -0.059638 -0.004185
0.162633 -0.009048 -0.046394
0.165037 0.074240 -0.166777
0.167834 0.103485 -0.208931
0.161046 -0.043222 -0.008301
0.159218 -0.024790 -0.020881
0.150398 -0.073951 0.015894
0.172163 0.082099 -0.168145
0.162199 0.059389 -0.126783
0.154071 -0.017359 -0.031414
0.165083 0.001228 -0.053281
0.168472 0.077216 -0.176573
0.164004 0.081018 -0.176670
0.156867 -0.061535 0.009814
0.171633 0.087760 -0.176526
0.159088 0.037892 -0.094133
0.158290 -0.104426 0.033272
0.172423 0.076196 -0.167596
0.165377 0.094796 -0.202572
0.167069 0.100604 -0.216092
0.155322 -0.115960 0.043907
0.156829 -0.014774 -0.041885
0.166646 0.077806 -0.176785
0.160252 -0.042153 -0.017910
0.172532 0.085776 -0.175010
0.166741 0.019071 -0.077074
0.169400 0.089938 -0.178588
0.164517 0.024598 -0.089413
0.166937 0.042540 -0.099270
0.157984 -0.112586 0.036934
0.174079 0.105470 -0.213592
0.158065 0.033155 -0.092571
0.154501 -0.072536 0.018653
0.154997 -0.073726 0.006956
0.166253 0.063461 -0.149840
0.169456 0.054369 -0.131829
0.163186 -0.020337 -0.028898
0.165996 0.100466 -0.208937
0.157698 0.025169 -0.084923
0.152326 -0.106686 0.027289
0.153179 -0.038324 -0.019043
0.163898 -0.007740 -0.045770
0.151819 -0.095449 0.032284
0.161635 0.036821 -0.105685
0.152350 -0.055863 -0.004931
0.156314 -0.020290 -0.036936
0.166721 0.091059 -0.182031
0.148725 -0.115330 0.035821
0.169120 0.047599 -0.116567
0.155076 -0.068911 0.015832
0.160996 -0.034202 -0.024191
0.157417 0.010240 -0.068582
0.160615 -0.064441 0.005135
0.165947 0.019121 -0.080037
0.168705 0.085187 -0.170451
0.155769 -0.101357 0.035208
0.166622 0.019350 -0.073806
0.151590 -0.099974 0.023467
0.158580 -0.078367 0.012463
0.167133 0.038987 -0.107325
0.150687 -0.068717 0.007507
0.161316 0.000955 -0.044303
0.160246 0.049135 -0.118255
0.168074 0.078201 -0.178160
0.161015 -0.016622 -0.028577
0.161277 -0.038226 -0.020074
0.159229 0.014970 -0.077151
0.152151 -0.117148 0.041931
0.154151 -0.085406 0.027230
0.153453 -0.049244 -0.011480
0.159038 0.036073 -0.091823
0.162805 0.039092 -0.092093
0.165716 0.030573 -0.083336
0.159050 0.041193 -0.100811
0.168540 0.105076 -0.212091
0.164706 -0.002030 -0.046440
0.155218 -0.025805 -0.021010
0.151911 -0.061587 -0.000908
0.159129 -0.003355 -0.053782
0.167029 0.033774 -0.098565
0.169920 0.105294 -0.210978
0.166516 0.045076 -0.102042
0.161899 0.052481 -0.112655
0.171876 0.074086 -0.153597
0.159015 -0.063313 0.009672
0.162253 0.069564 -0.146486
0.149424 -0.085172 0.021064
0.169199 0.055732 -0.120590
0.158823 -0.074244 0.017624
0.151203 -0.108637 0.030170
0.164657 0.081321 -0.163436
0.150782 -0.086706 0.017667
0.164897 0.071952 -0.161838
0.154670 -0.071067 0.004953
0.153963 -0.015431 -0.035624
0.161287 -0.038941 -0.019418
0.173841 0.088652 -0.183023
0.169469 0.050562 -0.120157
0.162141 0.014414 -0.077494
0.164097 0.068271 -0.155271
0.165547 0.022421 -0.085228
0.152606 -0.108437 0.029238
0.159380 -0.016595 -0.041040
0.155091 -0.022783 -0.033721
0.156296 -0.090426 0.029226
0.168755 0.088237 -0.200225
0.166628 0.088969 -0.198520
0.158144 0.000913 -0.044454
0.159640 0.047732 -0.109830
0.162972 0.078206 -0.165093
0.169669 0.057796 -0.138130
0.158206 -0.106423 0.033297
0.152036 -0.046464 -0.006966
0.169970 0.064141 -0.135946
0.155560 -0.035930 -0.023525
0.157706 -0.116688 0.040065
0.175447 0.097858 -0.210662
0.172211 0.078664 -0.175800
0.168571 0.038374 -0.100134
0.173304 0.088651 -0.198026
0.157040 -0.112834 0.033952
0.152662 -0.046568 -0.012442
0.165948 0.043589 -0.099668
0.150349 -0.108819 0.039875
0.162262 -0.012165 -0.033368
0.164723 -0.004349 -0.045818
0.164097 0.054251 -0.113425
0.168566 0.079149 -0.155923
0.166697 0.090773 -0.181436
0.160704 0.042653 -0.098928
0.158766 -0.096268 0.027672
0.150558 -0.072825 0.015281
0.173145 0.098994 -0.202143
0.170161 0.064957 -0.137457
0.157171 -0.025881 -0.032716
0.162390 0.044499 -0.116486
0.157956 -0.067744 0.002936
0.168657 0.040505 -0.101862
0.162177 -0.015925 -0.040200
0.161242 0.049708 -0.108872
0.154256 -0.109959 0.030525
0.156473 -0.047859 -0.000939
0.166230 0.047137 -0.119954
0.164357 -0.002923 -0.044560
0.156446 0.011840 -0.063001
0.149704 -0.108785 0.039319
0.165401 0.052202 -0.131767
0.155915 -0.033534 -0.025715
0.167379 0.050962 -0.128789
0.157265 -0.047398 -0.014996
0.164627 0.067044 -0.137654
0.158699 -0.097924 0.028309
0.171417 0.098050 -0.198734
0.148645 -0.110102 0.033537
0.170310 0.057212 -0.134758
0.167618 0.098264 -0.200853
0.158591 0.032354 -0.094943
0.158060 0.008595 -0.067913
0.158641 -0.005019 -0.051943
0.165465 0.049353 -0.125775
0.164506 0.005037 -0.063618
0.154864 -0.104427 0.038774
0.162851 -0.024164 -0.025347
0.154729 -0.021553 -0.034122
0.160742 -0.046449 -0.005128
0.160433 0.055559 -0.126912
0.158127 -0.003020 -0.040152
0.152742 -0.039376 -0.012356
0.165320 0.020002 -0.082263
0.166309 0.022586 -0.075637
0.171881 0.076522 -0.171931
0.174865 0.091710 -0.194910
0.151374 -0.086561 0.016787
0.158277 -0.006386 -0.050405
0.163786 0.082895 -0.177244
0.158499 0.009936 -0.057043
0.155612 -0.019686 -0.026338
0.154216 -0.011386 -0.038655
0.160976 -0.052251 -0.006749
0.159112 0.028742 -0.092598
0.150335 -0.109076 0.039998
0.148797 -0.105456 0.036437
0.148382 -0.113495 0.035463
0.167395 0.054766 -0.114938
0.164481 -0.004650 -0.043612
0.160759 0.022425 -0.086658
0.158687 -0.040775 -0.020065
0.151101 -0.079833 0.013103
0.160510 -0.065345 0.007464
0.157003 0.017051 -0.075184
0.173711 0.083294 -0.178802
0.162951 -0.028135 -0.026023
0.155479 -0.085052 0.013594
