ply
format ascii 1.0
element vertex 256
property float x
property float y
property float z
end_header
0.096783 -0.146482 -0.190447
-0.084025 -0.130085 0.047105
-0.057863 -0.127406 0.022071
0.009519 -0.135243 -0.076693
0.106060 -0.150595 -0.214862
0.025376 -0.136808 -0.089913
-0.088682 -0.134233 0.045419
0.114777 -0.141409 -0.233234
0.033412 -0.136533 -0.103497
-0.007558 -0.131902 -0.034836
0.027340 -0.134848 -0.105141
-0.012369 -0.138333 -0.039192
0.061124 -0.137142 -0.150041
-0.035612 -0.139084 0.001802
-0.045753 -0.130433 0.004535
0.053311 -0.146225 -0.137591
0.067650 -0.142305 -0.150260
0.018620 -0.140334 -0.096618
0.063360 -0.137639 -0.148680
0.050891 -0.144249 -0.128252
0.032814 -0.144353 -0.106507
-0.002326 -0.136057 -0.058066
0.082979 -0.148373 -0.176742
-0.002347 -0.140299 -0.056222
-0.037523 -0.137358 0.007054
-0.061857 -0.132466 0.031574
-0.001987 -0.140744 -0.040878
0.082147 -0.144743 -0.170984
-0.062052 -0.126926 0.025760
0.044830 -0.141156 -0.116257
0.100693 -0.140571 -0.209450
0.071173 -0.147621 -0.167247
0.021426 -0.142330 -0.099207
0.014356 -0.134859 -0.069530
0.016160 -0.139847 -0.092962
-0.018012 -0.133207 -0.029616
0.122050 -0.146332 -0.260872
0.083471 -0.148767 -0.178742
-0.036012 -0.136140 0.006788
0.065326 -0.138191 -0.150336
-0.092553 -0.129625 0.046361
0.060777 -0.146966 -0.150463
0.013819 -0.143258 -0.076567
0.131436 -0.148781 -0.258621
0.124700 -0.151946 -0.254721
-0.033893 -0.131720 0.004394
0.001233 -0.138388 -0.065165
0.020014 -0.134700 -0.081712
-0.059680 -0.127367 0.026068
-0.033602 -0.138690 -0.006230
-0.047531 -0.128456 0.009316
0.051732 -0.143931 -0.129051
0.118704 -0.148486 -0.251393
-0.010208 -0.138266 -0.025915
0.103752 -0.144709 -0.202008
0.070045 -0.139937 -0.155353
0.101881 -0.146508 -0.198894
0.070250 -0.147053 -0.167757
0.046460 -0.135850 -0.127195
0.068978 -0.141604 -0.152436
-0.023051 -0.132404 -0.006787
0.094969 -0.140156 -0.198815
-0.035104 -0.139353 -0.000331
0.018471 -0.139449 -0.096731
0.003369 -0.132577 -0.056246
0.043052 -0.145560 -0.122365
-0.018300 -0.132299 -0.027835
0.046510 -0.142140 -0.119099
0.019833 -0.138149 -0.077357
0.053608 -0.141595 -0.130433
0.090607 -0.144565 -0.198564
0.072231 -0.147522 -0.162712
-0.071852 -0.132894 0.027025
-0.055870 -0.137350 0.018979
0.026435 -0.137098 -0.091436
-0.001377 -0.132359 -0.045330
-0.043976 -0.138284 0.009717
-0.038525 -0.135850 -0.003754
-0.045605 -0.128474 0.010405
0.117624 -0.151481 -0.238805
-0.019250 -0.139177 -0.013999
-0.003390 -0.133245 -0.038011
0.051258 -0.145745 -0.132703
0.051298 -0.140717 -0.126470
0.053793 -0.139184 -0.146300
0.110788 -0.150657 -0.220635
0.037794 -0.144618 -0.119127
-0.012050 -0.140513 -0.026909
0.125054 -0.142398 -0.248946
0.031868 -0.142576 -0.114145
0.115150 -0.147612 -0.221722
0.006593 -0.137180 -0.054126
0.074183 -0.147658 -0.172195
0.123382 -0.143577 -0.260114
0.034205 -0.134859 -0.110177
0.052012 -0.138140 -0.143222
0.037414 -0.138489 -0.122213
-0.037913 -0.131912 0.008836
-0.000979 -0.135878 -0.060636
-0.015282 -0.136330 -0.035381
0.090790 -0.139682 -0.187047
-0.006223 -0.135852 -0.031125
0.104048 -0.140640 -0.210446
0.088817 -0.140213 -0.191303
0.122557 -0.150259 -0.257989
0.099997 -0.149914 -0.209680
-0.019770 -0.136214 -0.028603
0.115910 -0.141806 -0.238900
-0.064651 -0.134884 0.022645
-0.024523 -0.139953 -0.009238
0.128358 -0.149947 -0.250849
-0.045172 -0.128979 0.012075
-0.007557 -0.131929 -0.040149
0.009911 -0.140790 -0.078146
-0.037663 -0.139166 0.001750
0.065457 -0.141389 -0.164400
-0.010479 -0.134793 -0.041871
0.118954 -0.146336 -0.252377
-0.041064 -0.133768 -0.001540
-0.005420 -0.136924 -0.052288
0.081941 -0.143837 -0.170395
0.012713 -0.134827 -0.081871
-0.036492 -0.137518 -0.004693
-0.044063 -0.133450 0.014632
-0.086886 -0.126441 0.048429
0.056667 -0.145280 -0.138094
0.005382 -0.135724 -0.052284
0.033682 -0.141028 -0.102538
-0.087895 -0.124463 0.044801
0.104967 -0.145095 -0.204238
0.020082 -0.143559 -0.092838
0.088759 -0.145689 -0.179236
0.126526 -0.147813 -0.245776
0.033277 -0.140293 -0.116915
0.044292 -0.136559 -0.129219
0.125983 -0.146929 -0.244549
0.110389 -0.149530 -0.231742
0.028422 -0.137766 -0.110809
-0.057615 -0.134067 0.028087
-0.091932 -0.133255 0.043518
0.098734 -0.140282 -0.204982
0.015401 -0.139495 -0.069394
-0.094022 -0.132728 0.045026
0.083745 -0.144407 -0.172820
-0.014738 -0.138347 -0.035503
0.020269 -0.138012 -0.099379
-0.013415 -0.140827 -0.033112
0.130148 -0.150946 -0.260906
0.030729 -0.136011 -0.111479
0.117305 -0.151420 -0.240511
0.088957 -0.148570 -0.192473
-0.013848 -0.136264 -0.037556
-0.034543 -0.130054 -0.004049
-0.052852 -0.137332 0.020639
0.112556 -0.141243 -0.225223
0.093109 -0.141578 -0.186016
-0.014434 -0.138620 -0.035801
0.124908 -0.151679 -0.249880
0.106044 -0.150236 -0.212653
0.017298 -0.134109 -0.087969
0.073615 -0.141294 -0.175069
0.086516 -0.148930 -0.186863
-0.058115 -0.137278 0.022969
0.113203 -0.142670 -0.236926
0.017701 -0.133560 -0.083592
0.010106 -0.137659 -0.060693
-0.024515 -0.130504 -0.008959
-0.007478 -0.137365 -0.048095
0.123209 -0.150401 -0.260995
0.005298 -0.132965 -0.058034
0.117780 -0.142498 -0.245430
0.112763 -0.149974 -0.236323
0.003831 -0.141049 -0.052293
0.067246 -0.147547 -0.159116
-0.023711 -0.132277 -0.006190
-0.061218 -0.133203 0.030954
0.069859 -0.146704 -0.167872
-0.029848 -0.135466 -0.012913
0.117312 -0.141618 -0.235038
0.121387 -0.151384 -0.243221
-0.054876 -0.136348 0.014678
0.072081 -0.138009 -0.165756
0.020978 -0.140661 -0.080741
0.118155 -0.142943 -0.230958
-0.058131 -0.135461 0.017919
0.046838 -0.137271 -0.135033
0.091005 -0.148130 -0.184291
0.098985 -0.140177 -0.202361
0.063459 -0.139659 -0.144665
-0.026779 -0.132200 -0.015544
0.118114 -0.148273 -0.250425
0.003138 -0.140499 -0.049945
0.056216 -0.137928 -0.147262
-0.010655 -0.134783 -0.041611
0.075029 -0.139998 -0.162586
0.011514 -0.137478 -0.082674
0.031870 -0.142965 -0.102060
-0.090869 -0.134135 0.045827
0.025864 -0.134242 -0.097147
0.049948 -0.143749 -0.141975
0.026824 -0.140387 -0.091804
0.077556 -0.138719 -0.169463
0.056376 -0.139357 -0.149674
0.101943 -0.140999 -0.213363
-0.044897 -0.138216 0.010395
-0.033700 -0.137311 0.003678
0.000373 -0.132498 -0.048762
0.096057 -0.141349 -0.204966
0.077455 -0.148274 -0.171414
0.103123 -0.149075 -0.218230
0.051745 -0.136309 -0.137301
-0.046914 -0.137140 0.014887
0.077522 -0.140252 -0.178671
0.131288 -0.149533 -0.260116
0.099459 -0.149741 -0.209310
-0.038931 -0.129790 0.000038
-0.018824 -0.140748 -0.020892
-0.068272 -0.126368 0.031162
0.004177 -0.139569 -0.050549
-0.054788 -0.127891 0.022709
-0.046466 -0.132235 0.003841
0.122611 -0.141961 -0.249777
0.085624 -0.146322 -0.190371
0.035390 -0.142060 -0.119297
-0.011190 -0.141240 -0.035403
-0.055357 -0.133315 0.026834
0.117124 -0.142266 -0.243666
-0.072140 -0.135819 0.031201
0.009429 -0.132983 -0.067512
-0.034176 -0.139208 -0.004053
-0.084137 -0.131402 0.046779
0.067543 -0.141230 -0.150244
0.006437 -0.137886 -0.053794
-0.001055 -0.141172 -0.057030
0.014926 -0.142834 -0.074330
0.040456 -0.136051 -0.113503
-0.067421 -0.129449 0.035352
0.053228 -0.145919 -0.142677
0.072605 -0.141178 -0.158057
0.046185 -0.137353 -0.134166
0.057969 -0.144744 -0.152094
0.101450 -0.142065 -0.199813
-0.000348 -0.134172 -0.059638
0.011971 -0.137280 -0.063688
0.096468 -0.140857 -0.192874
-0.079381 -0.135234 0.037380
0.113986 -0.141452 -0.226630
0.046387 -0.144533 -0.121809
0.057880 -0.146506 -0.147776
0.084436 -0.144407 -0.189259
0.128038 -0.143598 -0.251219
-0.080953 -0.135110 0.038709
0.014015 -0.141292 -0.069099
0.123442 -0.150834 -0.259402
-0.052877 -0.132465 0.025194
-0.014229 -0.132235 -0.033032
