ply
format ascii 1.0
element vertex 256
property float x
property float y
property float z
end_header
0.157677 -0.113297 -0.131246
0.156031 0.026484 -0.005059
0.161608 0.008675 -0.005541
0.162272 -0.043056 -0.041386
0.156472 -0.019021 -0.034210
0.162043 0.061635 0.021750
0.162691 -0.068926 -0.072605
0.165080 -0.120816 -0.139338
0.160483 -0.106464 -0.131026
0.152777 0.037400 0.005629
0.160833 0.016633 -0.010110
0.153325 -0.000203 -0.017168
0.158620 -0.106293 -0.127502
0.154855 -0.071193 -0.070714
0.153958 -0.028076 -0.037240
0.162665 -0.035019 -0.044336
0.159591 0.093916 0.039215
0.161681 -0.096418 -0.110109
0.156807 0.028181 -0.004196
0.161485 0.087418 0.043245
0.160706 -0.046290 -0.054872
0.159304 -0.134095 -0.174437
0.161670 -0.008405 -0.025891
0.163234 -0.011038 -0.022276
0.161213 0.033692 0.000601
0.153401 0.023286 -0.004314
0.168157 -0.129195 -0.159700
0.164033 -0.089295 -0.083741
0.156639 -0.094305 -0.101831
0.168088 -0.125688 -0.162304
0.162631 -0.020321 -0.033079
0.154746 -0.070505 -0.069357
0.157316 -0.111510 -0.130542
0.152252 0.089880 0.040188
0.156156 0.017944 -0.010192
0.159704 -0.118784 -0.152314
0.154355 0.091246 0.046640
0.162570 -0.113275 -0.121871
0.163881 -0.059452 -0.062860
0.163336 -0.013243 -0.025060
0.154536 0.009074 -0.013537
0.153324 0.014745 -0.008533
0.168436 -0.151179 -0.220989
0.163254 -0.122476 -0.162033
0.154847 -0.070574 -0.070273
0.159217 0.090886 0.040895
0.160555 0.017533 -0.009941
0.153481 -0.009077 -0.023356
0.164393 -0.089478 -0.084784
0.158242 -0.096552 -0.108177
0.158070 0.020297 0.002330
0.168978 -0.138297 -0.177423
0.162756 -0.129606 -0.154484
0.159479 -0.010718 -0.028790
0.166426 -0.102766 -0.112925
0.155104 -0.069792 -0.070633
0.158259 0.074017 0.037587
0.170077 -0.151010 -0.216999
0.157616 -0.109066 -0.117993
0.161153 -0.066764 -0.071910
0.161463 0.072086 0.033081
0.157113 0.044728 0.004541
0.156938 -0.027863 -0.040933
0.163913 -0.040403 -0.044039
0.153325 0.081112 0.041309
0.157179 -0.075346 -0.079586
0.161122 0.087162 0.044100
0.154543 -0.043237 -0.043095
0.164104 -0.138297 -0.170685
0.154012 -0.016667 -0.024089
0.162961 -0.021522 -0.027678
0.158692 -0.071132 -0.063096
0.155837 0.089429 0.048387
0.155822 -0.005334 -0.024550
0.155729 -0.075092 -0.069125
0.154255 -0.050155 -0.052882
0.167045 -0.109279 -0.125424
0.162873 -0.000074 -0.013668
0.156273 -0.036860 -0.036456
0.154202 -0.048825 -0.049751
0.163283 -0.014889 -0.026908
0.158632 -0.017667 -0.033773
0.154396 -0.011063 -0.026760
0.162929 0.003292 -0.011932
0.155048 -0.070493 -0.066474
0.169276 -0.140484 -0.188416
0.154677 -0.053571 -0.057416
0.154325 -0.029504 -0.033363
0.163564 -0.094856 -0.105903
0.162636 -0.139497 -0.173821
0.161979 -0.132915 -0.161167
0.154794 -0.073412 -0.071292
0.159954 -0.136657 -0.172774
0.156311 -0.067717 -0.061836
0.153148 0.035545 0.003367
0.162810 -0.111735 -0.142290
0.164325 -0.100879 -0.117367
0.157438 -0.077061 -0.081618
0.158894 -0.118564 -0.137712
0.167085 -0.109555 -0.126538
0.156801 0.030188 -0.002825
0.162506 -0.014939 -0.029125
0.168307 -0.145965 -0.204244
0.164246 -0.114411 -0.126160
0.153083 0.056868 0.023220
0.163029 -0.147334 -0.207827
0.161917 -0.115777 -0.128555
0.162096 0.069658 0.027831
0.160741 0.029935 -0.001885
0.154496 -0.016661 -0.030465
0.161137 -0.009702 -0.017350
0.162403 -0.086175 -0.078680
0.157201 -0.049690 -0.057711
0.160930 0.053826 0.021944
0.156947 -0.009807 -0.028105
0.160991 0.074364 0.028336
0.158841 -0.022883 -0.025249
0.155334 0.040994 0.003204
0.155665 -0.058689 -0.054932
0.169751 -0.144251 -0.188500
0.153662 0.085047 0.044710
0.161604 -0.149380 -0.209516
0.160366 -0.139915 -0.178993
0.160352 -0.112345 -0.142154
0.164200 -0.063064 -0.065097
0.154891 -0.075117 -0.073788
0.163353 -0.093148 -0.088054
0.161793 -0.022946 -0.026832
0.155039 -0.075901 -0.075713
0.160521 0.033792 0.000046
0.156829 -0.057256 -0.052458
0.158065 -0.077102 -0.082088
0.160822 -0.146217 -0.188783
0.163281 -0.065456 -0.069117
0.167360 -0.148736 -0.215772
0.161479 -0.152783 -0.202420
0.164030 -0.046147 -0.048402
0.169547 -0.155388 -0.208786
0.154097 0.065383 0.021324
0.164233 -0.074631 -0.076457
0.160090 -0.121868 -0.158203
0.158072 -0.120498 -0.147950
0.166462 -0.143945 -0.201836
0.159085 -0.050566 -0.059026
0.162331 0.014539 -0.009214
0.167536 -0.113981 -0.136008
0.161483 -0.113562 -0.122616
0.156044 -0.063751 -0.067994
0.160973 0.057162 0.015879
0.161368 0.009316 -0.004984
0.159151 -0.088167 -0.096424
0.162259 -0.123843 -0.143875
0.162330 -0.004883 -0.022378
0.155739 -0.049962 -0.046820
0.166490 -0.139487 -0.192134
0.152541 0.051589 0.014772
0.160650 -0.097444 -0.112222
0.160904 -0.102863 -0.101176
0.161947 -0.157956 -0.219691
0.160092 -0.077751 -0.068918
0.159394 -0.009611 -0.016304
0.157885 -0.111503 -0.135389
0.161420 0.018305 -0.000772
0.155403 -0.030223 -0.032295
0.157071 0.074111 0.025353
0.163346 -0.088380 -0.095662
0.160078 -0.135925 -0.170689
0.168080 -0.130148 -0.160769
0.166445 -0.111500 -0.124476
0.156496 -0.099183 -0.100729
0.153975 -0.005046 -0.015773
0.165659 -0.099071 -0.109732
0.166111 -0.111529 -0.123344
0.161311 -0.154828 -0.214705
0.156165 -0.099521 -0.105617
0.153326 -0.004139 -0.017193
0.164679 -0.151228 -0.221567
0.156363 -0.094845 -0.101555
0.154910 -0.063601 -0.060896
0.161705 0.054086 0.014580
0.162235 0.040837 0.010108
0.161335 -0.154689 -0.218672
0.154019 0.026451 0.004463
0.167171 -0.125188 -0.164197
0.162737 -0.109899 -0.115119
0.159618 -0.132442 -0.164495
0.152078 0.070797 0.029076
0.152971 0.061799 0.020308
0.171363 -0.156008 -0.220474
0.158004 -0.090641 -0.099071
0.169443 -0.150140 -0.197123
0.167838 -0.156600 -0.208701
0.156720 -0.059454 -0.054426
0.163594 -0.049104 -0.048235
0.155711 0.023964 -0.006604
0.157464 -0.043480 -0.040370
0.166402 -0.102346 -0.111316
0.159479 -0.109356 -0.114936
0.158476 -0.115717 -0.144239
0.155878 -0.095012 -0.098741
0.159161 -0.096983 -0.092561
0.157088 -0.088081 -0.094184
0.163345 -0.021288 -0.028659
0.157030 0.024780 -0.006552
0.166656 -0.119212 -0.139225
0.161662 -0.113847 -0.123340
0.155228 -0.054308 -0.059307
0.153503 -0.006187 -0.021603
0.162378 0.041485 0.006457
0.162324 -0.082134 -0.074381
0.164096 -0.117815 -0.133167
0.159750 -0.025234 -0.039296
0.155147 -0.041840 -0.041115
0.167840 -0.129735 -0.171917
0.163842 -0.039391 -0.043924
0.157862 -0.004596 -0.012600
0.153079 0.041377 0.010597
0.162995 0.000507 -0.016357
0.156348 -0.101483 -0.107017
0.162043 0.033080 0.007079
0.165428 -0.091775 -0.096066
0.157840 -0.085785 -0.091980
0.156329 -0.101098 -0.105443
0.155991 -0.088163 -0.091644
0.166467 -0.145581 -0.183796
0.161839 -0.129290 -0.154353
0.162501 -0.031034 -0.033571
0.157553 0.085267 0.047433
0.154559 -0.064375 -0.064162
0.155252 -0.079593 -0.080085
0.160407 -0.121891 -0.141446
0.163971 -0.146782 -0.207505
0.159962 -0.025600 -0.039531
0.166127 -0.099669 -0.105423
0.162319 -0.132407 -0.180139
0.151880 0.086144 0.042209
0.169141 -0.139441 -0.187310
0.164926 -0.083292 -0.080081
0.168927 -0.140334 -0.180254
0.163216 -0.052734 -0.058288
0.160477 -0.113848 -0.144925
0.165790 -0.157211 -0.209369
0.158872 -0.104790 -0.124370
0.164967 -0.080494 -0.078264
0.152724 0.032771 0.004350
0.156082 -0.054493 -0.060680
0.164753 -0.150874 -0.193658
0.163430 -0.025170 -0.031614
0.153828 -0.028844 -0.037090
0.163727 -0.143786 -0.201128
0.154081 0.074287 0.026917
0.156102 -0.012784 -0.029605
0.156902 0.093523 0.037197
0.155098 -0.075541 -0.071522
0.158096 0.060076 0.028300
0.156396 -0.084975 -0.079094
