ply
format ascii 1.0
element vertex 256
property float x
property float y
property float z
end_header
0.073607 0.155690 -0.144029
0.057168 0.154296 -0.113952
0.021871 0.141570 -0.042267
0.083933 0.154383 -0.164360
0.092154 0.152782 -0.177092
-0.010896 0.141815 -0.010094
0.035127 0.148050 -0.066560
0.095931 0.160050 -0.172770
-0.019409 0.140938 -0.000994
0.025058 0.139406 -0.051404
0.075587 0.151758 -0.149759
0.080565 0.148378 -0.143146
0.094102 0.158738 -0.179824
0.061622 0.147530 -0.126708
0.077035 0.151316 -0.151888
0.080606 0.150022 -0.140108
0.006121 0.136435 -0.020038
0.102700 0.159641 -0.197621
0.117033 0.159837 -0.226540
0.120433 0.162386 -0.214161
-0.026710 0.131906 0.015831
0.059636 0.145282 -0.119766
-0.035853 0.140021 0.018117
0.087312 0.149248 -0.162217
0.010104 0.140599 -0.040740
-0.076193 0.128814 0.054415
0.129117 0.159187 -0.237705
0.104539 0.153458 -0.198570
0.046941 0.147217 -0.104010
-0.072386 0.133489 0.046560
0.002445 0.142740 -0.012177
0.018461 0.143523 -0.054951
0.060802 0.152992 -0.125812
-0.014697 0.133656 -0.003220
0.026014 0.144246 -0.048389
-0.007796 0.139693 -0.000510
0.109337 0.161007 -0.194124
0.104359 0.161563 -0.189600
-0.058813 0.136948 0.039290
-0.055415 0.128162 0.035316
-0.040573 0.129500 0.025167
0.046508 0.143712 -0.085980
0.110285 0.162704 -0.206414
0.024125 0.145957 -0.064393
0.119890 0.154418 -0.218047
0.058546 0.154357 -0.117949
-0.054390 0.137220 0.033836
0.008262 0.144201 -0.021171
0.112388 0.163101 -0.211179
-0.002672 0.136449 -0.006830
0.024972 0.148934 -0.059414
0.046567 0.142583 -0.093958
-0.043365 0.132561 0.020798
0.053760 0.150963 -0.097861
-0.071806 0.131442 0.057093
0.038897 0.151217 -0.080031
0.114038 0.155906 -0.218191
-0.038183 0.130126 0.020737
0.053046 0.145573 -0.112416
-0.019652 0.138924 -0.002158
0.017169 0.145630 -0.036291
-0.078023 0.134507 0.053863
-0.018507 0.133094 0.007604
0.096976 0.154473 -0.187202
0.043333 0.151555 -0.092813
0.085830 0.158094 -0.164003
0.046464 0.143065 -0.087370
0.117312 0.160979 -0.206466
0.012981 0.137249 -0.032011
-0.025687 0.139511 0.004918
0.111115 0.159999 -0.195286
0.089284 0.158254 -0.170850
0.042785 0.144903 -0.095044
0.039213 0.149928 -0.088835
-0.055504 0.129000 0.043871
0.113624 0.153421 -0.205090
-0.067183 0.126230 0.046580
0.102602 0.161130 -0.185235
0.070336 0.154533 -0.140141
-0.004859 0.143719 -0.014700
-0.064769 0.127889 0.051027
0.075088 0.147785 -0.143543
0.004387 0.138622 -0.013858
0.060518 0.154784 -0.119568
-0.007335 0.140450 -0.001240
-0.006792 0.134413 -0.005359
0.015478 0.146338 -0.035300
0.060055 0.151910 -0.109191
0.126261 0.158966 -0.223033
-0.054053 0.137657 0.037603
0.082772 0.148247 -0.150303
0.094942 0.157450 -0.183220
0.123645 0.161199 -0.239519
0.073574 0.149284 -0.144648
0.128363 0.156774 -0.238274
0.027336 0.146509 -0.051858
0.077496 0.150641 -0.152047
-0.014180 0.140239 0.005267
0.122505 0.155180 -0.229454
0.055999 0.151495 -0.119147
-0.058266 0.127114 0.042108
0.022711 0.141555 -0.043641
-0.066975 0.134381 0.051980
0.045139 0.143020 -0.094796
-0.064884 0.128570 0.051635
-0.007915 0.143478 -0.004790
-0.058086 0.128133 0.046666
-0.049144 0.132551 0.039124
0.089942 0.155387 -0.174734
0.084775 0.158125 -0.161365
0.040976 0.149684 -0.077783
-0.003011 0.142001 -0.019649
0.018207 0.140640 -0.036033
0.029245 0.148620 -0.058386
-0.060658 0.127149 0.047492
0.006597 0.138079 -0.032040
0.036698 0.150972 -0.079560
0.084634 0.152378 -0.145763
0.049678 0.150832 -0.108260
-0.026786 0.133601 0.006588
-0.009676 0.142731 -0.001798
0.016899 0.146116 -0.036793
-0.015795 0.132878 0.002074
-0.002398 0.139403 -0.005870
0.111169 0.162661 -0.210336
0.052384 0.151293 -0.096161
-0.053829 0.127834 0.035884
0.044005 0.144715 -0.096838
-0.049558 0.138280 0.033386
0.069294 0.150661 -0.139767
-0.078674 0.133425 0.058764
0.125007 0.158300 -0.220101
0.036915 0.150818 -0.081795
0.032672 0.143015 -0.060274
0.126973 0.155663 -0.233811
0.050304 0.152526 -0.106464
-0.038288 0.134081 0.028998
0.057674 0.151010 -0.122110
0.044086 0.151063 -0.096069
0.107934 0.152669 -0.193438
-0.051949 0.137232 0.031076
0.108416 0.152449 -0.197251
-0.007486 0.134510 -0.010229
0.080628 0.157648 -0.146750
0.014955 0.147029 -0.037096
-0.014840 0.142710 0.001631
-0.021032 0.138427 -0.000858
0.028613 0.144105 -0.073196
-0.070362 0.130844 0.056269
0.092215 0.150488 -0.162417
-0.022655 0.136194 0.000986
0.024672 0.148630 -0.060459
-0.036664 0.131052 0.017547
0.118018 0.156934 -0.207406
0.061975 0.145681 -0.114063
0.100577 0.152225 -0.176004
0.033659 0.150509 -0.073553
-0.034217 0.136693 0.012398
0.074141 0.153402 -0.147329
0.108875 0.162612 -0.200956
0.082297 0.154912 -0.161310
0.078229 0.155630 -0.153163
0.103955 0.152401 -0.194893
0.101874 0.153092 -0.177073
0.129947 0.159334 -0.231413
-0.004531 0.139828 -0.018009
0.072218 0.149599 -0.126799
0.086877 0.158821 -0.163321
0.130413 0.161286 -0.236901
-0.063997 0.128952 0.042021
-0.069487 0.131685 0.043539
0.097092 0.160260 -0.174886
-0.039304 0.135779 0.029597
0.128629 0.156291 -0.233474
0.025766 0.148475 -0.064112
0.067409 0.146564 -0.131873
0.097450 0.159263 -0.171880
-0.048541 0.131010 0.038103
0.108921 0.156060 -0.189829
0.010485 0.144352 -0.024041
0.065713 0.155102 -0.130542
0.085875 0.153957 -0.167686
0.097482 0.151468 -0.171229
0.021721 0.146620 -0.044480
-0.002855 0.143185 -0.007931
0.119966 0.158626 -0.233314
0.019036 0.141330 -0.037245
0.021430 0.140716 -0.042134
0.118224 0.161961 -0.228375
-0.065175 0.131870 0.052479
0.045780 0.151151 -0.099639
0.014124 0.147201 -0.042211
-0.018901 0.138495 0.010815
-0.022758 0.136792 0.015117
-0.035243 0.130951 0.023732
-0.018047 0.133212 0.007294
0.093514 0.152756 -0.179166
0.128671 0.160030 -0.237850
0.021901 0.148342 -0.049598
-0.004477 0.135243 -0.006342
0.041241 0.149412 -0.077673
-0.007960 0.143976 -0.007732
0.086907 0.158920 -0.159820
0.065310 0.146642 -0.118344
0.108902 0.157158 -0.189698
0.018698 0.146983 -0.041476
0.094717 0.160122 -0.172269
0.054133 0.151329 -0.098901
0.102886 0.153086 -0.179359
0.047155 0.152585 -0.094320
0.034337 0.150546 -0.073548
0.050173 0.148464 -0.089617
0.032533 0.140325 -0.070577
0.119365 0.156644 -0.229082
0.120549 0.164444 -0.220845
0.044748 0.148474 -0.100212
0.123637 0.160790 -0.239479
0.004367 0.137052 -0.027172
0.115106 0.161621 -0.203946
0.052912 0.143584 -0.104775
-0.059017 0.127611 0.047153
0.030833 0.142180 -0.057210
0.125620 0.165285 -0.232528
-0.037734 0.139866 0.022345
-0.060811 0.129785 0.037572
0.038326 0.141516 -0.082220
0.034821 0.147035 -0.064798
0.058472 0.152184 -0.122683
-0.046860 0.136891 0.024630
0.120661 0.161007 -0.235801
-0.027975 0.140779 0.015611
0.024499 0.141299 -0.063085
-0.021566 0.137892 -0.000350
-0.077707 0.132954 0.059335
0.031338 0.146089 -0.057795
0.049341 0.144263 -0.104172
0.077017 0.152692 -0.152401
0.122953 0.161298 -0.216646
0.071769 0.146625 -0.135844
-0.038029 0.139347 0.024727
0.069031 0.153374 -0.123182
0.050502 0.152664 -0.106348
0.019848 0.147220 -0.054365
0.036103 0.142116 -0.081891
-0.004464 0.144403 -0.010572
0.083333 0.152333 -0.143523
-0.021881 0.138060 0.013895
0.036583 0.146617 -0.086604
-0.078561 0.134209 0.057450
-0.005854 0.134651 -0.005997
0.014296 0.137581 -0.033881
0.090072 0.152168 -0.155667
0.002998 0.135582 -0.020605
-0.002346 0.144659 -0.015005
0.118264 0.161470 -0.209577
-0.000269 0.136494 -0.020838
