ply
format ascii 1.0
element vertex 256
property float x
property float y
property float z
end_header
-0.081208 -0.119451 -0.225708
0.078010 -0.143615 -0.053662
0.038240 -0.136670 -0.071601
0.117178 -0.146469 0.025581
-0.090371 -0.122348 -0.205027
0.071928 -0.143406 -0.034235
0.067687 -0.142769 -0.064263
0.022178 -0.134823 -0.107329
0.103467 -0.145146 -0.018789
-0.093655 -0.127193 -0.225999
-0.014353 -0.136661 -0.120580
-0.100597 -0.125825 -0.263757
-0.048153 -0.122953 -0.149178
-0.102359 -0.125834 -0.248285
0.087017 -0.150233 -0.025442
0.020663 -0.136519 -0.108132
-0.076024 -0.119870 -0.210207
0.105711 -0.151474 0.013797
0.117115 -0.147303 0.029941
-0.079426 -0.121874 -0.182247
0.079971 -0.144249 -0.023943
-0.071738 -0.129817 -0.187744
-0.061578 -0.122068 -0.178179
0.113954 -0.154881 0.010793
0.090361 -0.149811 -0.012814
-0.043175 -0.129892 -0.155354
-0.047479 -0.123759 -0.156824
-0.020822 -0.126017 -0.126461
-0.057065 -0.125052 -0.175400
-0.026286 -0.132461 -0.121356
0.064302 -0.136572 -0.056733
0.020579 -0.130694 -0.099755
-0.094716 -0.122182 -0.214430
-0.081422 -0.118681 -0.211730
0.034762 -0.138536 -0.096440
0.038928 -0.133660 -0.088926
-0.053898 -0.126060 -0.143112
-0.062300 -0.130271 -0.154214
0.108049 -0.153832 0.001738
-0.082596 -0.122174 -0.186172
0.126071 -0.148129 0.026595
0.067447 -0.137866 -0.047237
0.112821 -0.154160 0.023504
-0.023875 -0.132410 -0.119539
-0.024087 -0.131206 -0.119410
0.123719 -0.150937 0.046421
0.040362 -0.134131 -0.088477
0.097050 -0.143026 -0.006353
-0.088291 -0.126952 -0.204731
0.007872 -0.138034 -0.099971
0.068482 -0.146627 -0.043256
-0.042202 -0.126553 -0.154989
-0.065245 -0.120878 -0.176305
-0.065327 -0.125891 -0.154238
0.016370 -0.136133 -0.090300
0.044905 -0.136901 -0.087533
-0.019851 -0.127065 -0.133523
-0.093873 -0.117596 -0.232536
0.036706 -0.133440 -0.079441
-0.083089 -0.118537 -0.222599
-0.078959 -0.127637 -0.180315
-0.078279 -0.126441 -0.221582
0.054333 -0.142665 -0.075624
-0.099690 -0.118951 -0.234645
0.059333 -0.140797 -0.048825
0.121430 -0.146952 0.015558
0.091368 -0.148416 -0.008108
-0.109103 -0.117785 -0.255917
0.003572 -0.129539 -0.117439
-0.090897 -0.118263 -0.256580
-0.111754 -0.124292 -0.265478
-0.025034 -0.131224 -0.139342
0.108284 -0.153801 0.001204
0.060328 -0.146054 -0.055674
0.119427 -0.153059 0.007927
0.028705 -0.132334 -0.087009
0.080499 -0.142791 -0.024492
0.102601 -0.148591 -0.020667
0.020722 -0.140331 -0.100620
-0.071233 -0.126774 -0.202172
-0.077015 -0.125646 -0.174138
0.059655 -0.136383 -0.057173
0.006227 -0.137723 -0.100926
-0.081701 -0.125034 -0.232496
0.039455 -0.143186 -0.079483
0.106093 -0.145720 0.010864
-0.105032 -0.118047 -0.270464
-0.044780 -0.131318 -0.136075
0.027800 -0.136304 -0.102723
-0.080468 -0.126916 -0.181538
0.126884 -0.156810 0.033627
0.004542 -0.129878 -0.117390
-0.056756 -0.130160 -0.167723
0.118396 -0.146793 0.028769
-0.065106 -0.123919 -0.191240
-0.005717 -0.130060 -0.126004
-0.113144 -0.123999 -0.262265
0.107526 -0.143981 0.003726
-0.032758 -0.133348 -0.141921
0.004033 -0.136142 -0.100887
0.117685 -0.148354 0.002306
-0.062033 -0.122452 -0.181475
0.080615 -0.146294 -0.048416
-0.111349 -0.124741 -0.265149
-0.099030 -0.126401 -0.242969
-0.091853 -0.127082 -0.217083
-0.097430 -0.116810 -0.248487
0.125042 -0.147496 0.035845
-0.045933 -0.130521 -0.157167
0.021614 -0.135555 -0.107867
-0.102314 -0.121494 -0.234933
0.013708 -0.132069 -0.112845
0.029200 -0.139357 -0.080206
0.110878 -0.149179 0.024402
-0.096961 -0.119883 -0.223383
0.073126 -0.142334 -0.059190
0.012439 -0.133995 -0.094009
-0.019489 -0.130428 -0.116539
0.030822 -0.135853 -0.078618
0.072077 -0.144216 -0.034176
-0.081663 -0.122553 -0.235874
-0.086288 -0.119503 -0.248310
0.087046 -0.140907 -0.023128
-0.045341 -0.133208 -0.146599
0.121177 -0.151669 0.050045
-0.083397 -0.128634 -0.207831
-0.018605 -0.132184 -0.135172
0.028730 -0.141164 -0.084280
0.068509 -0.143776 -0.062593
0.088482 -0.148048 -0.037490
-0.091772 -0.123054 -0.263430
-0.066916 -0.123080 -0.159957
0.085305 -0.149404 -0.035082
0.070600 -0.139457 -0.060255
-0.046279 -0.131957 -0.153773
0.038622 -0.142391 -0.074700
0.062880 -0.136690 -0.054706
0.001624 -0.137435 -0.104948
0.127054 -0.157553 0.038395
-0.103386 -0.120744 -0.238968
0.052806 -0.140637 -0.055153
-0.070586 -0.129503 -0.189466
0.062984 -0.138791 -0.068313
0.082819 -0.140711 -0.026792
0.127472 -0.148595 0.030140
0.023923 -0.141005 -0.096272
-0.096140 -0.126886 -0.234281
-0.084593 -0.123042 -0.247508
-0.084344 -0.118483 -0.214697
0.117693 -0.149375 0.001722
0.060119 -0.144331 -0.067896
0.070289 -0.144428 -0.060314
-0.072198 -0.124538 -0.165999
0.023100 -0.130995 -0.096172
0.089434 -0.150642 -0.021771
0.075250 -0.142718 -0.030581
-0.088470 -0.127176 -0.207302
-0.070624 -0.124204 -0.204785
0.104927 -0.144533 0.005536
0.040868 -0.133822 -0.086834
0.072412 -0.146337 -0.054836
0.075012 -0.138175 -0.044874
0.073222 -0.137972 -0.050608
0.003096 -0.135463 -0.119839
0.080800 -0.139726 -0.032305
-0.084897 -0.126284 -0.234789
-0.104921 -0.119620 -0.244173
-0.007535 -0.137198 -0.119872
0.073164 -0.141067 -0.034706
-0.088085 -0.118577 -0.249196
0.012585 -0.138977 -0.097286
0.088701 -0.145979 -0.011376
-0.045062 -0.124606 -0.155961
-0.054064 -0.122212 -0.156713
0.021663 -0.137292 -0.086031
-0.068898 -0.125542 -0.158878
0.006227 -0.130766 -0.101844
-0.052189 -0.127619 -0.140857
0.060411 -0.136787 -0.054930
0.010802 -0.136219 -0.095129
-0.068596 -0.122046 -0.166348
-0.002061 -0.134957 -0.122996
-0.066962 -0.120671 -0.180552
-0.070804 -0.121954 -0.169780
0.082686 -0.140017 -0.029928
-0.105431 -0.124868 -0.249412
-0.084797 -0.119073 -0.207119
-0.010113 -0.134267 -0.110360
-0.070520 -0.128879 -0.192584
-0.003717 -0.129996 -0.124203
-0.092267 -0.120111 -0.265273
-0.097525 -0.117563 -0.240116
-0.023989 -0.131951 -0.119405
-0.008058 -0.135021 -0.109399
0.007821 -0.131842 -0.117349
-0.079540 -0.128537 -0.210189
-0.035236 -0.132882 -0.128340
0.082106 -0.140611 -0.027678
-0.052656 -0.122870 -0.161101
-0.026311 -0.134062 -0.123145
-0.086047 -0.125155 -0.245574
-0.103897 -0.124375 -0.269901
-0.062237 -0.122149 -0.180396
0.067405 -0.146943 -0.054203
-0.099428 -0.126083 -0.239584
0.114851 -0.149778 0.032726
0.046621 -0.137271 -0.085980
-0.098109 -0.116526 -0.260708
-0.090062 -0.119541 -0.259572
-0.010684 -0.129763 -0.129777
0.020323 -0.140187 -0.091567
0.063895 -0.142030 -0.043641
-0.031973 -0.133904 -0.127784
-0.074574 -0.124565 -0.217716
-0.012339 -0.130431 -0.112062
-0.096728 -0.116886 -0.262001
0.127885 -0.149715 0.040295
-0.066458 -0.121233 -0.186543
0.026110 -0.140844 -0.096929
0.060704 -0.136638 -0.055595
-0.035043 -0.127297 -0.148536
-0.015657 -0.130513 -0.113882
-0.075321 -0.123634 -0.220232
-0.021855 -0.130733 -0.117962
-0.049116 -0.132078 -0.142173
0.060319 -0.141662 -0.071287
0.031205 -0.133836 -0.098298
0.022768 -0.141031 -0.095235
-0.091547 -0.122254 -0.264009
0.103041 -0.149800 -0.018327
-0.044956 -0.131692 -0.153704
0.089935 -0.141029 -0.033193
0.083438 -0.149487 -0.027524
-0.079750 -0.129184 -0.192348
0.088558 -0.150495 -0.023366
-0.036534 -0.125602 -0.147955
-0.073977 -0.119877 -0.196171
-0.114952 -0.117347 -0.264580
0.036798 -0.140655 -0.092219
-0.027129 -0.132658 -0.139585
0.027666 -0.131664 -0.091329
0.113504 -0.155068 0.016028
0.036750 -0.134968 -0.094306
0.111284 -0.154618 0.013751
-0.103112 -0.120098 -0.239253
-0.094198 -0.127219 -0.233774
0.075755 -0.139280 -0.036911
-0.109601 -0.117583 -0.267635
0.063055 -0.146463 -0.052996
-0.073511 -0.123422 -0.214789
-0.090399 -0.123915 -0.259062
0.126060 -0.147797 0.031233
0.028131 -0.132202 -0.087783
-0.029057 -0.134814 -0.128158
-0.072804 -0.120621 -0.201434
0.066354 -0.143026 -0.065243
