ply
format ascii 1.0
element vertex 256
property float x
property float y
property float z
end_header
0.001469 0.140168 -0.081956
-0.059357 0.135946 -0.212982
-0.007445 0.146531 -0.091771
0.059248 0.149983 0.015346
0.073482 0.141301 0.030748
-0.050721 0.144809 -0.198574
-0.016220 0.140893 -0.115479
-0.020911 0.143634 -0.103944
-0.018113 0.142446 -0.098200
-0.020870 0.146125 -0.118100
-0.038569 0.142159 -0.175843
0.043273 0.148589 -0.003270
0.007691 0.140731 -0.072505
0.090811 0.148604 0.051646
-0.027687 0.139277 -0.119749
0.062368 0.140705 0.021843
-0.011255 0.144315 -0.104536
-0.059494 0.136094 -0.216590
-0.009557 0.144472 -0.083606
0.078584 0.145135 0.052328
-0.021132 0.145952 -0.120426
-0.054119 0.136131 -0.194405
-0.026550 0.146245 -0.128072
0.028092 0.143295 -0.021412
-0.075156 0.140791 -0.240781
-0.028351 0.142548 -0.120647
-0.034699 0.136987 -0.161508
-0.033125 0.143643 -0.163514
-0.021451 0.137124 -0.123435
0.047155 0.142363 0.004588
-0.004588 0.146405 -0.087816
0.084718 0.144464 0.058301
-0.051793 0.142031 -0.180025
0.007194 0.137660 -0.063678
0.074511 0.141241 0.038729
0.078177 0.150528 0.037871
-0.029628 0.138985 -0.126821
-0.032272 0.137002 -0.140737
-0.032967 0.142628 -0.136068
0.027317 0.142072 -0.039885
0.036514 0.138960 -0.020313
-0.016079 0.137464 -0.110649
-0.061047 0.143118 -0.229082
0.039932 0.141940 -0.022176
-0.054109 0.145461 -0.191706
-0.046492 0.142585 -0.170221
0.089276 0.148851 0.062293
0.041723 0.146740 -0.002281
0.005403 0.144846 -0.059451
-0.050649 0.144947 -0.197535
-0.053609 0.145538 -0.204496
0.026688 0.145806 -0.039704
-0.032244 0.140081 -0.162006
0.014501 0.143932 -0.062065
-0.059685 0.145183 -0.207071
0.007446 0.137706 -0.067322
0.003023 0.140850 -0.079579
-0.051755 0.139766 -0.207507
0.085432 0.149880 0.057936
-0.019811 0.137614 -0.120657
0.038316 0.141580 -0.008261
-0.002528 0.146264 -0.073849
-0.029755 0.137335 -0.148235
-0.040816 0.143680 -0.178768
0.019361 0.141432 -0.052983
-0.034958 0.146002 -0.160661
0.031274 0.148457 -0.026778
0.079962 0.141143 0.043534
-0.013793 0.145791 -0.094429
0.091046 0.149445 0.052538
-0.040725 0.138084 -0.160642
-0.055870 0.144521 -0.192699
0.009911 0.144835 -0.068949
-0.050583 0.141799 -0.177488
-0.014807 0.146536 -0.102660
-0.052167 0.137930 -0.183189
-0.017266 0.139015 -0.098090
-0.014076 0.142466 -0.090573
0.004860 0.137500 -0.070124
0.036260 0.146217 -0.011611
-0.031941 0.141672 -0.133373
-0.036450 0.146000 -0.164380
-0.024196 0.137226 -0.115093
-0.029306 0.146204 -0.142895
0.103740 0.149702 0.059345
-0.061041 0.145811 -0.217907
-0.015020 0.138650 -0.111016
0.069460 0.140593 0.028100
-0.066067 0.141098 -0.216010
-0.005968 0.146830 -0.084200
0.079539 0.145954 0.034391
-0.004689 0.146412 -0.078752
-0.008293 0.138306 -0.083063
-0.076001 0.137333 -0.247465
0.050345 0.141458 -0.004845
-0.060646 0.144833 -0.223995
0.098936 0.148981 0.067493
0.072346 0.150053 0.037554
-0.039120 0.146112 -0.162281
-0.065423 0.136298 -0.234163
0.020748 0.147833 -0.043390
-0.013717 0.143582 -0.090539
0.098605 0.148991 0.057121
-0.019265 0.145803 -0.116147
0.023372 0.138316 -0.035369
-0.031713 0.141047 -0.160844
-0.007577 0.140715 -0.078899
0.005342 0.141772 -0.076132
-0.001958 0.141081 -0.088812
0.073798 0.148036 0.027641
0.075127 0.141159 0.039131
-0.076562 0.139460 -0.245766
-0.045070 0.136910 -0.183830
-0.064276 0.144226 -0.215021
-0.019478 0.146324 -0.108975
-0.053874 0.136021 -0.195153
-0.034541 0.145735 -0.146050
0.061315 0.140443 0.013614
0.001834 0.138600 -0.079092
-0.025443 0.138182 -0.140407
-0.065272 0.144180 -0.238452
0.025703 0.139883 -0.040388
0.053058 0.146919 -0.002078
-0.012477 0.145711 -0.103789
-0.013111 0.146588 -0.100009
0.068734 0.141530 0.032805
0.073623 0.148034 0.042971
-0.054950 0.145525 -0.194954
0.012553 0.143087 -0.045301
0.014279 0.141514 -0.042650
-0.006195 0.146284 -0.081166
-0.042296 0.145975 -0.168637
-0.042563 0.137541 -0.165518
-0.022621 0.141084 -0.105997
-0.065132 0.145225 -0.234148
0.078615 0.150658 0.046562
0.036781 0.144939 -0.009757
-0.045195 0.137231 -0.171667
-0.056385 0.140816 -0.189551
0.053180 0.141087 0.010284
-0.012005 0.146679 -0.096330
0.008873 0.137790 -0.060017
0.046497 0.143106 -0.012317
-0.033032 0.138419 -0.161822
-0.059829 0.139764 -0.201414
0.077534 0.150530 0.045028
-0.049395 0.136369 -0.182541
-0.025425 0.138135 -0.140269
-0.015290 0.144363 -0.111321
0.031744 0.139070 -0.028307
-0.052098 0.141769 -0.180619
0.005889 0.142124 -0.057495
0.068379 0.149801 0.023122
0.022477 0.146802 -0.032000
-0.054283 0.142998 -0.212580
-0.049726 0.138579 -0.177251
0.090438 0.151713 0.057910
-0.019037 0.140321 -0.123420
0.006453 0.137663 -0.068791
-0.028491 0.136517 -0.136268
0.009092 0.140564 -0.070457
-0.065195 0.141096 -0.213984
0.036329 0.140404 -0.025181
0.047850 0.149343 -0.002583
-0.021002 0.140512 -0.130511
0.049077 0.139636 0.001260
-0.054866 0.139762 -0.214769
-0.031806 0.146265 -0.147607
-0.029798 0.137522 -0.148941
-0.070897 0.137845 -0.254043
0.016300 0.147717 -0.050876
0.021504 0.144542 -0.031115
-0.003027 0.139384 -0.072155
-0.031658 0.144668 -0.156551
-0.073774 0.141955 -0.237043
-0.074989 0.136335 -0.248391
-0.068473 0.137439 -0.248199
-0.055373 0.136265 -0.197491
-0.023070 0.142702 -0.137443
0.075107 0.142343 0.030679
-0.019878 0.140513 -0.101445
0.043511 0.149099 -0.005422
-0.062953 0.137987 -0.233262
0.034040 0.140124 -0.017001
-0.044035 0.144118 -0.166761
-0.028026 0.136457 -0.137814
-0.036689 0.136546 -0.156177
0.022280 0.138244 -0.037374
-0.042859 0.136293 -0.175229
-0.009391 0.142765 -0.081933
0.094210 0.149923 0.055459
-0.064634 0.139139 -0.213413
-0.074886 0.145333 -0.248703
0.072622 0.145321 0.041986
0.012630 0.147192 -0.050489
0.076441 0.143840 0.047683
0.030807 0.139406 -0.021987
-0.016568 0.138347 -0.097932
0.065639 0.148851 0.029986
0.032216 0.139972 -0.029971
-0.057817 0.140103 -0.194151
0.094022 0.142581 0.062535
0.019423 0.145871 -0.051258
-0.048709 0.143058 -0.196384
-0.066644 0.142806 -0.245401
-0.029218 0.145453 -0.131087
0.058657 0.140279 0.009565
-0.040417 0.136398 -0.166702
0.038416 0.148503 -0.019905
-0.015696 0.143655 -0.094401
-0.048568 0.144173 -0.175841
0.062206 0.142568 0.010278
-0.023462 0.146314 -0.119622
0.011279 0.139154 -0.065652
-0.013594 0.137998 -0.093123
0.029770 0.142505 -0.019685
-0.045713 0.136720 -0.184347
0.044981 0.140605 -0.012188
0.008223 0.142575 -0.053007
0.002773 0.139586 -0.064412
0.094141 0.144215 0.054929
0.081830 0.141693 0.051659
0.083954 0.142561 0.044983
0.042141 0.148743 -0.013920
-0.057929 0.136283 -0.205599
0.002356 0.139390 -0.065227
0.003013 0.138746 -0.077203
-0.024794 0.141703 -0.141888
0.032312 0.138947 -0.027022
0.009776 0.146995 -0.055326
-0.054328 0.140870 -0.213829
0.056324 0.145372 0.001112
0.081117 0.141293 0.049124
-0.008766 0.137907 -0.084874
-0.039964 0.144784 -0.158496
0.020530 0.143436 -0.032339
0.106449 0.152418 0.062431
-0.057536 0.138335 -0.219509
-0.027186 0.137315 -0.123290
-0.061048 0.144757 -0.208886
0.008491 0.145798 -0.069667
0.082388 0.143484 0.055197
0.036226 0.146103 -0.011592
-0.046012 0.144632 -0.187240
-0.057203 0.142906 -0.219388
0.010793 0.145866 -0.066613
-0.036753 0.138444 -0.170393
-0.017921 0.145637 -0.113046
0.023645 0.138953 -0.032219
0.023548 0.145339 -0.028428
-0.051520 0.136127 -0.194481
0.028265 0.143768 -0.038604
0.090954 0.146674 0.051094
0.105654 0.143067 0.063973
-0.058918 0.141534 -0.197817
0.048905 0.149413 -0.001169
