ply
format ascii 1.0
element vertex 256
property float x
property float y
property float z
end_header
0.049551 -0.171805 0.193921
0.105029 -0.178301 0.185591
0.103943 -0.181148 0.194726
-0.100602 -0.169547 0.200316
-0.079544 -0.175300 0.191780
-0.006480 -0.177247 0.189287
-0.229358 -0.163387 0.194186
-0.055461 -0.175410 0.190453
-0.167074 -0.172508 0.199576
-0.232485 -0.170582 0.197331
-0.056320 -0.175839 0.197991
-0.223646 -0.168219 0.193908
-0.169378 -0.168447 0.192142
0.033854 -0.172062 0.188927
-0.129360 -0.165026 0.198030
-0.036161 -0.177838 0.195495
-0.098205 -0.175516 0.196950
-0.146988 -0.172201 0.200326
-0.023607 -0.174930 0.188821
-0.037068 -0.177990 0.193215
0.087136 -0.182751 0.191001
0.112825 -0.176449 0.185963
0.141288 -0.175387 0.192072
0.035091 -0.170973 0.193567
-0.037817 -0.175193 0.189488
-0.073774 -0.169882 0.199441
0.090096 -0.172915 0.191385
0.084528 -0.172795 0.189944
0.005220 -0.178663 0.195892
-0.037721 -0.176471 0.190334
-0.066433 -0.167316 0.196358
-0.018948 -0.175096 0.188707
-0.014224 -0.169098 0.192204
0.130316 -0.175686 0.193325
-0.055087 -0.170158 0.189949
-0.041426 -0.169974 0.198051
-0.226960 -0.170475 0.196420
0.099890 -0.173867 0.193137
-0.121779 -0.170002 0.190980
0.067426 -0.181697 0.189824
-0.197186 -0.171744 0.199436
-0.231206 -0.161225 0.196641
0.085608 -0.182564 0.192026
0.013865 -0.172340 0.188533
0.132950 -0.184441 0.189675
0.095556 -0.182974 0.191513
0.115980 -0.173963 0.191348
-0.023117 -0.178529 0.194241
0.120968 -0.174064 0.189831
-0.107775 -0.174828 0.197971
-0.223414 -0.161462 0.200187
-0.179612 -0.162863 0.198381
-0.047549 -0.176086 0.197846
-0.219253 -0.171118 0.199248
0.046659 -0.180025 0.188761
0.050383 -0.180317 0.188871
0.015483 -0.175007 0.197700
-0.187724 -0.172300 0.196551
0.113202 -0.177066 0.195063
-0.185294 -0.172047 0.195448
0.040952 -0.171519 0.194214
-0.077901 -0.167339 0.197589
0.138773 -0.184583 0.188953
0.010685 -0.177265 0.197195
0.077757 -0.178737 0.186411
-0.139827 -0.174139 0.197069
-0.178051 -0.172107 0.199823
-0.043346 -0.172873 0.189106
0.049202 -0.172256 0.194753
-0.016379 -0.178665 0.194823
-0.176721 -0.163178 0.195569
-0.156838 -0.167467 0.201657
-0.205765 -0.169716 0.193988
0.150075 -0.175706 0.187182
0.118247 -0.178533 0.195213
0.100051 -0.178833 0.185772
0.049816 -0.171944 0.194227
0.043904 -0.172321 0.188843
-0.048333 -0.171091 0.198941
0.150782 -0.182322 0.185023
0.046939 -0.177813 0.187241
-0.201980 -0.168885 0.202415
-0.221226 -0.164454 0.193676
-0.230646 -0.170801 0.198426
-0.022973 -0.169580 0.196515
-0.010492 -0.177262 0.189509
0.147330 -0.175006 0.189579
-0.013718 -0.170898 0.197303
-0.039665 -0.177607 0.192206
-0.219145 -0.170103 0.201401
-0.225777 -0.161029 0.198174
0.011349 -0.174338 0.187877
0.030937 -0.180011 0.189929
-0.032082 -0.171377 0.189255
-0.072732 -0.166846 0.194005
-0.078644 -0.170682 0.199835
-0.009001 -0.179011 0.192296
0.025439 -0.172143 0.188743
0.055466 -0.181360 0.193122
0.048765 -0.173565 0.187769
0.014190 -0.174810 0.187761
0.141889 -0.175098 0.191306
-0.060623 -0.172259 0.189521
0.117225 -0.183779 0.191060
-0.230332 -0.166954 0.203401
0.148668 -0.184902 0.190753
-0.135356 -0.169099 0.191329
-0.118817 -0.170609 0.200820
-0.194685 -0.165102 0.193190
-0.183066 -0.171087 0.193846
-0.075913 -0.176449 0.196190
-0.228574 -0.161858 0.201402
-0.135230 -0.173688 0.193728
0.026212 -0.170547 0.191769
-0.130915 -0.173305 0.199449
-0.036106 -0.176013 0.189898
0.035727 -0.178124 0.196634
-0.155446 -0.164294 0.199248
0.007239 -0.178979 0.190264
-0.003561 -0.179338 0.193208
-0.135956 -0.167460 0.191731
-0.151836 -0.171373 0.192424
0.153838 -0.183047 0.193520
0.003332 -0.171213 0.189346
0.119637 -0.173986 0.190074
-0.111197 -0.170582 0.200681
0.024349 -0.180010 0.194298
0.058621 -0.171765 0.192381
0.051822 -0.179649 0.188063
-0.085432 -0.175283 0.192186
-0.001326 -0.170014 0.190798
-0.008059 -0.170257 0.196313
-0.134288 -0.169667 0.191295
-0.041865 -0.172662 0.199038
-0.184159 -0.166834 0.202358
0.048229 -0.172515 0.195162
-0.167587 -0.173001 0.198381
-0.022982 -0.177263 0.197007
-0.219429 -0.170155 0.195247
-0.080888 -0.168999 0.190641
-0.164457 -0.164835 0.200579
-0.195637 -0.168785 0.193041
0.003672 -0.177653 0.196902
-0.014105 -0.173372 0.198335
0.125663 -0.176153 0.194006
-0.047375 -0.175124 0.198560
-0.085953 -0.166516 0.196659
-0.020722 -0.168858 0.192324
0.156956 -0.181694 0.185655
-0.227221 -0.168086 0.202953
-0.166611 -0.163351 0.198071
-0.192149 -0.169053 0.202264
0.121809 -0.178577 0.185239
-0.189086 -0.171798 0.199848
0.139820 -0.184177 0.191964
-0.229766 -0.169687 0.201676
-0.050852 -0.176609 0.197158
-0.217720 -0.161320 0.198432
-0.094809 -0.167264 0.191941
0.023303 -0.172945 0.188150
-0.183129 -0.172457 0.196324
0.106927 -0.183249 0.189051
-0.224468 -0.170784 0.199929
-0.142923 -0.171590 0.192129
-0.121092 -0.165723 0.193288
-0.174686 -0.165298 0.201471
-0.004490 -0.169535 0.191744
0.144414 -0.181768 0.185045
0.010647 -0.174155 0.187914
-0.075059 -0.169561 0.190360
0.105220 -0.176077 0.194968
-0.097067 -0.173544 0.191209
0.105312 -0.174349 0.193402
-0.010866 -0.175522 0.188565
0.142530 -0.176425 0.186048
-0.048322 -0.168233 0.196497
0.052109 -0.172026 0.194161
0.076254 -0.181314 0.188289
-0.190908 -0.162454 0.198761
0.148082 -0.184338 0.187007
0.063357 -0.177054 0.186592
-0.128140 -0.173219 0.192603
-0.027967 -0.178312 0.194624
-0.016946 -0.169455 0.195857
-0.134283 -0.166951 0.191928
-0.138780 -0.173851 0.194480
0.060419 -0.171823 0.191020
0.015957 -0.174235 0.197586
-0.204295 -0.163049 0.201187
0.117074 -0.183719 0.191480
-0.169593 -0.163345 0.195642
-0.046826 -0.173502 0.189288
0.073007 -0.172691 0.193376
0.136230 -0.181742 0.194310
-0.117165 -0.173893 0.199028
0.155001 -0.185208 0.188681
-0.233199 -0.163292 0.194257
-0.093872 -0.166008 0.195774
-0.208769 -0.171581 0.197587
-0.166506 -0.168260 0.202028
0.008144 -0.179257 0.190718
-0.059402 -0.167763 0.196631
-0.158319 -0.169390 0.201725
0.053415 -0.180007 0.195346
0.012608 -0.174883 0.187781
0.047261 -0.180994 0.193457
-0.161493 -0.163793 0.198730
0.100970 -0.176693 0.195389
-0.024638 -0.170182 0.197329
0.059176 -0.176657 0.186670
-0.007797 -0.178956 0.191814
-0.199778 -0.166108 0.202711
0.014996 -0.178691 0.196102
0.041525 -0.177551 0.196824
-0.214843 -0.170626 0.200828
-0.214280 -0.168584 0.202641
-0.008435 -0.174542 0.198224
-0.073943 -0.176613 0.194151
0.151873 -0.176462 0.192769
-0.116907 -0.167746 0.191456
0.071542 -0.172223 0.190892
-0.114361 -0.167014 0.191974
-0.167971 -0.173036 0.198089
-0.101196 -0.166805 0.192379
-0.002924 -0.170657 0.189832
-0.131584 -0.172833 0.199919
0.103622 -0.173907 0.188419
-0.226455 -0.164963 0.193589
0.109616 -0.175977 0.194714
0.077704 -0.174534 0.195285
0.102507 -0.174689 0.187231
-0.175117 -0.172758 0.198332
0.127023 -0.177950 0.194885
-0.034172 -0.177128 0.190864
-0.109156 -0.172366 0.200210
0.128090 -0.182665 0.186366
-0.231741 -0.160793 0.198408
-0.137270 -0.164878 0.194105
0.113728 -0.179545 0.195265
-0.159824 -0.172481 0.193944
-0.090802 -0.166959 0.192440
0.090912 -0.174566 0.194616
-0.083212 -0.175729 0.197441
-0.191618 -0.167814 0.192697
-0.059102 -0.168071 0.197175
-0.194970 -0.168465 0.202531
0.064833 -0.180768 0.188408
-0.151987 -0.168371 0.191738
-0.110384 -0.165447 0.196612
-0.094857 -0.175866 0.195714
-0.091055 -0.167034 0.192336
-0.017213 -0.176343 0.189158
-0.199999 -0.162014 0.197437
0.116241 -0.178147 0.195220
0.150778 -0.175299 0.190740
0.045925 -0.181038 0.190718
