ply
format ascii 1.0
element vertex 256
property float x
property float y
property float z
end_header
-0.238257 0.127862 0.408784
-0.239733 0.150512 0.359211
-0.235225 0.137200 0.422293
-0.243340 0.152630 0.430493
-0.236154 0.119331 0.371374
-0.239674 0.120443 0.374385
-0.231872 0.116656 0.389851
-0.237942 0.195931 0.429479
-0.234566 0.113645 0.394084
-0.245808 0.215328 0.381209
-0.245134 0.151042 0.431878
-0.243305 0.204524 0.425513
-0.238651 0.198553 0.429544
-0.243773 0.203165 0.427574
-0.246172 0.184737 0.441474
-0.234721 0.113893 0.404402
-0.232598 0.153252 0.355943
-0.246560 0.169804 0.436639
-0.240489 0.201225 0.429138
-0.239915 0.123647 0.368921
-0.244503 0.164000 0.442137
-0.239488 0.128265 0.359723
-0.247670 0.182724 0.438817
-0.239020 0.167266 0.434383
-0.236399 0.214629 0.384183
-0.241771 0.129910 0.425251
-0.237467 0.141660 0.360902
-0.247274 0.207421 0.410380
-0.239283 0.115087 0.408854
-0.239241 0.144023 0.358814
-0.244939 0.207659 0.401288
-0.246869 0.213022 0.399284
-0.239800 0.221023 0.379357
-0.232008 0.118317 0.378079
-0.240370 0.156836 0.430609
-0.232583 0.122298 0.366085
-0.236229 0.217274 0.384559
-0.236399 0.145386 0.352234
-0.247115 0.205512 0.418399
-0.241976 0.187097 0.432172
-0.240617 0.116317 0.390895
-0.233197 0.143653 0.360022
-0.230445 0.138733 0.355925
-0.240786 0.209946 0.391354
-0.239817 0.139668 0.434595
-0.241553 0.184017 0.444423
-0.240831 0.133423 0.416811
-0.240790 0.118381 0.385495
-0.245289 0.200548 0.429802
-0.238032 0.212045 0.385637
-0.242056 0.128381 0.412836
-0.247782 0.197475 0.426430
-0.232250 0.115735 0.393751
-0.238042 0.142703 0.359223
-0.240783 0.209082 0.417813
-0.246683 0.191331 0.429767
-0.230327 0.126899 0.368368
-0.242252 0.146288 0.437420
-0.239575 0.208829 0.353696
-0.238876 0.197823 0.421038
-0.238742 0.171667 0.435544
-0.245616 0.216068 0.399889
-0.241409 0.183398 0.444999
-0.246479 0.215621 0.393481
-0.236069 0.112011 0.398020
-0.230832 0.123813 0.377102
-0.234660 0.137251 0.426591
-0.241007 0.119745 0.412248
-0.243080 0.162249 0.442470
-0.240148 0.205581 0.404656
-0.245055 0.143377 0.432205
-0.230641 0.127170 0.362229
-0.236852 0.162494 0.435485
-0.242678 0.152813 0.430210
-0.230970 0.138769 0.354554
-0.237822 0.219652 0.373616
-0.240974 0.135162 0.418282
-0.234111 0.122203 0.396724
-0.230785 0.148890 0.356065
-0.234526 0.124426 0.361030
-0.233989 0.140737 0.351167
-0.235396 0.112679 0.399523
-0.244843 0.212295 0.385855
-0.239908 0.184151 0.442069
-0.231176 0.140912 0.353264
-0.240556 0.117881 0.384948
-0.244370 0.145094 0.435048
-0.239049 0.143510 0.358739
-0.244158 0.209990 0.359782
-0.230695 0.129150 0.356466
-0.233579 0.143680 0.360131
-0.236918 0.211558 0.371049
-0.245050 0.142782 0.431602
-0.233396 0.126989 0.414534
-0.238499 0.204332 0.421721
-0.247543 0.179315 0.440151
-0.246757 0.184555 0.440815
-0.237130 0.210436 0.404260
-0.242672 0.154335 0.439934
-0.244624 0.211767 0.365560
-0.243427 0.169164 0.433935
-0.236309 0.218277 0.376412
-0.241781 0.220776 0.377353
-0.239910 0.119323 0.377544
-0.239285 0.205281 0.359923
-0.235777 0.114437 0.385902
-0.242369 0.172554 0.444221
-0.246118 0.193454 0.438254
-0.243466 0.209929 0.394028
-0.232597 0.121242 0.408198
-0.240170 0.188355 0.432156
-0.239159 0.191671 0.428854
-0.240013 0.131696 0.414771
-0.232262 0.133758 0.354235
-0.239374 0.136717 0.355288
-0.235825 0.150528 0.434545
-0.239175 0.175011 0.434699
-0.238695 0.129558 0.368761
-0.232812 0.116782 0.382841
-0.234921 0.130217 0.354874
-0.231529 0.119415 0.393196
-0.240239 0.135211 0.418005
-0.239979 0.121241 0.398033
-0.238870 0.205331 0.421139
-0.242241 0.138194 0.431659
-0.243099 0.160379 0.431439
-0.231543 0.126994 0.373933
-0.234574 0.126924 0.420997
-0.235377 0.148106 0.360267
-0.236753 0.125468 0.384903
-0.236433 0.141474 0.361377
-0.232301 0.115737 0.392491
-0.237842 0.112886 0.395480
-0.238632 0.147539 0.350737
-0.242350 0.149942 0.439217
-0.246418 0.212087 0.396357
-0.236003 0.143780 0.426655
-0.230767 0.143743 0.357259
-0.241833 0.221089 0.385351
-0.240112 0.138991 0.420757
-0.230479 0.125440 0.371930
-0.233087 0.124610 0.409701
-0.239522 0.187467 0.441070
-0.231053 0.146145 0.353381
-0.231240 0.147293 0.357927
-0.240190 0.145451 0.354166
-0.245457 0.211542 0.393075
-0.233881 0.119955 0.370406
-0.234095 0.125749 0.381098
-0.235643 0.133309 0.366086
-0.236112 0.217224 0.382898
-0.239378 0.160602 0.431607
-0.247087 0.196688 0.432561
-0.239864 0.147941 0.357558
-0.230664 0.149544 0.354487
-0.231002 0.133633 0.362505
-0.234110 0.134569 0.352983
-0.239826 0.208203 0.418325
-0.236308 0.123434 0.401156
-0.237181 0.210480 0.401527
-0.237148 0.123079 0.419150
-0.241173 0.207979 0.398157
-0.239112 0.219122 0.392609
-0.239321 0.150436 0.359638
-0.240152 0.214775 0.406554
-0.242692 0.157728 0.440572
-0.234222 0.154119 0.355919
-0.234751 0.125008 0.360272
-0.246622 0.200405 0.428206
-0.239648 0.113658 0.400157
-0.230771 0.122297 0.379373
-0.244756 0.212990 0.373370
-0.241809 0.194587 0.438513
-0.239314 0.118157 0.378158
-0.232896 0.148262 0.353564
-0.239639 0.178454 0.435054
-0.241636 0.173182 0.444026
-0.240321 0.121805 0.374813
-0.238359 0.218316 0.394371
-0.235571 0.119400 0.371100
-0.235776 0.134471 0.427867
-0.237361 0.171937 0.438289
-0.231551 0.118678 0.394528
-0.232527 0.120572 0.407974
-0.237979 0.218135 0.393479
-0.231047 0.150416 0.356983
-0.237525 0.123004 0.395486
-0.247002 0.192693 0.437709
-0.236798 0.127631 0.376739
-0.239891 0.128526 0.410573
-0.235228 0.144809 0.350068
-0.239590 0.137543 0.419781
-0.239976 0.123503 0.404992
-0.238268 0.207819 0.366710
-0.238843 0.218957 0.365565
-0.241542 0.199837 0.431306
-0.238135 0.113191 0.401059
-0.247075 0.203572 0.422100
-0.244794 0.145300 0.434420
-0.241158 0.129361 0.412702
-0.236224 0.156790 0.435678
-0.235140 0.145296 0.351895
-0.246898 0.174913 0.436469
-0.234817 0.139032 0.427532
-0.231749 0.122152 0.386728
-0.235799 0.208000 0.363912
-0.235190 0.142931 0.430913
-0.236450 0.151614 0.432065
-0.237913 0.218612 0.389964
-0.238076 0.132499 0.365591
-0.245773 0.212687 0.408938
-0.243013 0.175236 0.443559
-0.246902 0.171334 0.440896
-0.241413 0.138113 0.432090
-0.244196 0.149299 0.437740
-0.234840 0.154126 0.356317
-0.230946 0.146392 0.357808
-0.237854 0.184388 0.437460
-0.235218 0.130976 0.424868
-0.238014 0.201462 0.417595
-0.235081 0.212489 0.359664
-0.243862 0.188518 0.442259
-0.245395 0.210960 0.394792
-0.230725 0.124820 0.374626
-0.244626 0.211716 0.366125
-0.241013 0.121556 0.403514
-0.236166 0.156095 0.435145
-0.244949 0.218432 0.392597
-0.230415 0.134461 0.356452
-0.237033 0.113423 0.393174
-0.239500 0.193461 0.425660
-0.240275 0.146019 0.354161
-0.241352 0.220023 0.390061
-0.235642 0.140132 0.430818
-0.243501 0.210094 0.416179
-0.247154 0.206490 0.409530
-0.231784 0.116672 0.394313
-0.241923 0.123035 0.406798
-0.241668 0.195360 0.437756
-0.238146 0.125761 0.361150
-0.235241 0.121704 0.416062
-0.233726 0.129646 0.418706
-0.234169 0.128944 0.414385
-0.236409 0.134402 0.353156
-0.243805 0.137313 0.422772
-0.237946 0.204842 0.419092
-0.235815 0.149820 0.434709
-0.244270 0.208046 0.399339
-0.237751 0.122496 0.365455
-0.240001 0.133415 0.358709
-0.238365 0.210918 0.392887
-0.230390 0.124629 0.369463
-0.237927 0.185832 0.437896
-0.237862 0.216236 0.398826
-0.238744 0.129121 0.410885
-0.239157 0.131752 0.427929
