ply
format ascii 1.0
element vertex 256
property float x
property float y
property float z
end_header
-0.216560 -0.220159 0.347740
-0.245972 -0.190224 0.420802
-0.234393 -0.161734 0.374195
-0.234452 -0.214608 0.413013
-0.233480 -0.161577 0.367956
-0.234926 -0.167386 0.370752
-0.222580 -0.231829 0.402013
-0.226349 -0.221934 0.413692
-0.236284 -0.170338 0.366629
-0.227761 -0.241026 0.402298
-0.240815 -0.194375 0.415671
-0.214625 -0.239778 0.376818
-0.233942 -0.222085 0.420225
-0.245343 -0.162303 0.377607
-0.220872 -0.210852 0.342219
-0.233904 -0.161167 0.366103
-0.229219 -0.213575 0.417926
-0.242846 -0.154626 0.393357
-0.215942 -0.220014 0.337898
-0.243507 -0.164462 0.384283
-0.215637 -0.247304 0.373674
-0.244740 -0.163866 0.378667
-0.245158 -0.193358 0.419433
-0.219278 -0.247505 0.388752
-0.234654 -0.198520 0.423128
-0.221394 -0.236589 0.355421
-0.240322 -0.207781 0.422214
-0.247031 -0.172753 0.420044
-0.231930 -0.211739 0.422926
-0.224742 -0.225273 0.410296
-0.240796 -0.160731 0.404569
-0.221604 -0.247760 0.380926
-0.236466 -0.188025 0.418886
-0.237033 -0.159333 0.384461
-0.215449 -0.233471 0.362319
-0.235923 -0.165575 0.376070
-0.240686 -0.164218 0.387280
-0.235572 -0.172368 0.361153
-0.238203 -0.160658 0.389718
-0.239488 -0.155840 0.387859
-0.229952 -0.219932 0.420506
-0.242177 -0.157191 0.406238
-0.237552 -0.161303 0.385539
-0.215463 -0.217481 0.336939
-0.249255 -0.172841 0.412829
-0.218909 -0.212314 0.345208
-0.220946 -0.238814 0.383208
-0.238574 -0.168529 0.358142
-0.220632 -0.237597 0.403829
-0.241943 -0.184343 0.424440
-0.236618 -0.187172 0.419155
-0.236211 -0.222442 0.417806
-0.217645 -0.241667 0.357141
-0.220856 -0.247064 0.374228
-0.229249 -0.239103 0.403115
-0.238424 -0.166505 0.376928
-0.213443 -0.238113 0.368761
-0.212233 -0.225682 0.345684
-0.220349 -0.243311 0.399826
-0.221879 -0.237429 0.389403
-0.244988 -0.162457 0.416547
-0.241810 -0.166982 0.366810
-0.225172 -0.224561 0.409983
-0.227961 -0.241207 0.395875
-0.238064 -0.157503 0.386934
-0.214862 -0.244684 0.384284
-0.234994 -0.193472 0.420065
-0.242464 -0.164101 0.406881
-0.233597 -0.198449 0.419507
-0.230464 -0.213877 0.421727
-0.241731 -0.172820 0.410773
-0.232544 -0.166370 0.359007
-0.221267 -0.227795 0.343960
-0.234305 -0.198250 0.417530
-0.236404 -0.195404 0.424267
-0.243826 -0.154913 0.385600
-0.222719 -0.242212 0.402519
-0.236453 -0.219957 0.419572
-0.231888 -0.230641 0.413414
-0.230274 -0.237400 0.403233
-0.237213 -0.203269 0.414587
-0.221907 -0.225434 0.342908
-0.231103 -0.209370 0.421474
-0.240322 -0.186444 0.414966
-0.247783 -0.182132 0.420276
-0.220678 -0.238832 0.356113
-0.229902 -0.238084 0.403859
-0.238344 -0.208513 0.423977
-0.247725 -0.175781 0.421823
-0.221068 -0.245529 0.398000
-0.245127 -0.158484 0.378543
-0.215742 -0.242925 0.358895
-0.244059 -0.161441 0.415221
-0.246010 -0.154679 0.401865
-0.222969 -0.229469 0.406858
-0.236367 -0.217023 0.413260
-0.237645 -0.157534 0.384774
-0.214598 -0.235587 0.349269
-0.243923 -0.164676 0.375671
-0.219900 -0.237620 0.389625
-0.218090 -0.223370 0.337727
-0.224063 -0.226780 0.410003
-0.215732 -0.231757 0.359457
-0.249623 -0.169725 0.416268
-0.234538 -0.227743 0.412982
-0.221173 -0.212459 0.344964
-0.236786 -0.165334 0.377290
-0.234768 -0.172853 0.361854
-0.213193 -0.238939 0.369625
-0.217962 -0.245556 0.365670
-0.240731 -0.155046 0.387101
-0.241650 -0.173941 0.421879
-0.221606 -0.236142 0.357097
-0.224056 -0.242395 0.378864
-0.218910 -0.229494 0.342939
-0.222260 -0.225498 0.345341
-0.247588 -0.175957 0.412355
-0.230562 -0.211198 0.421264
-0.229662 -0.224276 0.406742
-0.235722 -0.159017 0.375464
-0.217125 -0.230775 0.358333
-0.244703 -0.188983 0.416301
-0.238741 -0.216493 0.418150
-0.250699 -0.166485 0.411196
-0.215755 -0.244808 0.362071
-0.240444 -0.163191 0.393127
-0.221587 -0.237917 0.358219
-0.245667 -0.191409 0.419464
-0.217666 -0.217880 0.336048
-0.245683 -0.164731 0.401107
-0.237228 -0.184674 0.420575
-0.237810 -0.193322 0.425070
-0.222116 -0.248017 0.384402
-0.236717 -0.157829 0.376747
-0.211840 -0.229326 0.349186
-0.217284 -0.221788 0.336733
-0.232880 -0.226455 0.418818
-0.241596 -0.203511 0.417064
-0.229031 -0.215624 0.419655
-0.246144 -0.179808 0.422921
-0.239923 -0.212283 0.419288
-0.247672 -0.164067 0.417677
-0.216410 -0.223670 0.350504
-0.240406 -0.208789 0.421885
-0.249159 -0.157509 0.414430
-0.245436 -0.164806 0.401375
-0.240591 -0.174105 0.420746
-0.241588 -0.157338 0.374146
-0.244964 -0.174979 0.423046
-0.220174 -0.238285 0.385418
-0.212518 -0.241244 0.369043
-0.230415 -0.237133 0.404358
-0.242803 -0.160697 0.370685
-0.223423 -0.234800 0.396231
-0.234169 -0.196433 0.419547
-0.220813 -0.217871 0.345312
-0.242295 -0.164532 0.388861
-0.221617 -0.239413 0.373699
-0.213890 -0.239960 0.355613
-0.222345 -0.233134 0.399517
-0.238983 -0.215461 0.417888
-0.237075 -0.204993 0.414279
-0.219313 -0.247780 0.377161
-0.230423 -0.211868 0.421272
-0.248701 -0.175329 0.413648
-0.247115 -0.161738 0.415919
-0.234291 -0.208199 0.424341
-0.241707 -0.191497 0.415522
-0.211856 -0.230821 0.349449
-0.223193 -0.241299 0.375535
-0.245044 -0.168195 0.408658
-0.220984 -0.236439 0.362909
-0.239250 -0.174646 0.415331
-0.248930 -0.161307 0.395062
-0.219302 -0.246719 0.369880
-0.247029 -0.184574 0.421073
-0.246427 -0.155992 0.388644
-0.223889 -0.228938 0.404897
-0.245943 -0.190483 0.419707
-0.246162 -0.154803 0.395463
-0.232327 -0.165925 0.367178
-0.245479 -0.159624 0.378059
-0.226631 -0.243714 0.398237
-0.232986 -0.226378 0.407519
-0.239971 -0.166441 0.377432
-0.237309 -0.162025 0.384082
-0.212434 -0.231120 0.354979
-0.223557 -0.216064 0.338727
-0.236793 -0.218031 0.421146
-0.214766 -0.217425 0.344504
-0.234827 -0.170463 0.360400
-0.241194 -0.164527 0.413342
-0.215550 -0.231829 0.344299
-0.242208 -0.163659 0.365554
-0.240955 -0.159313 0.404945
-0.250777 -0.163492 0.413370
-0.226477 -0.244431 0.394682
-0.239312 -0.214404 0.418150
-0.217327 -0.238818 0.352620
-0.227162 -0.220957 0.417484
-0.230185 -0.210416 0.418697
-0.215653 -0.220809 0.347998
-0.241492 -0.167355 0.373819
-0.215917 -0.220090 0.347496
-0.248015 -0.157347 0.412363
-0.219446 -0.232753 0.346171
-0.216780 -0.215688 0.345361
-0.216763 -0.245318 0.364319
-0.236692 -0.157850 0.377309
-0.241776 -0.163884 0.408592
-0.237841 -0.200144 0.424961
-0.244084 -0.164475 0.391743
-0.241347 -0.199233 0.415980
-0.220394 -0.236788 0.352648
-0.227950 -0.233437 0.399191
-0.218237 -0.234451 0.363729
-0.235633 -0.167985 0.370628
-0.213997 -0.236962 0.367190
-0.246148 -0.156246 0.386120
-0.217499 -0.243346 0.394329
-0.246947 -0.180638 0.415358
-0.246817 -0.158880 0.415149
-0.227710 -0.223410 0.408047
-0.222470 -0.240711 0.370391
-0.214575 -0.229451 0.343282
-0.238143 -0.207057 0.414680
-0.224098 -0.226857 0.410352
-0.235759 -0.199730 0.424321
-0.220629 -0.232943 0.357868
-0.238318 -0.163915 0.359197
-0.244343 -0.164229 0.385067
-0.246659 -0.161488 0.383379
-0.225933 -0.244830 0.392635
-0.232931 -0.201232 0.418511
-0.238691 -0.162210 0.388900
-0.240950 -0.164352 0.387263
-0.234935 -0.194137 0.419107
-0.247950 -0.173873 0.411458
-0.235796 -0.223947 0.413432
-0.231676 -0.218037 0.421915
-0.244414 -0.155650 0.407699
-0.213482 -0.216960 0.341619
-0.214936 -0.221652 0.348327
-0.216049 -0.228466 0.341969
-0.242225 -0.171733 0.419588
-0.214969 -0.240746 0.355930
-0.236385 -0.162772 0.380516
-0.247502 -0.165656 0.406402
-0.226017 -0.242079 0.388424
-0.222004 -0.245209 0.398632
-0.219399 -0.247025 0.370794
-0.250015 -0.157042 0.410421
-0.235086 -0.168457 0.369083
-0.215659 -0.225460 0.339829
-0.250403 -0.165525 0.415584
-0.231536 -0.211511 0.422612
