ply
format ascii 1.0
element vertex 256
property float x
property float y
property float z
end_header
-0.164421 0.181459 0.200176
0.127849 0.171925 0.195278
-0.016982 0.171523 0.196562
0.017072 0.173257 0.200735
-0.099226 0.173164 0.203840
-0.127903 0.173547 0.197439
0.059591 0.172670 0.191801
0.089640 0.180544 0.196338
-0.136810 0.177533 0.206364
-0.160356 0.180764 0.198991
0.035422 0.171504 0.194446
-0.223587 0.176694 0.209030
0.085530 0.175635 0.199634
-0.086819 0.172569 0.202753
0.081799 0.171433 0.192739
-0.202775 0.175211 0.208035
-0.164825 0.171985 0.202406
0.011208 0.173252 0.200891
-0.195643 0.172231 0.202243
-0.205983 0.172293 0.204703
-0.008421 0.177180 0.192646
-0.225286 0.177598 0.209101
-0.220333 0.172295 0.204711
-0.176897 0.181994 0.202458
-0.096949 0.171880 0.201574
-0.085727 0.176391 0.194924
0.010990 0.171255 0.196868
0.096362 0.171247 0.192600
0.126344 0.175320 0.198370
-0.142756 0.173826 0.205538
-0.144896 0.172228 0.199997
-0.028101 0.175567 0.203028
-0.119920 0.172259 0.202960
-0.058505 0.180814 0.201628
0.121068 0.180403 0.191770
-0.033731 0.173917 0.193985
0.039100 0.171988 0.198835
0.055887 0.179965 0.192520
-0.017405 0.173792 0.202088
-0.165638 0.177308 0.197371
-0.078377 0.173075 0.196136
-0.090071 0.173987 0.195828
0.008558 0.179751 0.193451
-0.227536 0.173958 0.200477
0.116704 0.174779 0.198588
0.127791 0.175395 0.192928
-0.083752 0.178141 0.204578
0.010402 0.179066 0.201050
0.055961 0.181052 0.195518
0.030029 0.175288 0.201250
0.086961 0.177742 0.199246
-0.108167 0.171932 0.199224
0.041872 0.180666 0.197976
0.054688 0.171807 0.198207
0.127468 0.180674 0.194073
-0.134890 0.174761 0.196888
-0.187971 0.181431 0.205431
-0.069689 0.180835 0.196808
-0.149194 0.181876 0.201593
0.020410 0.176147 0.201652
-0.220614 0.173340 0.207116
0.115778 0.174257 0.189025
-0.113264 0.175160 0.205438
-0.107011 0.179956 0.204319
-0.092458 0.175950 0.195191
-0.212894 0.181790 0.201967
0.094463 0.179869 0.197372
0.001177 0.180948 0.198942
-0.222580 0.174911 0.199650
0.052061 0.178519 0.200048
-0.076985 0.177457 0.194736
-0.165264 0.178060 0.207177
-0.147703 0.181570 0.203465
-0.162047 0.174139 0.198134
0.053178 0.171992 0.198486
-0.224781 0.182117 0.203356
-0.179727 0.172389 0.201017
-0.034613 0.176254 0.193356
-0.197398 0.172673 0.205548
-0.119034 0.181152 0.198502
0.081909 0.178825 0.198828
-0.137136 0.180634 0.204683
-0.171374 0.181212 0.205159
-0.036469 0.171446 0.198351
0.056104 0.178270 0.191117
-0.032235 0.180806 0.195887
-0.177584 0.172406 0.200889
-0.017486 0.177444 0.192953
-0.123560 0.174564 0.196605
0.007660 0.177478 0.192204
0.079924 0.171498 0.192660
0.100140 0.173227 0.190008
-0.207466 0.175235 0.199029
-0.035080 0.177638 0.193505
-0.201620 0.173985 0.207267
0.045252 0.181061 0.196226
-0.202016 0.172297 0.204734
0.078109 0.171330 0.193138
-0.124452 0.175208 0.205780
-0.149760 0.173371 0.198311
0.037222 0.174300 0.200751
0.082917 0.174941 0.189881
-0.049250 0.181102 0.196952
-0.073214 0.172642 0.196516
-0.174594 0.181789 0.201180
-0.012709 0.171470 0.198628
-0.181263 0.174595 0.198450
-0.127117 0.180599 0.204370
-0.018330 0.173197 0.201656
-0.196451 0.175798 0.208096
-0.195655 0.173167 0.206264
0.055938 0.175337 0.190667
-0.088356 0.175037 0.195275
-0.183108 0.181858 0.201523
-0.186361 0.177868 0.207857
0.126298 0.172454 0.197135
0.010966 0.181195 0.197327
-0.222896 0.172721 0.201962
0.085534 0.180811 0.195629
-0.172485 0.176622 0.197586
-0.198636 0.177908 0.198438
-0.087104 0.181489 0.198706
0.040098 0.179848 0.192764
-0.114181 0.172272 0.198646
-0.160398 0.179776 0.198085
-0.175360 0.181308 0.205176
-0.222827 0.176164 0.208937
-0.096969 0.179431 0.196088
-0.104905 0.175526 0.195633
-0.076517 0.172259 0.202071
-0.153441 0.172060 0.200928
-0.151720 0.172062 0.203002
0.062420 0.171503 0.193355
-0.184560 0.172214 0.204123
0.001731 0.171359 0.197799
-0.043111 0.171808 0.196890
-0.024641 0.176204 0.203008
-0.218710 0.182040 0.205122
0.100365 0.174519 0.189413
0.013728 0.174495 0.201508
-0.157235 0.172831 0.204862
0.125673 0.180392 0.191651
-0.029230 0.172184 0.200805
0.122731 0.180689 0.194256
-0.100474 0.180329 0.196920
-0.128934 0.172430 0.203558
-0.206217 0.172397 0.205062
-0.073824 0.180657 0.196679
-0.183016 0.182010 0.203141
-0.115687 0.173894 0.204850
0.120665 0.180183 0.195954
-0.134690 0.172703 0.198642
0.070814 0.178286 0.190700
-0.072768 0.173690 0.195473
-0.142309 0.179889 0.205559
0.004318 0.174030 0.201586
-0.024020 0.181182 0.196628
-0.218208 0.179077 0.208520
-0.120613 0.181730 0.200511
-0.215511 0.180764 0.200375
0.111104 0.175883 0.188896
-0.102785 0.179344 0.196180
-0.145961 0.177987 0.196871
0.037897 0.174881 0.191286
-0.108852 0.171858 0.201490
-0.138030 0.181735 0.200532
0.002017 0.178044 0.192580
-0.054902 0.179344 0.194872
-0.032111 0.174123 0.193843
-0.161535 0.181885 0.202761
-0.205462 0.180974 0.200396
-0.060181 0.176072 0.204055
-0.004913 0.180162 0.200555
-0.097742 0.179443 0.204401
-0.174099 0.179643 0.198357
0.063072 0.171109 0.194752
-0.091354 0.177095 0.195119
-0.142283 0.178308 0.196842
0.057484 0.173929 0.191038
0.065921 0.179894 0.198363
-0.098163 0.173000 0.203599
-0.018462 0.180628 0.200434
0.124719 0.178740 0.197452
-0.194978 0.181714 0.205031
0.111572 0.171939 0.196952
-0.185464 0.181521 0.205113
-0.195643 0.173810 0.199518
0.032904 0.179377 0.192499
-0.064249 0.172492 0.196390
0.064630 0.177034 0.190440
-0.041781 0.178967 0.194224
0.113585 0.173479 0.189418
0.041581 0.171995 0.198782
-0.179575 0.172758 0.205327
-0.135465 0.181792 0.201858
-0.148426 0.181871 0.201557
-0.001511 0.172573 0.200617
-0.056337 0.175018 0.203741
-0.075846 0.172959 0.202985
-0.005258 0.171434 0.198367
0.106863 0.171335 0.196078
-0.002571 0.179643 0.193673
-0.121949 0.178253 0.205761
0.050654 0.177108 0.190868
0.047855 0.171420 0.197492
0.000375 0.175556 0.192362
-0.145199 0.172166 0.203253
-0.069165 0.177609 0.204254
0.110914 0.175760 0.198890
-0.212511 0.182150 0.203902
-0.170707 0.172721 0.199910
0.029409 0.181045 0.195439
-0.107899 0.177824 0.195710
0.077968 0.180818 0.196047
0.008411 0.176806 0.201953
0.024616 0.172018 0.193819
0.004229 0.171477 0.195774
-0.223367 0.174512 0.208266
0.038507 0.174523 0.200807
-0.179513 0.172050 0.202884
0.121280 0.177475 0.188912
0.078229 0.171384 0.193004
0.057246 0.173788 0.191104
0.108362 0.176455 0.198897
-0.152727 0.181517 0.200075
0.113103 0.180376 0.195793
0.001102 0.176879 0.202170
-0.196601 0.177255 0.208256
-0.071396 0.181404 0.200778
0.104491 0.177257 0.189305
-0.037430 0.181397 0.198054
-0.192198 0.181933 0.201987
-0.188396 0.178872 0.207645
-0.067883 0.171646 0.199921
-0.176355 0.181893 0.201694
-0.194438 0.181302 0.200547
-0.221315 0.179197 0.199484
0.060866 0.175491 0.200354
-0.018633 0.174103 0.202277
-0.154501 0.176032 0.197106
-0.064512 0.181386 0.200543
0.094062 0.171971 0.191389
-0.130106 0.172199 0.199467
-0.188593 0.177820 0.207933
-0.123189 0.172472 0.203539
-0.078102 0.179684 0.203555
0.004496 0.181120 0.195987
-0.220859 0.173233 0.201042
-0.207889 0.172244 0.204331
-0.110383 0.180383 0.204051
-0.179082 0.181146 0.199959
0.074475 0.171077 0.195725
0.025798 0.174659 0.201229
-0.045862 0.174959 0.203415
-0.063741 0.173768 0.203335
0.092899 0.180190 0.197010
