ply
format ascii 1.0
element vertex 256
property float x
property float y
property float z
end_header
0.115467 -0.155707 -0.142095
0.131201 -0.160955 -0.141019
0.001250 -0.142953 -0.145712
0.106777 -0.157940 -0.141113
-0.048891 -0.152341 -0.144766
0.114320 -0.153761 -0.144706
0.036942 -0.155539 -0.146086
0.061946 -0.147533 -0.145478
-0.098835 -0.145781 -0.140833
0.119289 -0.160870 -0.150502
-0.074711 -0.143282 -0.140140
-0.014528 -0.141974 -0.145912
0.127485 -0.157165 -0.141658
-0.076754 -0.142846 -0.140188
0.078175 -0.155488 -0.142504
0.012319 -0.153740 -0.144681
0.057922 -0.153130 -0.150776
0.052915 -0.156444 -0.148122
-0.076284 -0.147933 -0.140386
0.101195 -0.159269 -0.149666
-0.109490 -0.145964 -0.141760
-0.109597 -0.136908 -0.143001
-0.023948 -0.147764 -0.140518
-0.070376 -0.151122 -0.142533
0.031543 -0.152909 -0.141407
0.111362 -0.152660 -0.146157
-0.059376 -0.148158 -0.139579
0.039897 -0.155583 -0.146679
0.113913 -0.155014 -0.142314
0.081220 -0.155869 -0.142515
0.085617 -0.157669 -0.148274
-0.005213 -0.143595 -0.148736
0.056452 -0.154371 -0.150433
0.101009 -0.155583 -0.151023
0.051427 -0.148020 -0.149239
-0.034884 -0.142536 -0.142722
0.052734 -0.148117 -0.142559
-0.065771 -0.147553 -0.149405
0.087291 -0.154898 -0.151007
-0.000821 -0.143840 -0.142542
0.061436 -0.156010 -0.149424
0.110446 -0.156570 -0.150821
0.085959 -0.151093 -0.150831
-0.030438 -0.151383 -0.147059
-0.052562 -0.149858 -0.148987
-0.049300 -0.152163 -0.143296
0.066367 -0.147336 -0.146378
-0.093007 -0.138348 -0.146870
0.123695 -0.165092 -0.145467
-0.092915 -0.140948 -0.140121
0.057549 -0.147632 -0.146163
-0.071829 -0.142057 -0.147468
0.054954 -0.157309 -0.145748
-0.051213 -0.147106 -0.149609
-0.105188 -0.136879 -0.144964
0.071778 -0.147158 -0.146443
-0.040002 -0.148694 -0.149685
0.116651 -0.157185 -0.150066
0.004639 -0.147432 -0.150531
-0.097842 -0.146051 -0.148256
0.134089 -0.160685 -0.144885
-0.037344 -0.150444 -0.148595
-0.029732 -0.144850 -0.149808
0.124951 -0.155135 -0.145084
-0.068968 -0.150202 -0.140784
0.065496 -0.147540 -0.144781
0.007132 -0.146412 -0.141084
0.057303 -0.157463 -0.144689
0.127574 -0.158058 -0.141204
-0.002055 -0.147145 -0.140638
-0.099915 -0.137546 -0.144868
0.082982 -0.152535 -0.141303
0.106467 -0.151746 -0.145623
0.070021 -0.154586 -0.150494
0.023460 -0.145098 -0.146942
-0.079828 -0.149578 -0.144225
-0.012637 -0.144738 -0.141098
-0.022432 -0.145145 -0.150100
-0.084881 -0.147677 -0.141932
0.116330 -0.164800 -0.145253
-0.062666 -0.148356 -0.149309
0.015781 -0.145126 -0.142775
-0.099488 -0.142250 -0.139659
0.120080 -0.163278 -0.149510
0.009069 -0.153244 -0.147341
0.134099 -0.160896 -0.144785
-0.050539 -0.151402 -0.147651
0.074477 -0.153024 -0.141351
0.110540 -0.152725 -0.144383
-0.064910 -0.142179 -0.143622
0.001472 -0.147916 -0.150566
-0.018413 -0.151725 -0.146215
0.047570 -0.150285 -0.141016
-0.093376 -0.141989 -0.139827
-0.099788 -0.147077 -0.146710
0.108240 -0.152061 -0.145702
0.080178 -0.147668 -0.147811
-0.021081 -0.142262 -0.147592
-0.107712 -0.136763 -0.146140
0.053893 -0.150320 -0.150482
0.106801 -0.158731 -0.150580
0.130479 -0.155107 -0.144476
-0.022525 -0.142928 -0.148646
-0.087898 -0.139178 -0.141622
-0.013804 -0.149735 -0.141374
-0.062910 -0.151764 -0.146561
-0.061092 -0.142475 -0.145468
-0.087749 -0.140995 -0.149327
-0.021590 -0.150557 -0.142279
-0.086821 -0.138772 -0.147283
0.034724 -0.155454 -0.146423
-0.056388 -0.149879 -0.148938
0.093665 -0.149786 -0.148513
-0.057060 -0.146062 -0.149232
0.095039 -0.155522 -0.151047
-0.066999 -0.143146 -0.141229
0.050414 -0.156534 -0.146534
0.028411 -0.152826 -0.141363
0.123924 -0.156725 -0.149371
0.066425 -0.153722 -0.141282
-0.071739 -0.143313 -0.148608
0.078065 -0.156573 -0.148730
0.056723 -0.157287 -0.147463
0.118641 -0.163174 -0.149607
0.103218 -0.151958 -0.148827
-0.097402 -0.140906 -0.149319
0.047896 -0.146551 -0.143859
-0.102805 -0.140989 -0.149425
0.043427 -0.153681 -0.141879
-0.099790 -0.139733 -0.148732
0.072706 -0.151167 -0.151117
-0.064186 -0.145035 -0.148981
-0.114912 -0.138449 -0.143537
-0.057354 -0.149373 -0.149161
0.022399 -0.147012 -0.149754
0.121288 -0.155504 -0.143998
-0.015604 -0.146859 -0.150432
-0.087619 -0.143285 -0.139835
0.027123 -0.153783 -0.142137
0.094298 -0.150122 -0.148904
0.101125 -0.151541 -0.148790
-0.097814 -0.144216 -0.149406
0.063250 -0.153997 -0.150708
0.071332 -0.157089 -0.145522
-0.076799 -0.148796 -0.141166
-0.039004 -0.142785 -0.147538
-0.113484 -0.143173 -0.140213
0.056161 -0.147592 -0.144580
-0.090519 -0.147902 -0.144647
-0.112804 -0.142647 -0.149322
-0.023667 -0.141933 -0.147081
0.093821 -0.158287 -0.149290
0.089192 -0.148963 -0.144111
-0.072585 -0.140927 -0.144455
-0.077005 -0.142984 -0.149151
-0.028988 -0.151377 -0.146978
-0.008453 -0.145697 -0.140795
-0.102757 -0.142315 -0.139661
-0.009303 -0.152121 -0.145309
-0.028353 -0.146690 -0.140282
0.133233 -0.155829 -0.148957
-0.054824 -0.143789 -0.147789
0.005177 -0.145582 -0.149795
-0.103213 -0.145441 -0.148450
0.076539 -0.148131 -0.143179
0.122163 -0.155188 -0.146078
0.036625 -0.155325 -0.144232
-0.108553 -0.139347 -0.149146
-0.108484 -0.136677 -0.145565
-0.030084 -0.150664 -0.148298
-0.016939 -0.150818 -0.142445
0.107570 -0.158383 -0.141200
-0.093993 -0.147315 -0.146785
0.120858 -0.158265 -0.150190
-0.079579 -0.147977 -0.140946
0.007745 -0.144024 -0.143332
0.031988 -0.145485 -0.145684
-0.105141 -0.142030 -0.149628
0.067660 -0.157243 -0.146242
0.104121 -0.161341 -0.145314
-0.099265 -0.139139 -0.148269
0.047621 -0.152517 -0.150684
-0.045449 -0.150901 -0.141435
-0.072077 -0.146484 -0.149487
0.093464 -0.154238 -0.141243
0.053269 -0.147821 -0.143114
0.060975 -0.157474 -0.145461
-0.098132 -0.146860 -0.142072
0.061836 -0.149679 -0.141788
-0.067224 -0.149230 -0.139995
-0.030993 -0.144859 -0.149765
-0.040057 -0.148825 -0.149621
-0.111203 -0.137545 -0.147445
-0.058688 -0.145503 -0.139957
0.051512 -0.150792 -0.150777
0.098416 -0.150780 -0.148422
-0.081057 -0.145475 -0.139852
-0.113349 -0.139954 -0.140319
-0.018966 -0.148800 -0.149960
0.094027 -0.156997 -0.150445
0.068618 -0.147985 -0.143565
-0.112072 -0.137464 -0.147264
-0.113914 -0.143621 -0.144411
-0.095939 -0.143995 -0.139894
0.027315 -0.151291 -0.140770
0.106397 -0.160005 -0.149768
-0.092006 -0.142236 -0.149662
0.115973 -0.164539 -0.144571
-0.060902 -0.151380 -0.141552
0.028833 -0.154651 -0.143158
0.061185 -0.148926 -0.149361
-0.028383 -0.151694 -0.145100
-0.061578 -0.145429 -0.139882
0.104793 -0.151978 -0.143706
0.015704 -0.154158 -0.145814
-0.111347 -0.146208 -0.144192
0.109677 -0.161786 -0.143199
0.026110 -0.145329 -0.144443
-0.044218 -0.149759 -0.149120
-0.058634 -0.142628 -0.143400
0.131429 -0.156945 -0.141835
-0.097283 -0.146030 -0.148301
-0.084022 -0.138802 -0.143301
0.024796 -0.146635 -0.149308
0.035950 -0.154484 -0.148839
0.031503 -0.155416 -0.145324
-0.097076 -0.140659 -0.140129
-0.032036 -0.143603 -0.148967
-0.035728 -0.143649 -0.141362
0.113689 -0.157609 -0.140918
0.006828 -0.143676 -0.144053
-0.068479 -0.151380 -0.142338
0.075672 -0.156776 -0.147696
-0.058457 -0.145092 -0.140168
-0.088035 -0.138273 -0.146315
0.115582 -0.154146 -0.146538
-0.100276 -0.146195 -0.148013
0.020760 -0.153565 -0.142570
-0.009134 -0.151136 -0.142587
0.067146 -0.150693 -0.150758
0.079873 -0.147639 -0.144854
0.118569 -0.155658 -0.147906
0.039930 -0.150858 -0.150822
0.080418 -0.147533 -0.146998
-0.028014 -0.142090 -0.143419
0.133531 -0.155230 -0.147958
0.103056 -0.161003 -0.147379
-0.011290 -0.147781 -0.140602
-0.055552 -0.142754 -0.145680
0.126107 -0.158122 -0.141159
-0.047513 -0.152090 -0.143266
-0.103563 -0.137225 -0.143657
-0.020607 -0.151422 -0.143714
0.125282 -0.156091 -0.148735
0.051704 -0.156565 -0.144331
-0.107853 -0.141800 -0.139725
