ply
format ascii 1.0
element vertex 256
property float x
property float y
property float z
end_header
0.167173 0.128099 -0.203843
0.164453 0.112587 -0.203414
0.202225 -0.094129 -0.180425
0.181178 0.006181 -0.195908
0.187939 -0.005316 -0.197547
0.199924 -0.071360 -0.192787
0.187336 0.010762 -0.197595
0.163770 0.116196 -0.203761
0.162484 0.130450 -0.203995
0.169411 0.112395 -0.194545
0.163998 0.135486 -0.198899
0.198154 -0.045051 -0.190065
0.191385 -0.000256 -0.193376
0.199023 -0.073999 -0.192924
0.200292 -0.080581 -0.182322
0.184291 -0.008638 -0.189069
0.196703 -0.031593 -0.191195
0.204850 -0.096569 -0.180502
0.159332 0.130024 -0.201109
0.193443 -0.024396 -0.195251
0.194385 -0.024958 -0.187714
0.187680 0.015295 -0.197136
0.163567 0.117694 -0.195185
0.190581 -0.049468 -0.184669
0.180726 0.046157 -0.200581
0.183365 -0.006880 -0.195364
0.206269 -0.090062 -0.183692
0.184471 0.038324 -0.197635
0.192506 -0.052649 -0.183573
0.203612 -0.104711 -0.179390
0.196062 -0.051184 -0.182851
0.195525 -0.077280 -0.185055
0.179019 0.068650 -0.198361
0.190656 -0.004243 -0.196204
0.164158 0.103240 -0.195397
0.197363 -0.085474 -0.183201
0.192186 -0.048264 -0.191989
0.170275 0.070022 -0.192972
0.159248 0.128851 -0.200802
0.181944 0.026844 -0.200265
0.168359 0.098847 -0.192185
0.187792 -0.005474 -0.197568
0.172691 0.084552 -0.200647
0.173233 0.104503 -0.198680
0.199461 -0.055484 -0.191375
0.179983 0.040967 -0.200814
0.188279 -0.003219 -0.187839
0.206692 -0.098110 -0.181325
0.189006 0.012097 -0.191832
0.167988 0.132104 -0.200416
0.198125 -0.073398 -0.183048
0.210946 -0.127421 -0.186773
0.202200 -0.110797 -0.180017
0.197310 -0.080318 -0.183328
0.194399 -0.068789 -0.191329
0.194653 -0.077232 -0.188526
0.174803 0.085847 -0.192170
0.199134 -0.096981 -0.188493
0.195171 -0.058254 -0.183195
0.201314 -0.116718 -0.184602
0.201841 -0.113494 -0.186972
0.204370 -0.128253 -0.186709
0.194437 -0.060913 -0.192512
0.175847 0.032756 -0.194605
0.210677 -0.123953 -0.187351
0.177658 0.057205 -0.191825
0.208652 -0.105794 -0.186860
0.195596 -0.076715 -0.184843
0.203748 -0.123489 -0.179979
0.181768 0.012060 -0.189359
0.202449 -0.092899 -0.190607
0.162836 0.131455 -0.197459
0.197586 -0.043139 -0.190573
0.190862 -0.036637 -0.184575
0.195958 -0.034052 -0.186494
0.186553 0.026536 -0.193390
0.197117 -0.035097 -0.191065
0.200689 -0.102206 -0.180565
0.188838 -0.018249 -0.187004
0.184404 -0.017071 -0.191140
0.170923 0.098263 -0.201760
0.190964 -0.008987 -0.196552
0.200407 -0.100303 -0.188682
0.177924 0.076072 -0.197335
0.194134 -0.032839 -0.185583
0.164112 0.114882 -0.203671
0.165254 0.109056 -0.203128
0.161935 0.112576 -0.199818
0.180034 0.023014 -0.199504
0.176599 0.073538 -0.191999
0.161065 0.118935 -0.201325
0.196676 -0.069270 -0.192719
0.179987 0.012481 -0.196518
0.170599 0.073524 -0.191888
0.205425 -0.081772 -0.186862
0.206284 -0.120880 -0.188200
0.188529 -0.009612 -0.197520
0.201240 -0.058307 -0.189084
0.170297 0.122283 -0.199534
0.159387 0.130508 -0.201128
0.173814 0.043757 -0.196053
0.192390 -0.059769 -0.190912
0.195436 -0.031419 -0.193722
0.204372 -0.128768 -0.184004
0.175936 0.058680 -0.201667
0.193115 -0.009993 -0.193234
0.194684 -0.040631 -0.193158
0.202593 -0.122675 -0.185125
0.169743 0.124662 -0.198682
0.197355 -0.051571 -0.183315
0.173357 0.066259 -0.191555
0.183356 0.044678 -0.194094
0.192262 -0.038700 -0.193905
0.164543 0.114920 -0.203847
0.188430 -0.035627 -0.192857
0.169947 0.069560 -0.198677
0.173294 0.074572 -0.190880
0.179186 0.063371 -0.193166
0.161249 0.121115 -0.197218
0.185775 0.016682 -0.198696
0.194042 -0.023158 -0.187869
0.183171 0.037693 -0.199513
0.186913 -0.032563 -0.190846
0.199782 -0.055190 -0.190882
0.177273 0.077806 -0.193471
0.166177 0.104342 -0.202644
0.207237 -0.112013 -0.188466
0.163822 0.111934 -0.202825
0.200172 -0.053150 -0.186367
0.175343 0.035878 -0.194444
0.205483 -0.112326 -0.188832
0.181844 0.033073 -0.200382
0.167743 0.125267 -0.203956
0.192678 -0.055682 -0.184016
0.180906 0.054949 -0.193491
0.189816 -0.050714 -0.187684
0.205739 -0.116149 -0.178496
0.200278 -0.086310 -0.181584
0.200238 -0.052930 -0.188936
0.203953 -0.127133 -0.180755
0.207678 -0.104822 -0.180647
0.187388 -0.011291 -0.197439
0.167770 0.080514 -0.197914
0.166018 0.115844 -0.194348
0.164312 0.113146 -0.203454
0.200078 -0.051315 -0.187833
0.170640 0.092563 -0.200943
0.166470 0.115602 -0.194282
0.186575 -0.001916 -0.197656
0.158712 0.129505 -0.197951
0.185690 -0.012318 -0.196652
0.163009 0.114562 -0.195682
0.173304 0.087789 -0.200301
0.207728 -0.097468 -0.183280
0.187118 0.023615 -0.196743
0.197366 -0.036421 -0.190617
0.203946 -0.099270 -0.189699
0.190085 -0.030340 -0.195348
0.162140 0.128360 -0.197641
0.171462 0.090758 -0.191077
0.175736 0.084034 -0.198690
0.175070 0.083242 -0.191958
0.192119 -0.016891 -0.196186
0.174088 0.085635 -0.200022
0.206648 -0.092431 -0.187783
0.194854 -0.063148 -0.192494
0.204429 -0.121387 -0.187559
0.167959 0.076958 -0.194878
0.210421 -0.115613 -0.185977
0.165220 0.092044 -0.195772
0.202908 -0.067196 -0.188291
0.162945 0.118064 -0.195640
0.204018 -0.113784 -0.188386
0.167629 0.105780 -0.193265
0.182875 -0.008317 -0.193536
0.199705 -0.084886 -0.191647
0.173421 0.060855 -0.192208
0.172045 0.054917 -0.197888
0.188256 0.009877 -0.189770
0.179389 0.022627 -0.198959
0.204668 -0.128409 -0.180207
0.200500 -0.080472 -0.192386
0.190542 0.004503 -0.192051
0.192257 -0.029336 -0.185703
0.189447 -0.041976 -0.184950
0.166539 0.099817 -0.201862
0.178102 0.074592 -0.194208
0.211110 -0.116186 -0.184179
0.195154 -0.049705 -0.192584
0.176642 0.029173 -0.193816
0.194813 -0.048737 -0.192554
0.183891 -0.014551 -0.192138
0.175496 0.082299 -0.192129
0.177302 0.079711 -0.197032
0.181498 0.000778 -0.194450
0.179724 0.064270 -0.194091
0.174077 0.059041 -0.201167
0.174281 0.096565 -0.198196
0.202530 -0.082956 -0.182345
0.173297 0.104294 -0.198431
0.176609 0.055715 -0.201605
0.188370 -0.007279 -0.187701
0.178960 0.015668 -0.192559
0.182053 -0.004094 -0.193037
0.198777 -0.076223 -0.182994
0.201914 -0.063841 -0.189965
0.188694 -0.023148 -0.186671
0.209890 -0.111781 -0.181517
0.165084 0.094098 -0.197798
0.202651 -0.080884 -0.182834
0.176368 0.045408 -0.200592
0.178910 0.047513 -0.201130
0.178199 0.018869 -0.195334
0.173164 0.091009 -0.191755
0.191119 -0.011330 -0.188389
0.190107 0.005348 -0.194526
0.190848 -0.052428 -0.190289
0.189757 -0.018159 -0.196941
0.185882 -0.004155 -0.197491
0.172916 0.098023 -0.193320
0.199775 -0.080036 -0.192466
0.200773 -0.055277 -0.188277
0.168170 0.125417 -0.203609
0.183518 -0.012382 -0.192212
0.212478 -0.123437 -0.183151
0.188690 -0.010713 -0.187624
0.173006 0.054021 -0.199456
0.196225 -0.038633 -0.184898
0.173226 0.103271 -0.199466
0.198178 -0.075821 -0.192753
0.193949 -0.017769 -0.194168
0.179191 0.019070 -0.197727
0.201110 -0.061597 -0.190779
0.186898 0.021193 -0.197629
0.182831 0.049654 -0.197087
0.180376 0.005300 -0.193094
0.168759 0.092154 -0.200761
0.198341 -0.041734 -0.188214
0.180158 0.046967 -0.191550
0.187237 0.019690 -0.197319
0.177585 0.022567 -0.195787
0.201952 -0.101319 -0.179841
0.173419 0.067257 -0.201087
0.204292 -0.095441 -0.189956
0.195885 -0.043328 -0.183015
0.203276 -0.114837 -0.187887
0.200808 -0.068214 -0.192158
0.193232 -0.010973 -0.193645
0.179979 0.009428 -0.191801
0.189632 -0.038833 -0.185006
0.207123 -0.108390 -0.179637
0.181621 -0.001385 -0.193433
0.189597 0.009979 -0.194192
0.186997 0.021798 -0.197443
0.175344 0.055982 -0.201440
0.198776 -0.059018 -0.192509
