ply
format ascii 1.0
element vertex 256
property float x
property float y
property float z
end_header
-0.004060 0.172436 -0.192384
0.094909 0.150685 -0.193851
0.037759 0.166212 -0.191697
0.129363 0.153280 -0.203401
-0.091127 0.174429 -0.193372
-0.010169 0.171306 -0.189223
-0.090903 0.180594 -0.190078
-0.070945 0.179533 -0.190479
0.065924 0.157357 -0.190355
0.060119 0.154837 -0.192456
-0.083540 0.180188 -0.190378
0.094913 0.150656 -0.193882
0.134493 0.147891 -0.194433
-0.086451 0.179731 -0.199748
0.006585 0.162216 -0.188051
-0.060997 0.170307 -0.195291
0.134450 0.152411 -0.195131
-0.117453 0.180671 -0.190533
0.056794 0.154593 -0.194105
0.101705 0.155962 -0.201350
-0.113986 0.177424 -0.194635
-0.072403 0.174528 -0.189995
0.110081 0.149399 -0.194249
-0.101254 0.180704 -0.199629
0.019614 0.168113 -0.195848
-0.101471 0.181421 -0.199589
0.133396 0.154198 -0.200412
-0.058635 0.179637 -0.195269
0.008093 0.163507 -0.195982
-0.029782 0.167684 -0.190140
0.165007 0.147863 -0.194451
-0.050156 0.178650 -0.193102
0.032840 0.162075 -0.199012
-0.051465 0.177806 -0.196689
-0.031877 0.175060 -0.196937
0.150183 0.150592 -0.197713
0.096745 0.155344 -0.205739
0.106735 0.150181 -0.204251
-0.025907 0.166713 -0.197461
0.096508 0.150829 -0.193598
0.061847 0.156742 -0.190600
-0.046466 0.176679 -0.189889
0.036674 0.166985 -0.193053
0.048871 0.164663 -0.191869
-0.006823 0.170595 -0.188633
0.146096 0.148559 -0.193724
0.151527 0.142927 -0.196810
-0.108447 0.186000 -0.191000
0.026003 0.167867 -0.195676
-0.122344 0.188100 -0.192596
-0.052203 0.171651 -0.189195
-0.087985 0.181559 -0.190732
-0.038332 0.168829 -0.197166
0.146469 0.150800 -0.194624
0.018174 0.160597 -0.195762
0.128430 0.145290 -0.199474
-0.121655 0.186999 -0.196389
-0.081636 0.178297 -0.199864
-0.115163 0.184964 -0.197095
-0.030538 0.171962 -0.198745
-0.070459 0.171431 -0.194742
0.124149 0.154909 -0.203885
0.052482 0.155339 -0.193244
0.112536 0.150334 -0.198874
-0.096158 0.178724 -0.199584
-0.077485 0.176963 -0.189771
0.060584 0.163578 -0.192944
-0.024544 0.172672 -0.198576
0.046008 0.157137 -0.191431
0.003015 0.167490 -0.196349
-0.090730 0.180183 -0.199711
0.094900 0.155647 -0.192067
0.061385 0.157648 -0.199905
-0.036565 0.167092 -0.195056
-0.032738 0.169795 -0.198447
0.117360 0.147977 -0.202953
0.109427 0.156422 -0.203870
-0.123395 0.184151 -0.198205
0.108464 0.153007 -0.192909
0.047331 0.165588 -0.193377
-0.061054 0.175106 -0.198982
-0.121754 0.179010 -0.195937
0.147559 0.144075 -0.195106
0.066990 0.159941 -0.199920
0.048142 0.161583 -0.189832
-0.007183 0.163456 -0.190382
-0.045582 0.171441 -0.188633
0.114650 0.151253 -0.204904
-0.096472 0.179029 -0.189847
-0.018400 0.167811 -0.199047
-0.041713 0.176593 -0.190327
0.002575 0.171179 -0.193418
0.108140 0.149213 -0.194544
0.126589 0.145598 -0.199948
0.070479 0.162140 -0.197773
0.037967 0.161799 -0.199383
0.117123 0.155105 -0.195604
-0.082969 0.180545 -0.190622
0.129854 0.153967 -0.196188
0.088423 0.155347 -0.204453
-0.048612 0.168748 -0.191630
0.103588 0.149631 -0.194399
0.094126 0.159526 -0.198129
0.139937 0.145939 -0.194784
0.046883 0.155854 -0.193964
0.010203 0.160494 -0.192459
0.030824 0.161151 -0.198535
0.012181 0.169267 -0.188891
0.054463 0.163486 -0.198268
0.010798 0.160480 -0.192795
0.053987 0.158117 -0.199569
0.103772 0.157911 -0.195223
0.151993 0.145225 -0.193772
-0.076426 0.176158 -0.189821
-0.126728 0.184327 -0.194130
0.054931 0.158935 -0.189993
-0.115026 0.183451 -0.197722
-0.006373 0.164837 -0.196754
0.053847 0.164841 -0.195733
0.118995 0.155694 -0.202813
0.134447 0.145109 -0.200414
0.093997 0.158110 -0.200504
-0.073037 0.180239 -0.190971
-0.021306 0.174627 -0.192815
0.116652 0.147689 -0.202580
0.036373 0.163455 -0.189535
0.148687 0.147313 -0.193553
0.088380 0.159537 -0.199362
-0.078565 0.176736 -0.199684
-0.026215 0.174996 -0.196280
0.086168 0.152128 -0.199855
0.022600 0.168573 -0.194817
0.132273 0.154011 -0.201349
-0.109704 0.183431 -0.197576
-0.016974 0.164604 -0.192177
-0.055250 0.171004 -0.197439
-0.026539 0.170970 -0.199047
0.173862 0.145035 -0.192535
0.000961 0.164515 -0.196173
0.111089 0.156616 -0.195196
0.095371 0.159217 -0.198783
-0.120881 0.179254 -0.196395
0.056028 0.159855 -0.199901
-0.048930 0.174833 -0.188721
0.160675 0.146411 -0.196433
-0.020618 0.174636 -0.195659
-0.009876 0.172247 -0.190173
0.028470 0.159013 -0.190850
0.062449 0.155947 -0.191051
0.067346 0.161924 -0.198516
0.122362 0.147521 -0.197320
-0.001538 0.165958 -0.196907
0.045273 0.162226 -0.189812
0.046221 0.165157 -0.192031
-0.009231 0.164743 -0.189373
0.019499 0.167241 -0.188538
0.031010 0.161074 -0.189181
0.110346 0.157385 -0.196451
0.096419 0.150142 -0.199674
0.113352 0.149480 -0.199095
-0.082431 0.173383 -0.196726
0.091155 0.150093 -0.197355
0.036775 0.160641 -0.199130
0.113352 0.147915 -0.202325
-0.098010 0.184252 -0.191913
0.109016 0.150077 -0.200237
-0.123137 0.178350 -0.193111
0.066943 0.163198 -0.195384
-0.100802 0.176663 -0.191482
-0.126316 0.185679 -0.197889
0.036416 0.166153 -0.191235
0.102282 0.153513 -0.202427
-0.027097 0.173705 -0.197984
0.146190 0.143639 -0.198016
-0.006075 0.170924 -0.188868
0.052514 0.160697 -0.189885
-0.080307 0.181229 -0.191283
0.019317 0.165548 -0.197458
0.110135 0.155973 -0.204106
-0.052487 0.173550 -0.198618
0.134292 0.149194 -0.203094
-0.015244 0.174054 -0.194443
0.166479 0.146669 -0.194647
0.093923 0.157954 -0.204997
0.128723 0.152422 -0.194928
0.110447 0.154752 -0.202673
-0.124136 0.178773 -0.193931
-0.023307 0.171989 -0.189625
0.058065 0.154370 -0.195699
0.102587 0.154205 -0.202426
-0.001905 0.168857 -0.187408
0.036589 0.157647 -0.196564
0.052823 0.163372 -0.191136
-0.030771 0.176010 -0.194721
-0.113105 0.186037 -0.195811
-0.120215 0.178335 -0.191470
-0.006909 0.162822 -0.192406
-0.032954 0.166388 -0.194249
-0.048047 0.171990 -0.188680
-0.045367 0.170321 -0.197527
0.085412 0.154193 -0.191636
-0.122221 0.187912 -0.191676
0.017810 0.160156 -0.190117
-0.010066 0.171270 -0.189192
-0.102984 0.179632 -0.199475
0.024229 0.163592 -0.198125
0.062886 0.163564 -0.193874
-0.057243 0.174349 -0.198821
-0.096193 0.179737 -0.189801
0.009036 0.169436 -0.194775
-0.059106 0.172138 -0.189764
-0.031865 0.176190 -0.194492
0.052013 0.159578 -0.189883
0.001175 0.164081 -0.195915
0.012839 0.169269 -0.194789
-0.090593 0.181527 -0.199206
-0.057214 0.178202 -0.190406
-0.069346 0.181267 -0.193823
0.001456 0.161627 -0.191522
-0.097338 0.176241 -0.198011
-0.005846 0.163525 -0.195350
0.094533 0.152014 -0.192711
-0.077767 0.177490 -0.189776
0.066997 0.159030 -0.190364
0.103445 0.156023 -0.204970
0.111396 0.153148 -0.205116
0.122890 0.155803 -0.198679
0.099133 0.149291 -0.195742
0.059792 0.160157 -0.190197
-0.079000 0.182237 -0.196742
0.017433 0.167560 -0.188364
-0.062800 0.179902 -0.196266
0.058750 0.155206 -0.192078
0.163828 0.143127 -0.193444
-0.057380 0.175746 -0.198716
-0.007253 0.170964 -0.188903
0.083467 0.152813 -0.192432
-0.084465 0.182081 -0.191634
0.037397 0.157173 -0.193373
-0.049486 0.178209 -0.191616
0.097783 0.156909 -0.192908
-0.117113 0.181017 -0.188245
0.096440 0.155648 -0.192221
-0.116787 0.181674 -0.197877
0.084574 0.158053 -0.205498
0.126625 0.154642 -0.202415
0.093603 0.151796 -0.192852
-0.010170 0.167513 -0.198163
0.097613 0.155248 -0.202082
-0.106272 0.176141 -0.193416
0.015695 0.166781 -0.187650
0.084176 0.156501 -0.201205
0.078631 0.161675 -0.195283
0.111150 0.148373 -0.195534
0.008353 0.170032 -0.188967
0.129671 0.154557 -0.196964
