ply
format ascii 1.0
element vertex 256
property float x
property float y
property float z
end_header
-0.128656 0.057547 -0.173210
-0.130530 0.024747 -0.174542
-0.136806 0.077503 -0.176090
-0.132428 -0.052323 -0.164147
-0.136243 -0.050495 -0.158499
-0.134462 -0.072584 -0.164555
-0.141905 -0.042891 -0.165247
-0.135207 0.024289 -0.177031
-0.133022 -0.059815 -0.160207
-0.137478 -0.126124 -0.155482
-0.139243 -0.053297 -0.158425
-0.132047 0.044808 -0.176228
-0.134806 -0.010660 -0.163472
-0.127881 0.078838 -0.173716
-0.134428 0.061984 -0.177864
-0.139889 0.012202 -0.169010
-0.139446 0.028641 -0.170468
-0.132152 -0.044778 -0.163112
-0.135794 -0.121429 -0.158553
-0.132797 0.064955 -0.168046
-0.135815 -0.076424 -0.165040
-0.137755 0.080156 -0.173368
-0.138368 0.007677 -0.174374
-0.131967 0.036837 -0.167491
-0.130620 0.048140 -0.175495
-0.137345 0.078982 -0.171107
-0.133413 -0.075636 -0.158858
-0.128357 0.065513 -0.173062
-0.138223 0.051557 -0.174428
-0.135518 -0.036703 -0.160218
-0.139773 0.024887 -0.172676
-0.143357 -0.098157 -0.156250
-0.136540 -0.010811 -0.173274
-0.132586 -0.049460 -0.165386
-0.135732 -0.012035 -0.173143
-0.130906 0.021360 -0.174667
-0.142564 -0.071065 -0.162816
-0.135965 0.043179 -0.176328
-0.139212 0.020920 -0.174279
-0.140282 0.011055 -0.170366
-0.136051 0.074600 -0.169039
-0.139370 0.014039 -0.168253
-0.131732 -0.032653 -0.165140
-0.128566 0.068700 -0.171225
-0.133363 -0.035326 -0.161583
-0.127979 0.088953 -0.176218
-0.138246 -0.103769 -0.162646
-0.143251 -0.082450 -0.159523
-0.131997 -0.041455 -0.164264
-0.128420 0.078615 -0.175424
-0.142878 -0.099562 -0.160904
-0.138729 0.052409 -0.172668
-0.134677 -0.002073 -0.174193
-0.136358 0.025293 -0.167358
-0.134643 -0.098756 -0.155407
-0.134929 0.084828 -0.169292
-0.135117 -0.073331 -0.156793
-0.137769 -0.041247 -0.169422
-0.140248 -0.125874 -0.149116
-0.141383 -0.042711 -0.166679
-0.136616 0.028729 -0.167422
-0.134532 -0.123506 -0.154531
-0.137321 0.050305 -0.175522
-0.136545 0.073385 -0.176471
-0.133561 -0.089706 -0.158386
-0.139024 -0.031852 -0.161212
-0.140978 -0.014100 -0.166997
-0.141359 -0.042654 -0.161941
-0.137533 0.086321 -0.174272
-0.138561 0.046658 -0.169714
-0.142156 -0.125098 -0.158265
-0.136082 0.062003 -0.168782
-0.133330 0.000851 -0.174069
-0.142638 -0.089042 -0.161754
-0.128292 0.079601 -0.175325
-0.141453 -0.081705 -0.163713
-0.130009 0.067684 -0.176774
-0.135076 -0.031732 -0.160874
-0.133795 -0.016479 -0.172035
-0.141048 -0.032890 -0.163109
-0.134694 0.048372 -0.176665
-0.138576 -0.029821 -0.170460
-0.140000 0.004632 -0.172197
-0.138290 0.040643 -0.168885
-0.136628 0.038432 -0.167393
-0.131817 0.063746 -0.177690
-0.137974 0.074341 -0.172830
-0.138428 0.055185 -0.170843
-0.136543 -0.121225 -0.159379
-0.143620 -0.095737 -0.158947
-0.139665 -0.075205 -0.165434
-0.135696 -0.084376 -0.155357
-0.139087 -0.054618 -0.167597
-0.138233 -0.034967 -0.170044
-0.131403 -0.023310 -0.166934
-0.142251 -0.105190 -0.161339
-0.136012 0.062590 -0.177262
-0.128998 0.079758 -0.176470
-0.134535 -0.071240 -0.164832
-0.135742 0.078652 -0.169102
-0.137102 -0.119040 -0.151203
-0.132541 0.065491 -0.168090
-0.135895 -0.126071 -0.157234
-0.132896 -0.065716 -0.162875
-0.138083 0.054851 -0.170078
-0.132137 0.012038 -0.166981
-0.137294 -0.107131 -0.152760
-0.135503 -0.125282 -0.151153
-0.142913 -0.071871 -0.160766
-0.140113 -0.033875 -0.169015
-0.138661 0.044346 -0.173603
-0.132021 -0.027457 -0.168327
-0.130503 0.084274 -0.178231
-0.127719 0.085628 -0.174681
-0.138488 -0.071790 -0.166028
-0.139680 -0.040008 -0.168830
-0.136994 0.090556 -0.172224
-0.139419 0.014630 -0.173671
-0.136995 -0.117916 -0.161139
-0.131879 -0.031038 -0.164286
-0.131204 -0.004081 -0.167111
-0.128034 0.082522 -0.171890
-0.142965 -0.097411 -0.160847
-0.134097 -0.107697 -0.157708
-0.133749 -0.091536 -0.157488
-0.140388 0.007800 -0.170110
-0.141594 -0.032695 -0.166327
-0.137621 0.065967 -0.175471
-0.129788 0.047282 -0.174410
-0.139810 0.012505 -0.168898
-0.130807 0.031382 -0.175160
-0.129478 0.064721 -0.176078
-0.129979 0.066001 -0.169314
-0.133729 -0.089514 -0.160554
-0.138604 0.025553 -0.168869
-0.130863 0.082973 -0.168935
-0.132833 -0.065580 -0.162589
-0.140259 0.010624 -0.171014
-0.143631 -0.096410 -0.157626
-0.132723 -0.045917 -0.166321
-0.129614 0.041703 -0.169745
-0.142030 -0.049507 -0.164717
-0.137086 0.071306 -0.175942
-0.132762 -0.030808 -0.168921
-0.138174 -0.081675 -0.164926
-0.133188 -0.027902 -0.169890
-0.135146 -0.077400 -0.156410
-0.139767 -0.057655 -0.166976
-0.129267 0.047444 -0.173374
-0.141830 -0.124532 -0.149521
-0.133967 -0.028790 -0.161740
-0.136044 0.011567 -0.175718
-0.131420 0.002278 -0.167054
-0.139413 -0.042759 -0.168675
-0.135814 0.005089 -0.175094
-0.132448 -0.006406 -0.165173
-0.133949 0.040155 -0.166781
-0.134817 0.022046 -0.176791
-0.131661 0.074189 -0.177735
-0.139345 0.001710 -0.166420
-0.134317 -0.079146 -0.157039
-0.137674 -0.125630 -0.149433
-0.138495 -0.058344 -0.167370
-0.131446 -0.024884 -0.166807
-0.141620 -0.047336 -0.165986
-0.135481 -0.008615 -0.173516
-0.141086 -0.047015 -0.166813
-0.127842 0.079148 -0.173596
-0.132906 -0.015567 -0.163961
-0.141223 -0.047901 -0.166543
-0.133277 -0.017505 -0.171533
-0.132980 0.091044 -0.174056
-0.134031 -0.035117 -0.161031
-0.136856 -0.126043 -0.157053
-0.132617 0.068265 -0.168044
-0.137942 -0.125976 -0.157365
-0.135152 -0.042516 -0.169000
-0.132052 -0.029263 -0.163839
-0.134437 0.075784 -0.168221
-0.141561 -0.125827 -0.157295
-0.136155 -0.073232 -0.165560
-0.129320 0.039529 -0.171339
-0.137988 0.020329 -0.175617
-0.139426 0.033482 -0.172631
-0.130276 0.070700 -0.177020
-0.142968 -0.078567 -0.159127
-0.134248 -0.101234 -0.156118
-0.131588 -0.028053 -0.165738
-0.139644 -0.111402 -0.162148
-0.135523 -0.103732 -0.161338
-0.136464 -0.114378 -0.161071
-0.136587 -0.002029 -0.164337
-0.139539 -0.080777 -0.164851
-0.138163 -0.118040 -0.151155
-0.135293 -0.056822 -0.167194
-0.134258 0.076501 -0.168167
-0.134783 -0.095118 -0.155319
-0.132582 -0.038466 -0.167410
-0.133592 -0.068601 -0.164073
-0.132322 -0.034192 -0.163010
-0.134636 0.091382 -0.177814
-0.141895 -0.058881 -0.164790
-0.134187 0.091049 -0.178839
-0.132317 -0.052680 -0.163423
-0.130098 0.040663 -0.168994
-0.138315 0.049327 -0.174146
-0.138272 0.025707 -0.168492
-0.132099 0.061297 -0.168225
-0.138298 0.037275 -0.168809
-0.134411 -0.005292 -0.164116
-0.138834 0.000067 -0.165646
-0.131523 -0.026116 -0.166057
-0.140224 0.012514 -0.170809
-0.133650 -0.079465 -0.162273
-0.135647 0.066837 -0.177345
-0.142765 -0.096457 -0.155400
-0.139927 -0.019260 -0.170648
-0.140198 -0.069957 -0.156821
-0.131104 0.037112 -0.168087
-0.136017 -0.006281 -0.163817
-0.135799 -0.049210 -0.168342
-0.134106 -0.016904 -0.172134
-0.131259 -0.012830 -0.169383
-0.138953 0.045207 -0.172527
-0.136409 -0.017023 -0.162548
-0.128761 0.059291 -0.171711
-0.133731 -0.068295 -0.164333
-0.137561 0.060496 -0.175897
-0.138419 -0.125783 -0.158889
-0.138779 -0.006043 -0.172866
-0.128404 0.075645 -0.170891
-0.128925 0.059952 -0.171196
-0.140745 -0.006529 -0.169803
-0.136953 -0.053514 -0.158011
-0.132298 -0.023798 -0.163873
-0.138654 0.000015 -0.173482
-0.133055 -0.070684 -0.162337
-0.138296 -0.059928 -0.167252
-0.130148 0.078490 -0.168928
-0.136618 0.061143 -0.169121
-0.132830 0.015376 -0.166768
-0.132759 -0.014626 -0.164188
-0.135986 0.065749 -0.168800
-0.138867 0.047586 -0.172384
-0.135790 0.024892 -0.176949
-0.134044 -0.012313 -0.172723
-0.134914 -0.064650 -0.157649
-0.137009 -0.099908 -0.162669
-0.131109 0.028910 -0.168534
-0.138999 -0.055468 -0.167556
-0.134255 0.032348 -0.166940
-0.131094 -0.009907 -0.169347
-0.140622 -0.004236 -0.167903
-0.130335 0.034248 -0.169151
-0.129820 0.090668 -0.170671
-0.143209 -0.084921 -0.158585
