ply
format ascii 1.0
element vertex 256
property float x
property float y
property float z
end_header
-0.128537 -0.050935 -0.190287
-0.133274 -0.102004 -0.192573
-0.135383 -0.066702 -0.195998
-0.128399 -0.037435 -0.197661
-0.131368 0.072942 -0.200880
-0.120987 0.103514 -0.206408
-0.126963 -0.000336 -0.198347
-0.134964 -0.024285 -0.199365
-0.129675 -0.103159 -0.193823
-0.133793 -0.026566 -0.191110
-0.131417 0.031857 -0.201117
-0.120060 0.091137 -0.197753
-0.127392 -0.115159 -0.192632
-0.125941 -0.002862 -0.194570
-0.130951 0.048124 -0.201863
-0.128094 -0.034732 -0.197930
-0.127441 -0.021725 -0.193038
-0.126445 0.037872 -0.202099
-0.122107 0.081405 -0.196376
-0.127291 -0.065791 -0.196348
-0.132233 0.025336 -0.200412
-0.131463 -0.081363 -0.197191
-0.129855 -0.088113 -0.186955
-0.122809 -0.127064 -0.188872
-0.125959 0.008336 -0.198383
-0.130646 0.060482 -0.202472
-0.130603 0.076145 -0.197603
-0.128105 -0.059488 -0.189638
-0.125165 0.009505 -0.196939
-0.136998 -0.036560 -0.196943
-0.132004 -0.131463 -0.185974
-0.128150 -0.074366 -0.188903
-0.123224 0.038484 -0.197719
-0.126505 -0.057902 -0.194194
-0.124112 0.045248 -0.194619
-0.131752 0.063864 -0.197367
-0.121909 0.103176 -0.206535
-0.125894 -0.093273 -0.187544
-0.128355 -0.073367 -0.188906
-0.129585 0.084558 -0.198546
-0.135874 -0.040503 -0.191135
-0.135237 -0.041651 -0.198641
-0.127093 0.095183 -0.204419
-0.133527 0.031441 -0.196630
-0.134341 -0.100633 -0.191373
-0.132459 0.037298 -0.200103
-0.124689 0.035408 -0.200708
-0.135430 -0.052289 -0.197582
-0.126877 -0.126764 -0.192350
-0.134603 -0.037136 -0.199405
-0.129776 -0.058689 -0.188875
-0.136531 -0.022632 -0.195744
-0.130782 -0.054265 -0.189025
-0.133376 -0.028029 -0.190826
-0.130824 -0.065024 -0.188265
-0.125149 0.011608 -0.194170
-0.136983 -0.041094 -0.192884
-0.134829 -0.113585 -0.188049
-0.134545 -0.093175 -0.186513
-0.127862 0.047440 -0.193038
-0.126063 0.011727 -0.199078
-0.134777 -0.097652 -0.191083
-0.129675 -0.017081 -0.200742
-0.126198 -0.087167 -0.191318
-0.130190 0.004247 -0.200349
-0.133164 -0.120951 -0.188721
-0.127233 0.034700 -0.202088
-0.126366 -0.007675 -0.195421
-0.135510 -0.002370 -0.196758
-0.124285 0.068258 -0.195101
-0.127309 -0.100911 -0.184721
-0.136025 -0.005450 -0.193756
-0.129532 0.033067 -0.192281
-0.129430 -0.086183 -0.187315
-0.127471 -0.128797 -0.192306
-0.126678 -0.085151 -0.189921
-0.137050 -0.036032 -0.193157
-0.128059 -0.094683 -0.193701
-0.127061 -0.104085 -0.184656
-0.125825 0.038864 -0.201901
-0.128276 -0.072732 -0.196340
-0.127752 -0.003444 -0.198663
-0.122877 0.106557 -0.206195
-0.122035 0.109381 -0.200316
-0.129588 0.016675 -0.201102
-0.131002 0.076563 -0.199356
-0.119562 0.092325 -0.203502
-0.129510 -0.038502 -0.198732
-0.124106 0.035380 -0.199886
-0.126480 -0.075698 -0.191252
-0.134651 -0.086244 -0.188269
-0.129946 -0.066292 -0.188345
-0.126797 -0.018450 -0.194497
-0.125132 0.038711 -0.201433
-0.133077 -0.054901 -0.198711
-0.123851 0.088791 -0.205602
-0.135604 -0.003148 -0.193118
-0.127150 -0.133349 -0.185554
-0.135818 -0.075889 -0.190404
-0.127013 0.049443 -0.203090
-0.136875 -0.046919 -0.194054
-0.130661 -0.112025 -0.183346
-0.132202 -0.105260 -0.184212
-0.124623 0.022590 -0.198648
-0.119754 0.085917 -0.201134
-0.134483 -0.048115 -0.190009
-0.129142 0.055189 -0.203173
-0.124635 0.084868 -0.195421
-0.117118 0.105096 -0.202590
-0.133141 -0.121298 -0.187293
-0.125217 0.042685 -0.201934
-0.125259 0.009181 -0.197108
-0.125908 0.091265 -0.205369
-0.129690 0.034992 -0.192445
-0.120881 0.079235 -0.201587
-0.129141 0.001421 -0.190420
-0.129555 0.087399 -0.200683
-0.126612 -0.099255 -0.192631
-0.131291 0.037085 -0.201327
-0.124990 -0.100904 -0.189364
-0.130332 0.066970 -0.195588
-0.132144 -0.011043 -0.199315
-0.123258 0.107645 -0.204068
-0.123408 0.105980 -0.205321
-0.126596 -0.133432 -0.185670
-0.132248 0.010409 -0.191316
-0.123649 -0.133565 -0.190543
-0.120983 0.107446 -0.197693
-0.133711 -0.080321 -0.187976
-0.129212 0.082820 -0.203143
-0.127402 -0.040793 -0.194947
-0.130758 0.056817 -0.202288
-0.127436 -0.036177 -0.195789
-0.135171 0.001446 -0.193163
-0.130424 0.044614 -0.193572
-0.133493 0.032274 -0.196815
-0.136802 -0.044508 -0.192883
-0.130454 -0.080437 -0.197189
-0.129520 -0.082948 -0.187392
-0.126291 -0.120708 -0.192363
-0.130727 -0.027954 -0.190561
-0.123549 0.102541 -0.199495
-0.129221 -0.085709 -0.187438
-0.135232 -0.111646 -0.188041
-0.126248 0.049534 -0.193396
-0.128527 -0.067894 -0.189054
-0.135283 -0.042109 -0.190652
-0.127483 0.057596 -0.203637
-0.131085 -0.124044 -0.183823
-0.129346 -0.096128 -0.184338
-0.136428 -0.016574 -0.196945
-0.128588 0.064021 -0.203792
-0.130255 0.078703 -0.202051
-0.129495 0.086143 -0.201957
-0.119810 0.086609 -0.201924
-0.135542 -0.089315 -0.189943
-0.129326 -0.118022 -0.192887
-0.133406 -0.074738 -0.197216
-0.129756 -0.089841 -0.196571
-0.136501 -0.049567 -0.195640
-0.131273 0.046092 -0.201525
-0.131780 -0.057332 -0.198656
-0.132795 0.044888 -0.197527
-0.128821 0.020593 -0.201333
-0.126901 -0.018165 -0.197822
-0.126935 -0.100568 -0.185025
-0.123118 0.043077 -0.196500
-0.130180 0.005414 -0.190442
-0.131092 0.076134 -0.199694
-0.129981 -0.127892 -0.191721
-0.133155 0.024683 -0.193889
-0.128182 -0.017496 -0.199773
-0.126932 0.001720 -0.191823
-0.122665 0.099308 -0.196345
-0.117800 0.103074 -0.199517
-0.129182 -0.128701 -0.191980
-0.135485 -0.001748 -0.196751
-0.123442 0.061626 -0.202248
-0.132625 0.031371 -0.194143
-0.128950 0.086944 -0.198016
-0.125266 -0.118104 -0.191498
-0.131264 -0.086714 -0.186910
-0.127010 -0.073742 -0.190646
-0.122840 0.049236 -0.196971
-0.126598 -0.003065 -0.192458
-0.122866 -0.133880 -0.184751
-0.127231 -0.055740 -0.191776
-0.123216 0.044976 -0.199695
-0.127497 -0.036185 -0.193943
-0.129430 0.032386 -0.192214
-0.136420 -0.018155 -0.196936
-0.130025 0.077208 -0.202740
-0.133693 0.011589 -0.198947
-0.126559 0.077900 -0.195013
-0.133614 -0.106059 -0.185049
-0.130494 -0.037877 -0.199354
-0.126515 0.082062 -0.195370
-0.132661 0.047178 -0.197207
-0.129029 0.058657 -0.194059
-0.121311 0.080648 -0.197317
-0.132759 -0.103409 -0.192781
-0.125562 -0.102701 -0.186172
-0.124413 0.101128 -0.196763
-0.130125 -0.059827 -0.188646
-0.136452 -0.057376 -0.195062
-0.128679 0.011558 -0.190950
-0.126773 -0.078736 -0.194328
-0.128920 0.059632 -0.203464
-0.132979 -0.104114 -0.184867
-0.136353 -0.024394 -0.194339
-0.133708 -0.081477 -0.196505
-0.124931 0.072171 -0.194909
-0.127964 -0.079552 -0.196025
-0.127239 -0.028834 -0.192994
-0.130103 -0.075005 -0.187788
-0.135554 -0.082679 -0.190029
-0.126517 -0.001482 -0.192478
-0.130748 0.077389 -0.201185
-0.127106 -0.114237 -0.183772
-0.130278 -0.070914 -0.197598
-0.133997 -0.098796 -0.192185
-0.124542 0.033504 -0.194133
-0.130955 -0.015205 -0.191312
-0.129132 0.042728 -0.202598
-0.123199 -0.121977 -0.186647
-0.136408 -0.020254 -0.196926
-0.134484 -0.106817 -0.191201
-0.131496 -0.078698 -0.187385
-0.135759 -0.014926 -0.196813
-0.132051 -0.035699 -0.199980
-0.133380 -0.002843 -0.190551
-0.124885 0.021087 -0.193977
-0.131046 0.067199 -0.202081
-0.129229 -0.042142 -0.190641
-0.128290 -0.112494 -0.183552
-0.118493 0.098787 -0.203670
-0.121825 0.077379 -0.202816
-0.126167 -0.110032 -0.185707
-0.125942 -0.107795 -0.186185
-0.134992 -0.048500 -0.190431
-0.126723 0.005376 -0.191976
-0.133886 -0.032361 -0.199734
-0.121271 0.109485 -0.201837
-0.126384 0.073571 -0.204648
-0.128135 -0.070524 -0.196303
-0.127337 0.083334 -0.204738
-0.123317 0.043886 -0.195890
-0.131518 0.055734 -0.195757
-0.125269 0.097350 -0.205685
-0.126460 0.008215 -0.199043
-0.130509 -0.093333 -0.194393
-0.124262 0.033321 -0.194471
-0.124775 0.012798 -0.195711
-0.130444 -0.059401 -0.198458
-0.125387 0.016833 -0.198917
-0.129851 0.040043 -0.192908
