ply
format ascii 1.0
element vertex 256
property float x
property float y
property float z
end_header
0.050950 0.212444 -0.092749
-0.133869 0.214673 -0.165048
-0.004873 0.208835 -0.120338
-0.056196 0.207422 -0.137276
0.111605 0.209050 -0.079078
0.026976 0.213516 -0.106148
0.127302 0.202771 -0.066138
-0.041165 0.207170 -0.124254
-0.123443 0.209110 -0.152999
0.010310 0.212630 -0.113706
-0.076407 0.211833 -0.135608
0.077573 0.205915 -0.081795
0.011279 0.210916 -0.114404
-0.033214 0.208486 -0.130068
-0.125129 0.207371 -0.159552
0.060978 0.204395 -0.089064
-0.039567 0.211004 -0.132549
-0.073367 0.215371 -0.137180
0.152095 0.206689 -0.055199
-0.109408 0.211415 -0.157130
0.068806 0.204000 -0.086622
0.083476 0.211763 -0.081269
0.115734 0.202282 -0.071956
0.074429 0.212414 -0.085247
-0.124370 0.208833 -0.161286
0.025123 0.210957 -0.100240
0.077825 0.212822 -0.087082
0.074739 0.212162 -0.090045
-0.042814 0.205402 -0.128021
0.110220 0.209929 -0.079099
-0.050360 0.215015 -0.133455
0.039792 0.213529 -0.098622
-0.093547 0.215130 -0.143298
-0.042756 0.215063 -0.130237
0.155494 0.211297 -0.059159
0.000523 0.210851 -0.118266
0.062797 0.204957 -0.087810
0.114170 0.209521 -0.069129
0.010361 0.205209 -0.112929
0.125529 0.209316 -0.065148
-0.064530 0.207018 -0.139644
-0.013893 0.206540 -0.122371
-0.033152 0.211070 -0.130238
0.020600 0.209300 -0.101444
-0.011723 0.205477 -0.120394
-0.100407 0.213357 -0.144316
0.107493 0.203927 -0.072223
-0.103242 0.216517 -0.149952
0.148289 0.210893 -0.063796
0.018425 0.208621 -0.102216
0.013547 0.213812 -0.110827
0.032420 0.209037 -0.107248
0.046749 0.205353 -0.093381
-0.113039 0.215674 -0.156518
0.123798 0.202124 -0.069102
-0.037011 0.208972 -0.131509
-0.004530 0.213946 -0.112912
0.086156 0.202917 -0.084561
0.007605 0.204359 -0.110545
-0.111933 0.206984 -0.154478
-0.099554 0.213096 -0.143954
-0.035998 0.206171 -0.123380
-0.019296 0.213484 -0.117040
-0.065752 0.205991 -0.138015
-0.065900 0.209420 -0.132067
0.035896 0.206196 -0.105322
-0.087318 0.206752 -0.146551
-0.117593 0.207165 -0.156709
0.152497 0.211044 -0.061876
0.151013 0.204385 -0.065128
-0.024851 0.209820 -0.117432
0.061491 0.210218 -0.087448
-0.023888 0.214859 -0.122915
0.013404 0.204437 -0.110332
-0.081461 0.207552 -0.145787
-0.050211 0.212549 -0.135886
-0.076163 0.208235 -0.136324
0.078527 0.203444 -0.088294
0.101672 0.202574 -0.078996
0.162720 0.205483 -0.059013
0.123584 0.207889 -0.065299
0.117182 0.205548 -0.077202
0.159665 0.202563 -0.060867
0.133455 0.210762 -0.069768
0.051972 0.212830 -0.093081
0.050379 0.208410 -0.090974
0.112970 0.211913 -0.072384
0.046875 0.211755 -0.100988
0.054891 0.212776 -0.096645
-0.117323 0.216489 -0.156766
-0.135696 0.213200 -0.157018
-0.034920 0.205649 -0.123891
-0.078340 0.214068 -0.145213
-0.080220 0.214091 -0.145883
0.098035 0.211772 -0.076664
-0.106383 0.216160 -0.153131
-0.135432 0.216656 -0.163507
-0.000464 0.205605 -0.110702
0.011895 0.204449 -0.110796
-0.115975 0.214284 -0.150133
0.109283 0.210705 -0.071640
0.108978 0.211182 -0.072212
-0.078163 0.213376 -0.145560
0.105611 0.208459 -0.071674
-0.125474 0.213861 -0.162445
0.067051 0.204590 -0.093593
-0.013663 0.212730 -0.122487
0.084007 0.203039 -0.082658
-0.093207 0.214246 -0.150514
-0.109489 0.212505 -0.157114
0.075988 0.202987 -0.087390
0.163235 0.207582 -0.053861
0.146782 0.209659 -0.058167
-0.093917 0.208376 -0.150726
-0.005062 0.214065 -0.117589
-0.045122 0.205674 -0.127958
0.115926 0.203298 -0.076104
-0.101253 0.214273 -0.153424
-0.108899 0.206710 -0.151501
0.039681 0.207638 -0.094839
-0.073275 0.215917 -0.139945
-0.031058 0.207902 -0.120119
-0.048290 0.211217 -0.135606
-0.070610 0.214127 -0.142303
0.051781 0.207501 -0.100365
-0.111842 0.207044 -0.154667
0.162851 0.207897 -0.058103
-0.091176 0.212562 -0.140913
-0.111733 0.211390 -0.157949
-0.054826 0.215241 -0.134736
-0.066695 0.214766 -0.140192
0.037206 0.204029 -0.102227
0.128453 0.206429 -0.073482
-0.126376 0.210128 -0.153479
-0.037544 0.214011 -0.123614
0.040815 0.212314 -0.102672
-0.029353 0.214764 -0.125637
0.109945 0.207737 -0.079981
-0.016395 0.214319 -0.117311
0.031396 0.204879 -0.099582
-0.035913 0.207366 -0.122203
0.003934 0.210498 -0.117146
0.050990 0.205154 -0.092005
0.070192 0.204970 -0.092926
0.095535 0.204548 -0.084096
0.096667 0.205522 -0.084263
0.011555 0.207071 -0.105116
0.058109 0.203347 -0.093566
-0.067823 0.214157 -0.133805
-0.132317 0.207188 -0.160285
0.079455 0.212526 -0.087535
-0.015040 0.212210 -0.114615
-0.085689 0.208548 -0.148023
-0.111596 0.210777 -0.157815
0.069156 0.212898 -0.090517
0.085079 0.208190 -0.088726
-0.136352 0.213720 -0.164255
0.011259 0.214058 -0.108486
-0.061805 0.207523 -0.139237
0.126222 0.204328 -0.073531
0.063697 0.211359 -0.087410
0.127509 0.201957 -0.069564
0.097735 0.202661 -0.080410
-0.118612 0.214982 -0.151469
0.072656 0.205510 -0.083823
0.050794 0.205628 -0.091703
-0.097752 0.207180 -0.145520
-0.068098 0.210667 -0.142602
-0.049410 0.209474 -0.135934
0.050873 0.213076 -0.093896
0.140826 0.201815 -0.062977
0.058617 0.212689 -0.095356
-0.132722 0.216972 -0.161512
-0.053335 0.207177 -0.128778
-0.136022 0.209174 -0.159721
-0.045578 0.206704 -0.126374
-0.098167 0.210948 -0.153180
-0.005898 0.212014 -0.120088
0.155871 0.208428 -0.054321
-0.099940 0.208651 -0.152931
0.041749 0.203841 -0.100280
-0.065936 0.207122 -0.133527
0.002401 0.212017 -0.117069
0.123270 0.202341 -0.072135
0.008928 0.213654 -0.108143
-0.059816 0.211507 -0.139643
0.110027 0.205529 -0.070293
-0.065638 0.210999 -0.141733
0.120639 0.210698 -0.074605
-0.020058 0.214711 -0.119577
0.130601 0.211469 -0.069627
0.120790 0.206746 -0.076175
0.004970 0.205197 -0.109235
-0.101935 0.213268 -0.144823
0.087287 0.208675 -0.078078
-0.001975 0.212589 -0.118321
-0.040169 0.214223 -0.124694
0.117766 0.202383 -0.073821
-0.079868 0.213229 -0.146267
-0.132952 0.216355 -0.157763
0.061490 0.204726 -0.088533
-0.047858 0.212184 -0.125807
-0.032732 0.205872 -0.127732
-0.079768 0.211416 -0.146700
-0.066161 0.212047 -0.141759
0.145896 0.210543 -0.065345
0.146926 0.202451 -0.059100
0.008986 0.204497 -0.109261
-0.027291 0.209746 -0.118291
0.130911 0.202319 -0.069756
0.160414 0.204893 -0.062054
0.109071 0.205335 -0.070689
0.104687 0.210468 -0.072932
-0.039080 0.215034 -0.128768
-0.056061 0.215502 -0.132471
0.076913 0.212644 -0.088170
-0.124554 0.207026 -0.156966
-0.042515 0.215002 -0.126886
0.001933 0.209872 -0.117967
0.067577 0.206607 -0.085160
0.144340 0.211132 -0.064902
-0.079319 0.212520 -0.146329
0.146631 0.204951 -0.066845
-0.010398 0.204731 -0.117826
0.007887 0.204567 -0.112342
-0.107426 0.206681 -0.151037
-0.016445 0.213597 -0.122679
0.019364 0.211466 -0.102488
-0.052726 0.206797 -0.128941
-0.102489 0.212758 -0.144883
-0.063517 0.214045 -0.132265
0.151717 0.204945 -0.065081
-0.124025 0.215593 -0.160691
-0.033178 0.214596 -0.123108
0.151501 0.201459 -0.060339
0.004529 0.205374 -0.109091
-0.031125 0.205432 -0.126342
-0.126398 0.215410 -0.154474
0.051237 0.203869 -0.097677
0.060792 0.206266 -0.087689
-0.010584 0.205840 -0.120584
-0.072880 0.213527 -0.135041
0.139129 0.206246 -0.059767
0.084594 0.212602 -0.085028
0.065179 0.212971 -0.091944
0.127374 0.202142 -0.070272
0.000280 0.214284 -0.112366
-0.053767 0.215371 -0.131359
0.084974 0.203076 -0.085466
-0.113129 0.209578 -0.157943
-0.009157 0.212940 -0.113140
-0.077555 0.206582 -0.143164
-0.008376 0.212274 -0.112384
-0.046364 0.210591 -0.124994
0.041247 0.209260 -0.104139
0.013585 0.210708 -0.113639
