ply
format ascii 1.0
element vertex 256
property float x
property float y
property float z
end_header
-0.168126 0.092641 -0.180271
-0.177809 0.093492 -0.184641
-0.170139 0.093333 -0.185446
-0.180545 0.162101 -0.225508
-0.127458 -0.137717 -0.032298
-0.142437 -0.059938 -0.079288
-0.154751 -0.034235 -0.096949
-0.187617 0.156135 -0.217049
-0.146948 -0.081860 -0.072413
-0.139916 -0.095123 -0.055345
-0.160388 0.043720 -0.145884
-0.176427 0.083826 -0.177594
-0.138307 -0.128877 -0.043249
-0.122323 -0.171996 -0.008293
-0.158144 0.014760 -0.136795
-0.140809 -0.097391 -0.065648
-0.126737 -0.180670 -0.012372
-0.128849 -0.172006 -0.017675
-0.145594 -0.040527 -0.099104
-0.162144 0.054197 -0.159050
-0.162439 0.045621 -0.145449
-0.170489 0.049116 -0.152931
-0.180074 0.106122 -0.192610
-0.126038 -0.170256 -0.019146
-0.186880 0.196718 -0.248506
-0.178002 0.135124 -0.202635
-0.156392 0.003739 -0.129829
-0.183394 0.178757 -0.235203
-0.140775 -0.111041 -0.055581
-0.166793 0.028257 -0.139647
-0.133182 -0.113294 -0.045066
-0.136603 -0.089047 -0.061720
-0.162956 0.061239 -0.162459
-0.142306 -0.085268 -0.061784
-0.136451 -0.122612 -0.049558
-0.132602 -0.108524 -0.053197
-0.180612 0.134463 -0.213357
-0.140520 -0.064827 -0.081881
-0.120524 -0.177973 -0.005962
-0.155327 -0.036834 -0.099052
-0.127956 -0.190493 -0.002481
-0.174652 0.124018 -0.196967
-0.178020 0.138343 -0.205117
-0.163444 0.016044 -0.128620
-0.161659 0.054087 -0.153690
-0.165450 0.065643 -0.168029
-0.177462 0.091263 -0.177781
-0.171311 0.099278 -0.189350
-0.168465 0.089711 -0.175273
-0.129469 -0.160424 -0.025514
-0.170782 0.105003 -0.190539
-0.192504 0.173010 -0.232414
-0.151769 -0.041534 -0.100837
-0.162028 0.003792 -0.122259
-0.181557 0.113684 -0.192417
-0.169412 0.099414 -0.185346
-0.172256 0.066641 -0.168733
-0.167558 0.074214 -0.174013
-0.132801 -0.115760 -0.051995
-0.128341 -0.174420 -0.016168
-0.153599 -0.018394 -0.116009
-0.160435 0.016506 -0.126623
-0.141347 -0.060858 -0.080345
-0.157727 0.007524 -0.132413
-0.159194 0.040318 -0.148975
-0.125134 -0.151607 -0.026584
-0.137689 -0.135344 -0.034562
-0.154833 -0.036137 -0.096481
-0.165454 0.024377 -0.140854
-0.174336 0.074513 -0.172784
-0.176654 0.086031 -0.174796
-0.162968 0.017430 -0.137882
-0.123194 -0.174836 -0.005157
-0.167207 0.086713 -0.175343
-0.177666 0.131938 -0.210704
-0.172849 0.078776 -0.177543
-0.151406 -0.002423 -0.118659
-0.185845 0.181399 -0.241633
-0.179801 0.157312 -0.223128
-0.124168 -0.155799 -0.022575
-0.160846 0.005366 -0.130188
-0.186914 0.145461 -0.211916
-0.157285 -0.023669 -0.109400
-0.176923 0.107166 -0.195923
-0.172331 0.066518 -0.160672
-0.121012 -0.190101 -0.005855
-0.167297 0.034194 -0.146894
-0.158321 0.036453 -0.145825
-0.182016 0.167709 -0.230836
-0.188804 0.178017 -0.229415
-0.195733 0.202779 -0.255976
-0.141489 -0.114475 -0.048603
-0.160175 0.036013 -0.149135
-0.165975 0.079766 -0.170934
-0.176087 0.136598 -0.209808
-0.182530 0.144871 -0.219982
-0.144965 -0.058856 -0.078529
-0.131192 -0.146040 -0.034710
-0.132736 -0.162046 -0.021364
-0.168479 0.038200 -0.145304
-0.189024 0.153542 -0.219742
-0.130490 -0.176905 -0.009400
-0.195098 0.187994 -0.242773
-0.126911 -0.164244 -0.011360
-0.157148 -0.026315 -0.105101
-0.160113 0.021493 -0.141286
-0.160474 0.035517 -0.149205
-0.126550 -0.157089 -0.016347
-0.136889 -0.120922 -0.039383
-0.192769 0.187987 -0.246825
-0.144712 -0.071246 -0.070693
-0.122010 -0.175047 -0.006029
-0.189094 0.171280 -0.225725
-0.165949 0.030307 -0.137667
-0.184210 0.156871 -0.215840
-0.165466 0.068144 -0.160504
-0.190731 0.209326 -0.259356
-0.130787 -0.124599 -0.038382
-0.163149 0.057371 -0.154096
-0.180392 0.137033 -0.203219
-0.148184 -0.038992 -0.091291
-0.141384 -0.079285 -0.065504
-0.176726 0.126010 -0.196627
-0.142926 -0.084536 -0.062379
-0.192810 0.202567 -0.256722
-0.178383 0.114360 -0.200491
-0.139325 -0.088293 -0.059941
-0.137825 -0.134502 -0.035060
-0.161861 0.046314 -0.155555
-0.124964 -0.185933 0.002194
-0.157871 -0.008488 -0.121772
-0.138788 -0.126624 -0.044525
-0.148126 -0.037812 -0.102916
-0.154786 0.012608 -0.126197
-0.189133 0.207192 -0.256293
-0.121256 -0.172404 -0.012266
-0.187426 0.200656 -0.250513
-0.136152 -0.091889 -0.059818
-0.157031 0.002421 -0.117472
-0.186144 0.191398 -0.245720
-0.151362 -0.036992 -0.092660
-0.191386 0.166920 -0.229165
-0.179575 0.122167 -0.194022
-0.190217 0.176707 -0.229277
-0.183269 0.138216 -0.215437
-0.147033 -0.048236 -0.085257
-0.147631 -0.035195 -0.103859
-0.169375 0.096152 -0.179769
-0.121826 -0.172988 -0.014262
-0.158303 0.026100 -0.142705
-0.157221 0.030265 -0.139267
-0.175783 0.079250 -0.171723
-0.129347 -0.126546 -0.041174
-0.127582 -0.160620 -0.013666
-0.138572 -0.081631 -0.065504
-0.148499 -0.074370 -0.073413
-0.131932 -0.165728 -0.014122
-0.146581 -0.083735 -0.071314
-0.144228 -0.089174 -0.069877
-0.143796 -0.091027 -0.059617
-0.163500 0.018173 -0.138042
-0.183640 0.175558 -0.229993
-0.152709 -0.050220 -0.088594
-0.147977 -0.023070 -0.108645
-0.129498 -0.125676 -0.041694
-0.134337 -0.146551 -0.033123
-0.151201 -0.011751 -0.109709
-0.149724 -0.020175 -0.112855
-0.148814 -0.033974 -0.105365
-0.189015 0.175690 -0.239563
-0.136944 -0.140385 -0.033430
-0.174947 0.115763 -0.200489
-0.176969 0.139583 -0.212738
-0.172068 0.071603 -0.172771
-0.145841 -0.071249 -0.082161
-0.139816 -0.098805 -0.053139
-0.185195 0.185900 -0.237140
-0.180068 0.130226 -0.198909
-0.181713 0.134493 -0.213328
-0.133744 -0.150635 -0.030388
-0.128806 -0.186345 -0.004116
-0.146844 -0.041818 -0.089803
-0.153729 0.008331 -0.129193
-0.132891 -0.113602 -0.052964
-0.177360 0.126478 -0.196721
-0.194914 0.192089 -0.241185
-0.185051 0.181483 -0.240688
-0.140113 -0.111590 -0.055715
-0.175687 0.133243 -0.204088
-0.118746 -0.187783 0.000179
-0.148212 -0.077038 -0.073259
-0.159825 0.045524 -0.149853
-0.156535 -0.029996 -0.103108
-0.136865 -0.084080 -0.067292
-0.168326 0.036534 -0.145776
-0.161807 0.014869 -0.126368
-0.148608 -0.074116 -0.074026
-0.126002 -0.145845 -0.029544
-0.126325 -0.146852 -0.025005
-0.184179 0.154325 -0.226004
-0.161364 -0.002634 -0.120364
-0.167056 0.086375 -0.175922
-0.158966 0.019743 -0.128556
-0.173077 0.115047 -0.198049
-0.128356 -0.163119 -0.012164
-0.184741 0.140940 -0.207188
-0.199767 0.214602 -0.260117
-0.137674 -0.133941 -0.039375
-0.142830 -0.057991 -0.088520
-0.171961 0.070302 -0.161939
-0.144130 -0.099497 -0.058034
-0.160181 0.026927 -0.133152
-0.145208 -0.038320 -0.098736
-0.140042 -0.076764 -0.077161
-0.188906 0.194544 -0.240258
-0.199217 0.214378 -0.256018
-0.151975 -0.003834 -0.115583
-0.172495 0.107056 -0.185178
-0.159443 0.003280 -0.118803
-0.170115 0.103306 -0.187951
-0.171253 0.109893 -0.190638
-0.156023 0.020891 -0.131888
-0.184403 0.148402 -0.210779
-0.172794 0.064743 -0.160979
-0.175492 0.116885 -0.201408
-0.190439 0.209959 -0.259355
-0.153711 -0.020211 -0.103183
-0.127389 -0.190966 -0.003549
-0.134606 -0.133144 -0.031530
-0.154720 -0.009724 -0.109745
-0.186786 0.141051 -0.212835
-0.142278 -0.080967 -0.064367
-0.119962 -0.189971 -0.005044
-0.152977 -0.014746 -0.106584
-0.188301 0.170428 -0.224803
-0.144847 -0.095085 -0.060274
-0.119120 -0.185550 -0.001302
-0.186219 0.140606 -0.214475
-0.128514 -0.155170 -0.028702
-0.168737 0.044773 -0.147245
-0.168619 0.074248 -0.174658
-0.138208 -0.127914 -0.037379
-0.163473 0.063986 -0.164296
-0.192240 0.189246 -0.247962
-0.152224 0.000152 -0.123820
-0.160781 0.041899 -0.152445
-0.178948 0.132099 -0.200102
-0.190207 0.163201 -0.228906
-0.178371 0.150170 -0.216437
-0.130122 -0.175670 -0.013229
-0.162382 0.005291 -0.127932
-0.154267 -0.042487 -0.095964
-0.156674 0.024004 -0.139626
-0.125565 -0.163185 -0.012430
-0.129554 -0.182071 -0.005922
-0.131108 -0.172568 -0.010897
