ply
format ascii 1.0
element vertex 256
property float x
property float y
property float z
end_header
-0.142999 0.050582 -0.105749
-0.112126 0.200710 0.002101
-0.105845 0.187433 -0.001623
-0.158530 -0.052068 -0.188242
-0.176687 -0.160933 -0.260968
-0.151902 -0.011053 -0.158242
-0.161729 -0.073225 -0.203273
-0.171501 -0.093318 -0.217383
-0.171222 -0.134350 -0.241238
-0.113172 0.183048 -0.004074
-0.100764 0.207464 0.008398
-0.116460 0.175731 -0.018610
-0.180221 -0.132005 -0.244739
-0.173633 -0.109189 -0.230045
-0.150465 -0.002255 -0.139952
-0.188594 -0.171655 -0.268709
-0.148023 -0.017229 -0.159713
-0.102186 0.202518 0.008497
-0.110916 0.178608 -0.006257
-0.105202 0.196513 0.006294
-0.108393 0.174822 -0.018227
-0.184379 -0.156205 -0.255222
-0.164237 -0.066931 -0.187865
-0.190321 -0.179082 -0.278322
-0.195855 -0.208494 -0.301345
-0.169944 -0.128365 -0.237226
-0.187091 -0.177280 -0.269198
-0.103629 0.202294 0.000736
-0.150498 0.013457 -0.132611
-0.104803 0.209673 0.009538
-0.161607 -0.087465 -0.209059
-0.134634 0.075387 -0.094460
-0.182643 -0.178078 -0.269428
-0.167392 -0.115792 -0.227604
-0.159496 -0.045141 -0.183223
-0.193851 -0.209258 -0.303908
-0.156310 -0.014646 -0.153362
-0.175094 -0.149768 -0.256879
-0.174424 -0.112158 -0.232091
-0.182691 -0.190275 -0.282998
-0.166933 -0.111675 -0.223016
-0.182618 -0.150946 -0.260504
-0.114019 0.188778 -0.008641
-0.139853 0.065036 -0.094598
-0.138639 0.047661 -0.114999
-0.133199 0.049803 -0.107013
-0.108917 0.167739 -0.020507
-0.112892 0.190379 -0.008603
-0.166732 -0.112517 -0.227130
-0.166784 -0.110276 -0.227432
-0.128670 0.071639 -0.090689
-0.183241 -0.160976 -0.268582
-0.137133 0.035270 -0.120939
-0.195591 -0.211098 -0.304361
-0.169278 -0.085497 -0.212181
-0.131022 0.064748 -0.099173
-0.118341 0.143750 -0.044085
-0.182821 -0.156903 -0.265433
-0.180722 -0.176762 -0.276865
-0.131070 0.059927 -0.099168
-0.117202 0.149006 -0.028056
-0.189244 -0.197346 -0.295456
-0.146798 0.030699 -0.124557
-0.166430 -0.067874 -0.198393
-0.123540 0.102164 -0.064262
-0.189847 -0.179213 -0.279738
-0.156857 -0.059928 -0.183791
-0.186582 -0.161015 -0.261432
-0.106201 0.180511 -0.010327
-0.154482 -0.008803 -0.147521
-0.167000 -0.081506 -0.198442
-0.168726 -0.102788 -0.225515
-0.173003 -0.105878 -0.217063
-0.172038 -0.092146 -0.215283
-0.188200 -0.213504 -0.297361
-0.178640 -0.128359 -0.243313
-0.119024 0.166797 -0.023520
-0.168805 -0.106338 -0.227820
-0.191567 -0.185395 -0.283125
-0.184520 -0.178803 -0.281535
-0.138625 0.071234 -0.090186
-0.133950 0.083334 -0.088243
-0.133569 0.050077 -0.103916
-0.150222 -0.017858 -0.151191
-0.144775 0.035359 -0.122847
-0.162618 -0.074430 -0.204551
-0.127331 0.127336 -0.050559
-0.162145 -0.084037 -0.201095
-0.127595 0.089437 -0.083095
-0.183622 -0.194574 -0.285766
-0.160928 -0.036682 -0.169816
-0.186830 -0.209025 -0.295202
-0.137238 0.042608 -0.106842
-0.164447 -0.052578 -0.183621
-0.185263 -0.190673 -0.278685
-0.171294 -0.108481 -0.230004
-0.159561 -0.077793 -0.201455
-0.180353 -0.170876 -0.264752
-0.108138 0.171749 -0.015484
-0.181974 -0.181655 -0.273417
-0.119099 0.151207 -0.038585
-0.154621 -0.054019 -0.183597
-0.153547 -0.040970 -0.178159
-0.149380 -0.028794 -0.164183
-0.139163 0.069750 -0.092569
-0.185870 -0.202280 -0.289117
-0.191275 -0.182972 -0.278683
-0.144210 0.045354 -0.110690
-0.110915 0.177653 -0.006963
-0.185607 -0.170061 -0.275097
-0.133883 0.095175 -0.073499
-0.181496 -0.184302 -0.278270
-0.165428 -0.057677 -0.186313
-0.162092 -0.068927 -0.188558
-0.124340 0.131722 -0.052320
-0.177581 -0.156806 -0.263627
-0.180834 -0.177801 -0.271072
-0.169933 -0.128227 -0.236967
-0.189953 -0.176971 -0.273473
-0.170280 -0.128625 -0.240064
-0.143581 -0.000310 -0.144372
-0.155864 -0.053849 -0.178942
-0.193181 -0.203967 -0.299843
-0.121881 0.128992 -0.055105
-0.171139 -0.085195 -0.207948
-0.120188 0.139007 -0.035513
-0.137013 0.050407 -0.100678
-0.135407 0.080869 -0.080508
-0.182688 -0.157240 -0.265753
-0.107132 0.181366 -0.006041
-0.184245 -0.168330 -0.262066
-0.129306 0.117220 -0.059720
-0.125255 0.137193 -0.042889
-0.114157 0.147107 -0.038722
-0.131093 0.069443 -0.097179
-0.160626 -0.082191 -0.205625
-0.179945 -0.150507 -0.260956
-0.164324 -0.081024 -0.209513
-0.173295 -0.124838 -0.241761
-0.170660 -0.084305 -0.208846
-0.158800 -0.062398 -0.194834
-0.142684 0.005335 -0.141492
-0.119811 0.161376 -0.028429
-0.167063 -0.065729 -0.192000
-0.180470 -0.136214 -0.248798
-0.108397 0.174994 -0.018168
-0.144971 0.018830 -0.124020
-0.186526 -0.170099 -0.264660
-0.118968 0.156062 -0.024130
-0.135830 0.069145 -0.099090
-0.127646 0.105217 -0.060548
-0.181076 -0.140080 -0.243383
-0.163985 -0.094864 -0.216809
-0.123584 0.124730 -0.046165
-0.116998 0.177237 -0.014906
-0.178550 -0.123793 -0.238627
-0.167044 -0.108489 -0.219308
-0.136877 0.081034 -0.084637
-0.122049 0.152048 -0.030938
-0.184332 -0.168238 -0.274005
-0.148735 0.012981 -0.129786
-0.167957 -0.071528 -0.194999
-0.159106 -0.031618 -0.171474
-0.181330 -0.166083 -0.271953
-0.148227 0.008461 -0.143822
-0.120007 0.150428 -0.038894
-0.189293 -0.213975 -0.305648
-0.168854 -0.116921 -0.233606
-0.109588 0.209247 0.006130
-0.162341 -0.043718 -0.178816
-0.135895 0.068625 -0.099487
-0.190684 -0.193261 -0.281159
-0.173738 -0.127117 -0.231418
-0.118073 0.133523 -0.040189
-0.121669 0.106188 -0.066386
-0.189884 -0.176054 -0.274782
-0.168547 -0.085356 -0.212571
-0.150321 -0.025442 -0.157677
-0.118775 0.161510 -0.029930
-0.147397 0.029168 -0.121464
-0.122846 0.119694 -0.049649
-0.129002 0.078340 -0.090352
-0.160072 -0.033469 -0.171697
-0.153012 -0.045653 -0.178473
-0.187671 -0.182329 -0.272618
-0.149902 0.012733 -0.138895
-0.133732 0.094389 -0.077464
-0.186694 -0.166511 -0.271145
-0.181879 -0.154619 -0.263918
-0.181363 -0.183392 -0.277101
-0.152851 -0.044633 -0.177873
-0.131001 0.107122 -0.068379
-0.163145 -0.075667 -0.193527
-0.185005 -0.181962 -0.283810
-0.192514 -0.191091 -0.287951
-0.165454 -0.065472 -0.197195
-0.191474 -0.210407 -0.292751
-0.139551 0.066985 -0.097181
-0.193636 -0.216074 -0.297089
-0.127672 0.078456 -0.083138
-0.184145 -0.184104 -0.284643
-0.160545 -0.034181 -0.171046
-0.160136 -0.031986 -0.167441
-0.117097 0.139387 -0.035688
-0.104569 0.188840 -0.003303
-0.192228 -0.192138 -0.282440
-0.174873 -0.147734 -0.255723
-0.170453 -0.099601 -0.211589
-0.127001 0.128835 -0.049252
-0.155591 -0.048848 -0.184411
-0.157351 -0.054905 -0.178656
-0.172514 -0.137837 -0.247874
-0.140461 0.017602 -0.133394
-0.118454 0.125219 -0.054469
-0.193337 -0.200148 -0.296293
-0.168037 -0.080354 -0.198584
-0.188481 -0.213869 -0.297336
-0.127501 0.089491 -0.082996
-0.148434 -0.019287 -0.153921
-0.157147 -0.023962 -0.157893
-0.124484 0.132372 -0.042253
-0.107001 0.209612 0.004409
-0.184940 -0.195306 -0.291201
-0.155873 -0.010934 -0.152661
-0.112702 0.180176 -0.005503
-0.121061 0.129909 -0.042122
-0.131617 0.057966 -0.101947
-0.101395 0.210247 0.007336
-0.132420 0.078779 -0.092096
-0.153087 -0.044138 -0.173053
-0.116596 0.179151 -0.011929
-0.192514 -0.201431 -0.298045
-0.106510 0.187943 -0.000376
-0.114302 0.145949 -0.032314
-0.143711 0.036051 -0.123058
-0.116388 0.133450 -0.047513
-0.109098 0.168457 -0.016896
-0.171628 -0.106249 -0.228350
-0.193007 -0.200890 -0.287478
-0.137663 0.028094 -0.122160
-0.159805 -0.039247 -0.168572
-0.146081 0.036511 -0.117964
-0.158997 -0.028769 -0.163073
-0.142979 0.038257 -0.121561
-0.182143 -0.172175 -0.276153
-0.136148 0.049778 -0.101424
-0.143336 0.049249 -0.109652
-0.136906 0.049726 -0.101197
-0.169523 -0.115779 -0.223760
-0.117148 0.158034 -0.021769
-0.122444 0.121571 -0.060276
-0.145909 -0.005267 -0.151510
-0.111873 0.164638 -0.027511
-0.142853 0.006769 -0.135029
-0.180988 -0.169074 -0.273537
-0.186176 -0.192230 -0.290857
