ply
format ascii 1.0
element vertex 256
property float x
property float y
property float z
end_header
0.091250 -0.249925 -0.175425
-0.093400 -0.235983 -0.150268
-0.020187 -0.244026 -0.157376
0.026138 -0.238920 -0.162163
-0.074773 -0.242173 -0.150731
-0.109760 -0.241283 -0.146725
0.175770 -0.248807 -0.174793
0.019037 -0.240187 -0.170442
-0.106140 -0.237762 -0.147305
0.041977 -0.246513 -0.169781
0.167548 -0.249829 -0.173367
-0.080083 -0.236487 -0.158129
0.021897 -0.243287 -0.170589
-0.148962 -0.238999 -0.142164
0.036136 -0.245558 -0.164281
-0.025412 -0.243812 -0.156693
-0.122455 -0.235991 -0.153603
-0.033045 -0.236814 -0.162861
0.154075 -0.255930 -0.176770
0.142380 -0.245289 -0.176239
0.118306 -0.246938 -0.168959
0.198179 -0.254957 -0.178630
0.150082 -0.255075 -0.178924
0.149320 -0.249568 -0.181269
-0.066076 -0.245266 -0.156763
0.156536 -0.253771 -0.181151
-0.096581 -0.244723 -0.154257
-0.024815 -0.239665 -0.165652
-0.097711 -0.235337 -0.150813
0.107046 -0.245443 -0.168689
-0.073356 -0.244588 -0.157916
-0.065593 -0.240972 -0.161262
0.095103 -0.244763 -0.174227
0.140541 -0.248432 -0.180156
0.111849 -0.254257 -0.171565
0.062570 -0.242414 -0.165383
0.028431 -0.241727 -0.161610
-0.121736 -0.239075 -0.145190
-0.034480 -0.245410 -0.157975
-0.051977 -0.238555 -0.162383
-0.132013 -0.235197 -0.151687
0.120927 -0.245814 -0.170223
0.002177 -0.245978 -0.165371
-0.094105 -0.235185 -0.154663
0.189636 -0.254268 -0.175813
-0.155071 -0.243956 -0.145443
0.129089 -0.246092 -0.177751
0.149842 -0.250226 -0.181395
-0.058724 -0.235635 -0.155679
-0.156527 -0.235150 -0.149206
-0.108291 -0.237224 -0.155969
-0.090929 -0.242075 -0.158067
-0.029928 -0.235957 -0.161180
-0.002973 -0.236798 -0.165504
-0.118767 -0.239173 -0.155456
-0.152014 -0.241596 -0.151213
0.092257 -0.246225 -0.166286
0.019520 -0.245651 -0.162883
-0.143409 -0.235237 -0.150696
0.035333 -0.239334 -0.162985
0.056866 -0.246379 -0.167268
-0.074276 -0.235829 -0.157734
-0.031220 -0.239755 -0.164974
-0.094061 -0.241528 -0.148458
0.160464 -0.250962 -0.182488
-0.026538 -0.245436 -0.158642
-0.148254 -0.244085 -0.146455
-0.133912 -0.243014 -0.152267
0.175050 -0.249833 -0.174221
-0.124852 -0.237964 -0.154565
0.193816 -0.256922 -0.182661
-0.122459 -0.240195 -0.145135
-0.094154 -0.242709 -0.157336
-0.094435 -0.243128 -0.149334
0.156987 -0.256006 -0.176833
-0.144402 -0.234634 -0.145823
-0.072987 -0.243490 -0.151736
-0.104121 -0.241894 -0.147566
-0.112344 -0.234828 -0.150102
0.032347 -0.238731 -0.163056
0.183475 -0.255419 -0.183303
-0.104916 -0.234919 -0.152979
0.091180 -0.247655 -0.175529
-0.038154 -0.242103 -0.164148
0.014734 -0.236527 -0.165697
-0.040369 -0.243802 -0.162968
0.193340 -0.256856 -0.182730
0.133134 -0.245733 -0.177517
-0.120049 -0.244442 -0.149287
-0.135573 -0.237006 -0.153051
0.007343 -0.239228 -0.168826
-0.086195 -0.244785 -0.152529
0.026558 -0.241328 -0.161430
-0.114891 -0.239501 -0.145898
-0.076432 -0.235884 -0.152567
-0.084750 -0.244279 -0.151545
-0.037582 -0.245663 -0.158916
0.077605 -0.244241 -0.172617
-0.058330 -0.237078 -0.153414
0.099637 -0.247763 -0.176344
-0.114700 -0.239184 -0.155896
0.183307 -0.246880 -0.181161
0.003251 -0.239477 -0.168505
-0.082308 -0.242012 -0.149882
0.172621 -0.248464 -0.182756
-0.095127 -0.238830 -0.148189
0.133982 -0.248396 -0.170138
-0.096427 -0.235758 -0.150175
0.049315 -0.246394 -0.166730
-0.153918 -0.234809 -0.144067
0.003383 -0.237303 -0.166834
-0.065295 -0.237955 -0.160748
0.158389 -0.245963 -0.178606
0.037735 -0.241277 -0.162683
-0.046038 -0.238145 -0.162828
-0.048121 -0.235646 -0.157708
-0.010249 -0.242436 -0.167231
-0.038660 -0.240080 -0.154322
-0.089339 -0.243864 -0.150581
-0.005398 -0.245526 -0.160465
-0.134890 -0.235004 -0.146290
0.191356 -0.256107 -0.177330
0.041771 -0.240033 -0.172739
0.016512 -0.246321 -0.164139
0.057153 -0.246484 -0.167546
0.045803 -0.246806 -0.169129
0.179726 -0.254960 -0.183179
0.002013 -0.236395 -0.164642
-0.148261 -0.240868 -0.142552
-0.063973 -0.235409 -0.156869
-0.072556 -0.235896 -0.158028
-0.131769 -0.239056 -0.154038
-0.048463 -0.235990 -0.160085
0.185922 -0.256875 -0.181313
-0.155918 -0.235020 -0.143673
-0.012654 -0.239420 -0.157410
-0.104098 -0.243626 -0.148918
0.051885 -0.246101 -0.166433
0.197825 -0.253152 -0.179444
-0.108658 -0.235334 -0.149250
-0.048543 -0.235777 -0.159561
0.163043 -0.254657 -0.174049
0.134168 -0.247195 -0.170765
0.185015 -0.246786 -0.180330
0.080448 -0.244980 -0.173470
-0.065602 -0.237223 -0.160192
-0.145355 -0.243790 -0.149529
0.014366 -0.236969 -0.162921
0.104675 -0.250071 -0.176821
0.121937 -0.248722 -0.178572
0.189739 -0.247055 -0.179319
0.146781 -0.248561 -0.171529
-0.119934 -0.237448 -0.145843
-0.038785 -0.244104 -0.155596
-0.095583 -0.243804 -0.156133
0.116394 -0.251224 -0.177750
0.038842 -0.245637 -0.164632
0.115216 -0.249088 -0.167995
-0.154639 -0.242126 -0.142602
0.007138 -0.243709 -0.168710
0.153684 -0.245869 -0.175381
-0.098896 -0.238906 -0.157563
-0.082610 -0.243199 -0.150559
-0.026526 -0.242461 -0.155864
-0.071143 -0.238249 -0.151143
0.024958 -0.242143 -0.161291
0.014329 -0.246313 -0.164068
0.044993 -0.240374 -0.163669
0.096642 -0.253549 -0.169510
0.038073 -0.236861 -0.168337
0.044183 -0.244644 -0.172498
-0.058995 -0.237757 -0.161259
-0.001971 -0.244820 -0.166772
-0.001004 -0.244016 -0.167542
0.176523 -0.251662 -0.174032
0.101350 -0.253709 -0.173171
0.052715 -0.240370 -0.164562
0.080365 -0.250528 -0.173933
0.056117 -0.239159 -0.165588
0.135598 -0.246911 -0.171162
-0.116781 -0.236384 -0.154479
-0.075947 -0.235207 -0.155281
0.138650 -0.245206 -0.174485
-0.141689 -0.243264 -0.145005
0.039449 -0.241387 -0.172812
0.028587 -0.241692 -0.171669
0.181603 -0.246983 -0.177866
0.188236 -0.254786 -0.184387
-0.042153 -0.245503 -0.160112
-0.102731 -0.236708 -0.156120
-0.011537 -0.236484 -0.164090
0.119803 -0.254635 -0.173747
0.105886 -0.249260 -0.177060
-0.019023 -0.236024 -0.161730
0.151831 -0.255711 -0.177574
-0.121060 -0.234718 -0.151383
0.031986 -0.241690 -0.172048
0.171107 -0.250026 -0.183380
-0.121402 -0.236525 -0.146247
-0.132071 -0.244094 -0.150698
-0.058127 -0.235772 -0.158821
0.185452 -0.255249 -0.183683
0.041387 -0.245383 -0.164532
-0.140032 -0.240284 -0.143252
-0.061366 -0.237108 -0.160522
0.112641 -0.251883 -0.177039
0.195704 -0.247750 -0.178639
-0.025545 -0.238282 -0.164975
0.049968 -0.237216 -0.167427
0.169298 -0.253989 -0.182600
0.011410 -0.237513 -0.167844
0.043811 -0.240382 -0.163529
0.111711 -0.252002 -0.168384
0.144567 -0.250591 -0.180899
-0.125161 -0.242222 -0.153978
-0.035170 -0.236647 -0.162448
-0.060349 -0.239763 -0.161834
0.077109 -0.245488 -0.173598
-0.047914 -0.243617 -0.162203
0.040307 -0.238224 -0.164430
-0.131073 -0.241501 -0.144602
0.061671 -0.241043 -0.165383
0.175928 -0.253290 -0.183675
-0.103488 -0.244755 -0.151735
0.073013 -0.245612 -0.173299
-0.046487 -0.243686 -0.162320
0.022315 -0.237690 -0.169075
-0.044527 -0.243184 -0.154316
-0.001748 -0.241009 -0.158316
0.092656 -0.243479 -0.170636
0.193260 -0.253300 -0.175807
0.106349 -0.247541 -0.176898
-0.059702 -0.242954 -0.161294
0.162891 -0.256171 -0.178236
0.180412 -0.253170 -0.174603
-0.114036 -0.244105 -0.153255
-0.030735 -0.236599 -0.162790
-0.048957 -0.238001 -0.153831
0.130695 -0.254915 -0.173233
0.160485 -0.253813 -0.181619
-0.115810 -0.239418 -0.145806
-0.028643 -0.245232 -0.157987
0.157506 -0.247011 -0.180452
-0.144152 -0.244234 -0.147805
0.075514 -0.250121 -0.173550
-0.091444 -0.237644 -0.149051
-0.014738 -0.236515 -0.159849
-0.104999 -0.236679 -0.148103
0.106404 -0.246048 -0.168132
0.104837 -0.243956 -0.171503
-0.126750 -0.235826 -0.146209
0.059282 -0.246077 -0.167079
-0.125253 -0.238096 -0.144960
0.179467 -0.247081 -0.177241
0.126429 -0.249292 -0.179066
-0.041008 -0.236856 -0.155824
