ply
format ascii 1.0
element vertex 256
property float x
property float y
property float z
end_header
0.071573 0.182539 -0.252823
-0.052487 0.180959 -0.260883
-0.132184 0.191157 -0.254207
-0.140660 0.187274 -0.261955
-0.053461 0.184019 -0.262116
0.084939 0.173304 -0.255222
-0.044068 0.182790 -0.261928
-0.003865 0.187098 -0.256762
-0.057099 0.180960 -0.253587
0.157726 0.179706 -0.253702
0.157619 0.178214 -0.251557
-0.139276 0.183317 -0.256273
0.033066 0.183626 -0.252580
-0.089406 0.182412 -0.261071
0.057909 0.174413 -0.256392
-0.101140 0.183375 -0.253587
-0.061314 0.182740 -0.261806
-0.020146 0.180863 -0.261426
-0.132339 0.183755 -0.260794
-0.026409 0.178204 -0.255967
0.035725 0.181588 -0.251555
0.081818 0.173757 -0.257886
-0.120175 0.182192 -0.257774
-0.122810 0.182591 -0.256146
0.020793 0.185877 -0.255416
-0.033689 0.182925 -0.261918
0.137511 0.180275 -0.253113
-0.005233 0.178250 -0.259795
-0.028001 0.188030 -0.255960
-0.031894 0.183338 -0.251968
0.156624 0.170690 -0.252983
-0.020189 0.180847 -0.261419
-0.107269 0.184771 -0.262202
0.053166 0.174718 -0.257172
-0.005900 0.179057 -0.260595
-0.115196 0.182129 -0.258908
0.051424 0.175282 -0.258613
0.049040 0.184734 -0.256676
-0.105402 0.189763 -0.253810
-0.018029 0.179582 -0.253002
-0.135266 0.183326 -0.255795
-0.124479 0.190177 -0.253648
-0.022917 0.182026 -0.261771
-0.140750 0.185371 -0.261134
0.080203 0.173983 -0.258276
-0.012824 0.186267 -0.260030
0.098489 0.176477 -0.251011
-0.031111 0.187333 -0.254082
-0.111019 0.182884 -0.254574
-0.032906 0.181314 -0.261489
-0.038024 0.179805 -0.253804
-0.048620 0.183739 -0.262066
-0.009925 0.183300 -0.261657
0.016957 0.180317 -0.251666
0.007659 0.186447 -0.257769
0.089899 0.174107 -0.259019
0.061633 0.180965 -0.251527
-0.038492 0.178888 -0.255462
-0.075304 0.181909 -0.261039
0.050802 0.175726 -0.259228
0.126340 0.175073 -0.250808
0.067382 0.182598 -0.252697
-0.001445 0.177077 -0.257399
-0.045615 0.185185 -0.261917
0.154598 0.179732 -0.257316
-0.037633 0.184246 -0.261926
0.124019 0.180294 -0.258850
0.128946 0.175643 -0.260520
-0.105731 0.185212 -0.252781
-0.138822 0.192387 -0.255489
0.111757 0.178765 -0.251100
-0.046910 0.184544 -0.262019
-0.036166 0.179036 -0.254839
-0.020616 0.184073 -0.261707
0.086924 0.173442 -0.257623
0.105996 0.178041 -0.260700
0.101505 0.179826 -0.260234
-0.044840 0.179758 -0.254312
0.117990 0.172048 -0.257277
0.033852 0.175826 -0.258219
-0.059567 0.182170 -0.252812
-0.099696 0.191234 -0.258021
-0.007927 0.183631 -0.261568
-0.138075 0.188224 -0.262832
-0.053412 0.184824 -0.252221
0.100583 0.172925 -0.257702
-0.075012 0.189553 -0.254850
-0.084403 0.187430 -0.262029
-0.013503 0.186885 -0.254388
-0.063893 0.183215 -0.261977
0.068404 0.174641 -0.253561
-0.128075 0.182651 -0.256858
-0.039249 0.178869 -0.255593
0.130553 0.178407 -0.260049
-0.039550 0.182996 -0.252117
0.024610 0.184923 -0.259329
-0.097810 0.189287 -0.253636
-0.009220 0.177815 -0.258834
0.125336 0.171520 -0.256271
0.100182 0.173124 -0.258145
-0.088772 0.190168 -0.254997
0.018402 0.178790 -0.260940
-0.079560 0.183472 -0.252805
0.019996 0.186001 -0.256958
0.081597 0.183139 -0.257423
-0.080677 0.184852 -0.252458
0.076547 0.179131 -0.251121
-0.022019 0.180491 -0.252509
-0.045991 0.186203 -0.252656
0.070662 0.183797 -0.255780
0.092595 0.182819 -0.256372
-0.029188 0.180661 -0.252644
-0.129973 0.192470 -0.258950
-0.085887 0.186075 -0.252474
0.029259 0.184451 -0.253260
0.085943 0.178187 -0.260966
0.034027 0.175574 -0.257470
0.077705 0.176303 -0.260483
-0.010478 0.184787 -0.261158
-0.004066 0.181723 -0.251780
-0.055265 0.185837 -0.252415
0.113764 0.180151 -0.259527
-0.080715 0.188023 -0.253095
0.025248 0.175856 -0.256190
0.118775 0.177203 -0.250753
-0.052246 0.186311 -0.261637
-0.038721 0.182860 -0.252123
0.153888 0.170238 -0.254998
-0.082993 0.186303 -0.262301
0.127560 0.177701 -0.250812
-0.119540 0.186983 -0.262684
-0.017856 0.181915 -0.251951
-0.140617 0.189651 -0.254764
0.030356 0.185481 -0.255508
0.132901 0.180246 -0.258330
0.084382 0.177804 -0.260925
-0.123563 0.185676 -0.253063
-0.085112 0.190066 -0.255106
0.138040 0.180132 -0.258143
-0.027930 0.185042 -0.252350
0.077719 0.173938 -0.254146
-0.092940 0.190536 -0.255480
0.093844 0.175432 -0.251523
-0.070648 0.189868 -0.256105
0.082692 0.180113 -0.251378
-0.116440 0.182756 -0.255094
-0.132353 0.185489 -0.262257
0.099080 0.182564 -0.255622
0.100070 0.180651 -0.259719
-0.081718 0.183276 -0.252943
0.083724 0.173346 -0.255319
0.006118 0.177090 -0.258575
0.031660 0.181299 -0.251528
-0.090752 0.188108 -0.253012
-0.140430 0.183718 -0.260328
0.122511 0.174116 -0.251306
-0.023155 0.178720 -0.254243
-0.032684 0.187944 -0.258868
-0.047942 0.182015 -0.252567
0.029211 0.185597 -0.256883
-0.119367 0.191393 -0.255085
0.018300 0.184422 -0.252820
0.066039 0.175364 -0.259497
-0.121291 0.188469 -0.262561
0.064153 0.183408 -0.253595
0.139339 0.180797 -0.255251
0.145863 0.178012 -0.259806
-0.048383 0.179104 -0.257584
-0.105418 0.190250 -0.254273
0.021837 0.176261 -0.254917
0.042951 0.175398 -0.258071
0.123592 0.175333 -0.260494
0.146765 0.171557 -0.252446
0.129731 0.176662 -0.260544
-0.123326 0.192043 -0.259320
-0.074421 0.183758 -0.252550
0.037444 0.184329 -0.259263
-0.055009 0.180219 -0.259944
0.012296 0.176841 -0.258574
0.043656 0.184538 -0.258378
-0.012872 0.184386 -0.252224
-0.016115 0.187507 -0.255839
0.103883 0.180362 -0.251855
-0.077156 0.180333 -0.257102
-0.024801 0.187353 -0.259396
-0.016413 0.179824 -0.260919
-0.072689 0.181851 -0.261060
-0.061865 0.179788 -0.258410
0.106168 0.181854 -0.257720
0.031209 0.175947 -0.258254
-0.075257 0.181346 -0.254235
-0.080620 0.182414 -0.261293
0.055352 0.174523 -0.256402
0.007758 0.177305 -0.254062
0.091907 0.173020 -0.256831
-0.040161 0.188528 -0.258270
0.129490 0.177695 -0.260372
-0.028686 0.185612 -0.261300
0.069468 0.173920 -0.255816
-0.140569 0.189859 -0.259358
0.121500 0.171837 -0.254222
0.143978 0.179845 -0.258128
0.056919 0.175857 -0.259696
0.120143 0.181617 -0.256110
-0.135617 0.184389 -0.254258
0.081124 0.179616 -0.260847
0.129253 0.172961 -0.251888
-0.023600 0.187319 -0.254455
0.154803 0.176460 -0.250562
0.149561 0.171214 -0.258146
0.149845 0.170552 -0.256764
0.150147 0.180121 -0.256884
0.083589 0.181282 -0.252051
-0.125324 0.182565 -0.258935
-0.134443 0.190428 -0.253591
-0.088144 0.190678 -0.258301
0.133142 0.179520 -0.259196
0.044315 0.178141 -0.260922
0.103744 0.181412 -0.252917
-0.117396 0.190447 -0.261348
-0.032832 0.180581 -0.261087
0.120988 0.175233 -0.260458
0.139341 0.171772 -0.258377
-0.092995 0.181712 -0.254919
-0.076419 0.181494 -0.260564
0.065381 0.183902 -0.257421
0.038090 0.184656 -0.258727
-0.085224 0.180684 -0.257189
-0.135944 0.192762 -0.256923
-0.013786 0.178934 -0.260272
0.142123 0.170867 -0.256747
-0.074192 0.184710 -0.252385
-0.036505 0.182160 -0.252204
0.160510 0.174744 -0.256049
0.126347 0.181376 -0.255820
0.102552 0.177292 -0.250847
0.066504 0.175817 -0.252335
-0.032881 0.180190 -0.253160
0.007176 0.184668 -0.252729
0.071160 0.173895 -0.255426
-0.041168 0.184059 -0.252087
-0.010334 0.183739 -0.251980
0.113151 0.173866 -0.251871
-0.140653 0.186568 -0.253148
0.093533 0.173902 -0.258928
0.048475 0.175428 -0.258679
0.062895 0.180272 -0.251308
-0.110475 0.182480 -0.255063
0.024756 0.175982 -0.255402
0.120625 0.181396 -0.254176
-0.029494 0.187691 -0.254780
0.016571 0.184277 -0.252665
0.039331 0.181320 -0.261217
0.068108 0.179868 -0.251241
0.085618 0.181693 -0.252417
-0.091160 0.181568 -0.255003
