ply
format ascii 1.0
element vertex 256
property float x
property float y
property float z
end_header
0.047152 -0.184864 -0.215072
-0.100610 -0.185165 -0.207801
-0.018990 -0.186869 -0.215135
-0.110604 -0.180258 -0.216540
0.162002 -0.183144 -0.205579
0.032583 -0.189757 -0.208966
0.031652 -0.186917 -0.214872
-0.020511 -0.188402 -0.208585
0.001928 -0.188566 -0.207979
0.152807 -0.189677 -0.212832
0.130098 -0.191587 -0.208997
-0.038957 -0.179444 -0.213841
0.132679 -0.184209 -0.204575
0.157885 -0.185320 -0.203943
-0.104188 -0.185587 -0.216176
-0.049438 -0.186786 -0.215224
0.111837 -0.181619 -0.207528
-0.032091 -0.185619 -0.215843
0.144762 -0.189029 -0.213227
-0.089408 -0.183832 -0.207118
0.195713 -0.186528 -0.209517
-0.054596 -0.182087 -0.216305
0.149963 -0.191295 -0.206295
-0.046012 -0.183782 -0.216378
0.090498 -0.183304 -0.205279
0.090098 -0.182888 -0.205598
-0.098069 -0.178333 -0.212379
0.160099 -0.184717 -0.212941
-0.105882 -0.187733 -0.210791
0.031851 -0.183863 -0.215185
-0.112573 -0.187437 -0.213397
-0.009907 -0.180485 -0.214160
-0.010177 -0.180392 -0.214049
0.180543 -0.187385 -0.213271
0.110073 -0.182342 -0.206201
0.013150 -0.184740 -0.205598
-0.087864 -0.183677 -0.207073
0.170801 -0.188310 -0.213275
-0.048111 -0.188177 -0.213310
-0.028383 -0.179989 -0.214173
-0.104603 -0.187853 -0.212685
0.165974 -0.190539 -0.204795
-0.127906 -0.177310 -0.213004
0.165365 -0.184186 -0.212437
0.145810 -0.183888 -0.212729
-0.001267 -0.185265 -0.205898
0.161916 -0.183359 -0.211771
0.091026 -0.182414 -0.213061
0.025909 -0.184656 -0.215384
0.137035 -0.190613 -0.205823
0.005530 -0.187913 -0.207062
-0.104354 -0.177988 -0.211733
0.134268 -0.186002 -0.214215
-0.110825 -0.187459 -0.210795
-0.031343 -0.188040 -0.213909
0.057720 -0.187048 -0.214641
-0.099785 -0.179911 -0.215524
-0.100778 -0.183388 -0.216775
0.145904 -0.183000 -0.205636
0.187934 -0.188502 -0.213052
0.140614 -0.189485 -0.213005
0.143531 -0.185446 -0.203988
0.177704 -0.191744 -0.210761
0.056523 -0.181026 -0.207480
0.001342 -0.180794 -0.207332
-0.107351 -0.183963 -0.216904
-0.082758 -0.183008 -0.206904
0.149565 -0.189561 -0.212924
-0.026240 -0.185138 -0.206280
-0.020462 -0.185736 -0.206375
-0.116287 -0.183384 -0.207489
-0.029290 -0.186129 -0.206721
-0.097416 -0.179501 -0.214911
0.049511 -0.190211 -0.210260
-0.100042 -0.185823 -0.215985
-0.054248 -0.188393 -0.210788
-0.104206 -0.178266 -0.210334
0.059142 -0.188481 -0.206068
-0.122265 -0.180672 -0.207774
0.188056 -0.189105 -0.212901
-0.079909 -0.183672 -0.206945
0.186284 -0.189554 -0.212727
-0.114851 -0.184957 -0.216681
0.135065 -0.181307 -0.209000
-0.036632 -0.185026 -0.206431
-0.105027 -0.179719 -0.208198
-0.123356 -0.180316 -0.216998
0.093471 -0.183720 -0.213910
-0.036157 -0.181674 -0.215752
-0.021409 -0.179663 -0.208671
-0.111199 -0.179267 -0.215851
-0.027386 -0.183020 -0.216021
-0.129192 -0.179273 -0.216528
-0.015730 -0.188973 -0.212220
0.172464 -0.186113 -0.203545
-0.011840 -0.180403 -0.207733
-0.106303 -0.186129 -0.208264
0.110683 -0.191115 -0.210364
0.161400 -0.185250 -0.203948
0.099034 -0.183570 -0.205069
-0.098018 -0.188207 -0.212027
-0.130459 -0.182365 -0.207582
0.037028 -0.188289 -0.206510
-0.014199 -0.179630 -0.212976
-0.009981 -0.183727 -0.205968
0.034810 -0.189822 -0.209029
0.065624 -0.185484 -0.204862
-0.043231 -0.185776 -0.215854
0.185099 -0.192197 -0.209865
0.163360 -0.191461 -0.205987
0.195635 -0.188806 -0.206642
0.036366 -0.182573 -0.205908
0.126666 -0.181728 -0.207661
0.076788 -0.188686 -0.213657
0.125818 -0.190378 -0.205917
0.136179 -0.182170 -0.211948
0.158321 -0.189143 -0.204077
0.020086 -0.179904 -0.209223
-0.055486 -0.186781 -0.215234
0.153483 -0.185108 -0.213240
0.152970 -0.183891 -0.212541
0.049186 -0.180861 -0.212501
-0.107953 -0.186347 -0.208558
-0.057774 -0.178759 -0.213244
0.015893 -0.188270 -0.207094
-0.034769 -0.184286 -0.206304
0.030594 -0.184722 -0.215318
0.047846 -0.186212 -0.214973
-0.001080 -0.187737 -0.214453
0.102644 -0.181330 -0.207978
0.122357 -0.190542 -0.206254
0.033780 -0.189887 -0.209673
-0.113256 -0.186445 -0.215349
0.159211 -0.190218 -0.204730
0.079295 -0.181694 -0.206794
0.165512 -0.183136 -0.211353
-0.105582 -0.185463 -0.207701
0.175854 -0.190071 -0.212510
-0.026602 -0.184444 -0.216066
0.010727 -0.179976 -0.212455
0.194794 -0.187945 -0.203115
0.025106 -0.182826 -0.205879
0.138785 -0.187614 -0.213974
0.176501 -0.182773 -0.206476
0.171400 -0.182382 -0.209154
-0.048951 -0.182162 -0.216219
-0.107302 -0.185990 -0.215873
0.099854 -0.190888 -0.208039
0.136743 -0.181338 -0.209261
0.027956 -0.188050 -0.214188
0.162148 -0.186686 -0.203588
-0.062378 -0.178951 -0.213958
0.176718 -0.185979 -0.203542
-0.036040 -0.178888 -0.210539
-0.112190 -0.186449 -0.215367
0.120300 -0.191331 -0.209821
0.183073 -0.191164 -0.204897
-0.063948 -0.184918 -0.206939
0.154076 -0.191126 -0.205884
-0.014249 -0.183895 -0.215926
0.049629 -0.186523 -0.205249
-0.128172 -0.184839 -0.208272
0.091300 -0.181348 -0.211386
-0.100153 -0.187965 -0.210451
0.160349 -0.183493 -0.205111
-0.060892 -0.187432 -0.214460
-0.124931 -0.178265 -0.215374
-0.024849 -0.181197 -0.215219
0.182669 -0.184918 -0.203960
-0.106162 -0.179800 -0.215897
0.049417 -0.190204 -0.210302
0.032795 -0.187481 -0.214620
0.145144 -0.185399 -0.203997
0.082970 -0.188100 -0.214033
0.148854 -0.181991 -0.208059
-0.024020 -0.187349 -0.214770
-0.035715 -0.183646 -0.216236
0.145091 -0.187300 -0.213883
0.136451 -0.188196 -0.213629
-0.014271 -0.182442 -0.206307
0.108137 -0.186038 -0.204298
-0.107825 -0.187324 -0.210030
-0.007403 -0.180965 -0.207158
0.176965 -0.185538 -0.212931
0.039329 -0.184164 -0.215105
-0.009949 -0.179546 -0.209263
0.122124 -0.184880 -0.204369
-0.026716 -0.188477 -0.209103
0.044747 -0.187799 -0.214366
0.046190 -0.180684 -0.208022
-0.107193 -0.187576 -0.213548
-0.065140 -0.186459 -0.207832
0.186427 -0.192476 -0.207723
-0.104148 -0.187870 -0.212700
0.063024 -0.188122 -0.214103
-0.029656 -0.188809 -0.211878
0.177551 -0.183620 -0.211552
-0.107596 -0.178200 -0.210247
-0.099888 -0.178976 -0.214464
-0.102279 -0.187986 -0.212391
-0.011844 -0.188168 -0.213900
0.024010 -0.180647 -0.213161
0.131146 -0.187304 -0.214175
-0.105709 -0.177944 -0.212342
0.066981 -0.180651 -0.208897
0.045327 -0.186606 -0.214908
0.192388 -0.192387 -0.209602
-0.032542 -0.188428 -0.213120
0.130544 -0.191546 -0.209354
0.056293 -0.187762 -0.214354
0.030753 -0.180075 -0.209138
0.082187 -0.185986 -0.204658
-0.004730 -0.183059 -0.205995
-0.049827 -0.188378 -0.212778
0.134851 -0.191519 -0.210049
0.139646 -0.190857 -0.211349
0.067291 -0.188603 -0.205943
-0.115490 -0.186040 -0.215829
-0.110564 -0.180682 -0.216713
-0.124801 -0.186407 -0.209690
-0.025499 -0.179667 -0.208581
0.180523 -0.184896 -0.212577
0.149830 -0.190891 -0.211670
0.014471 -0.187529 -0.214599
0.099391 -0.185690 -0.204445
0.142735 -0.181572 -0.209498
0.170213 -0.189746 -0.204080
0.095119 -0.181414 -0.207573
0.047618 -0.190067 -0.211131
0.013406 -0.185668 -0.215443
-0.098461 -0.178230 -0.211703
0.089266 -0.185042 -0.214422
-0.108092 -0.187353 -0.210816
-0.097963 -0.178779 -0.213866
-0.048484 -0.188390 -0.212784
0.010684 -0.183419 -0.215465
-0.010699 -0.186862 -0.215133
0.004242 -0.188639 -0.213418
-0.063459 -0.184647 -0.206816
0.069056 -0.189840 -0.212381
0.168978 -0.189579 -0.204037
-0.044571 -0.187931 -0.208811
-0.013672 -0.179334 -0.212205
-0.050868 -0.178643 -0.210709
-0.003946 -0.188793 -0.213008
0.012464 -0.180926 -0.213936
0.042763 -0.180746 -0.212573
0.154158 -0.184470 -0.212954
0.054706 -0.183731 -0.214719
0.031220 -0.183557 -0.205535
0.043941 -0.183631 -0.214901
0.019039 -0.185456 -0.205598
-0.110975 -0.183975 -0.217010
0.022685 -0.179924 -0.211538
0.054817 -0.188816 -0.206440
0.032311 -0.179983 -0.210620
