ply
format ascii 1.0
element vertex 256
property float x
property float y
property float z
end_header
-0.137328 0.025506 0.115198
-0.153441 0.028055 0.166519
-0.157714 0.027920 0.177993
-0.163759 0.025576 0.227057
-0.170389 0.024046 0.212668
-0.172719 0.023291 0.223142
-0.171756 0.029404 0.245388
-0.153698 0.018834 0.155423
-0.162852 0.027572 0.196113
-0.170482 0.019783 0.233897
-0.140210 0.020134 0.129225
-0.150164 0.025335 0.134742
-0.171568 0.021672 0.255071
-0.141798 0.027262 0.120431
-0.180562 0.029387 0.273243
-0.171676 0.028326 0.223931
-0.148955 0.024073 0.126602
-0.163758 0.020759 0.187444
-0.174068 0.020576 0.260823
-0.163319 0.020632 0.186032
-0.143547 0.026987 0.131185
-0.176732 0.022522 0.240306
-0.183123 0.024073 0.266642
-0.142876 0.018467 0.135040
-0.162736 0.024188 0.182025
-0.174879 0.027753 0.235122
-0.171580 0.029023 0.247941
-0.155604 0.020079 0.156853
-0.156729 0.025058 0.158564
-0.165579 0.026319 0.198880
-0.178905 0.029429 0.270022
-0.136996 0.022989 0.116576
-0.174868 0.020770 0.265399
-0.143479 0.019691 0.140913
-0.169192 0.022010 0.246160
-0.163332 0.026541 0.190337
-0.175838 0.026289 0.274785
-0.161983 0.027793 0.196517
-0.151897 0.027462 0.167910
-0.175723 0.024045 0.273948
-0.137809 0.020784 0.120636
-0.160064 0.027053 0.202251
-0.178457 0.023785 0.264464
-0.174214 0.024865 0.228143
-0.150221 0.018613 0.159993
-0.140720 0.024339 0.115669
-0.178584 0.019927 0.258951
-0.141409 0.020791 0.135351
-0.146937 0.026302 0.125486
-0.153282 0.026046 0.146457
-0.178448 0.019529 0.265660
-0.178985 0.023066 0.263993
-0.147844 0.026863 0.133783
-0.159418 0.026074 0.205119
-0.179278 0.024159 0.248831
-0.166936 0.027142 0.237541
-0.154479 0.024746 0.187943
-0.151595 0.027912 0.162535
-0.180057 0.029264 0.276951
-0.182614 0.024908 0.262190
-0.141160 0.022895 0.135056
-0.157645 0.018024 0.182974
-0.145464 0.018929 0.116986
-0.158683 0.027018 0.197259
-0.146285 0.027225 0.147837
-0.139983 0.019794 0.127560
-0.181716 0.028543 0.267470
-0.148780 0.024874 0.127591
-0.163765 0.025353 0.227134
-0.163121 0.022554 0.222272
-0.148624 0.024681 0.126537
-0.181859 0.027634 0.263840
-0.141789 0.027343 0.114821
-0.153661 0.028061 0.163862
-0.173564 0.021137 0.232104
-0.146210 0.022254 0.155401
-0.178172 0.019538 0.264591
-0.147497 0.018168 0.144920
-0.169057 0.020809 0.240991
-0.162943 0.017846 0.202512
-0.157457 0.018017 0.180147
-0.148968 0.019722 0.128417
-0.161486 0.027736 0.207766
-0.142131 0.025211 0.135083
-0.168478 0.022101 0.205344
-0.139759 0.025358 0.125259
-0.150216 0.022679 0.172145
-0.146810 0.024785 0.157092
-0.144556 0.027111 0.132746
-0.147003 0.022536 0.158892
-0.162893 0.027057 0.221699
-0.170943 0.020140 0.228150
-0.164801 0.029005 0.222231
-0.178413 0.019606 0.262966
-0.142331 0.026954 0.126810
-0.151924 0.018958 0.169787
-0.179851 0.017387 0.268857
-0.159404 0.027884 0.187626
-0.179158 0.029418 0.271109
-0.163078 0.018454 0.194165
-0.157463 0.027848 0.184257
-0.168997 0.029683 0.230817
-0.169824 0.023842 0.210314
-0.165230 0.018461 0.205219
-0.149029 0.022453 0.167099
-0.173443 0.028172 0.230727
-0.183691 0.022354 0.272568
-0.156046 0.019562 0.190227
-0.161776 0.024831 0.178902
-0.169150 0.020763 0.215830
-0.169344 0.021113 0.213583
-0.160351 0.018109 0.198516
-0.178000 0.021418 0.248305
-0.142983 0.023643 0.115106
-0.174786 0.027093 0.232981
-0.170982 0.029190 0.244357
-0.138663 0.025587 0.120289
-0.167765 0.025714 0.204610
-0.172292 0.028120 0.225714
-0.172840 0.029648 0.244719
-0.156688 0.025481 0.195235
-0.174888 0.028563 0.238454
-0.182360 0.025342 0.266474
-0.184370 0.024708 0.269332
-0.170440 0.029712 0.233280
-0.171698 0.019948 0.245104
-0.161661 0.024782 0.178326
-0.153955 0.022013 0.146363
-0.167645 0.023964 0.242796
-0.169087 0.023503 0.207255
-0.170764 0.020307 0.244915
-0.174661 0.029583 0.252442
-0.174405 0.022628 0.270270
-0.148502 0.023674 0.164979
-0.176269 0.029373 0.251500
-0.153569 0.028061 0.162916
-0.167343 0.023855 0.241467
-0.164495 0.026714 0.196036
-0.169843 0.026982 0.213229
-0.144403 0.027270 0.126754
-0.176437 0.028973 0.247809
-0.167009 0.026310 0.203725
-0.175694 0.024354 0.274023
-0.138826 0.020147 0.123545
-0.171817 0.029352 0.246271
-0.156007 0.018090 0.178643
-0.161828 0.017936 0.202738
-0.138173 0.026069 0.116283
-0.184376 0.024805 0.269333
-0.174643 0.026218 0.270082
-0.173636 0.020212 0.256545
-0.156310 0.022803 0.196820
-0.161800 0.023778 0.177843
-0.141512 0.017430 0.115020
-0.157891 0.018541 0.192473
-0.177034 0.019988 0.252566
-0.153271 0.018736 0.174050
-0.175521 0.026278 0.234404
-0.139194 0.020144 0.125054
-0.148151 0.023356 0.122543
-0.144275 0.024959 0.146461
-0.155496 0.018595 0.164149
-0.145087 0.017356 0.128084
-0.145779 0.027213 0.143369
-0.159491 0.018268 0.196867
-0.144452 0.017879 0.137535
-0.154734 0.022416 0.149082
-0.176343 0.022436 0.273891
-0.154667 0.021887 0.189643
-0.142149 0.017415 0.118444
-0.144921 0.020200 0.114602
-0.146902 0.026612 0.127417
-0.166727 0.021841 0.235483
-0.145573 0.026201 0.149124
-0.156717 0.020125 0.195094
-0.147303 0.021245 0.158649
-0.151818 0.018813 0.168361
-0.148623 0.017972 0.134216
-0.161463 0.022295 0.215724
-0.174562 0.026921 0.231687
-0.148193 0.025783 0.160657
-0.150900 0.027649 0.145015
-0.159122 0.026727 0.200374
-0.145462 0.024040 0.152575
-0.158719 0.019559 0.201387
-0.160683 0.021227 0.211513
-0.167303 0.022780 0.240016
-0.176199 0.025213 0.266638
-0.175052 0.028525 0.238898
-0.172311 0.029405 0.234131
-0.153751 0.028048 0.162576
-0.183894 0.028451 0.276151
-0.152837 0.018186 0.165146
-0.152588 0.022671 0.181771
-0.181630 0.024110 0.267410
-0.176323 0.019833 0.251659
-0.140375 0.017784 0.119197
-0.174595 0.021428 0.266785
-0.183020 0.026275 0.265206
-0.168637 0.028108 0.212509
-0.181776 0.023749 0.259046
-0.163839 0.018400 0.207051
-0.148336 0.025717 0.128565
-0.179382 0.020296 0.273946
-0.160051 0.026418 0.207857
-0.148502 0.019081 0.155998
-0.149582 0.020874 0.128772
-0.148954 0.018763 0.131408
-0.144153 0.026647 0.136155
-0.167229 0.024367 0.200545
-0.142287 0.017573 0.124854
-0.175898 0.021298 0.240516
-0.160256 0.018187 0.185881
-0.161006 0.024271 0.216095
-0.154423 0.026077 0.184633
-0.158064 0.027098 0.194276
-0.161868 0.027916 0.206367
-0.169710 0.025232 0.210408
-0.140236 0.023117 0.115779
-0.150257 0.024477 0.132837
-0.142567 0.019284 0.115175
-0.161284 0.027581 0.204604
-0.170944 0.020752 0.223586
-0.177002 0.019705 0.265571
-0.153742 0.027791 0.158195
-0.155044 0.019871 0.155263
-0.167193 0.026106 0.203705
-0.157248 0.025110 0.198460
-0.166534 0.020249 0.226085
-0.177555 0.029079 0.270289
-0.176536 0.019219 0.272400
-0.166759 0.019921 0.222054
-0.152433 0.019621 0.175353
-0.167238 0.023066 0.240346
-0.144841 0.025862 0.114517
-0.152336 0.025278 0.178482
-0.180122 0.019830 0.265571
-0.181691 0.029350 0.277542
-0.150772 0.023233 0.133149
-0.174200 0.024241 0.228236
-0.169594 0.029605 0.224712
-0.166388 0.021218 0.231676
-0.161323 0.026713 0.215090
-0.184142 0.021437 0.268609
-0.159182 0.019650 0.203672
-0.151768 0.025490 0.175656
-0.178232 0.019958 0.262079
-0.170773 0.023570 0.255232
-0.145609 0.018705 0.143773
-0.142782 0.024930 0.138895
-0.157721 0.022010 0.202230
-0.172066 0.028014 0.255275
-0.156652 0.023947 0.156950
-0.180078 0.019889 0.264944
-0.184527 0.024127 0.270514
-0.166828 0.025314 0.239556
