ply
format ascii 1.0
element vertex 256
property float x
property float y
property float z
end_header
-0.168571 -0.067214 0.210067
-0.140441 -0.069021 0.141069
-0.175196 -0.062907 0.233391
-0.143142 -0.070301 0.121196
-0.170601 -0.069402 0.226089
-0.157275 -0.062852 0.169373
-0.167744 -0.069897 0.225161
-0.157018 -0.061203 0.173868
-0.169947 -0.059611 0.238245
-0.149795 -0.062796 0.146580
-0.152168 -0.065502 0.185751
-0.147060 -0.070393 0.158891
-0.148258 -0.062404 0.167950
-0.171734 -0.058916 0.243976
-0.134277 -0.067318 0.120742
-0.153720 -0.069269 0.158697
-0.171470 -0.064682 0.255869
-0.146113 -0.062313 0.136252
-0.167601 -0.067271 0.238417
-0.145761 -0.068909 0.127126
-0.166761 -0.064232 0.201660
-0.146998 -0.068737 0.163227
-0.152629 -0.064005 0.186907
-0.169479 -0.062063 0.247958
-0.150077 -0.064961 0.142038
-0.148273 -0.061535 0.155754
-0.142717 -0.070630 0.120851
-0.146224 -0.062809 0.159505
-0.149536 -0.064536 0.175984
-0.135681 -0.068334 0.124973
-0.153428 -0.062170 0.186496
-0.139778 -0.071296 0.124196
-0.173864 -0.067813 0.252742
-0.164609 -0.065457 0.193594
-0.146585 -0.071415 0.142127
-0.139003 -0.067562 0.137921
-0.139850 -0.065652 0.140787
-0.147112 -0.061799 0.144258
-0.153428 -0.068472 0.154764
-0.154539 -0.060912 0.167278
-0.173466 -0.068722 0.234107
-0.164719 -0.068407 0.198834
-0.164312 -0.061888 0.196919
-0.172935 -0.068820 0.241947
-0.164461 -0.068545 0.224732
-0.154826 -0.060660 0.184264
-0.149030 -0.068791 0.169099
-0.137062 -0.063356 0.125892
-0.165668 -0.061122 0.228675
-0.165039 -0.060883 0.203811
-0.179298 -0.059308 0.252167
-0.145624 -0.066060 0.124814
-0.171797 -0.059470 0.236255
-0.163096 -0.060172 0.203949
-0.163963 -0.068558 0.222916
-0.166909 -0.061804 0.206451
-0.167908 -0.069793 0.220177
-0.159533 -0.070118 0.194501
-0.149014 -0.063911 0.173548
-0.173005 -0.058724 0.253619
-0.146557 -0.070832 0.156201
-0.154656 -0.070222 0.178212
-0.152751 -0.063967 0.153431
-0.147278 -0.062119 0.161937
-0.151447 -0.064746 0.147252
-0.169172 -0.059890 0.236780
-0.172146 -0.059572 0.236013
-0.168967 -0.067505 0.241458
-0.159239 -0.064458 0.211567
-0.154144 -0.069884 0.166232
-0.145295 -0.071446 0.146152
-0.140709 -0.067416 0.144178
-0.170114 -0.061416 0.249879
-0.155383 -0.064811 0.197598
-0.146342 -0.070631 0.134704
-0.165217 -0.069962 0.215238
-0.161522 -0.069919 0.205065
-0.156322 -0.065212 0.200948
-0.168054 -0.066888 0.207506
-0.145012 -0.070171 0.127743
-0.158543 -0.062510 0.174739
-0.151644 -0.063277 0.182370
-0.141275 -0.061767 0.127217
-0.176871 -0.058982 0.246320
-0.154243 -0.069602 0.164838
-0.179354 -0.067499 0.253167
-0.175926 -0.058517 0.254881
-0.149398 -0.066151 0.175534
-0.170894 -0.059743 0.233507
-0.142671 -0.061924 0.138306
-0.170511 -0.069477 0.226520
-0.149371 -0.067075 0.174363
-0.154462 -0.063961 0.158353
-0.160603 -0.060307 0.193806
-0.150799 -0.069400 0.172900
-0.179335 -0.060303 0.257329
-0.159362 -0.069118 0.181417
-0.151516 -0.067933 0.180439
-0.175344 -0.068347 0.252709
-0.179669 -0.060425 0.256034
-0.151688 -0.069053 0.149370
-0.147061 -0.063494 0.134159
-0.150103 -0.070659 0.149239
-0.177822 -0.062186 0.242358
-0.145313 -0.061682 0.145752
-0.173204 -0.066148 0.254542
-0.168796 -0.065840 0.244495
-0.163059 -0.060755 0.197854
-0.151917 -0.065007 0.184923
-0.154854 -0.070226 0.178785
-0.151574 -0.068340 0.179671
-0.179248 -0.065436 0.249383
-0.162586 -0.069772 0.198585
-0.155574 -0.068741 0.165739
-0.165100 -0.061111 0.226507
-0.140253 -0.063469 0.138247
-0.166533 -0.061753 0.205327
-0.174054 -0.061796 0.231891
-0.172002 -0.066263 0.256857
-0.145318 -0.065686 0.123948
-0.167329 -0.060375 0.215283
-0.140606 -0.062864 0.137437
-0.173719 -0.058392 0.253754
-0.142082 -0.064091 0.146767
-0.135716 -0.066641 0.126112
-0.180357 -0.060998 0.253704
-0.174276 -0.060705 0.259092
-0.147113 -0.062716 0.164119
-0.160824 -0.060179 0.196510
-0.162166 -0.060976 0.214513
-0.151758 -0.069411 0.176206
-0.175313 -0.063982 0.232801
-0.136325 -0.063781 0.124624
-0.138143 -0.071277 0.123977
-0.159011 -0.061847 0.206283
-0.169801 -0.061690 0.248892
-0.173110 -0.068209 0.246499
-0.140282 -0.067424 0.124029
-0.157213 -0.064587 0.166782
-0.166157 -0.060318 0.211628
-0.172282 -0.058630 0.246534
-0.164107 -0.069885 0.206137
-0.144906 -0.064604 0.158610
-0.145721 -0.062016 0.136972
-0.170542 -0.066318 0.248274
-0.166892 -0.066105 0.202414
-0.141766 -0.064617 0.146640
-0.168721 -0.069582 0.233292
-0.166400 -0.060010 0.220687
-0.149500 -0.062070 0.149671
-0.177136 -0.060302 0.243305
-0.140496 -0.066565 0.123964
-0.164939 -0.066686 0.231160
-0.158208 -0.066661 0.206834
-0.156923 -0.065208 0.203139
-0.139918 -0.061812 0.123686
-0.144248 -0.064918 0.120996
-0.149278 -0.061901 0.150082
-0.161282 -0.069817 0.193948
-0.140723 -0.064347 0.142239
-0.154238 -0.060725 0.182689
-0.164486 -0.069966 0.209727
-0.141427 -0.062297 0.137129
-0.135273 -0.066406 0.124536
-0.177467 -0.064569 0.262757
-0.173365 -0.062755 0.227297
-0.151062 -0.060435 0.165632
-0.166379 -0.064599 0.237538
-0.159888 -0.064632 0.214056
-0.164566 -0.060047 0.211655
-0.146313 -0.064722 0.164183
-0.157154 -0.068719 0.198158
-0.146806 -0.061703 0.152011
-0.148024 -0.071508 0.151716
-0.175901 -0.062682 0.235837
-0.137426 -0.062373 0.122319
-0.166322 -0.063170 0.236668
-0.165407 -0.061609 0.201926
-0.174826 -0.059968 0.257607
-0.170996 -0.060615 0.226293
-0.178220 -0.058507 0.250474
-0.140037 -0.062552 0.133391
-0.159987 -0.068018 0.210609
-0.168965 -0.069488 0.220464
-0.178417 -0.062150 0.244194
-0.148817 -0.061844 0.149073
-0.152982 -0.065338 0.152098
-0.144532 -0.064894 0.122055
-0.153237 -0.060675 0.178096
-0.166797 -0.069582 0.213001
-0.143950 -0.064691 0.120191
-0.147743 -0.069559 0.162955
-0.142470 -0.070296 0.144521
-0.162358 -0.067645 0.220003
-0.175901 -0.065391 0.235114
-0.170218 -0.059627 0.242546
-0.159722 -0.069887 0.199749
-0.139223 -0.066601 0.138904
-0.181210 -0.062265 0.260718
-0.169028 -0.066575 0.243751
-0.155072 -0.061609 0.190682
-0.156714 -0.064088 0.165443
-0.139634 -0.067208 0.140295
-0.161931 -0.060130 0.203867
-0.149638 -0.070176 0.164514
-0.146380 -0.064586 0.129111
-0.160142 -0.062193 0.181229
-0.136392 -0.063295 0.123164
-0.171776 -0.064232 0.219948
-0.145202 -0.061658 0.141281
-0.161957 -0.064025 0.184490
-0.140902 -0.071365 0.132904
-0.162755 -0.069800 0.210895
-0.140474 -0.071701 0.121707
-0.157709 -0.070158 0.186086
-0.141144 -0.062183 0.119968
-0.179272 -0.063281 0.246593
-0.165408 -0.062748 0.232321
-0.135311 -0.065530 0.124008
-0.152558 -0.070305 0.170150
-0.181591 -0.065687 0.256036
-0.172638 -0.068236 0.245910
-0.158054 -0.062652 0.172643
-0.156421 -0.068406 0.196828
-0.154893 -0.060545 0.171683
-0.179249 -0.059147 0.251581
-0.167188 -0.061080 0.234699
-0.145304 -0.061653 0.140690
-0.150993 -0.060962 0.160225
-0.167357 -0.065350 0.240493
-0.164630 -0.060065 0.215363
-0.169241 -0.064289 0.247409
-0.179711 -0.060348 0.258313
-0.146795 -0.062489 0.161105
-0.171589 -0.061084 0.225936
-0.145813 -0.064190 0.161758
-0.153514 -0.068498 0.186161
-0.157911 -0.067333 0.204804
-0.149900 -0.061654 0.155041
-0.156295 -0.060566 0.188928
-0.173486 -0.063535 0.226794
-0.162346 -0.069851 0.198652
-0.146128 -0.064210 0.163017
-0.171686 -0.069279 0.229475
-0.145895 -0.071442 0.139717
-0.178910 -0.065958 0.256520
-0.151998 -0.068637 0.149694
-0.153141 -0.065608 0.152348
-0.166679 -0.067622 0.203863
-0.148137 -0.070921 0.143341
-0.168689 -0.062036 0.244836
-0.153700 -0.061529 0.161839
-0.150135 -0.064719 0.142538
-0.137535 -0.071404 0.120989
-0.141796 -0.062445 0.139450
-0.149994 -0.061631 0.171729
