ply
format ascii 1.0
element vertex 256
property float x
property float y
property float z
end_header
-0.013151 -0.168634 -0.253616
-0.004204 -0.172937 -0.262198
0.135956 -0.187818 -0.254054
0.040267 -0.180377 -0.255659
-0.001961 -0.174947 -0.261325
0.073781 -0.182875 -0.255209
0.151827 -0.188399 -0.252232
-0.004815 -0.169699 -0.261792
0.112884 -0.179975 -0.250284
0.103646 -0.175397 -0.255271
0.161440 -0.187966 -0.258851
-0.131812 -0.163758 -0.258017
-0.135923 -0.157056 -0.263210
0.044396 -0.174425 -0.250530
0.163941 -0.182392 -0.250783
0.125732 -0.181983 -0.260054
-0.045019 -0.170141 -0.254636
-0.034424 -0.174688 -0.259459
0.045752 -0.180341 -0.253267
0.134289 -0.180591 -0.250348
0.177727 -0.189915 -0.250403
0.181610 -0.181693 -0.253046
0.140045 -0.185034 -0.259403
0.116944 -0.184402 -0.259308
-0.014144 -0.172952 -0.262510
-0.124388 -0.157996 -0.261916
-0.141560 -0.166483 -0.262068
-0.152450 -0.159965 -0.260855
0.105274 -0.180602 -0.249806
0.184696 -0.181784 -0.254988
-0.007039 -0.168544 -0.253717
0.027550 -0.171913 -0.260208
0.175997 -0.186796 -0.241779
0.097862 -0.175461 -0.256805
0.014198 -0.168392 -0.256264
-0.099196 -0.167477 -0.257578
0.000135 -0.168492 -0.253953
-0.106540 -0.168416 -0.259256
0.083407 -0.175265 -0.250575
0.049688 -0.179186 -0.251299
-0.095429 -0.166841 -0.266376
0.010799 -0.175594 -0.260873
0.181713 -0.182602 -0.255914
0.176876 -0.190906 -0.253163
0.061852 -0.172596 -0.252597
-0.109274 -0.169016 -0.262717
-0.025265 -0.173136 -0.262602
-0.005790 -0.172418 -0.252459
-0.100950 -0.169371 -0.260112
0.156333 -0.186253 -0.250245
0.180570 -0.184414 -0.249951
-0.116018 -0.159678 -0.265438
0.053559 -0.172620 -0.251871
-0.119981 -0.158492 -0.260983
-0.115051 -0.161752 -0.257719
0.134901 -0.180315 -0.250464
0.076071 -0.178871 -0.259315
-0.150386 -0.157156 -0.260127
0.043691 -0.172664 -0.251423
0.182521 -0.188018 -0.259284
-0.063284 -0.167247 -0.265451
0.130815 -0.184549 -0.259433
-0.152812 -0.165317 -0.262481
0.017112 -0.169090 -0.254138
-0.063857 -0.169154 -0.265220
0.176190 -0.183737 -0.243032
0.027356 -0.169666 -0.257452
-0.109695 -0.168528 -0.264303
-0.097235 -0.169972 -0.262109
0.122089 -0.180479 -0.250372
0.032063 -0.178635 -0.252617
0.141813 -0.179954 -0.258437
-0.147991 -0.157095 -0.260375
0.002326 -0.177360 -0.258144
-0.080376 -0.161948 -0.258786
-0.020916 -0.167851 -0.254180
0.178483 -0.183799 -0.250203
0.175836 -0.184839 -0.240251
0.177586 -0.181267 -0.253769
0.022059 -0.169046 -0.255508
0.186734 -0.190445 -0.250793
0.072402 -0.173852 -0.257476
0.182715 -0.183405 -0.258267
-0.069688 -0.169910 -0.264935
-0.019360 -0.173390 -0.253773
-0.048257 -0.163777 -0.260279
-0.000002 -0.167789 -0.255083
0.048865 -0.176960 -0.250343
0.104062 -0.177344 -0.250789
0.020685 -0.172040 -0.260683
0.006086 -0.169068 -0.260106
0.169406 -0.189920 -0.252393
0.144773 -0.179675 -0.257863
0.180045 -0.185514 -0.257018
-0.031619 -0.174957 -0.258631
0.160775 -0.186629 -0.259564
-0.057844 -0.163489 -0.258101
0.051311 -0.179179 -0.251150
0.174081 -0.190310 -0.252329
-0.109145 -0.163238 -0.267018
0.185340 -0.184303 -0.260231
-0.132456 -0.166583 -0.260236
0.087000 -0.180391 -0.249298
-0.030217 -0.169939 -0.253697
-0.019671 -0.168016 -0.254059
-0.081069 -0.161684 -0.263269
0.028469 -0.177040 -0.251540
0.106806 -0.176620 -0.257827
0.141542 -0.188072 -0.253232
0.137264 -0.186838 -0.251612
0.078106 -0.179799 -0.259092
0.095755 -0.177768 -0.249768
0.112390 -0.177826 -0.258889
0.167470 -0.188393 -0.250922
-0.019525 -0.173520 -0.262335
-0.011151 -0.171623 -0.252692
0.070969 -0.181954 -0.257227
0.184297 -0.183187 -0.257960
0.182044 -0.182544 -0.252614
0.066160 -0.179716 -0.259104
-0.035912 -0.170516 -0.263885
-0.116308 -0.165955 -0.257965
-0.071760 -0.165748 -0.265802
-0.098095 -0.160119 -0.260450
-0.086884 -0.170282 -0.259286
-0.069640 -0.163377 -0.257555
-0.142669 -0.165473 -0.266130
-0.119772 -0.158651 -0.260630
-0.145442 -0.157590 -0.266543
0.106028 -0.180561 -0.249827
0.183231 -0.190999 -0.255794
0.113495 -0.186053 -0.254315
0.121976 -0.185815 -0.252216
-0.121572 -0.166129 -0.266454
0.152795 -0.184846 -0.259790
0.079842 -0.175829 -0.250039
0.163002 -0.187336 -0.259360
0.158203 -0.186257 -0.250198
-0.030404 -0.169568 -0.253755
0.157273 -0.188943 -0.252419
0.128579 -0.178051 -0.252408
0.164079 -0.189636 -0.257065
0.147529 -0.185687 -0.259429
-0.064492 -0.164538 -0.256575
-0.085250 -0.166954 -0.266273
-0.141790 -0.161806 -0.268080
0.175255 -0.190311 -0.252108
-0.104361 -0.167210 -0.257832
-0.152275 -0.158064 -0.261835
-0.148009 -0.165475 -0.260839
0.180030 -0.184427 -0.243869
0.092325 -0.175990 -0.250540
0.125528 -0.187042 -0.254547
0.011840 -0.177914 -0.258098
0.102788 -0.185195 -0.254021
0.058671 -0.179913 -0.251058
-0.067520 -0.166667 -0.255792
-0.027045 -0.174338 -0.261404
0.148415 -0.184083 -0.259815
0.175931 -0.185309 -0.246444
-0.036821 -0.174487 -0.258296
-0.055912 -0.168584 -0.265033
-0.114785 -0.160261 -0.258652
0.180493 -0.181500 -0.253612
-0.061430 -0.163845 -0.263504
-0.024020 -0.166138 -0.260767
0.072778 -0.175602 -0.258941
-0.072083 -0.166377 -0.256033
0.125402 -0.183682 -0.250367
0.015248 -0.175937 -0.260635
-0.004308 -0.175576 -0.260815
0.065782 -0.181441 -0.257532
-0.152640 -0.162958 -0.262185
0.084654 -0.178121 -0.249241
-0.056140 -0.173022 -0.259203
0.181668 -0.186171 -0.252334
0.176240 -0.187687 -0.248829
0.166437 -0.181938 -0.251262
-0.019090 -0.173470 -0.262376
-0.132588 -0.162065 -0.257858
0.036906 -0.180021 -0.254645
0.006156 -0.177791 -0.256652
-0.099019 -0.161603 -0.265582
0.054171 -0.176312 -0.250085
-0.054040 -0.163328 -0.260474
-0.055830 -0.167980 -0.255096
0.168426 -0.189026 -0.258375
-0.022693 -0.173261 -0.254041
-0.128045 -0.167365 -0.261102
0.176039 -0.187024 -0.248811
0.125847 -0.181736 -0.250114
0.179834 -0.181282 -0.247416
0.075064 -0.182948 -0.253490
0.128866 -0.179805 -0.250679
-0.097543 -0.160856 -0.264571
0.058202 -0.178634 -0.259538
0.188437 -0.184855 -0.250156
-0.094087 -0.169672 -0.263963
-0.119221 -0.160931 -0.266816
-0.121864 -0.166583 -0.266096
-0.054892 -0.166879 -0.255215
0.101140 -0.176359 -0.251341
-0.009434 -0.176470 -0.256319
0.000099 -0.175232 -0.261116
0.152292 -0.179318 -0.255911
-0.059001 -0.172761 -0.261464
0.091459 -0.174878 -0.251897
0.117451 -0.177068 -0.252985
0.135646 -0.179363 -0.258344
0.170471 -0.189139 -0.251226
-0.123927 -0.166483 -0.266114
0.183034 -0.188919 -0.259372
-0.119456 -0.166911 -0.258976
-0.017074 -0.171578 -0.262929
0.057739 -0.175296 -0.259741
0.057303 -0.174349 -0.259379
-0.148589 -0.157729 -0.259620
0.119163 -0.181144 -0.260209
-0.006448 -0.173514 -0.252745
0.074315 -0.182485 -0.252295
0.110276 -0.176030 -0.253788
0.073630 -0.173304 -0.256273
0.174485 -0.182537 -0.258334
0.087489 -0.174119 -0.253148
0.015309 -0.173098 -0.251332
0.149908 -0.179067 -0.255433
0.006389 -0.175512 -0.260932
0.180354 -0.186563 -0.244146
0.156116 -0.186561 -0.259408
0.177535 -0.191076 -0.253754
-0.011467 -0.173286 -0.253070
-0.019766 -0.166262 -0.260073
-0.112928 -0.160462 -0.265943
0.098649 -0.175329 -0.252573
0.159610 -0.184995 -0.259887
-0.123283 -0.166221 -0.258754
-0.125237 -0.167438 -0.260674
0.161863 -0.183355 -0.250225
0.073587 -0.177851 -0.249496
0.148669 -0.187489 -0.258334
0.010190 -0.177497 -0.254187
0.122928 -0.185123 -0.251364
-0.067221 -0.162943 -0.258235
-0.140868 -0.163521 -0.258477
-0.027536 -0.174845 -0.256598
0.009739 -0.178038 -0.256822
-0.031992 -0.174752 -0.257417
0.040548 -0.178007 -0.251209
-0.083025 -0.170129 -0.258431
-0.052085 -0.172737 -0.262405
0.096357 -0.179174 -0.259311
0.185986 -0.186380 -0.255901
-0.012959 -0.170864 -0.262721
0.178617 -0.182490 -0.251305
0.039775 -0.172067 -0.259246
-0.152589 -0.164125 -0.266866
