ply
format ascii 1.0
element vertex 256
property float x
property float y
property float z
end_header
-0.101765 0.168253 -0.256200
0.091421 0.183195 -0.242670
0.104687 0.183430 -0.249504
-0.043810 0.179405 -0.253098
0.122596 0.184870 -0.242252
0.126780 0.181438 -0.249444
0.087963 0.182273 -0.250194
0.037692 0.172570 -0.248071
-0.031725 0.175539 -0.256550
0.154707 0.178872 -0.235070
-0.095588 0.174496 -0.248751
-0.095620 0.168560 -0.250519
0.030592 0.182290 -0.248261
0.021112 0.181845 -0.247933
0.006129 0.178985 -0.253838
0.123480 0.179283 -0.240084
0.139922 0.177828 -0.239365
0.161994 0.186453 -0.240904
-0.030439 0.170852 -0.254272
-0.079171 0.172070 -0.248187
0.010159 0.171868 -0.247671
0.006101 0.172419 -0.252563
-0.039488 0.170291 -0.254153
-0.144634 0.175683 -0.251522
-0.054779 0.176689 -0.248004
-0.058396 0.178976 -0.252700
0.049450 0.179674 -0.242779
0.009124 0.178291 -0.254035
-0.109515 0.169362 -0.257749
-0.017896 0.173854 -0.246261
-0.053598 0.178090 -0.249205
-0.042167 0.174205 -0.246982
0.124365 0.185364 -0.242913
0.156583 0.177242 -0.240451
-0.078141 0.178199 -0.253658
-0.153140 0.173386 -0.256439
-0.083300 0.176977 -0.256196
0.140284 0.180441 -0.247818
0.153334 0.186570 -0.241233
-0.142202 0.171275 -0.253792
-0.104346 0.177172 -0.254622
0.111113 0.175627 -0.247572
0.040030 0.175328 -0.243427
-0.087676 0.168178 -0.254691
-0.095405 0.169996 -0.249130
0.036475 0.181444 -0.250996
0.009655 0.173896 -0.253624
0.113255 0.183243 -0.241761
0.007439 0.181317 -0.250448
0.126867 0.177847 -0.248471
-0.060012 0.171827 -0.247976
0.140421 0.186264 -0.243501
-0.124406 0.169758 -0.258100
0.103275 0.175762 -0.248534
-0.150848 0.175042 -0.254767
-0.014396 0.173018 -0.246504
-0.002037 0.172560 -0.253598
-0.017703 0.179608 -0.248113
0.130218 0.182219 -0.239212
0.082033 0.183507 -0.248811
0.111810 0.175691 -0.243946
0.009945 0.177456 -0.254244
0.117928 0.176003 -0.247634
0.040215 0.173680 -0.244856
-0.020708 0.170678 -0.249556
-0.044291 0.171180 -0.255678
0.101801 0.181911 -0.241348
-0.061398 0.177930 -0.249603
-0.122171 0.172711 -0.248675
-0.149907 0.174600 -0.255573
0.133120 0.176164 -0.244470
0.073128 0.175165 -0.243191
-0.125473 0.172430 -0.248580
0.094677 0.181621 -0.241416
0.104102 0.183290 -0.242139
0.140097 0.179082 -0.247395
0.004809 0.179134 -0.253761
-0.083928 0.175682 -0.257370
0.090627 0.174605 -0.245318
-0.063039 0.178685 -0.253746
0.162312 0.177636 -0.240333
0.127415 0.176461 -0.246780
0.005405 0.176317 -0.244617
0.050139 0.179264 -0.242585
0.147956 0.183563 -0.236769
-0.115042 0.167632 -0.251132
0.050884 0.176447 -0.242689
0.095520 0.175480 -0.248617
-0.140912 0.174205 -0.256001
0.105484 0.183559 -0.242294
-0.028516 0.171642 -0.255115
0.140907 0.183544 -0.238322
-0.054132 0.176577 -0.247914
-0.118392 0.173565 -0.248988
-0.135589 0.170627 -0.247710
-0.003540 0.173452 -0.254409
0.001887 0.181074 -0.251052
0.005789 0.174616 -0.254244
-0.062946 0.170638 -0.248761
-0.077280 0.177742 -0.250701
-0.075566 0.171697 -0.248256
0.087896 0.184262 -0.245007
0.038308 0.181518 -0.244885
-0.005622 0.171566 -0.252619
0.046724 0.178611 -0.242654
-0.033091 0.179693 -0.253155
-0.038191 0.171018 -0.248542
0.103017 0.184495 -0.243851
-0.116110 0.174909 -0.249748
-0.103296 0.167466 -0.254379
-0.024573 0.177733 -0.246974
0.002961 0.177149 -0.254649
0.066455 0.178711 -0.241774
-0.115228 0.167991 -0.250653
0.019479 0.180220 -0.252506
-0.132463 0.174024 -0.257315
0.053336 0.179654 -0.242555
-0.135090 0.166687 -0.250595
0.010915 0.180684 -0.252083
-0.114856 0.172219 -0.258664
0.002676 0.180805 -0.251767
0.045523 0.182756 -0.248303
0.032651 0.175114 -0.243701
0.142664 0.181512 -0.237594
-0.062722 0.178735 -0.251625
0.036472 0.178292 -0.243077
0.133886 0.176619 -0.241524
-0.047654 0.178178 -0.248856
-0.093352 0.173070 -0.248352
-0.129461 0.167039 -0.255835
0.024410 0.178266 -0.243683
0.009508 0.176196 -0.244419
0.041656 0.181476 -0.244534
0.157329 0.186409 -0.236439
0.002892 0.178972 -0.245572
0.000695 0.174994 -0.254740
0.147874 0.182509 -0.236471
0.012305 0.180454 -0.252370
0.047361 0.178464 -0.252469
-0.110066 0.174727 -0.257862
-0.131065 0.176304 -0.253136
-0.038216 0.176422 -0.247133
-0.115007 0.176802 -0.252773
-0.026893 0.174177 -0.246585
-0.071779 0.178418 -0.253582
-0.067661 0.176545 -0.256732
0.136938 0.186151 -0.242755
0.062417 0.174580 -0.250018
-0.106999 0.169985 -0.258012
0.038594 0.180055 -0.243542
0.035534 0.182245 -0.249459
-0.146342 0.169401 -0.257620
-0.035318 0.177465 -0.255978
-0.098526 0.169887 -0.257630
-0.087625 0.170763 -0.257667
-0.034551 0.174255 -0.246786
0.062926 0.180460 -0.251458
-0.126675 0.166913 -0.251518
-0.066618 0.177359 -0.256044
0.064355 0.176594 -0.242290
0.074444 0.174896 -0.249401
0.020756 0.180536 -0.252188
0.100021 0.183936 -0.248734
-0.150635 0.167694 -0.256558
-0.155455 0.167925 -0.247280
0.074216 0.179884 -0.251360
0.062093 0.175940 -0.251270
-0.019920 0.178877 -0.247444
-0.055208 0.178928 -0.253689
-0.127128 0.171689 -0.248452
-0.149334 0.169210 -0.248780
0.140409 0.185433 -0.240029
-0.053881 0.179110 -0.252814
-0.140139 0.168521 -0.256522
-0.151918 0.167348 -0.256247
-0.148349 0.167268 -0.249042
-0.056558 0.169583 -0.250257
-0.151680 0.175361 -0.251100
0.137850 0.185769 -0.241101
0.085534 0.184028 -0.244602
-0.130170 0.172024 -0.258271
-0.028878 0.180064 -0.251229
-0.037397 0.169842 -0.251342
0.080020 0.178321 -0.241446
0.011189 0.175182 -0.244496
0.087846 0.183223 -0.249314
-0.102178 0.167687 -0.255074
-0.129068 0.167301 -0.250573
0.043442 0.179853 -0.243188
-0.121442 0.176568 -0.254457
-0.061553 0.178599 -0.254107
0.032558 0.172580 -0.249554
0.011775 0.181512 -0.248556
0.094196 0.184483 -0.247198
0.146784 0.180604 -0.247041
0.072668 0.183149 -0.243984
-0.043116 0.171177 -0.248318
-0.080215 0.168240 -0.252776
0.102838 0.178988 -0.250754
-0.018474 0.172066 -0.254620
-0.067149 0.173870 -0.257653
-0.147456 0.170520 -0.257723
0.120466 0.175696 -0.245945
-0.128570 0.169859 -0.248671
-0.039566 0.175312 -0.246930
0.048313 0.182547 -0.245635
-0.122639 0.175638 -0.250593
-0.153263 0.165525 -0.251222
-0.012753 0.172623 -0.246761
0.069721 0.176095 -0.250864
0.130009 0.183066 -0.248627
0.145934 0.182134 -0.247186
0.080659 0.174629 -0.248399
0.019091 0.172144 -0.250405
0.067554 0.174393 -0.249320
0.136183 0.177752 -0.239758
-0.048979 0.179132 -0.253567
0.015916 0.181021 -0.251598
0.060107 0.180954 -0.242739
-0.028223 0.175925 -0.256411
-0.092079 0.171839 -0.258162
0.093927 0.180501 -0.250878
0.144821 0.177679 -0.245561
0.063022 0.177435 -0.251772
0.065134 0.179278 -0.241908
-0.126314 0.167214 -0.255997
0.015686 0.180383 -0.245616
-0.015754 0.177158 -0.246100
-0.123952 0.176136 -0.255488
0.132724 0.183446 -0.239371
0.030453 0.182113 -0.249530
0.133879 0.186023 -0.242990
0.067328 0.181694 -0.242810
0.155178 0.185080 -0.235117
-0.055188 0.178472 -0.254790
0.075646 0.175496 -0.250052
0.067885 0.183074 -0.244373
0.070603 0.181335 -0.250878
-0.023085 0.176689 -0.246435
-0.034930 0.174774 -0.256704
-0.153865 0.165616 -0.250406
-0.110677 0.167726 -0.251194
-0.044897 0.169674 -0.253298
0.005793 0.177125 -0.254505
0.001861 0.179252 -0.253754
0.012486 0.174826 -0.244590
-0.099595 0.174451 -0.248870
-0.106949 0.176632 -0.251256
0.016642 0.171853 -0.249581
-0.076503 0.177238 -0.256021
0.149466 0.184025 -0.236404
-0.070818 0.178200 -0.251038
-0.149503 0.170209 -0.257562
0.116799 0.179703 -0.250604
-0.152112 0.167183 -0.247567
-0.076788 0.177895 -0.254905
